G04*
G04 #@! TF.GenerationSoftware,Altium Limited,Altium Designer,19.1.8 (144)*
G04*
G04 Layer_Physical_Order=1*
G04 Layer_Color=255*
%FSLAX25Y25*%
%MOIN*%
G70*
G01*
G75*
%ADD12C,0.00984*%
%ADD32R,0.04900X0.02600*%
%ADD40C,0.05118*%
%ADD47R,0.03150X0.02559*%
%ADD48R,0.02638X0.01181*%
%ADD49R,0.02362X0.03937*%
%ADD50O,0.02362X0.05709*%
%ADD51O,0.05906X0.01772*%
%ADD52R,0.04724X0.14567*%
%ADD53R,0.03268X0.02461*%
%ADD54R,0.03740X0.03347*%
%ADD55R,0.02953X0.02362*%
%ADD56R,0.11811X0.13780*%
%ADD57R,0.02362X0.05512*%
%ADD58R,0.03937X0.02756*%
%ADD59R,0.02756X0.06299*%
%ADD60O,0.01575X0.05315*%
%ADD61R,0.07480X0.07087*%
G04:AMPARAMS|DCode=62|XSize=62.99mil|YSize=55.12mil|CornerRadius=13.78mil|HoleSize=0mil|Usage=FLASHONLY|Rotation=180.000|XOffset=0mil|YOffset=0mil|HoleType=Round|Shape=RoundedRectangle|*
%AMROUNDEDRECTD62*
21,1,0.06299,0.02756,0,0,180.0*
21,1,0.03543,0.05512,0,0,180.0*
1,1,0.02756,-0.01772,0.01378*
1,1,0.02756,0.01772,0.01378*
1,1,0.02756,0.01772,-0.01378*
1,1,0.02756,-0.01772,-0.01378*
%
%ADD62ROUNDEDRECTD62*%
%ADD63R,0.05118X0.07087*%
%ADD64R,0.05118X0.05512*%
%ADD65R,0.03937X0.03543*%
%ADD66R,0.02362X0.02520*%
%ADD67R,0.05512X0.05118*%
%ADD68R,0.07087X0.05118*%
%ADD69R,0.03347X0.03740*%
%ADD70C,0.04724*%
%ADD71C,0.01181*%
%ADD72C,0.01968*%
%ADD73R,0.05906X0.05906*%
%ADD74C,0.05906*%
%ADD75R,0.05906X0.05906*%
%ADD76O,0.03543X0.06299*%
%ADD77C,0.02756*%
G36*
X67468Y153061D02*
X67180Y152685D01*
X66761Y151675D01*
X66619Y150591D01*
X66761Y149506D01*
X67180Y148496D01*
X67812Y147672D01*
Y142438D01*
X67812Y142437D01*
X67982Y141585D01*
X68465Y140863D01*
X68639Y140688D01*
Y137716D01*
X68032D01*
Y132855D01*
X73700D01*
Y133607D01*
X74200Y133640D01*
X74260Y133185D01*
X74520Y132558D01*
X74933Y132019D01*
X75471Y131606D01*
X76099Y131346D01*
X76771Y131258D01*
X77444Y131346D01*
X78072Y131606D01*
X78610Y132019D01*
X79023Y132558D01*
X79157Y132881D01*
X81614Y135338D01*
X81614Y135338D01*
X82097Y136061D01*
X82266Y136913D01*
X82266Y136913D01*
Y146395D01*
X86479D01*
X95257Y137617D01*
Y132461D01*
X102328D01*
Y129987D01*
X101828Y129741D01*
X101403Y130067D01*
X100441Y130465D01*
X99909Y130535D01*
Y126614D01*
Y122693D01*
X100441Y122763D01*
X101403Y123161D01*
X101828Y123488D01*
X102328Y123241D01*
Y120174D01*
X101880Y119953D01*
X101504Y120242D01*
X100494Y120660D01*
X99410Y120803D01*
X98325Y120660D01*
X97315Y120242D01*
X96448Y119576D01*
X95782Y118709D01*
X95364Y117698D01*
X95221Y116614D01*
X95364Y115530D01*
X95782Y114520D01*
X96448Y113652D01*
X97315Y112987D01*
X98325Y112568D01*
X99410Y112426D01*
X100494Y112568D01*
X101504Y112987D01*
X101880Y113275D01*
X102328Y113054D01*
Y110174D01*
X101880Y109953D01*
X101504Y110242D01*
X100494Y110660D01*
X99410Y110803D01*
X98325Y110660D01*
X97315Y110242D01*
X96448Y109576D01*
X95782Y108709D01*
X95364Y107698D01*
X95221Y106614D01*
X95364Y105530D01*
X95782Y104520D01*
X96448Y103652D01*
X97315Y102987D01*
X98325Y102568D01*
X99410Y102426D01*
X100494Y102568D01*
X101504Y102987D01*
X101880Y103275D01*
X102328Y103054D01*
Y100174D01*
X101880Y99953D01*
X101504Y100242D01*
X100494Y100660D01*
X99410Y100803D01*
X98325Y100660D01*
X97315Y100242D01*
X96448Y99576D01*
X95782Y98708D01*
X95364Y97698D01*
X95221Y96614D01*
X95364Y95530D01*
X95782Y94520D01*
X96448Y93652D01*
X97315Y92987D01*
X98325Y92568D01*
X99410Y92426D01*
X100494Y92568D01*
X101504Y92987D01*
X101880Y93275D01*
X102328Y93054D01*
Y90174D01*
X101880Y89953D01*
X101504Y90242D01*
X100494Y90660D01*
X99410Y90803D01*
X98325Y90660D01*
X97315Y90242D01*
X96448Y89576D01*
X95884Y88841D01*
X92263D01*
X91143Y89961D01*
X90668Y90278D01*
Y96377D01*
X89825D01*
Y97503D01*
X92126Y99803D01*
X92126Y99803D01*
X92609Y100526D01*
X92778Y101378D01*
Y115945D01*
X92778Y115945D01*
X92609Y116797D01*
X92126Y117520D01*
X92126Y117520D01*
X87401Y122244D01*
X86679Y122727D01*
X85827Y122896D01*
X85827Y122896D01*
X84369D01*
Y123542D01*
X78990D01*
X78957Y124042D01*
X79413Y124103D01*
X80040Y124362D01*
X80579Y124776D01*
X80992Y125314D01*
X81252Y125941D01*
X81340Y126614D01*
X81252Y127287D01*
X80992Y127914D01*
X80579Y128453D01*
X80040Y128866D01*
X79413Y129126D01*
X78740Y129214D01*
X78067Y129126D01*
X77440Y128866D01*
X77408Y128841D01*
X73700D01*
Y128956D01*
X68716D01*
Y129173D01*
X68577Y129872D01*
X68181Y130464D01*
X67589Y130860D01*
X66890Y130999D01*
X66700D01*
Y132046D01*
X65455D01*
Y132816D01*
X65981Y133034D01*
X66519Y133447D01*
X66932Y133985D01*
X67192Y134612D01*
X67281Y135285D01*
X67192Y135958D01*
X66932Y136585D01*
X66519Y137124D01*
X65981Y137537D01*
X65353Y137797D01*
X64680Y137886D01*
X64008Y137797D01*
X63380Y137537D01*
X63019Y137260D01*
X62519Y137489D01*
Y139684D01*
X57427D01*
X57399Y139715D01*
X57205Y140184D01*
X57589Y140758D01*
X57604Y140836D01*
X62192D01*
X62676Y140465D01*
X63303Y140205D01*
X63976Y140116D01*
X64649Y140205D01*
X65276Y140465D01*
X65815Y140878D01*
X66228Y141416D01*
X66488Y142044D01*
X66577Y142717D01*
X66488Y143389D01*
X66228Y144017D01*
X65815Y144555D01*
X65276Y144968D01*
X64649Y145228D01*
X63976Y145317D01*
X63688Y145279D01*
X63630Y145291D01*
X63630Y145290D01*
X57604D01*
X57589Y145368D01*
X57106Y146091D01*
X57106Y146091D01*
X55744Y147453D01*
X55021Y147936D01*
X54169Y148106D01*
X54169Y148106D01*
X47217D01*
X46999Y148606D01*
X47372Y149506D01*
X47515Y150591D01*
X47372Y151675D01*
X46954Y152685D01*
X46665Y153061D01*
X46887Y153509D01*
X57247D01*
X57468Y153061D01*
X57180Y152685D01*
X56761Y151675D01*
X56618Y150591D01*
X56761Y149506D01*
X57180Y148496D01*
X57845Y147629D01*
X58713Y146963D01*
X59723Y146545D01*
X60807Y146402D01*
X61891Y146545D01*
X62901Y146963D01*
X63769Y147629D01*
X64434Y148496D01*
X64853Y149506D01*
X64996Y150591D01*
X64853Y151675D01*
X64434Y152685D01*
X64146Y153061D01*
X64367Y153509D01*
X67247D01*
X67468Y153061D01*
D02*
G37*
G36*
X36556Y133839D02*
X38806D01*
Y132597D01*
X38922Y132015D01*
X38803Y131759D01*
X38618Y131515D01*
X32018D01*
Y114582D01*
X29823D01*
X29823Y114582D01*
X28970Y114413D01*
X28248Y113930D01*
X28248Y113930D01*
X25000Y110682D01*
X24517Y109960D01*
X24497Y109858D01*
X22350D01*
Y105315D01*
Y100772D01*
X24348D01*
Y98650D01*
X23327Y98650D01*
X23327Y98650D01*
X23326Y98650D01*
X23182Y98622D01*
X23015Y98588D01*
X23014Y98588D01*
X23014Y98588D01*
X22894Y98507D01*
X22750Y98412D01*
X22750Y98411D01*
X22750Y98411D01*
X22258Y97919D01*
X22258Y97919D01*
X22258Y97919D01*
X22258Y97919D01*
X22184Y97808D01*
X22081Y97655D01*
X22081Y97655D01*
X22081Y97654D01*
X22047Y97483D01*
X22019Y97342D01*
Y97342D01*
X22019Y97342D01*
X22019Y97342D01*
Y87811D01*
X21169D01*
Y84555D01*
X22850D01*
Y85973D01*
X23312Y86164D01*
X24194Y85283D01*
Y80099D01*
X28956D01*
Y85283D01*
X29637Y85964D01*
X30099Y85773D01*
Y80099D01*
X32280D01*
X33847Y78532D01*
X33847Y78532D01*
X34439Y78136D01*
X35138Y77997D01*
X38838D01*
X39074Y77643D01*
X39091Y77497D01*
X39008Y76863D01*
X39070Y76395D01*
X38845Y76059D01*
X38706Y75361D01*
X38706Y75360D01*
Y73010D01*
X38289Y72386D01*
X38286Y72375D01*
X37777D01*
X37774Y72386D01*
X37248Y73173D01*
X36461Y73700D01*
X35531Y73884D01*
X34602Y73700D01*
X33815Y73173D01*
X33288Y72386D01*
X33286Y72375D01*
X32777D01*
X32774Y72386D01*
X32248Y73173D01*
X31461Y73700D01*
X30531Y73884D01*
X29602Y73700D01*
X28815Y73173D01*
X28288Y72386D01*
X28104Y71457D01*
Y68110D01*
X28288Y67181D01*
X28815Y66394D01*
X28952Y66302D01*
X28800Y65802D01*
X25609D01*
Y66357D01*
X15729D01*
X15605Y66806D01*
Y66954D01*
X15729Y67402D01*
X25609D01*
Y72165D01*
X25609Y72165D01*
X25752Y72605D01*
X25976Y73146D01*
X26065Y73819D01*
X25976Y74492D01*
X25716Y75119D01*
X25303Y75657D01*
X24765Y76071D01*
X24137Y76331D01*
X23465Y76419D01*
X22792Y76331D01*
X22164Y76071D01*
X21626Y75657D01*
X21213Y75119D01*
X20953Y74492D01*
X20864Y73819D01*
X20953Y73146D01*
X21150Y72670D01*
X21107Y72455D01*
X20746Y72165D01*
X20158D01*
X20092Y72497D01*
X19696Y73089D01*
X19696Y73089D01*
X9739Y83047D01*
X9763Y83585D01*
X9851Y83652D01*
X10517Y84520D01*
X10936Y85530D01*
X11078Y86614D01*
X10936Y87698D01*
X10517Y88709D01*
X9851Y89576D01*
X8984Y90242D01*
X7974Y90660D01*
X6890Y90803D01*
X5806Y90660D01*
X4795Y90242D01*
X4419Y89953D01*
X3971Y90174D01*
Y93054D01*
X4419Y93275D01*
X4795Y92987D01*
X5806Y92568D01*
X6890Y92426D01*
X7974Y92568D01*
X8984Y92987D01*
X9851Y93652D01*
X10517Y94520D01*
X10936Y95530D01*
X11078Y96614D01*
X10936Y97698D01*
X10517Y98708D01*
X9851Y99576D01*
X8984Y100242D01*
X7974Y100660D01*
X6890Y100803D01*
X5806Y100660D01*
X4795Y100242D01*
X4419Y99953D01*
X3971Y100174D01*
Y103054D01*
X4419Y103275D01*
X4795Y102987D01*
X5806Y102568D01*
X6890Y102426D01*
X7974Y102568D01*
X8984Y102987D01*
X9851Y103652D01*
X10517Y104520D01*
X10936Y105530D01*
X11078Y106614D01*
X10936Y107698D01*
X10824Y107967D01*
X13102Y110245D01*
X13102Y110245D01*
X13498Y110837D01*
X13637Y111535D01*
Y116467D01*
X20688D01*
X20995Y116094D01*
Y114548D01*
X28119D01*
Y131515D01*
X26784D01*
Y133839D01*
X34291D01*
Y135568D01*
X36556D01*
Y133839D01*
D02*
G37*
G36*
X67390Y112858D02*
X69430D01*
Y112658D01*
X71363D01*
Y107785D01*
X71363Y107785D01*
X71502Y107087D01*
X71898Y106494D01*
X72070Y106323D01*
X71878Y105861D01*
X70866D01*
X70167Y105722D01*
X69575Y105326D01*
X69575Y105326D01*
X64500Y100251D01*
X62777D01*
X62514Y100751D01*
X62658Y101476D01*
X62496Y102290D01*
X62065Y102936D01*
X62308Y103300D01*
X62355Y103535D01*
X60873D01*
X60532Y103603D01*
X58465D01*
Y104468D01*
X60532D01*
X60873Y104535D01*
X62355D01*
X62308Y104771D01*
X62065Y105135D01*
X62496Y105781D01*
X62658Y106595D01*
X62496Y107408D01*
X62185Y107874D01*
X62496Y108340D01*
X62658Y109153D01*
X62496Y109967D01*
X62035Y110657D01*
X61345Y111118D01*
X60532Y111280D01*
X59771D01*
X59580Y111742D01*
X62869Y115031D01*
X63331Y114840D01*
Y112858D01*
X66390D01*
Y116614D01*
X67390D01*
Y112858D01*
D02*
G37*
G36*
X30315Y97342D02*
Y87795D01*
X27756Y85236D01*
X25394D01*
X22835Y87795D01*
Y97342D01*
X23327Y97835D01*
X29823Y97835D01*
X30315Y97342D01*
D02*
G37*
G36*
X36482Y98102D02*
X36482Y98102D01*
X36651Y97250D01*
X37134Y96527D01*
X37580Y96082D01*
Y91713D01*
X47066D01*
Y92011D01*
X47740D01*
X47773Y91986D01*
X48400Y91726D01*
X49073Y91638D01*
X49253Y91480D01*
Y86597D01*
X49453D01*
Y84852D01*
X52323D01*
X55193D01*
Y86597D01*
X55393D01*
Y87419D01*
X56106Y87895D01*
X56633Y88423D01*
X57855D01*
Y87481D01*
X70098D01*
Y88423D01*
X72658D01*
Y84627D01*
X72858D01*
Y82587D01*
X76614D01*
X80370D01*
Y84627D01*
X80570D01*
Y92145D01*
X79482D01*
X79275Y92645D01*
X79717Y93087D01*
X80040Y93221D01*
X80579Y93634D01*
X80992Y94172D01*
X81252Y94800D01*
X81340Y95472D01*
X81283Y95908D01*
X81634Y96408D01*
X81707D01*
X81767Y96368D01*
X82619Y96198D01*
X82619Y96198D01*
X84528D01*
Y90631D01*
Y85513D01*
X85371D01*
Y84172D01*
X84528D01*
Y78426D01*
X84728D01*
Y76681D01*
X87598D01*
X90469D01*
Y78426D01*
X90668D01*
Y83638D01*
X91168Y83982D01*
X91277Y83941D01*
Y72351D01*
X90936Y72010D01*
X87598D01*
X86746Y71841D01*
X86024Y71358D01*
X85541Y70636D01*
X85371Y69784D01*
X85541Y68931D01*
X86024Y68209D01*
X86746Y67726D01*
X87598Y67556D01*
X91859D01*
X91859Y67556D01*
X92711Y67726D01*
X93433Y68209D01*
X95079Y69854D01*
X95079Y69854D01*
X95561Y70577D01*
X95731Y71429D01*
Y73765D01*
X96231Y73935D01*
X96448Y73652D01*
X97315Y72987D01*
X98325Y72568D01*
X99410Y72426D01*
X100494Y72568D01*
X101504Y72987D01*
X101880Y73275D01*
X102328Y73054D01*
Y70174D01*
X101880Y69953D01*
X101504Y70242D01*
X100494Y70660D01*
X99410Y70803D01*
X98325Y70660D01*
X97315Y70242D01*
X96448Y69576D01*
X95782Y68708D01*
X95364Y67698D01*
X95221Y66614D01*
X95364Y65530D01*
X95782Y64520D01*
X96448Y63652D01*
X97315Y62987D01*
X98325Y62568D01*
X99410Y62426D01*
X100494Y62568D01*
X101504Y62987D01*
X101880Y63275D01*
X102328Y63054D01*
Y60055D01*
X98925D01*
Y52165D01*
Y44276D01*
X102328D01*
Y3971D01*
X69035D01*
X68757Y4387D01*
X68842Y4591D01*
X68937Y5315D01*
Y6193D01*
X66142D01*
X63346D01*
Y5315D01*
X63441Y4591D01*
X63526Y4387D01*
X63248Y3971D01*
X62614D01*
Y6193D01*
X57874D01*
Y6693D01*
X57374D01*
Y11236D01*
X48925D01*
Y6693D01*
X48425D01*
Y6193D01*
X43685D01*
Y3971D01*
X43051D01*
X42773Y4387D01*
X42858Y4591D01*
X42953Y5315D01*
Y6193D01*
X40157D01*
X37362D01*
Y5315D01*
X37457Y4591D01*
X37542Y4387D01*
X37264Y3971D01*
X3971D01*
Y7858D01*
X6512D01*
Y9736D01*
X3543D01*
Y10736D01*
X6512D01*
Y12614D01*
X3971D01*
Y15339D01*
X6512D01*
Y17217D01*
X3543D01*
Y18216D01*
X6512D01*
Y20095D01*
X3971D01*
Y44076D01*
X4663D01*
Y34497D01*
X4832Y33645D01*
X5315Y32923D01*
X6038Y32440D01*
X6890Y32270D01*
X8438D01*
X8629Y31808D01*
X8465Y31644D01*
X7982Y30921D01*
X7812Y30069D01*
X7812Y30069D01*
Y26987D01*
X7461D01*
Y18288D01*
X12617D01*
Y26987D01*
X12266D01*
Y29146D01*
X13235Y30115D01*
X13235Y30115D01*
X13718Y30838D01*
X13887Y31690D01*
X13887Y31690D01*
Y32920D01*
X14063Y33149D01*
X14323Y33776D01*
X14411Y34449D01*
X14323Y35122D01*
X14063Y35749D01*
X13650Y36287D01*
X13111Y36701D01*
X12484Y36960D01*
X11811Y37049D01*
X11138Y36960D01*
X10568Y36724D01*
X9117D01*
Y43269D01*
X9449Y43601D01*
X9449Y43601D01*
X9766Y44076D01*
X14907D01*
Y42077D01*
X14907Y42077D01*
X15046Y41378D01*
X15441Y40786D01*
X16081Y40146D01*
X16081Y40146D01*
X16673Y39750D01*
X17372Y39611D01*
X17835Y39573D01*
Y39007D01*
X23503D01*
Y43867D01*
X18558D01*
Y47767D01*
X23503D01*
Y47813D01*
X24003Y47845D01*
X24063Y47390D01*
X24323Y46763D01*
X24736Y46224D01*
X24749Y46215D01*
Y36709D01*
X24249Y36462D01*
X23938Y36701D01*
X23311Y36960D01*
X22638Y37049D01*
X21965Y36960D01*
X21338Y36701D01*
X20799Y36287D01*
X20386Y35749D01*
X20126Y35122D01*
X20038Y34449D01*
X20126Y33776D01*
X20260Y33453D01*
Y32721D01*
X19882Y32342D01*
X19399Y31620D01*
X19230Y30768D01*
X19230Y30768D01*
Y26987D01*
X18879D01*
Y18288D01*
X24035D01*
Y26987D01*
X23684D01*
Y29845D01*
X24062Y30223D01*
X24062Y30223D01*
X24339Y30639D01*
X24392Y30647D01*
X24870Y30533D01*
X24888Y30443D01*
X25284Y29851D01*
X26357Y28778D01*
X26357Y28778D01*
X26949Y28382D01*
X27648Y28243D01*
X28170D01*
Y27639D01*
X33838D01*
Y28278D01*
X34360Y28382D01*
X34815Y28686D01*
X35553D01*
X35563Y28673D01*
X36101Y28260D01*
X36729Y28000D01*
X37402Y27912D01*
X38074Y28000D01*
X38702Y28260D01*
X39240Y28673D01*
X39653Y29212D01*
X39913Y29839D01*
X40002Y30512D01*
X39913Y31185D01*
X39653Y31812D01*
X39240Y32350D01*
X38702Y32764D01*
X38074Y33023D01*
X37402Y33112D01*
X36729Y33023D01*
X36101Y32764D01*
X35563Y32350D01*
X35553Y32337D01*
X34288D01*
X33838Y32499D01*
X33838Y32499D01*
X33838Y32499D01*
X28400D01*
Y36398D01*
X33838D01*
Y37003D01*
X35204D01*
X35204Y37003D01*
X35903Y37142D01*
X36495Y37538D01*
X38581Y39623D01*
X39041Y39377D01*
X38974Y39037D01*
X38974Y39037D01*
Y35157D01*
X38974Y35157D01*
X39143Y34305D01*
X39626Y33583D01*
X41080Y32129D01*
Y27584D01*
X40767Y27344D01*
X40196Y26600D01*
X39837Y25733D01*
X39714Y24803D01*
X39837Y23873D01*
X40196Y23007D01*
X40767Y22263D01*
X41506Y21695D01*
X41620Y21120D01*
X41940Y20641D01*
X41813Y20283D01*
X41695Y20141D01*
X41051D01*
Y16839D01*
X44747D01*
Y17717D01*
X44563Y18644D01*
X44419Y18860D01*
X44655Y19301D01*
X45243D01*
X46005Y18539D01*
Y15354D01*
X46159Y14579D01*
X46599Y13922D01*
X47256Y13482D01*
X48031Y13328D01*
X48807Y13482D01*
X49311Y13819D01*
X49815Y13482D01*
X50591Y13328D01*
X51366Y13482D01*
X51870Y13819D01*
X52374Y13482D01*
X53150Y13328D01*
X53925Y13482D01*
X54429Y13819D01*
X54933Y13482D01*
X55709Y13328D01*
X56484Y13482D01*
X57142Y13922D01*
X57158Y13946D01*
X57570Y13671D01*
X57768Y13631D01*
Y17224D01*
X58268D01*
Y17724D01*
X60090D01*
Y19094D01*
X59951Y19792D01*
X59556Y20383D01*
X58965Y20778D01*
X58749Y20821D01*
X58766Y21328D01*
X58804Y21333D01*
X59671Y21692D01*
X60415Y22263D01*
X60986Y23007D01*
X61344Y23873D01*
X61467Y24803D01*
X61344Y25733D01*
X60986Y26600D01*
X60415Y27344D01*
X59700Y27892D01*
Y31205D01*
X59561Y31904D01*
X59165Y32496D01*
X59165Y32496D01*
X57228Y34433D01*
X57230Y34449D01*
X57142Y35122D01*
X56882Y35749D01*
X56469Y36287D01*
X55930Y36701D01*
X55303Y36960D01*
X54630Y37049D01*
X53957Y36960D01*
X53330Y36701D01*
X52792Y36287D01*
X52378Y35749D01*
X52119Y35122D01*
X52030Y34449D01*
X52119Y33776D01*
X52378Y33149D01*
X52792Y32610D01*
X53330Y32197D01*
X53957Y31937D01*
X54630Y31849D01*
X54646Y31851D01*
X56048Y30449D01*
Y27892D01*
X55333Y27344D01*
X54762Y26600D01*
X54464Y25879D01*
X53942D01*
X53643Y26600D01*
X53072Y27344D01*
X52357Y27892D01*
Y30768D01*
X52357Y30768D01*
X52218Y31466D01*
X51822Y32059D01*
X51822Y32059D01*
X49448Y34433D01*
X49451Y34449D01*
X49362Y35122D01*
X49102Y35749D01*
X48689Y36287D01*
X48151Y36701D01*
X47523Y36960D01*
X46850Y37049D01*
X46177Y36960D01*
X45550Y36701D01*
X45012Y36287D01*
X44599Y35749D01*
X44525Y35571D01*
X44034Y35473D01*
X43428Y36080D01*
Y37963D01*
X67072D01*
Y30455D01*
X67072Y30455D01*
X67211Y29757D01*
X67607Y29164D01*
X76936Y19835D01*
X76936Y19835D01*
X77528Y19440D01*
X78227Y19301D01*
X78227Y19301D01*
X89140D01*
X89140Y19301D01*
X89838Y19440D01*
X90430Y19835D01*
X92826Y22231D01*
X92826Y22231D01*
X92954Y22422D01*
X94310D01*
Y25769D01*
Y30728D01*
X93361D01*
Y34569D01*
X93374Y34579D01*
X93787Y35117D01*
X94047Y35744D01*
X94136Y36417D01*
X94047Y37090D01*
X93787Y37717D01*
X93374Y38256D01*
X92835Y38669D01*
X92208Y38929D01*
X91535Y39018D01*
X90863Y38929D01*
X90235Y38669D01*
X89697Y38256D01*
X89284Y37717D01*
X89024Y37090D01*
X88940Y36452D01*
X88440Y36485D01*
Y39204D01*
X89684D01*
Y44322D01*
Y50068D01*
X89394D01*
X89184Y50382D01*
X89134Y50568D01*
X89214Y51181D01*
X89126Y51854D01*
X88866Y52481D01*
X88453Y53020D01*
X87914Y53433D01*
X87287Y53693D01*
X86614Y53781D01*
X85941Y53693D01*
X85314Y53433D01*
X84776Y53020D01*
X84362Y52481D01*
X84103Y51854D01*
X84014Y51181D01*
X84095Y50568D01*
X84044Y50382D01*
X83835Y50068D01*
X83544D01*
Y44322D01*
Y39204D01*
X84789D01*
Y36891D01*
X84330Y36701D01*
X83791Y36287D01*
X83378Y35749D01*
X83118Y35122D01*
X83030Y34449D01*
X83118Y33776D01*
X83378Y33149D01*
X83791Y32610D01*
X84330Y32197D01*
X84957Y31937D01*
X85630Y31849D01*
X86303Y31937D01*
X86930Y32197D01*
X87468Y32610D01*
X87882Y33149D01*
X88142Y33776D01*
X88230Y34449D01*
X88210Y34599D01*
X88301Y34734D01*
X88440Y35433D01*
X88440Y35433D01*
Y36350D01*
X88940Y36383D01*
X89024Y35744D01*
X89284Y35117D01*
X89697Y34579D01*
X89710Y34569D01*
Y30728D01*
X88761D01*
Y28193D01*
X88261Y27861D01*
X88205Y27885D01*
Y30528D01*
X86130D01*
Y28248D01*
X85630D01*
Y27748D01*
X83055D01*
Y27381D01*
X82855D01*
Y26727D01*
X81454D01*
X80440Y27741D01*
Y39204D01*
X81684D01*
Y44322D01*
Y50068D01*
X78126D01*
X75230Y52964D01*
X75421Y53426D01*
X77529D01*
Y59369D01*
X77329D01*
Y61213D01*
X71392D01*
Y59369D01*
X71192D01*
Y58329D01*
X66890D01*
X66037Y58160D01*
X65315Y57677D01*
X65315Y57677D01*
X64208Y56570D01*
X61966D01*
X61637Y56946D01*
X61655Y57087D01*
X61567Y57760D01*
X61307Y58387D01*
X60894Y58925D01*
X60633Y59126D01*
X60641Y59733D01*
X61822Y60914D01*
X61822Y60914D01*
X62218Y61506D01*
X62357Y62205D01*
X62357Y62205D01*
Y66557D01*
X62774Y67181D01*
X62879Y67705D01*
X63388D01*
X63477Y67259D01*
X63959Y66538D01*
X64680Y66056D01*
X65031Y65986D01*
Y69784D01*
Y73581D01*
X64680Y73511D01*
X63959Y73029D01*
X63477Y72308D01*
X63388Y71862D01*
X62879D01*
X62774Y72386D01*
X62248Y73173D01*
X61461Y73700D01*
X60919Y73807D01*
X60583Y74300D01*
X60588Y74344D01*
X60671Y74973D01*
X60669Y74990D01*
X61527Y75848D01*
X61527Y75848D01*
X61923Y76440D01*
X61966Y76654D01*
X62617D01*
Y76854D01*
X63476D01*
Y79823D01*
Y82791D01*
X62617D01*
Y82991D01*
X57855D01*
Y77545D01*
X57398Y77485D01*
X56771Y77225D01*
X56240Y76818D01*
X56204Y76822D01*
X55740Y76991D01*
Y78535D01*
X53559D01*
Y79535D01*
X55740D01*
Y81295D01*
X55474D01*
X55193Y81679D01*
Y83852D01*
X52323D01*
X49453D01*
Y81679D01*
X49029Y81495D01*
X47713D01*
Y81495D01*
X47292Y81340D01*
X46866Y81620D01*
Y83555D01*
X42323D01*
X37780D01*
Y81648D01*
X35894D01*
X34861Y82681D01*
Y88011D01*
X34707D01*
Y95436D01*
X34843Y95571D01*
X34843Y95571D01*
X35325Y96293D01*
X35495Y97146D01*
X35495Y97146D01*
Y100572D01*
X36482D01*
Y98102D01*
D02*
G37*
G36*
X75544Y47486D02*
Y44322D01*
Y39204D01*
X76789D01*
Y26985D01*
X76789Y26985D01*
X76928Y26286D01*
X77323Y25694D01*
X79407Y23611D01*
X79407Y23611D01*
X79644Y23452D01*
X79493Y22952D01*
X78983D01*
X70723Y31212D01*
Y38112D01*
X70827Y38133D01*
X71550Y38615D01*
X73436Y40502D01*
X73437Y40502D01*
X73919Y41225D01*
X74089Y42077D01*
X74089Y42077D01*
Y45862D01*
X74114Y45895D01*
X74373Y46522D01*
X74462Y47195D01*
X74373Y47868D01*
X74315Y48008D01*
X74739Y48291D01*
X75544Y47486D01*
D02*
G37*
%LPC*%
G36*
X98909Y130535D02*
X98378Y130465D01*
X97416Y130067D01*
X96590Y129433D01*
X95957Y128608D01*
X95558Y127646D01*
X95488Y127114D01*
X98909D01*
Y130535D01*
D02*
G37*
G36*
Y126114D02*
X95488D01*
X95558Y125582D01*
X95957Y124621D01*
X96590Y123795D01*
X97416Y123161D01*
X98378Y122763D01*
X98909Y122693D01*
Y126114D01*
D02*
G37*
G36*
X21350Y109858D02*
X18291D01*
Y105815D01*
X21350D01*
Y109858D01*
D02*
G37*
G36*
Y104815D02*
X18291D01*
Y100772D01*
X21350D01*
Y104815D01*
D02*
G37*
G36*
X20169Y87811D02*
X18488D01*
Y84555D01*
X20169D01*
Y87811D01*
D02*
G37*
G36*
X22850Y83555D02*
X21169D01*
Y80299D01*
X22850D01*
Y83555D01*
D02*
G37*
G36*
X20169D02*
X18488D01*
Y80299D01*
X20169D01*
Y83555D01*
D02*
G37*
G36*
X46866Y87614D02*
X42823D01*
Y84555D01*
X46866D01*
Y87614D01*
D02*
G37*
G36*
X41823D02*
X37780D01*
Y84555D01*
X41823D01*
Y87614D01*
D02*
G37*
G36*
X80370Y81587D02*
X77114D01*
Y78528D01*
X80370D01*
Y81587D01*
D02*
G37*
G36*
X76114D02*
X72858D01*
Y78528D01*
X76114D01*
Y81587D01*
D02*
G37*
G36*
X90469Y75681D02*
X88098D01*
Y73508D01*
X90469D01*
Y75681D01*
D02*
G37*
G36*
X87098D02*
X84728D01*
Y73508D01*
X87098D01*
Y75681D01*
D02*
G37*
G36*
X70098Y82991D02*
X65335D01*
Y82791D01*
X64476D01*
Y79823D01*
Y76854D01*
X65335D01*
Y76654D01*
X66948D01*
X67653Y75949D01*
X67528Y75646D01*
X67439Y74973D01*
X67528Y74300D01*
X67787Y73673D01*
X68201Y73135D01*
X68739Y72721D01*
X69366Y72462D01*
X70039Y72373D01*
X70712Y72462D01*
X71339Y72721D01*
X71878Y73135D01*
X72291Y73673D01*
X72551Y74300D01*
X72640Y74973D01*
X72551Y75646D01*
X72291Y76274D01*
X72116Y76502D01*
Y76863D01*
X72116Y76863D01*
X71946Y77715D01*
X71464Y78438D01*
X71463Y78438D01*
X70098Y79804D01*
Y82991D01*
D02*
G37*
G36*
X66031Y73581D02*
Y70284D01*
X67755D01*
Y71457D01*
X67586Y72308D01*
X67104Y73029D01*
X66382Y73511D01*
X66031Y73581D01*
D02*
G37*
G36*
X67755Y69283D02*
X66031D01*
Y65986D01*
X66382Y66056D01*
X67104Y66538D01*
X67586Y67259D01*
X67755Y68110D01*
Y69283D01*
D02*
G37*
G36*
X77329Y64484D02*
X74860D01*
Y62213D01*
X77329D01*
Y64484D01*
D02*
G37*
G36*
X73860D02*
X71392D01*
Y62213D01*
X73860D01*
Y64484D01*
D02*
G37*
G36*
X97925Y60055D02*
X91520D01*
Y52665D01*
X97925D01*
Y60055D01*
D02*
G37*
G36*
Y51665D02*
X91520D01*
Y44276D01*
X97925D01*
Y51665D01*
D02*
G37*
G36*
X85130Y30528D02*
X83055D01*
Y28748D01*
X85130D01*
Y30528D01*
D02*
G37*
G36*
X66031Y28128D02*
Y25303D01*
X68857D01*
X68807Y25681D01*
X68468Y26499D01*
X67929Y27201D01*
X67227Y27740D01*
X66409Y28079D01*
X66031Y28128D01*
D02*
G37*
G36*
X65031Y28128D02*
X64654Y28079D01*
X63836Y27740D01*
X63134Y27201D01*
X62595Y26499D01*
X62256Y25681D01*
X62206Y25303D01*
X65031D01*
Y28128D01*
D02*
G37*
G36*
X68857Y24303D02*
X66031D01*
Y21478D01*
X66409Y21528D01*
X67227Y21866D01*
X67929Y22405D01*
X68468Y23108D01*
X68807Y23925D01*
X68857Y24303D01*
D02*
G37*
G36*
X65031D02*
X62206D01*
X62256Y23925D01*
X62595Y23108D01*
X63134Y22405D01*
X63836Y21866D01*
X64654Y21528D01*
X65031Y21478D01*
Y24303D01*
D02*
G37*
G36*
X40051Y20141D02*
X38780D01*
X37852Y19956D01*
X37130Y19474D01*
X36630Y19611D01*
Y20095D01*
X34161D01*
Y17717D01*
Y15339D01*
X36355D01*
Y14961D01*
X36540Y14033D01*
X37065Y13246D01*
X37852Y12721D01*
X38780Y12536D01*
X40051D01*
Y16339D01*
Y20141D01*
D02*
G37*
G36*
X29940Y26987D02*
X24784D01*
Y18288D01*
X29940D01*
Y26987D01*
D02*
G37*
G36*
X33161Y20095D02*
X30693D01*
Y18216D01*
X33161D01*
Y20095D01*
D02*
G37*
G36*
X65248Y20141D02*
X63976D01*
X63049Y19956D01*
X62262Y19431D01*
X61736Y18644D01*
X61552Y17717D01*
Y16839D01*
X65248D01*
Y20141D01*
D02*
G37*
G36*
X33161Y17217D02*
X30693D01*
Y15339D01*
X33161D01*
Y17217D01*
D02*
G37*
G36*
X60090Y16724D02*
X58768D01*
Y13631D01*
X58965Y13671D01*
X59556Y14066D01*
X59951Y14657D01*
X60090Y15354D01*
Y16724D01*
D02*
G37*
G36*
X65248Y15839D02*
X61552D01*
Y14961D01*
X61736Y14033D01*
X62262Y13246D01*
X63049Y12721D01*
X63976Y12536D01*
X65248D01*
Y15839D01*
D02*
G37*
G36*
X44747Y15839D02*
X41051D01*
Y12536D01*
X42323D01*
X43251Y12721D01*
X44037Y13246D01*
X44563Y14033D01*
X44747Y14961D01*
Y15839D01*
D02*
G37*
G36*
X100348Y17224D02*
X93048D01*
Y12224D01*
X100348D01*
Y17224D01*
D02*
G37*
G36*
X67520Y20141D02*
X66248D01*
Y16339D01*
Y12536D01*
X67520D01*
X68448Y12721D01*
X69234Y13246D01*
X69443Y13559D01*
X70007Y13503D01*
X70040Y13424D01*
X70453Y12886D01*
X70992Y12473D01*
X71619Y12213D01*
X72292Y12124D01*
X72965Y12213D01*
X73592Y12473D01*
X74130Y12886D01*
X74140Y12899D01*
X77048D01*
Y12224D01*
X84348D01*
Y17224D01*
X77048D01*
Y16550D01*
X74140D01*
X74130Y16563D01*
X73592Y16976D01*
X72965Y17236D01*
X72292Y17325D01*
X71619Y17236D01*
X70992Y16976D01*
X70453Y16563D01*
X70444Y16551D01*
X69944Y16721D01*
Y17717D01*
X69760Y18644D01*
X69234Y19431D01*
X68448Y19956D01*
X67520Y20141D01*
D02*
G37*
G36*
X36630Y12614D02*
X34161D01*
Y10736D01*
X36630D01*
Y12614D01*
D02*
G37*
G36*
X33161D02*
X30693D01*
Y10736D01*
X33161D01*
Y12614D01*
D02*
G37*
G36*
X24409Y17571D02*
X23428Y17442D01*
X22514Y17063D01*
X21729Y16461D01*
X21126Y15675D01*
X20747Y14761D01*
X20618Y13780D01*
X20747Y12798D01*
X21126Y11884D01*
X21729Y11099D01*
X22514Y10496D01*
X23428Y10117D01*
X24409Y9988D01*
X25391Y10117D01*
X26305Y10496D01*
X27090Y11099D01*
X27693Y11884D01*
X28072Y12798D01*
X28201Y13780D01*
X28072Y14761D01*
X27693Y15675D01*
X27090Y16461D01*
X26305Y17063D01*
X25391Y17442D01*
X24409Y17571D01*
D02*
G37*
G36*
X12992D02*
X12011Y17442D01*
X11096Y17063D01*
X10311Y16461D01*
X9709Y15675D01*
X9330Y14761D01*
X9201Y13780D01*
X9330Y12798D01*
X9709Y11884D01*
X10311Y11099D01*
X11096Y10496D01*
X12011Y10117D01*
X12992Y9988D01*
X13973Y10117D01*
X14888Y10496D01*
X15673Y11099D01*
X16276Y11884D01*
X16654Y12798D01*
X16784Y13780D01*
X16654Y14761D01*
X16276Y15675D01*
X15673Y16461D01*
X14888Y17063D01*
X13973Y17442D01*
X12992Y17571D01*
D02*
G37*
G36*
X36630Y9736D02*
X34161D01*
Y7858D01*
X36630D01*
Y9736D01*
D02*
G37*
G36*
X33161D02*
X30693D01*
Y7858D01*
X33161D01*
Y9736D01*
D02*
G37*
G36*
X40657Y10801D02*
Y7193D01*
X42953D01*
Y8071D01*
X42858Y8794D01*
X42579Y9469D01*
X42134Y10048D01*
X41555Y10492D01*
X40881Y10771D01*
X40657Y10801D01*
D02*
G37*
G36*
X39658D02*
X39434Y10771D01*
X38760Y10492D01*
X38181Y10048D01*
X37736Y9469D01*
X37457Y8794D01*
X37362Y8071D01*
Y7193D01*
X39658D01*
Y10801D01*
D02*
G37*
G36*
X62614Y11236D02*
X58374D01*
Y7193D01*
X62614D01*
Y11236D01*
D02*
G37*
G36*
X47925D02*
X43685D01*
Y7193D01*
X47925D01*
Y11236D01*
D02*
G37*
G36*
X66642Y10801D02*
Y7193D01*
X68937D01*
Y8071D01*
X68842Y8794D01*
X68563Y9469D01*
X68119Y10048D01*
X67540Y10492D01*
X66865Y10771D01*
X66642Y10801D01*
D02*
G37*
G36*
X65642D02*
X65418Y10771D01*
X64744Y10492D01*
X64165Y10048D01*
X63721Y9469D01*
X63441Y8794D01*
X63346Y8071D01*
Y7193D01*
X65642D01*
Y10801D01*
D02*
G37*
G36*
X100348Y11398D02*
X93048D01*
Y6398D01*
X100348D01*
Y11398D01*
D02*
G37*
G36*
X72292Y11498D02*
X71619Y11409D01*
X70992Y11150D01*
X70453Y10736D01*
X70040Y10198D01*
X69780Y9571D01*
X69691Y8898D01*
X69780Y8225D01*
X70040Y7598D01*
X70453Y7059D01*
X70992Y6646D01*
X71619Y6386D01*
X72292Y6297D01*
X72965Y6386D01*
X73592Y6646D01*
X74130Y7059D01*
X74140Y7072D01*
X77048D01*
Y6398D01*
X84348D01*
Y11398D01*
X77048D01*
Y10723D01*
X74140D01*
X74130Y10736D01*
X73592Y11150D01*
X72965Y11409D01*
X72292Y11498D01*
D02*
G37*
%LPD*%
D12*
X49383Y128583D02*
Y131759D01*
X47028Y128583D02*
X49383D01*
X41608Y122579D02*
Y124069D01*
X40354Y121325D02*
X41608Y122579D01*
X41909Y115945D02*
Y117710D01*
X45262Y121063D01*
X50532Y23108D02*
Y24803D01*
Y23108D02*
X50591Y23049D01*
Y17224D02*
Y23049D01*
X40532Y132597D02*
Y135453D01*
Y132597D02*
X41201Y131928D01*
X50556Y121063D02*
X54636D01*
X50556D02*
Y125468D01*
X40354Y121063D02*
Y121325D01*
X60222Y124055D02*
X60440Y123837D01*
Y121063D02*
Y123837D01*
X54636Y121063D02*
X60440D01*
X53150Y20079D02*
X57874Y24803D01*
X53150Y17224D02*
Y20079D01*
X48772Y117886D02*
Y121662D01*
X47854Y122579D02*
X48772Y121662D01*
X47854Y122579D02*
Y124547D01*
X47756Y124646D02*
X47854Y124547D01*
X47028Y124646D02*
X47756D01*
X47028Y116142D02*
X48772Y117886D01*
X47028Y115945D02*
Y116142D01*
X45262Y121063D02*
X45452D01*
X59646Y124632D02*
Y136614D01*
Y124632D02*
X60222Y124055D01*
X63630D01*
X49409Y126614D02*
X50556Y125468D01*
X47028Y126614D02*
X49409D01*
X41201Y128583D02*
Y131928D01*
X35581Y124744D02*
X37451Y126614D01*
X35581Y123031D02*
Y124744D01*
X37451Y126614D02*
X41201D01*
D32*
X96698Y14724D02*
D03*
Y8898D02*
D03*
X80698D02*
D03*
Y14724D02*
D03*
D40*
X24409Y13780D02*
D03*
X12992D02*
D03*
D47*
X91535Y28248D02*
D03*
X85630D02*
D03*
X91535Y24902D02*
D03*
X85630D02*
D03*
D48*
X47028Y128583D02*
D03*
Y126614D02*
D03*
Y124646D02*
D03*
X41201D02*
D03*
Y126614D02*
D03*
Y128583D02*
D03*
D49*
X60236Y79823D02*
D03*
X63976D02*
D03*
X67716D02*
D03*
Y90650D02*
D03*
X63976D02*
D03*
X60236D02*
D03*
X26575Y83268D02*
D03*
D50*
X65531Y69784D02*
D03*
X60532D02*
D03*
X55532D02*
D03*
X50532D02*
D03*
X45531D02*
D03*
X40532D02*
D03*
X35531D02*
D03*
X30531D02*
D03*
X65531Y48327D02*
D03*
X60532D02*
D03*
X55532D02*
D03*
X50532D02*
D03*
X45531D02*
D03*
X40532D02*
D03*
X35531D02*
D03*
X30531D02*
D03*
D51*
X58465Y109153D02*
D03*
Y106595D02*
D03*
Y104035D02*
D03*
Y101476D02*
D03*
X81299Y109153D02*
D03*
Y106595D02*
D03*
Y104035D02*
D03*
Y101476D02*
D03*
D52*
X35581Y123031D02*
D03*
X24557D02*
D03*
D53*
X31004Y30069D02*
D03*
Y38829D02*
D03*
X70866Y126526D02*
D03*
Y135285D02*
D03*
X20669Y41437D02*
D03*
Y50197D02*
D03*
D54*
X87598Y81299D02*
D03*
Y76181D02*
D03*
X52323Y84352D02*
D03*
Y89470D02*
D03*
X78614Y42077D02*
D03*
Y47195D02*
D03*
X81299Y120669D02*
D03*
Y115551D02*
D03*
X86614Y42077D02*
D03*
Y47195D02*
D03*
X63630Y124055D02*
D03*
Y129173D02*
D03*
X49213Y109153D02*
D03*
Y104035D02*
D03*
X87598Y93504D02*
D03*
Y88386D02*
D03*
D55*
X18406Y69784D02*
D03*
X22933D02*
D03*
X18406Y63976D02*
D03*
X22933D02*
D03*
D56*
X98425Y52165D02*
D03*
X7874D02*
D03*
D57*
X20669Y84055D02*
D03*
X32480D02*
D03*
D58*
X33661Y17717D02*
D03*
Y10236D02*
D03*
X3543Y17717D02*
D03*
Y10236D02*
D03*
D59*
X27362Y22638D02*
D03*
X21457D02*
D03*
X10039D02*
D03*
D60*
X55709Y17224D02*
D03*
X58268D02*
D03*
X48031D02*
D03*
X50591D02*
D03*
X53150D02*
D03*
D61*
X48425Y6693D02*
D03*
X57874D02*
D03*
D62*
X40551Y16339D02*
D03*
X65748D02*
D03*
D63*
X33268Y105315D02*
D03*
X21850D02*
D03*
D64*
X46614Y137795D02*
D03*
X40315D02*
D03*
X73189Y116614D02*
D03*
X66890D02*
D03*
X24232Y137795D02*
D03*
X30531D02*
D03*
D65*
X74360Y56398D02*
D03*
Y61713D02*
D03*
D66*
X53559Y79035D02*
D03*
X50094D02*
D03*
D67*
X76614Y88386D02*
D03*
Y82087D02*
D03*
X54636Y127362D02*
D03*
Y121063D02*
D03*
X16732Y120226D02*
D03*
Y126526D02*
D03*
D68*
X42323Y95472D02*
D03*
Y84055D02*
D03*
D69*
X54528Y136614D02*
D03*
X59646D02*
D03*
X41909Y115945D02*
D03*
X47028D02*
D03*
D70*
X43307Y24803D02*
D03*
X50532D02*
D03*
X57874D02*
D03*
X65531D02*
D03*
D71*
X80698Y24902D02*
X85630D01*
X78614Y26985D02*
X80698Y24902D01*
X78614Y26985D02*
Y42077D01*
X89140Y21126D02*
X91535Y23522D01*
X78227Y21126D02*
X89140D01*
X91535Y23522D02*
Y24902D01*
X68898Y30455D02*
X78227Y21126D01*
X68898Y30455D02*
Y40190D01*
X91535Y29628D02*
X91535Y29628D01*
X91535Y29628D02*
Y36417D01*
X91535Y28248D02*
Y29628D01*
X72292Y14724D02*
X80698D01*
X72292Y8898D02*
X80698D01*
X63630Y134234D02*
X64680Y135285D01*
X63630Y129173D02*
Y134234D01*
X51655Y95571D02*
X71862D01*
X42157Y105069D02*
X51655Y95571D01*
X52323Y81535D02*
Y84352D01*
Y81535D02*
X53559Y80300D01*
Y79035D02*
Y80300D01*
Y79035D02*
X56075D01*
X52323Y83799D02*
Y84352D01*
X52165Y83957D02*
X52323Y83799D01*
X23089Y76863D02*
X37451D01*
X20669Y79283D02*
X23089Y76863D01*
X20669Y79283D02*
Y84055D01*
X42323D02*
Y89401D01*
X42157Y89567D02*
X42323Y89401D01*
X66890Y106063D02*
X66929Y106102D01*
X66890Y105315D02*
Y106063D01*
X66929Y106102D02*
Y109252D01*
X65610Y104035D02*
X66890Y105315D01*
X58465Y104035D02*
X65610D01*
X61911Y83957D02*
X63976Y81891D01*
X57438Y83957D02*
X61911D01*
X56862Y83380D02*
X57438Y83957D01*
X56862Y79823D02*
Y83380D01*
X63976Y79823D02*
Y81891D01*
X56075Y79035D02*
X56862Y79823D01*
X23465Y72987D02*
Y73819D01*
X22933Y72455D02*
X23465Y72987D01*
X22933Y69784D02*
Y72455D01*
X46614Y137559D02*
Y137795D01*
Y133445D02*
Y137559D01*
X11811Y126526D02*
X16732D01*
X11811Y111535D02*
Y126526D01*
X66890Y121806D02*
Y129173D01*
X63630D02*
X66890D01*
X31004Y38829D02*
X35204D01*
X39683Y43307D01*
X33661Y30069D02*
X34104Y30512D01*
X37402D01*
X31004Y30069D02*
X33661D01*
X26575Y31142D02*
X27648Y30069D01*
X31004D01*
X37402Y30512D02*
X37451Y30463D01*
X26575Y31142D02*
Y48063D01*
X55020Y101476D02*
X58465D01*
X53150Y103347D02*
X55020Y101476D01*
X45452Y132282D02*
X46614Y133445D01*
X45452Y131928D02*
Y132282D01*
Y136397D02*
X45669Y136614D01*
X35531Y137795D02*
Y143063D01*
X86073Y109153D02*
X86811Y108416D01*
X81299Y109153D02*
X86073D01*
X51249Y74973D02*
X52165D01*
X50532Y74256D02*
X51249Y74973D01*
X50532Y69784D02*
Y74256D01*
X45262Y76863D02*
X45531Y76594D01*
Y69784D02*
Y76594D01*
X50532Y44626D02*
Y48327D01*
X49213Y43307D02*
X50532Y44626D01*
X41608Y76437D02*
Y76863D01*
X40532Y75361D02*
X41608Y76437D01*
X40532Y69784D02*
Y75361D01*
X85630Y34449D02*
X86614Y35433D01*
Y42077D01*
X43307Y21818D02*
Y24803D01*
Y21818D02*
X43999Y21126D01*
X42157Y105069D02*
Y110571D01*
X50094Y77356D02*
X52165Y75285D01*
Y74973D02*
Y75285D01*
X35138Y79823D02*
X46218D01*
X32480Y82480D02*
X35138Y79823D01*
X32480Y82480D02*
Y84055D01*
X50094Y77356D02*
Y79035D01*
X47005D02*
X50094D01*
X46218Y79823D02*
X47005Y79035D01*
X53015Y98425D02*
X65256D01*
X52323Y99117D02*
X53015Y98425D01*
X52323Y99117D02*
Y101122D01*
X65256Y98425D02*
X70866Y104035D01*
X49409D02*
X52323Y101122D01*
X49213Y104035D02*
X49409D01*
X49016D02*
X49213D01*
X57611Y112355D02*
X62940Y117684D01*
X46905Y112355D02*
X57611D01*
X45952Y106904D02*
Y111403D01*
Y106904D02*
X46787Y106069D01*
X46982D01*
X49016Y104035D01*
X45284Y113697D02*
Y114004D01*
X42157Y110571D02*
X45284Y113697D01*
Y114004D02*
X47028Y115748D01*
Y115945D01*
X45952Y111403D02*
X46905Y112355D01*
X65960Y120876D02*
X66890Y121806D01*
X63870Y120876D02*
X65960D01*
X62940Y119946D02*
X63870Y120876D01*
X62940Y117684D02*
Y119946D01*
X16732Y140059D02*
X18406Y141732D01*
X16732Y126526D02*
Y140059D01*
X6890Y106614D02*
X11811Y111535D01*
X53150Y103347D02*
Y105903D01*
X53842Y106595D01*
X58465D01*
X70866Y104035D02*
X81299D01*
X49213Y109153D02*
X58465D01*
X43999Y21126D02*
X46000D01*
X48031Y19094D01*
Y17224D02*
Y19094D01*
X6890Y66614D02*
X13058Y60446D01*
X16057D01*
X16732Y59771D01*
X6890Y76614D02*
X13780Y69724D01*
X7831Y82372D02*
X18406Y71798D01*
X6890Y86614D02*
X7831Y85672D01*
X14356Y63976D02*
X18406D01*
X13780Y64553D02*
Y69724D01*
X7831Y82372D02*
Y85672D01*
X18406Y69784D02*
Y71798D01*
X13780Y64553D02*
X14356Y63976D01*
X86119Y101476D02*
X86811Y102168D01*
X81299Y101476D02*
X86119D01*
X86811Y102168D02*
Y108416D01*
X59055Y56496D02*
Y57087D01*
Y56496D02*
X60807Y54744D01*
X54843Y57087D02*
X55532Y56398D01*
Y48327D02*
Y56398D01*
X22835Y57087D02*
X54843D01*
X60807Y54744D02*
X65531D01*
X69975Y52165D02*
X73447D01*
X78417Y47195D01*
X58071Y74973D02*
X60236Y77139D01*
Y79823D01*
X78417Y47195D02*
X78614D01*
X78227Y106614D02*
X78246Y106595D01*
X74360Y106614D02*
X78227D01*
X78246Y106595D02*
X81299D01*
X73189Y107785D02*
X74360Y106614D01*
X73189Y107785D02*
Y116614D01*
X32480Y61024D02*
X59350D01*
X60532Y62205D01*
Y69784D01*
X54955Y63976D02*
X55532Y64553D01*
Y69784D01*
X22933Y63976D02*
X54955D01*
X16732Y42077D02*
Y59771D01*
Y42077D02*
X17372Y41437D01*
X20669D01*
Y54921D02*
X22835Y57087D01*
X20669Y50197D02*
Y54921D01*
X39683Y43307D02*
X49213D01*
X54630Y34449D02*
X57874Y31205D01*
Y24803D02*
Y31205D01*
X46850Y34449D02*
X50532Y30768D01*
Y24803D02*
Y30768D01*
D72*
X68898Y40190D02*
X69975D01*
X42354D02*
X68898D01*
X14764Y150591D02*
X23465D01*
X40404Y145853D02*
X45427D01*
X40032Y146226D02*
X40404Y145853D01*
X35010Y146226D02*
X40032D01*
X33857Y147379D02*
X35010Y146226D01*
X33857Y147379D02*
Y150198D01*
X33465Y150591D02*
X33857Y150198D01*
X74926Y98635D02*
X82410D01*
X71862Y95571D02*
X74926Y98635D01*
X65531Y69784D02*
Y72738D01*
X63976Y74293D02*
X65531Y72738D01*
X95118Y130905D02*
X99410Y126614D01*
X81693Y130905D02*
X95118D01*
X66890Y113758D02*
X66929Y113719D01*
Y109252D02*
Y113719D01*
X66890Y113758D02*
Y116614D01*
X57874Y6693D02*
X66142D01*
X18701Y88880D02*
X20669Y86911D01*
Y84055D02*
Y86911D01*
X18701Y88880D02*
Y101181D01*
X21850Y104331D01*
Y105315D01*
X63976Y74293D02*
Y79823D01*
X40157Y15945D02*
X40551Y16339D01*
X40157Y6693D02*
X48425D01*
X57874D01*
X46685Y137629D02*
Y142717D01*
X46614Y137559D02*
X46685Y137629D01*
X45669Y136614D02*
X46614Y137559D01*
X54636Y127362D02*
Y136614D01*
X24606D02*
Y141732D01*
X24557Y136565D02*
X24606Y136614D01*
X24557Y123819D02*
Y136565D01*
X75423Y115551D02*
X81299D01*
X70866Y126614D02*
X78740D01*
X67716Y90650D02*
X76614D01*
Y88386D02*
Y90650D01*
X43557Y94238D02*
X49073D01*
X42323Y95472D02*
X43557Y94238D01*
X10039Y22638D02*
Y30069D01*
X21457Y22638D02*
Y30768D01*
X22487Y31798D01*
Y34298D01*
X22638Y34449D01*
X10039Y30069D02*
X11660Y31690D01*
Y34298D01*
X11811Y34449D01*
X73189Y116614D02*
X74360D01*
X70866Y135285D02*
Y141611D01*
X70039Y142437D02*
X70866Y141611D01*
X70039Y142437D02*
Y150591D01*
X35531Y137795D02*
X40315D01*
X30531D02*
X35531D01*
X23179Y120226D02*
X24557Y121604D01*
X16732Y120226D02*
X23179D01*
X76614Y90650D02*
Y93133D01*
X52323Y89470D02*
X54531D01*
X55710Y90650D01*
X91859Y69784D02*
X93504Y71429D01*
X87598Y69784D02*
X91859D01*
X6890Y34497D02*
Y44191D01*
Y34497D02*
X11763D01*
X11811Y34449D01*
X7874Y45176D02*
Y52165D01*
X6890Y44191D02*
X7874Y45176D01*
X41201Y39037D02*
X42354Y40190D01*
X41201Y35157D02*
Y39037D01*
Y35157D02*
X43307Y33051D01*
Y24803D02*
Y33051D01*
X26575Y83268D02*
Y109107D01*
X76985Y133858D02*
X80039Y136913D01*
Y150591D01*
X46685Y142717D02*
X52165D01*
X86614Y47195D02*
Y51181D01*
X37300Y112355D02*
X38709Y110947D01*
Y98102D02*
Y110947D01*
X29823Y112355D02*
X37300D01*
X26575Y109107D02*
X29823Y112355D01*
X24557Y121604D02*
Y123031D01*
X76771Y133858D02*
X76985D01*
X24557Y123031D02*
Y123819D01*
X85827Y120669D02*
X90551Y115945D01*
Y101378D02*
Y115945D01*
X87598Y98425D02*
X90551Y101378D01*
X55532Y143063D02*
Y144516D01*
Y141611D02*
Y143063D01*
X63630D02*
X63976Y142717D01*
X55532Y143063D02*
X63630D01*
X45427Y145853D02*
X45452Y145879D01*
X54169D01*
X55532Y144516D01*
X54528Y140607D02*
X55532Y141611D01*
X54528Y136614D02*
Y140607D01*
X41339Y95472D02*
X42323D01*
X38709Y98102D02*
X41339Y95472D01*
X55710Y90650D02*
X60236D01*
X71862Y42077D02*
Y47195D01*
X65531Y48327D02*
Y54744D01*
X71996Y56102D02*
X72292Y56398D01*
X66890Y56102D02*
X71996D01*
X65531Y54744D02*
X66890Y56102D01*
X87598Y93504D02*
Y98425D01*
X69889Y75124D02*
X70039Y74973D01*
X69889Y75124D02*
Y76863D01*
X67716Y79035D02*
X69889Y76863D01*
X67716Y79035D02*
Y79823D01*
X82410Y98635D02*
X82619Y98425D01*
X87598D01*
X33268Y97146D02*
Y105315D01*
X32480Y96358D02*
X33268Y97146D01*
X32480Y84055D02*
Y96358D01*
X69975Y40190D02*
X71862Y42077D01*
X76614Y93133D02*
X78740Y95259D01*
Y95472D01*
X24606Y141732D02*
X33465Y150591D01*
X23179Y125197D02*
X24557Y123819D01*
X81299Y120669D02*
X85827D01*
X76417Y88386D02*
X76614D01*
X93504Y71429D02*
Y86614D01*
X99410D01*
X91340D02*
X93504D01*
X89569Y88386D02*
X91340Y86614D01*
X87598Y88386D02*
X89569D01*
X87598Y81299D02*
Y88386D01*
X72292Y56398D02*
X74360D01*
X8858Y138583D02*
Y144685D01*
X6890Y136614D02*
X8858Y138583D01*
Y144685D02*
X14764Y150591D01*
X87402Y148622D02*
X99410Y136614D01*
X82008Y148622D02*
X87402D01*
X80039Y150591D02*
X82008Y148622D01*
D73*
X23327Y150591D02*
D03*
X80807D02*
D03*
D74*
X33327D02*
D03*
X43327D02*
D03*
X70807D02*
D03*
X60807D02*
D03*
X6890Y66614D02*
D03*
Y76614D02*
D03*
Y86614D02*
D03*
Y96614D02*
D03*
Y106614D02*
D03*
Y116614D02*
D03*
Y126614D02*
D03*
X99410Y66614D02*
D03*
Y76614D02*
D03*
Y86614D02*
D03*
Y96614D02*
D03*
Y106614D02*
D03*
Y116614D02*
D03*
Y126614D02*
D03*
D75*
X6890Y136614D02*
D03*
X99410D02*
D03*
D76*
X40157Y6693D02*
D03*
X66142D02*
D03*
D77*
X74360Y31185D02*
D03*
X96448Y33633D02*
D03*
X91535Y36417D02*
D03*
X72292Y14724D02*
D03*
Y8898D02*
D03*
X64680Y135285D02*
D03*
X49383Y131759D02*
D03*
X71862Y95571D02*
D03*
X8629Y6193D02*
D03*
X24348D02*
D03*
X81693Y68683D02*
D03*
X91340Y129872D02*
D03*
X23684Y112858D02*
D03*
X15441Y23925D02*
D03*
X34602D02*
D03*
X18701Y97342D02*
D03*
X89567Y139044D02*
D03*
X70039Y66614D02*
D03*
X37451Y76863D02*
D03*
X81693Y130905D02*
D03*
X66929Y109252D02*
D03*
X26575Y48063D02*
D03*
X37402Y30512D02*
D03*
X49073Y94238D02*
D03*
X52165Y74973D02*
D03*
X35531Y143063D02*
D03*
X45452Y131928D02*
D03*
X52165Y142717D02*
D03*
X86614Y51181D02*
D03*
X85630Y34449D02*
D03*
X41608Y76863D02*
D03*
X45262D02*
D03*
X45452Y121063D02*
D03*
X40354D02*
D03*
X42157Y110571D02*
D03*
X78740Y126614D02*
D03*
X18406Y141732D02*
D03*
X76771Y133858D02*
D03*
X63976Y142717D02*
D03*
X59055Y57087D02*
D03*
X71862Y47195D02*
D03*
X69889Y52165D02*
D03*
X58071Y74973D02*
D03*
X70039D02*
D03*
X11811Y34449D02*
D03*
X22638D02*
D03*
X23465Y73819D02*
D03*
X32480Y61024D02*
D03*
X78740Y95472D02*
D03*
X54630Y34449D02*
D03*
X46850D02*
D03*
M02*
