G04*
G04 #@! TF.GenerationSoftware,Altium Limited,Altium Designer,19.1.8 (144)*
G04*
G04 Layer_Color=16711935*
%FSLAX25Y25*%
%MOIN*%
G70*
G01*
G75*
%ADD12C,0.00394*%
%ADD79C,0.00000*%
%ADD80C,0.00100*%
D12*
X66142Y63386D02*
X65878Y64370D01*
X65158Y65091D01*
X64173Y65354D01*
X63189Y65091D01*
X62468Y64370D01*
X62205Y63386D01*
X62468Y62402D01*
X63189Y61681D01*
X64173Y61417D01*
X65158Y61681D01*
X65878Y62402D01*
X66142Y63386D01*
X66535Y107874D02*
X66272Y108858D01*
X65551Y109579D01*
X64567Y109843D01*
X63583Y109579D01*
X62862Y108858D01*
X62598Y107874D01*
X62862Y106890D01*
X63583Y106169D01*
X64567Y105905D01*
X65551Y106169D01*
X66272Y106890D01*
X66535Y107874D01*
X22343Y88868D02*
X22079Y89852D01*
X21358Y90573D01*
X20374Y90837D01*
X19390Y90573D01*
X18669Y89852D01*
X18406Y88868D01*
X18669Y87884D01*
X19390Y87163D01*
X20374Y86900D01*
X21358Y87163D01*
X22079Y87884D01*
X22343Y88868D01*
X41752Y123465D02*
Y129764D01*
X46476Y123465D02*
Y129764D01*
X41752D02*
X46476D01*
X41752Y123465D02*
X46476D01*
X69980Y81791D02*
Y88681D01*
X57972Y81791D02*
Y88681D01*
X69980D01*
X57972Y81791D02*
X69980D01*
X28346Y51181D02*
Y66929D01*
X67716Y51181D02*
Y66929D01*
X28346Y51181D02*
X67716D01*
X28346Y66929D02*
X67716D01*
X61024Y99213D02*
X78740D01*
X61024Y111417D02*
X78740D01*
Y99213D02*
Y111417D01*
X61024Y99213D02*
Y111417D01*
X21999Y131102D02*
X38140D01*
X21999Y114960D02*
Y131102D01*
Y114960D02*
X38140D01*
Y131102D01*
X33661Y30906D02*
Y37992D01*
X28346Y30906D02*
Y37992D01*
X33661D01*
X28346Y30906D02*
X33661D01*
X71577Y26083D02*
X75317D01*
X71577Y19193D02*
X75317D01*
Y26083D01*
X71577Y19193D02*
Y26083D01*
X22736Y68701D02*
Y70866D01*
X18602Y68701D02*
Y70866D01*
Y68701D02*
X22736D01*
X18602Y70866D02*
X22736D01*
X35630Y86112D02*
Y94488D01*
X17520Y86112D02*
Y94488D01*
X35630D01*
X17520Y86112D02*
X35630D01*
X20866Y101772D02*
Y108858D01*
X34252Y101772D02*
Y108858D01*
X20866D02*
X34252D01*
X20866Y101772D02*
X34252D01*
X39134Y135039D02*
Y140551D01*
X47795Y135039D02*
Y140551D01*
X39134D02*
X47795D01*
X39134Y135039D02*
X47795D01*
X72490Y62500D02*
X76230D01*
X72490Y55610D02*
X76230D01*
Y62500D01*
X72490Y55610D02*
Y62500D01*
X49799Y80059D02*
X53854D01*
X49799Y78012D02*
X53854D01*
X49799D02*
Y80059D01*
X53854Y78012D02*
Y80059D01*
X73858Y80905D02*
X79370D01*
X73858Y89567D02*
X79370D01*
X73858Y80905D02*
Y89567D01*
X79370Y80905D02*
Y89567D01*
X38780Y83071D02*
X45866D01*
X38780Y96457D02*
X45866D01*
X38780Y83071D02*
Y96457D01*
X45866Y83071D02*
Y96457D01*
X65709Y113858D02*
Y119370D01*
X74370Y113858D02*
Y119370D01*
X65709D02*
X74370D01*
X65709Y113858D02*
X74370D01*
X51880Y119882D02*
X57392D01*
X51880Y128543D02*
X57392D01*
X51880Y119882D02*
Y128543D01*
X57392Y119882D02*
Y128543D01*
X13976Y127707D02*
X19488D01*
X13976Y119045D02*
X19488D01*
Y127707D01*
X13976Y119045D02*
Y127707D01*
X31713Y135039D02*
Y140551D01*
X23051Y135039D02*
Y140551D01*
Y135039D02*
X31713D01*
X23051Y140551D02*
X31713D01*
X73524Y127362D02*
Y134449D01*
X68209Y127362D02*
Y134449D01*
X73524D01*
X68209Y127362D02*
X73524D01*
X23327Y42274D02*
Y49360D01*
X18012Y42274D02*
Y49360D01*
X23327D01*
X18012Y42274D02*
X23327D01*
X54193Y83466D02*
Y90356D01*
X50453Y83466D02*
Y90356D01*
X54193D01*
X50453Y83466D02*
X54193D01*
X76744Y48081D02*
X80484D01*
X76744Y41191D02*
X80484D01*
Y48081D01*
X76744Y41191D02*
Y48081D01*
X79429Y114665D02*
X83169D01*
X79429Y121555D02*
X83169D01*
X79429Y114665D02*
Y121555D01*
X83169Y114665D02*
Y121555D01*
X84744Y48081D02*
X88484D01*
X84744Y41191D02*
X88484D01*
Y48081D01*
X84744Y41191D02*
Y48081D01*
X22736Y62894D02*
Y65059D01*
X18602Y62894D02*
Y65059D01*
Y62894D02*
X22736D01*
X18602Y65059D02*
X22736D01*
X61759Y130059D02*
X65500D01*
X61759Y123169D02*
X65500D01*
Y130059D01*
X61759Y123169D02*
Y130059D01*
X60532Y134744D02*
Y138484D01*
X53642Y134744D02*
Y138484D01*
Y134744D02*
X60532D01*
X53642Y138484D02*
X60532D01*
X47343Y103150D02*
X51083D01*
X47343Y110039D02*
X51083D01*
X47343Y103150D02*
Y110039D01*
X51083Y103150D02*
Y110039D01*
X47913Y114075D02*
Y117815D01*
X41024Y114075D02*
Y117815D01*
Y114075D02*
X47913D01*
X41024Y117815D02*
X47913D01*
X85728Y87500D02*
X89468D01*
X85728Y94390D02*
X89468D01*
X85728Y87500D02*
Y94390D01*
X89468Y87500D02*
Y94390D01*
X85728Y75295D02*
X89468D01*
X85728Y82185D02*
X89468D01*
X85728Y75295D02*
Y82185D01*
X89468Y75295D02*
Y82185D01*
D79*
X89799Y4823D02*
X89448Y5671D01*
X88599Y6023D01*
X87751Y5671D01*
X87399Y4823D01*
D80*
X81798Y4811D02*
X95598D01*
Y18811D01*
X81798D02*
X95598D01*
X81798Y4811D02*
Y18811D01*
M02*
