G04*
G04 #@! TF.GenerationSoftware,Altium Limited,Altium Designer,19.1.8 (144)*
G04*
G04 Layer_Color=8388736*
%FSLAX25Y25*%
%MOIN*%
G70*
G01*
G75*
%ADD16R,0.03189X0.01732*%
%ADD17R,0.02756X0.04331*%
%ADD18O,0.02756X0.06102*%
%ADD19O,0.06299X0.02165*%
%ADD20C,0.05118*%
%ADD21R,0.05118X0.14961*%
%ADD22R,0.03661X0.02854*%
%ADD23R,0.04134X0.03740*%
%ADD24R,0.03347X0.02756*%
%ADD25R,0.12205X0.14173*%
%ADD26R,0.02756X0.05906*%
%ADD27R,0.04331X0.03150*%
%ADD28R,0.03150X0.06693*%
%ADD29R,0.03543X0.02953*%
%ADD30O,0.01968X0.05709*%
%ADD31R,0.07874X0.07480*%
G04:AMPARAMS|DCode=32|XSize=66.93mil|YSize=59.06mil|CornerRadius=15.75mil|HoleSize=0mil|Usage=FLASHONLY|Rotation=180.000|XOffset=0mil|YOffset=0mil|HoleType=Round|Shape=RoundedRectangle|*
%AMROUNDEDRECTD32*
21,1,0.06693,0.02756,0,0,180.0*
21,1,0.03543,0.05906,0,0,180.0*
1,1,0.03150,-0.01772,0.01378*
1,1,0.03150,0.01772,0.01378*
1,1,0.03150,0.01772,-0.01378*
1,1,0.03150,-0.01772,-0.01378*
%
%ADD32ROUNDEDRECTD32*%
%ADD33R,0.04900X0.02600*%
%ADD34R,0.05512X0.07480*%
%ADD35R,0.05512X0.05906*%
%ADD36R,0.04331X0.03937*%
%ADD37R,0.02756X0.02913*%
%ADD38R,0.05906X0.05512*%
%ADD39R,0.07480X0.05512*%
%ADD40R,0.03740X0.04134*%
%ADD41C,0.05512*%
%ADD42C,0.06299*%
%ADD43R,0.06299X0.06299*%
%ADD44R,0.06299X0.06299*%
%ADD45O,0.03937X0.06693*%
%ADD46C,0.03150*%
G36*
X29842Y98031D02*
X29861Y98029D01*
X29890Y98020D01*
X29898Y98018D01*
X29932Y97999D01*
X29963Y97975D01*
X30455Y97482D01*
X30455Y97482D01*
X30466Y97469D01*
X30479Y97452D01*
X30498Y97418D01*
X30509Y97381D01*
X30509Y97378D01*
X30513Y97342D01*
X30513Y97342D01*
Y87795D01*
X30513Y87795D01*
X30511Y87776D01*
X30509Y87757D01*
X30500Y87728D01*
X30498Y87720D01*
X30479Y87685D01*
X30455Y87655D01*
X27896Y85096D01*
X27866Y85072D01*
X27832Y85053D01*
X27823Y85051D01*
X27795Y85042D01*
X27775Y85040D01*
X27756Y85038D01*
X27756Y85038D01*
X25394D01*
X25394Y85038D01*
X25374Y85040D01*
X25355Y85042D01*
X25327Y85051D01*
X25318Y85053D01*
X25284Y85072D01*
X25254Y85096D01*
X22695Y87655D01*
X22670Y87685D01*
X22652Y87720D01*
X22649Y87728D01*
X22641Y87757D01*
X22639Y87776D01*
X22637Y87795D01*
X22637Y87795D01*
Y97342D01*
X22637Y97342D01*
X22639Y97366D01*
X22641Y97381D01*
X22651Y97416D01*
X22652Y97418D01*
D01*
X22652Y97418D01*
X22657Y97429D01*
X22670Y97452D01*
X22683Y97469D01*
X22695Y97482D01*
X22695Y97482D01*
X23187Y97974D01*
X23187Y97975D01*
X23209Y97993D01*
X23217Y97999D01*
X23217Y97999D01*
X23217Y97999D01*
X23242Y98013D01*
X23251Y98017D01*
X23251D01*
X23251Y98018D01*
X23288Y98029D01*
X23313Y98031D01*
X23327Y98032D01*
X23327D01*
X23327D01*
X29823Y98033D01*
X29823Y98033D01*
X29842Y98031D01*
D02*
G37*
D16*
X47028Y128583D02*
D03*
Y126614D02*
D03*
Y124646D02*
D03*
X41201D02*
D03*
Y126614D02*
D03*
Y128583D02*
D03*
D17*
X60236Y79823D02*
D03*
X63976D02*
D03*
X67716D02*
D03*
Y90650D02*
D03*
X63976D02*
D03*
X60236D02*
D03*
X26575Y83268D02*
D03*
D18*
X65531Y69784D02*
D03*
X60532D02*
D03*
X55532D02*
D03*
X50532D02*
D03*
X45531D02*
D03*
X40532D02*
D03*
X35531D02*
D03*
X30531D02*
D03*
X65531Y48327D02*
D03*
X60532D02*
D03*
X55532D02*
D03*
X50532D02*
D03*
X45531D02*
D03*
X40532D02*
D03*
X35531D02*
D03*
X30531D02*
D03*
D19*
X58465Y109153D02*
D03*
Y106595D02*
D03*
Y104035D02*
D03*
Y101476D02*
D03*
X81299Y109153D02*
D03*
Y106595D02*
D03*
Y104035D02*
D03*
Y101476D02*
D03*
D20*
X87598Y69784D02*
D03*
X43307Y24803D02*
D03*
X50532D02*
D03*
X57874D02*
D03*
X65531D02*
D03*
D21*
X36417Y124069D02*
D03*
X25394D02*
D03*
D22*
X31004Y30069D02*
D03*
Y38829D02*
D03*
X70866Y126526D02*
D03*
Y135285D02*
D03*
X20669Y41437D02*
D03*
Y50197D02*
D03*
D23*
X73447Y25197D02*
D03*
Y20079D02*
D03*
X52323Y84352D02*
D03*
Y89470D02*
D03*
X78614Y42077D02*
D03*
Y47195D02*
D03*
X81299Y120669D02*
D03*
Y115551D02*
D03*
X86614Y42077D02*
D03*
Y47195D02*
D03*
X63630Y124055D02*
D03*
Y129173D02*
D03*
X49213Y109153D02*
D03*
Y104035D02*
D03*
X87598Y93504D02*
D03*
Y88386D02*
D03*
Y81299D02*
D03*
Y76181D02*
D03*
D24*
X18406Y69784D02*
D03*
X22933D02*
D03*
X18406Y63976D02*
D03*
X22933D02*
D03*
D25*
X98425Y52165D02*
D03*
X7874D02*
D03*
D26*
X20669Y84055D02*
D03*
X32480D02*
D03*
D27*
X33661Y17717D02*
D03*
Y10236D02*
D03*
X3543Y17717D02*
D03*
Y10236D02*
D03*
D28*
X27362Y22638D02*
D03*
X21457D02*
D03*
X10039D02*
D03*
D29*
X91535Y28248D02*
D03*
X85630D02*
D03*
X91535Y24902D02*
D03*
X85630D02*
D03*
D30*
X55709Y17224D02*
D03*
X58268D02*
D03*
X48031D02*
D03*
X50591D02*
D03*
X53150D02*
D03*
D31*
X48425Y6693D02*
D03*
X57874D02*
D03*
D32*
X40551Y16339D02*
D03*
X65748D02*
D03*
D33*
X96698Y14724D02*
D03*
Y8898D02*
D03*
X80698D02*
D03*
Y14724D02*
D03*
D34*
X33268Y105315D02*
D03*
X21850D02*
D03*
D35*
X46614Y137795D02*
D03*
X40315D02*
D03*
X73189Y116614D02*
D03*
X66890D02*
D03*
X24232Y137795D02*
D03*
X30531D02*
D03*
D36*
X74360Y56398D02*
D03*
Y61713D02*
D03*
D37*
X53559Y79035D02*
D03*
X50094D02*
D03*
D38*
X76614Y88386D02*
D03*
Y82087D02*
D03*
X54636Y127362D02*
D03*
Y121063D02*
D03*
X18406Y120669D02*
D03*
Y126969D02*
D03*
D39*
X42323Y95472D02*
D03*
Y84055D02*
D03*
D40*
X54528Y136614D02*
D03*
X59646D02*
D03*
X42354Y115945D02*
D03*
X47472D02*
D03*
D41*
X24409Y13780D02*
D03*
X12992D02*
D03*
D42*
X8858Y66614D02*
D03*
Y76614D02*
D03*
Y86614D02*
D03*
Y96614D02*
D03*
Y106614D02*
D03*
Y116614D02*
D03*
Y126614D02*
D03*
X70807Y150591D02*
D03*
X60807D02*
D03*
X97441Y66614D02*
D03*
Y76614D02*
D03*
Y86614D02*
D03*
Y96614D02*
D03*
Y106614D02*
D03*
Y116614D02*
D03*
Y126614D02*
D03*
X33327Y150591D02*
D03*
X43327D02*
D03*
D43*
X8858Y136614D02*
D03*
X97441D02*
D03*
D44*
X80807Y150591D02*
D03*
X23327D02*
D03*
D45*
X40157Y6693D02*
D03*
X66142D02*
D03*
D46*
X73228Y38583D02*
D03*
X52165Y150680D02*
D03*
X41339Y121063D02*
D03*
X45938D02*
D03*
X42157Y110571D02*
D03*
X63976Y75119D02*
D03*
X96448Y33633D02*
D03*
X91535Y36417D02*
D03*
X72292Y14724D02*
D03*
Y8898D02*
D03*
X64680Y135285D02*
D03*
X49383Y131759D02*
D03*
X71862Y95571D02*
D03*
X8629Y6193D02*
D03*
X24348D02*
D03*
X81693Y68683D02*
D03*
X91340Y129872D02*
D03*
X23684Y112858D02*
D03*
X15441Y23925D02*
D03*
X18701Y97342D02*
D03*
X89567Y139044D02*
D03*
X70039Y66614D02*
D03*
X37451Y76863D02*
D03*
X81693Y130905D02*
D03*
X66929Y109252D02*
D03*
X26575Y48063D02*
D03*
X49073Y94238D02*
D03*
X52165Y74973D02*
D03*
X35531Y143063D02*
D03*
X45452Y131928D02*
D03*
X52165Y142717D02*
D03*
X86614Y51181D02*
D03*
X85630Y34449D02*
D03*
X41608Y76863D02*
D03*
X45262D02*
D03*
X78740Y126614D02*
D03*
X18406Y141732D02*
D03*
X76771Y133858D02*
D03*
X63976Y142717D02*
D03*
X59055Y57087D02*
D03*
X71862Y47195D02*
D03*
X69889Y52165D02*
D03*
X58071Y74973D02*
D03*
X70039D02*
D03*
X11811Y34449D02*
D03*
X22638D02*
D03*
X23465Y73819D02*
D03*
X32480Y61024D02*
D03*
X78740Y95472D02*
D03*
X54630Y34449D02*
D03*
X46850D02*
D03*
M02*
