G04*
G04 #@! TF.GenerationSoftware,Altium Limited,Altium Designer,19.1.8 (144)*
G04*
G04 Layer_Color=16711935*
%FSLAX25Y25*%
%MOIN*%
G70*
G01*
G75*
%ADD11C,0.00787*%
%ADD78C,0.01000*%
G36*
X121306Y80750D02*
X121361D01*
X121415Y80745D01*
X121546Y80735D01*
X121680Y80720D01*
X121826Y80700D01*
X121960Y80675D01*
X121966D01*
X121976Y80670D01*
X121995Y80665D01*
X122020Y80660D01*
X122050Y80655D01*
X122085Y80645D01*
X122166Y80615D01*
X122256Y80585D01*
X122355Y80540D01*
X122450Y80495D01*
X122546Y80435D01*
X122550D01*
X122555Y80430D01*
X122585Y80405D01*
X122626Y80370D01*
X122676Y80320D01*
X122736Y80260D01*
X122795Y80185D01*
X122851Y80100D01*
X122900Y80005D01*
Y80000D01*
X122906Y79995D01*
X122910Y79980D01*
X122921Y79960D01*
X122931Y79935D01*
X122941Y79905D01*
X122960Y79825D01*
X122980Y79735D01*
X123001Y79625D01*
X123015Y79500D01*
X123021Y79360D01*
Y79295D01*
X123015Y79265D01*
Y79225D01*
X123005Y79135D01*
X122991Y79035D01*
X122970Y78930D01*
X122941Y78820D01*
X122900Y78715D01*
Y78710D01*
X122896Y78705D01*
X122886Y78690D01*
X122875Y78670D01*
X122851Y78625D01*
X122810Y78560D01*
X122760Y78495D01*
X122696Y78420D01*
X122626Y78350D01*
X122540Y78285D01*
X122536D01*
X122530Y78280D01*
X122515Y78270D01*
X122501Y78260D01*
X122445Y78230D01*
X122380Y78195D01*
X122295Y78155D01*
X122195Y78115D01*
X122081Y78075D01*
X121956Y78045D01*
X121950D01*
X121941Y78040D01*
X121921D01*
X121896Y78035D01*
X121861Y78030D01*
X121820Y78020D01*
X121775Y78015D01*
X121721Y78010D01*
X121666Y78000D01*
X121600Y77995D01*
X121466Y77980D01*
X121310Y77975D01*
X121141Y77970D01*
X121135D01*
X121121D01*
X121096D01*
X121061D01*
X121020D01*
X120970Y77975D01*
X120915D01*
X120855Y77980D01*
X120730Y77985D01*
X120590Y78000D01*
X120456Y78015D01*
X120320Y78040D01*
X120316D01*
X120306Y78045D01*
X120285Y78050D01*
X120265Y78055D01*
X120236Y78065D01*
X120201Y78075D01*
X120121Y78100D01*
X120030Y78135D01*
X119931Y78175D01*
X119831Y78230D01*
X119736Y78290D01*
X119730D01*
X119726Y78300D01*
X119695Y78320D01*
X119656Y78360D01*
X119600Y78410D01*
X119541Y78470D01*
X119481Y78545D01*
X119425Y78630D01*
X119376Y78725D01*
Y78730D01*
X119370Y78735D01*
X119366Y78750D01*
X119355Y78770D01*
X119345Y78800D01*
X119335Y78830D01*
X119316Y78905D01*
X119296Y78995D01*
X119275Y79105D01*
X119261Y79225D01*
X119255Y79360D01*
Y79425D01*
X119261Y79460D01*
Y79495D01*
X119271Y79590D01*
X119286Y79690D01*
X119310Y79800D01*
X119341Y79910D01*
X119380Y80010D01*
Y80015D01*
X119386Y80020D01*
X119395Y80035D01*
X119405Y80055D01*
X119430Y80100D01*
X119471Y80160D01*
X119526Y80230D01*
X119586Y80300D01*
X119660Y80375D01*
X119746Y80440D01*
X119750D01*
X119755Y80445D01*
X119771Y80455D01*
X119790Y80465D01*
X119841Y80495D01*
X119911Y80530D01*
X119995Y80570D01*
X120096Y80610D01*
X120211Y80650D01*
X120335Y80680D01*
X120341D01*
X120351Y80685D01*
X120370D01*
X120396Y80690D01*
X120431Y80700D01*
X120470Y80705D01*
X120516Y80710D01*
X120565Y80720D01*
X120625Y80725D01*
X120686Y80730D01*
X120820Y80745D01*
X120975Y80750D01*
X121141Y80755D01*
X121145D01*
X121160D01*
X121186D01*
X121221D01*
X121260D01*
X121306Y80750D01*
D02*
G37*
G36*
X122106Y77190D02*
X122956D01*
Y76310D01*
X122106D01*
Y74725D01*
X121435D01*
X119331Y76280D01*
Y77190D01*
X121456D01*
Y77680D01*
X122106D01*
Y77190D01*
D02*
G37*
G36*
X55020Y-17651D02*
X53480Y-20546D01*
X52475D01*
X54080Y-17611D01*
X52365D01*
Y-16931D01*
X55020D01*
Y-17651D01*
D02*
G37*
G36*
X50575Y-16861D02*
X50630Y-16866D01*
X50690Y-16871D01*
X50760Y-16881D01*
X50835Y-16891D01*
X50990Y-16926D01*
X51075Y-16951D01*
X51155Y-16976D01*
X51235Y-17011D01*
X51310Y-17051D01*
X51380Y-17096D01*
X51445Y-17146D01*
X51450Y-17151D01*
X51460Y-17161D01*
X51475Y-17176D01*
X51500Y-17196D01*
X51525Y-17226D01*
X51550Y-17261D01*
X51580Y-17306D01*
X51615Y-17351D01*
X51645Y-17406D01*
X51675Y-17466D01*
X51700Y-17536D01*
X51730Y-17606D01*
X51750Y-17681D01*
X51765Y-17766D01*
X51775Y-17856D01*
X51780Y-17951D01*
Y-17956D01*
Y-17966D01*
Y-17981D01*
Y-18006D01*
X51775Y-18036D01*
X51770Y-18071D01*
X51760Y-18151D01*
X51740Y-18251D01*
X51715Y-18356D01*
X51675Y-18471D01*
X51625Y-18586D01*
Y-18591D01*
X51620Y-18601D01*
X51610Y-18616D01*
X51595Y-18641D01*
X51580Y-18666D01*
X51560Y-18701D01*
X51505Y-18781D01*
X51435Y-18881D01*
X51350Y-18991D01*
X51245Y-19111D01*
X51125Y-19241D01*
X51115Y-19251D01*
X51090Y-19276D01*
X51045Y-19321D01*
X50990Y-19371D01*
X50925Y-19431D01*
X50855Y-19496D01*
X50700Y-19631D01*
X50690Y-19636D01*
X50665Y-19656D01*
X50630Y-19686D01*
X50585Y-19721D01*
X50485Y-19801D01*
X50440Y-19836D01*
X50400Y-19866D01*
X51940D01*
Y-20546D01*
X49280D01*
Y-19961D01*
X49285Y-19956D01*
X49295Y-19951D01*
X49315Y-19936D01*
X49335Y-19916D01*
X49365Y-19891D01*
X49400Y-19861D01*
X49480Y-19796D01*
X49575Y-19721D01*
X49675Y-19636D01*
X49780Y-19546D01*
X49885Y-19456D01*
X49890Y-19451D01*
X49895Y-19446D01*
X49910Y-19431D01*
X49930Y-19416D01*
X49980Y-19371D01*
X50045Y-19311D01*
X50120Y-19241D01*
X50200Y-19161D01*
X50280Y-19081D01*
X50360Y-19001D01*
X50365Y-18996D01*
X50370Y-18986D01*
X50385Y-18976D01*
X50405Y-18956D01*
X50450Y-18901D01*
X50510Y-18836D01*
X50570Y-18756D01*
X50635Y-18676D01*
X50695Y-18591D01*
X50745Y-18511D01*
X50750Y-18501D01*
X50765Y-18476D01*
X50785Y-18431D01*
X50805Y-18376D01*
X50825Y-18311D01*
X50845Y-18241D01*
X50860Y-18161D01*
X50865Y-18076D01*
Y-18071D01*
Y-18066D01*
Y-18036D01*
X50855Y-17986D01*
X50845Y-17931D01*
X50825Y-17871D01*
X50800Y-17806D01*
X50760Y-17741D01*
X50710Y-17686D01*
X50705Y-17681D01*
X50685Y-17666D01*
X50650Y-17641D01*
X50600Y-17616D01*
X50540Y-17596D01*
X50470Y-17571D01*
X50385Y-17556D01*
X50290Y-17551D01*
X50240D01*
X50205Y-17556D01*
X50165Y-17561D01*
X50125Y-17566D01*
X50030Y-17586D01*
X50025D01*
X50010Y-17591D01*
X49985Y-17601D01*
X49950Y-17611D01*
X49915Y-17621D01*
X49870Y-17641D01*
X49780Y-17676D01*
X49775D01*
X49760Y-17686D01*
X49735Y-17696D01*
X49705Y-17711D01*
X49635Y-17746D01*
X49565Y-17791D01*
X49560D01*
X49550Y-17801D01*
X49520Y-17821D01*
X49475Y-17846D01*
X49440Y-17871D01*
X49370D01*
Y-17086D01*
X49375Y-17081D01*
X49400Y-17071D01*
X49435Y-17056D01*
X49485Y-17041D01*
X49550Y-17016D01*
X49635Y-16991D01*
X49730Y-16966D01*
X49845Y-16936D01*
X49850D01*
X49860Y-16931D01*
X49875Y-16926D01*
X49900Y-16921D01*
X49930Y-16916D01*
X49965Y-16911D01*
X50045Y-16896D01*
X50140Y-16881D01*
X50245Y-16866D01*
X50355Y-16861D01*
X50470Y-16856D01*
X50530D01*
X50575Y-16861D01*
D02*
G37*
%LPC*%
G36*
X121260Y79845D02*
X121141D01*
X121131D01*
X121110D01*
X121075D01*
X121030D01*
X120975Y79840D01*
X120911D01*
X120845Y79835D01*
X120771Y79830D01*
X120610Y79815D01*
X120456Y79795D01*
X120380Y79785D01*
X120316Y79770D01*
X120250Y79750D01*
X120195Y79730D01*
X120191D01*
X120185Y79725D01*
X120150Y79710D01*
X120110Y79680D01*
X120055Y79645D01*
X120006Y79590D01*
X119966Y79530D01*
X119931Y79450D01*
X119925Y79405D01*
X119921Y79360D01*
Y79350D01*
X119925Y79320D01*
X119936Y79270D01*
X119956Y79215D01*
X119985Y79155D01*
X120036Y79095D01*
X120065Y79065D01*
X120106Y79040D01*
X120145Y79010D01*
X120195Y78990D01*
X120201D01*
X120211Y78985D01*
X120226Y78980D01*
X120250Y78975D01*
X120281Y78965D01*
X120316Y78955D01*
X120361Y78945D01*
X120415Y78935D01*
X120475Y78925D01*
X120545Y78915D01*
X120621Y78905D01*
X120705Y78895D01*
X120800Y78890D01*
X120905Y78885D01*
X121020Y78880D01*
X121141D01*
X121145D01*
X121170D01*
X121205D01*
X121250D01*
X121300Y78885D01*
X121365D01*
X121435Y78890D01*
X121505Y78895D01*
X121660Y78905D01*
X121816Y78925D01*
X121890Y78940D01*
X121960Y78955D01*
X122026Y78970D01*
X122081Y78990D01*
X122085D01*
X122090Y78995D01*
X122125Y79010D01*
X122166Y79040D01*
X122215Y79080D01*
X122271Y79130D01*
X122310Y79195D01*
X122345Y79270D01*
X122351Y79315D01*
X122355Y79360D01*
Y79370D01*
X122351Y79405D01*
X122341Y79450D01*
X122320Y79505D01*
X122291Y79565D01*
X122240Y79625D01*
X122205Y79655D01*
X122170Y79685D01*
X122131Y79710D01*
X122081Y79730D01*
X122075D01*
X122065Y79735D01*
X122050Y79740D01*
X122026Y79750D01*
X121995Y79755D01*
X121960Y79765D01*
X121911Y79775D01*
X121861Y79790D01*
X121800Y79800D01*
X121730Y79810D01*
X121655Y79820D01*
X121565Y79825D01*
X121476Y79835D01*
X121370Y79840D01*
X121260Y79845D01*
D02*
G37*
G36*
X121456Y76310D02*
X120226D01*
X121456Y75395D01*
Y76310D01*
D02*
G37*
%LPD*%
D11*
X0Y157480D02*
X106299D01*
Y0D02*
Y157480D01*
X0Y0D02*
X106299D01*
X0D02*
Y157480D01*
D78*
X121063D02*
X123063Y151480D01*
X119063D02*
X121063Y157480D01*
X119063Y6000D02*
X121063Y0D01*
X123063Y6000D01*
X121063Y81755D02*
Y157480D01*
Y0D02*
Y73725D01*
X107693Y157480D02*
X122063D01*
X107693Y0D02*
X122063D01*
X0Y-18701D02*
X6000Y-16701D01*
X0Y-18701D02*
X6000Y-20701D01*
X100299D02*
X106299Y-18701D01*
X100299Y-16701D02*
X106299Y-18701D01*
X0D02*
X48280D01*
X56020D02*
X106299D01*
X0Y-19701D02*
Y-1394D01*
X106299Y-19701D02*
Y-1394D01*
M02*
