G04*
G04 #@! TF.GenerationSoftware,Altium Limited,Altium Designer,19.1.8 (144)*
G04*
G04 Layer_Color=255*
%FSLAX25Y25*%
%MOIN*%
G70*
G01*
G75*
%ADD20C,0.05118*%
%ADD33R,0.04900X0.02600*%
%ADD47R,0.02638X0.01181*%
%ADD48R,0.02362X0.03937*%
%ADD49O,0.02362X0.05709*%
%ADD50O,0.05906X0.01772*%
%ADD51C,0.04724*%
%ADD52R,0.04724X0.14567*%
%ADD53R,0.03268X0.02461*%
%ADD54R,0.03740X0.03347*%
%ADD55R,0.02953X0.02362*%
%ADD56R,0.11811X0.13780*%
%ADD57R,0.02362X0.05512*%
%ADD58R,0.03937X0.02756*%
%ADD59R,0.02756X0.06299*%
%ADD60R,0.03150X0.02559*%
%ADD61O,0.01575X0.05315*%
%ADD62R,0.07480X0.07087*%
G04:AMPARAMS|DCode=63|XSize=62.99mil|YSize=55.12mil|CornerRadius=13.78mil|HoleSize=0mil|Usage=FLASHONLY|Rotation=180.000|XOffset=0mil|YOffset=0mil|HoleType=Round|Shape=RoundedRectangle|*
%AMROUNDEDRECTD63*
21,1,0.06299,0.02756,0,0,180.0*
21,1,0.03543,0.05512,0,0,180.0*
1,1,0.02756,-0.01772,0.01378*
1,1,0.02756,0.01772,0.01378*
1,1,0.02756,0.01772,-0.01378*
1,1,0.02756,-0.01772,-0.01378*
%
%ADD63ROUNDEDRECTD63*%
%ADD64R,0.05118X0.07087*%
%ADD65R,0.05118X0.05512*%
%ADD66R,0.03937X0.03543*%
%ADD67R,0.02362X0.02520*%
%ADD68R,0.05512X0.05118*%
%ADD69R,0.07087X0.05118*%
%ADD70R,0.03347X0.03740*%
%ADD73C,0.05906*%
%ADD74R,0.05906X0.05906*%
%ADD75R,0.05906X0.05906*%
%ADD76O,0.03543X0.06299*%
D20*
X24409Y13780D02*
D03*
X12992D02*
D03*
D33*
X96698Y14724D02*
D03*
Y8898D02*
D03*
X80698D02*
D03*
Y14724D02*
D03*
D47*
X47028Y128583D02*
D03*
Y126614D02*
D03*
Y124646D02*
D03*
X41201D02*
D03*
Y126614D02*
D03*
Y128583D02*
D03*
D48*
X60236Y79823D02*
D03*
X63976D02*
D03*
X67716D02*
D03*
Y90650D02*
D03*
X63976D02*
D03*
X60236D02*
D03*
X26575Y83268D02*
D03*
D49*
X65531Y69784D02*
D03*
X60532D02*
D03*
X55532D02*
D03*
X50532D02*
D03*
X45531D02*
D03*
X40532D02*
D03*
X35531D02*
D03*
X30531D02*
D03*
X65531Y48327D02*
D03*
X60532D02*
D03*
X55532D02*
D03*
X50532D02*
D03*
X45531D02*
D03*
X40532D02*
D03*
X35531D02*
D03*
X30531D02*
D03*
D50*
X58465Y109153D02*
D03*
Y106595D02*
D03*
Y104035D02*
D03*
Y101476D02*
D03*
X81299Y109153D02*
D03*
Y106595D02*
D03*
Y104035D02*
D03*
Y101476D02*
D03*
D51*
X87598Y69784D02*
D03*
X43307Y24803D02*
D03*
X50532D02*
D03*
X57874D02*
D03*
X65531D02*
D03*
D52*
X36417Y124069D02*
D03*
X25394D02*
D03*
D53*
X31004Y30069D02*
D03*
Y38829D02*
D03*
X70866Y126526D02*
D03*
Y135285D02*
D03*
X20669Y41437D02*
D03*
Y50197D02*
D03*
D54*
X73447Y25197D02*
D03*
Y20079D02*
D03*
X52323Y84352D02*
D03*
Y89470D02*
D03*
X78614Y42077D02*
D03*
Y47195D02*
D03*
X81299Y120669D02*
D03*
Y115551D02*
D03*
X86614Y42077D02*
D03*
Y47195D02*
D03*
X63630Y124055D02*
D03*
Y129173D02*
D03*
X49213Y109153D02*
D03*
Y104035D02*
D03*
X87598Y93504D02*
D03*
Y88386D02*
D03*
Y81299D02*
D03*
Y76181D02*
D03*
D55*
X18406Y69784D02*
D03*
X22933D02*
D03*
X18406Y63976D02*
D03*
X22933D02*
D03*
D56*
X98425Y52165D02*
D03*
X7874D02*
D03*
D57*
X20669Y84055D02*
D03*
X32480D02*
D03*
D58*
X33661Y17717D02*
D03*
Y10236D02*
D03*
X3543Y17717D02*
D03*
Y10236D02*
D03*
D59*
X27362Y22638D02*
D03*
X21457D02*
D03*
X10039D02*
D03*
D60*
X91535Y28248D02*
D03*
X85630D02*
D03*
X91535Y24902D02*
D03*
X85630D02*
D03*
D61*
X55709Y17224D02*
D03*
X58268D02*
D03*
X48031D02*
D03*
X50591D02*
D03*
X53150D02*
D03*
D62*
X48425Y6693D02*
D03*
X57874D02*
D03*
D63*
X40551Y16339D02*
D03*
X65748D02*
D03*
D64*
X33268Y105315D02*
D03*
X21850D02*
D03*
D65*
X46614Y137795D02*
D03*
X40315D02*
D03*
X73189Y116614D02*
D03*
X66890D02*
D03*
X24232Y137795D02*
D03*
X30531D02*
D03*
D66*
X74360Y56398D02*
D03*
Y61713D02*
D03*
D67*
X53559Y79035D02*
D03*
X50094D02*
D03*
D68*
X76614Y88386D02*
D03*
Y82087D02*
D03*
X54636Y127362D02*
D03*
Y121063D02*
D03*
X18406Y120669D02*
D03*
Y126969D02*
D03*
D69*
X42323Y95472D02*
D03*
Y84055D02*
D03*
D70*
X54528Y136614D02*
D03*
X59646D02*
D03*
X42354Y115945D02*
D03*
X47472D02*
D03*
D73*
X8858Y66614D02*
D03*
Y76614D02*
D03*
Y86614D02*
D03*
Y96614D02*
D03*
Y106614D02*
D03*
Y116614D02*
D03*
Y126614D02*
D03*
X70807Y150591D02*
D03*
X60807D02*
D03*
X97441Y66614D02*
D03*
Y76614D02*
D03*
Y86614D02*
D03*
Y96614D02*
D03*
Y106614D02*
D03*
Y116614D02*
D03*
Y126614D02*
D03*
X33327Y150591D02*
D03*
X43327D02*
D03*
D74*
X8858Y136614D02*
D03*
X97441D02*
D03*
D75*
X80807Y150591D02*
D03*
X23327D02*
D03*
D76*
X40157Y6693D02*
D03*
X66142D02*
D03*
M02*
