G04*
G04 #@! TF.GenerationSoftware,Altium Limited,Altium Designer,19.1.8 (144)*
G04*
G04 Layer_Color=32768*
%FSLAX25Y25*%
%MOIN*%
G70*
G01*
G75*
%ADD10C,0.00787*%
%ADD12C,0.00394*%
%ADD14C,0.00600*%
%ADD81C,0.00197*%
G36*
X80798Y6598D02*
X77248D01*
Y17024D01*
X80798D01*
Y19811D01*
X96598D01*
Y17024D01*
X100148D01*
Y6598D01*
X96598D01*
Y3811D01*
X80798D01*
Y6598D01*
D02*
G37*
D10*
X53150Y4390D02*
Y9390D01*
X50650Y6890D02*
X55650D01*
X35433Y-5709D02*
Y21850D01*
X70866D01*
Y-5709D02*
Y21850D01*
X35433Y-5709D02*
X70866D01*
D12*
X44114Y124646D02*
Y128583D01*
X42146Y126614D02*
X46083D01*
X63976Y83268D02*
Y87205D01*
X62008Y85236D02*
X65945D01*
X48031Y57087D02*
Y61024D01*
X46063Y59055D02*
X50000D01*
X67913Y105315D02*
X71850D01*
X69882Y103347D02*
Y107283D01*
X30906Y122888D02*
Y125250D01*
X29724Y124069D02*
X32087D01*
X31004Y32480D02*
Y36417D01*
X29035Y34449D02*
X32972D01*
X73447Y20768D02*
Y24508D01*
X71577Y22638D02*
X75317D01*
X20669Y68701D02*
Y70866D01*
X19587Y69784D02*
X21752D01*
X15846Y71949D02*
X25492D01*
X15846Y67618D02*
X25492D01*
X15846D02*
Y71949D01*
X25492Y67618D02*
Y71949D01*
X26575Y89262D02*
Y93199D01*
X24606Y91230D02*
X28543D01*
X27559Y103347D02*
Y107283D01*
X25591Y105315D02*
X29528D01*
X43465Y135827D02*
Y139764D01*
X41496Y137795D02*
X45433D01*
X72490Y59055D02*
X76230D01*
X74360Y57185D02*
Y60925D01*
X50803Y79035D02*
X52850D01*
X51826Y78012D02*
Y80059D01*
X74646Y85236D02*
X78583D01*
X76614Y83268D02*
Y87205D01*
X40354Y89764D02*
X44291D01*
X42323Y87795D02*
Y91732D01*
X70039Y114646D02*
Y118583D01*
X68071Y116614D02*
X72008D01*
X52667Y124213D02*
X56604D01*
X54636Y122244D02*
Y126181D01*
X16437Y123819D02*
X20374D01*
X18406Y121850D02*
Y125787D01*
X27382Y135827D02*
Y139764D01*
X25413Y137795D02*
X29350D01*
X70866Y128937D02*
Y132874D01*
X68898Y130905D02*
X72835D01*
X20669Y43848D02*
Y47785D01*
X18701Y45817D02*
X22638D01*
X52323Y85041D02*
Y88781D01*
X50453Y86911D02*
X54193D01*
X76744Y44636D02*
X80484D01*
X78614Y42766D02*
Y46506D01*
X79429Y118110D02*
X83169D01*
X81299Y116240D02*
Y119980D01*
X84744Y44636D02*
X88484D01*
X86614Y42766D02*
Y46506D01*
X20669Y62894D02*
Y65059D01*
X19587Y63976D02*
X21752D01*
X15846Y66142D02*
X25492D01*
X15846Y61811D02*
X25492D01*
X15846D02*
Y66142D01*
X25492Y61811D02*
Y66142D01*
X61759Y126614D02*
X65500D01*
X63630Y124744D02*
Y128484D01*
X57087Y134744D02*
Y138484D01*
X55216Y136614D02*
X58957D01*
X47343Y106595D02*
X51083D01*
X49213Y104724D02*
Y108465D01*
X44913Y114075D02*
Y117815D01*
X43043Y115945D02*
X46783D01*
X85728Y90945D02*
X89468D01*
X87598Y89075D02*
Y92815D01*
X85728Y78740D02*
X89468D01*
X87598Y76870D02*
Y80610D01*
D14*
X80798Y3811D02*
X96598D01*
Y6598D01*
Y17024D02*
Y19811D01*
X80798D02*
X96598D01*
X80798Y17024D02*
Y19811D01*
Y3811D02*
Y6598D01*
X77248D02*
X80798D01*
X96598D02*
X100148D01*
Y17024D01*
X96598D02*
X100148D01*
X77248D02*
X80798D01*
X77248Y6598D02*
Y17024D01*
D81*
X38996Y122677D02*
X49232D01*
X38996Y130551D02*
X49232D01*
Y122677D02*
Y130551D01*
X38996Y122677D02*
Y130551D01*
X56890Y76870D02*
X71063D01*
X56890Y93602D02*
X71063D01*
X56890Y76870D02*
Y93602D01*
X71063Y76870D02*
Y93602D01*
X27362Y73622D02*
X68701D01*
X27362Y44488D02*
X68701D01*
Y73622D01*
X27362Y44488D02*
Y73622D01*
X54528Y98228D02*
Y112402D01*
X85236Y98228D02*
Y112402D01*
X54528D02*
X85236D01*
X54528Y98228D02*
X85236D01*
X39764Y115211D02*
Y132927D01*
X31102Y115211D02*
X39764D01*
X22047D02*
X31102D01*
X22047D02*
Y128990D01*
Y132927D01*
X39764D01*
X27657Y27756D02*
X34350D01*
X27657Y41142D02*
X34350D01*
X27657Y27756D02*
Y41142D01*
X34350Y27756D02*
Y41142D01*
X70494Y27953D02*
X76400D01*
X70494Y17323D02*
X76400D01*
Y27953D01*
X70494Y17323D02*
Y27953D01*
X16535Y80315D02*
X36614D01*
X16535Y98819D02*
X36614D01*
X16535Y80315D02*
Y98819D01*
X36614Y80315D02*
Y98819D01*
X18701Y11811D02*
Y15748D01*
X16732Y13780D02*
X20669D01*
X591Y26772D02*
X36614D01*
Y1575D02*
Y26772D01*
X591Y1575D02*
X36614D01*
X591D02*
Y26772D01*
X18307Y100787D02*
X36811D01*
X18307Y109843D02*
X36811D01*
Y100787D02*
Y109843D01*
X18307Y100787D02*
Y109843D01*
X36772Y134055D02*
X50157D01*
X36772Y141535D02*
X50157D01*
Y134055D02*
Y141535D01*
X36772Y134055D02*
Y141535D01*
X71408Y53740D02*
Y64370D01*
X77313Y53740D02*
Y64370D01*
X71408Y53740D02*
X77313D01*
X71408Y64370D02*
X77313D01*
X55567Y77067D02*
Y81004D01*
X48086Y77067D02*
Y81004D01*
Y77067D02*
X55567D01*
X48086Y81004D02*
X55567D01*
X80354Y78543D02*
Y91929D01*
X72874Y78543D02*
Y91929D01*
X80354D01*
X72874Y78543D02*
X80354D01*
X46850Y80512D02*
Y99016D01*
X37795Y80512D02*
Y99016D01*
X46850D01*
X37795Y80512D02*
X46850D01*
X63346Y112874D02*
X76732D01*
X63346Y120354D02*
X76732D01*
Y112874D02*
Y120354D01*
X63346Y112874D02*
Y120354D01*
X58376Y117520D02*
Y130905D01*
X50896Y117520D02*
Y130905D01*
X58376D01*
X50896Y117520D02*
X58376D01*
X14665Y117126D02*
Y130512D01*
X22146Y117126D02*
Y130512D01*
X14665Y117126D02*
X22146D01*
X14665Y130512D02*
X22146D01*
X20689Y141535D02*
X34075D01*
X20689Y134055D02*
X34075D01*
X20689D02*
Y141535D01*
X34075Y134055D02*
Y141535D01*
X67520Y124213D02*
X74213D01*
X67520Y137598D02*
X74213D01*
X67520Y124213D02*
Y137598D01*
X74213Y124213D02*
Y137598D01*
X17323Y39124D02*
X24016D01*
X17323Y52510D02*
X24016D01*
X17323Y39124D02*
Y52510D01*
X24016Y39124D02*
Y52510D01*
X49370Y81596D02*
X55276D01*
X49370Y92226D02*
X55276D01*
X49370Y81596D02*
Y92226D01*
X55276Y81596D02*
Y92226D01*
X75661Y39321D02*
Y49951D01*
X81567Y39321D02*
Y49951D01*
X75661Y39321D02*
X81567D01*
X75661Y49951D02*
X81567D01*
X84252Y112795D02*
Y123425D01*
X78347Y112795D02*
Y123425D01*
X84252D01*
X78347Y112795D02*
X84252D01*
X83661Y39321D02*
Y49951D01*
X89567Y39321D02*
Y49951D01*
X83661Y39321D02*
X89567D01*
X83661Y49951D02*
X89567D01*
X60677Y121299D02*
Y131929D01*
X66582Y121299D02*
Y131929D01*
X60677Y121299D02*
X66582D01*
X60677Y131929D02*
X66582D01*
X51772Y139567D02*
X62402D01*
X51772Y133661D02*
X62402D01*
X51772D02*
Y139567D01*
X62402Y133661D02*
Y139567D01*
X52165Y101279D02*
Y111909D01*
X46260Y101279D02*
Y111909D01*
X52165D01*
X46260Y101279D02*
X52165D01*
X39598Y118898D02*
X50228D01*
X39598Y112992D02*
X50228D01*
X39598D02*
Y118898D01*
X50228Y112992D02*
Y118898D01*
X90551Y85630D02*
Y96260D01*
X84646Y85630D02*
Y96260D01*
X90551D01*
X84646Y85630D02*
X90551D01*
Y73425D02*
Y84055D01*
X84646Y73425D02*
Y84055D01*
X90551D01*
X84646Y73425D02*
X90551D01*
M02*
