M48
;Layer_Color=9474304
;FILE_FORMAT=2:4
INCH,TZ
;TYPE=PLATED
T1F00S00C0.0138
T3F00S00C0.0315
T4F00S00C0.0354
%
T01
X863Y619
X2435
X1544Y2393
X1181Y3445
X2264
X2657Y4806
X3248Y6102
X5906Y5709
X6989Y5217
X7186Y4719
X7323Y3858
X8563Y3445
X9154Y3642
X9645Y3363
X8661Y5118
X8169Y6868
X7004Y6661
X5463Y3445
X4685
X7229Y1472
Y890
X7004Y7497
X6398Y7512
X5807Y7497
X5217
X4526Y7686
X4161
X3745
X2346Y7382
X1870Y9734
X2368Y11286
X4216Y11057
X4134Y12106
X4594
X4545Y13193
X4938Y13176
X5217Y14272
Y15068
X6398Y14272
X6468Y13529
X7677Y13386
X8169Y13091
X7874Y12661
X9134Y12987
X8957Y13904
X6693Y10925
X7186Y9557
X7874Y9547
X4907Y9424
X3553Y14306
X1841Y14173
T03
X1299Y1378
X2441
T04
X886Y6661
X9744
Y7661
Y8661
Y9661
Y10661
Y11661
Y12661
Y13661
X8081Y15059
X7081
X6081
X4333
X3333
X2333
X886Y13661
Y12661
Y11661
Y10661
Y9661
Y8661
Y7661
M30
