M48
;Layer_Color=9474304
;FILE_FORMAT=2:4
INCH,TZ
;TYPE=PLATED
T1F00S00C0.0138
T2F00S00C0.0354
T3F00S00C0.0394
%
T01
X669Y1043
X1224Y650
X1354Y1772
X1392Y2275
X2067
X2638
X3067Y2831
X3069Y3888
X2461Y4176
X2533Y4532
X2365Y5087
X2846Y5036
X3248Y5420
X3752Y5784
X3782Y6164
X4124Y6004
X4104Y5382
X3932Y6537
X3002Y6427
X2553
X793Y6116
X886Y5531
Y4614
X640Y4341
X4823Y4161
X5783Y4094
X6220
X6594Y4103
X7289Y4094
X7678
X7627Y3240
X7028Y3207
Y1772
X7005Y1181
X7733
X8563
X9414Y876
X9719Y1642
X10311Y2924
X9508Y6116
X8240Y6354
X7176Y6427
X7139Y6042
X7491Y5394
X8029Y5036
X6385Y5403
X6399Y6537
X4287Y3300
X3892Y2062
X4508Y1772
X4122Y1181
X5057
X6189
X5765Y1772
X3136Y1181
X2242
X3081Y7150
X3139Y7845
X2448Y7810
X3657Y8115
X4308Y7874
X5651Y7886
X6522Y7874
X7176Y7868
X7288Y7145
X7657Y7150
X8061Y7530
X7709Y8752
X8228Y9432
X9154Y10064
Y10637
X9405Y12161
X7786Y12245
X7638Y12902
X7205Y13583
X7953Y14213
X8970
X9611Y14260
X10026Y15117
X5710Y14987
X5079Y15142
X5933Y14067
X6134Y12380
X6008Y11880
X5669Y12209
X5842Y10882
X6988Y10748
X7678Y11225
X6784Y9258
X6285Y9251
X5315Y9226
X4876Y9234
X4429Y9251
X3187Y9155
X3504Y9764
X2569Y9579
X1868Y10558
X3263Y10890
X3839Y10882
X4508Y10827
X4009Y12439
X4508Y13369
X1239Y13085
X1219Y12177
X256Y14171
X2171Y14823
X10296Y7136
T02
X886Y6661
X9744
Y7661
Y8661
Y9661
Y10661
Y11661
Y12661
Y13661
X886
Y12661
Y11661
Y10661
Y9661
Y8661
Y7661
T03
X4114Y14075
X7256
M30
