G04*
G04 #@! TF.GenerationSoftware,Altium Limited,Altium Designer,19.1.8 (144)*
G04*
G04 Layer_Color=16711935*
%FSLAX25Y25*%
%MOIN*%
G70*
G01*
G75*
%ADD21R,0.03543X0.03937*%
%ADD26R,0.05906X0.05512*%
%ADD27R,0.05512X0.05906*%
%ADD28R,0.04134X0.03740*%
%ADD29R,0.03740X0.04134*%
%ADD30C,0.05118*%
%ADD32C,0.04331*%
%ADD33R,0.06299X0.06299*%
%ADD34C,0.06299*%
%ADD35C,0.03150*%
%ADD59R,0.04900X0.02600*%
%ADD65R,0.06299X0.03937*%
%ADD66R,0.03937X0.06299*%
%ADD67R,0.18110X0.18110*%
%ADD68R,0.09173X0.07480*%
%ADD69O,0.09055X0.03543*%
D21*
X61339Y150433D02*
D03*
X68819D02*
D03*
X65079Y142559D02*
D03*
D26*
X8858Y36811D02*
D03*
Y30512D02*
D03*
X34449Y134252D02*
D03*
Y127953D02*
D03*
D27*
X44685Y149606D02*
D03*
X38386D02*
D03*
X89764Y148425D02*
D03*
X83465D02*
D03*
X20079Y111024D02*
D03*
X26378D02*
D03*
D28*
X34449Y115059D02*
D03*
Y120177D02*
D03*
X6457Y151614D02*
D03*
Y146496D02*
D03*
D29*
X83133Y112987D02*
D03*
X88251D02*
D03*
X50787Y135827D02*
D03*
X55906D02*
D03*
X67323D02*
D03*
X62205D02*
D03*
D30*
X53937Y144094D02*
D03*
X8858Y21260D02*
D03*
D32*
X41142Y140748D02*
D03*
X72559D02*
D03*
D33*
X97441Y136614D02*
D03*
X8858D02*
D03*
D34*
X97441Y126614D02*
D03*
Y116614D02*
D03*
Y106614D02*
D03*
Y96614D02*
D03*
Y86614D02*
D03*
Y76614D02*
D03*
Y66614D02*
D03*
X8858Y126614D02*
D03*
Y116614D02*
D03*
Y106614D02*
D03*
Y96614D02*
D03*
Y86614D02*
D03*
Y76614D02*
D03*
Y66614D02*
D03*
D35*
X38922Y20620D02*
D03*
X30667Y28312D02*
D03*
X103114Y29238D02*
D03*
X95079Y61164D02*
D03*
X102958Y71362D02*
D03*
X31391Y78452D02*
D03*
X80614Y75299D02*
D03*
X65216Y78740D02*
D03*
X71755Y78676D02*
D03*
X2559Y141706D02*
D03*
X100260Y151168D02*
D03*
X18676Y105582D02*
D03*
X38386Y108824D02*
D03*
X20669Y22752D02*
D03*
X59332Y140666D02*
D03*
X12386Y130854D02*
D03*
X13923Y22752D02*
D03*
X57651Y17717D02*
D03*
X77093Y87518D02*
D03*
X25325Y45317D02*
D03*
X30690Y38878D02*
D03*
X57827Y40940D02*
D03*
X24606Y41761D02*
D03*
X48228Y41613D02*
D03*
X62205Y40940D02*
D03*
X65945Y41026D02*
D03*
X72876Y71449D02*
D03*
X63850Y54026D02*
D03*
X76378Y129016D02*
D03*
X76776Y112252D02*
D03*
X82283Y94323D02*
D03*
X77858Y122447D02*
D03*
X25689Y95787D02*
D03*
X42869Y33000D02*
D03*
X23655Y50867D02*
D03*
X8858Y55308D02*
D03*
X71755Y64275D02*
D03*
X74905Y53940D02*
D03*
X50787Y151416D02*
D03*
X89701Y142126D02*
D03*
X96114Y142598D02*
D03*
X57104Y149867D02*
D03*
X45079Y133688D02*
D03*
X40086Y124394D02*
D03*
X56693Y122095D02*
D03*
X76274Y32404D02*
D03*
X37816Y61645D02*
D03*
X37519Y57839D02*
D03*
X41038Y53822D02*
D03*
X41242Y60042D02*
D03*
X39321Y65373D02*
D03*
X28458Y50359D02*
D03*
X94051Y121614D02*
D03*
X91540Y106371D02*
D03*
X12186Y121774D02*
D03*
X6693Y10433D02*
D03*
X85630Y11811D02*
D03*
X77332D02*
D03*
X41217D02*
D03*
X61894D02*
D03*
X97192Y16416D02*
D03*
X21706Y148228D02*
D03*
X7928Y61164D02*
D03*
X22417Y11811D02*
D03*
X26378Y22752D02*
D03*
X72885Y40940D02*
D03*
X12243Y6496D02*
D03*
X94140Y8760D02*
D03*
X70045Y11811D02*
D03*
X50567D02*
D03*
X31363D02*
D03*
X13543Y17717D02*
D03*
X82405Y63535D02*
D03*
X76566Y71496D02*
D03*
X45079Y17717D02*
D03*
X6398Y43408D02*
D03*
X8858Y46143D02*
D03*
X44291Y92510D02*
D03*
X48759Y92345D02*
D03*
X53150Y92262D02*
D03*
X62847Y92510D02*
D03*
X67836Y92578D02*
D03*
X63993Y65373D02*
D03*
X25532Y64275D02*
D03*
X43077Y78740D02*
D03*
X36568Y81149D02*
D03*
X71392Y60417D02*
D03*
X30021Y64275D02*
D03*
X80293Y50359D02*
D03*
X30809Y71496D02*
D03*
X24482Y78100D02*
D03*
X32480Y54199D02*
D03*
X56508Y78855D02*
D03*
X91540Y100643D02*
D03*
X76776Y40940D02*
D03*
X70276Y17717D02*
D03*
Y32068D02*
D03*
X31875Y91550D02*
D03*
X32631Y108904D02*
D03*
X60079Y118799D02*
D03*
X45079Y108268D02*
D03*
X61339Y123799D02*
D03*
X58424Y108824D02*
D03*
X72047Y135827D02*
D03*
X35039Y97638D02*
D03*
X69882Y107480D02*
D03*
X79527Y142126D02*
D03*
D59*
X30079Y145866D02*
D03*
Y151693D02*
D03*
X14079D02*
D03*
Y145866D02*
D03*
D65*
X17520Y31496D02*
D03*
Y36496D02*
D03*
Y41496D02*
D03*
Y46496D02*
D03*
Y51496D02*
D03*
Y56496D02*
D03*
Y61496D02*
D03*
Y66496D02*
D03*
Y71496D02*
D03*
Y76496D02*
D03*
Y81496D02*
D03*
Y86496D02*
D03*
Y91496D02*
D03*
Y96496D02*
D03*
X87598D02*
D03*
Y91496D02*
D03*
Y86496D02*
D03*
Y81496D02*
D03*
Y76496D02*
D03*
Y71496D02*
D03*
Y66496D02*
D03*
Y61496D02*
D03*
Y56496D02*
D03*
Y51496D02*
D03*
Y46496D02*
D03*
Y41496D02*
D03*
Y36496D02*
D03*
Y31496D02*
D03*
D66*
X30079Y102402D02*
D03*
X35079D02*
D03*
X40079D02*
D03*
X45079D02*
D03*
X50079D02*
D03*
X55079D02*
D03*
X60079D02*
D03*
X65079D02*
D03*
X70079D02*
D03*
X75079D02*
D03*
D67*
X52421Y60417D02*
D03*
D68*
X20669Y133110D02*
D03*
Y121614D02*
D03*
X85630Y133110D02*
D03*
Y121614D02*
D03*
D69*
X69685Y128799D02*
D03*
Y123799D02*
D03*
Y118799D02*
D03*
Y113799D02*
D03*
X47087Y128799D02*
D03*
Y123799D02*
D03*
Y118799D02*
D03*
Y113799D02*
D03*
M02*
