G04*
G04 #@! TF.GenerationSoftware,Altium Limited,Altium Designer,19.1.8 (144)*
G04*
G04 Layer_Color=65535*
%FSLAX25Y25*%
%MOIN*%
G70*
G01*
G75*
%ADD10C,0.00984*%
%ADD11C,0.00787*%
%ADD12C,0.00945*%
%ADD13C,0.01000*%
%ADD14C,0.00394*%
%ADD15C,0.00591*%
G36*
X99038Y148370D02*
X99093Y148365D01*
X99153Y148360D01*
X99223Y148350D01*
X99298Y148340D01*
X99453Y148305D01*
X99538Y148280D01*
X99618Y148255D01*
X99698Y148220D01*
X99773Y148180D01*
X99843Y148135D01*
X99908Y148085D01*
X99913Y148080D01*
X99923Y148070D01*
X99938Y148055D01*
X99963Y148035D01*
X99988Y148005D01*
X100013Y147970D01*
X100043Y147925D01*
X100078Y147880D01*
X100108Y147825D01*
X100138Y147765D01*
X100163Y147695D01*
X100193Y147625D01*
X100213Y147550D01*
X100228Y147465D01*
X100238Y147375D01*
X100243Y147280D01*
Y147275D01*
Y147265D01*
Y147250D01*
Y147225D01*
X100238Y147195D01*
X100233Y147160D01*
X100223Y147080D01*
X100203Y146980D01*
X100178Y146875D01*
X100138Y146760D01*
X100088Y146645D01*
Y146640D01*
X100083Y146630D01*
X100073Y146615D01*
X100058Y146590D01*
X100043Y146565D01*
X100023Y146530D01*
X99968Y146450D01*
X99898Y146350D01*
X99813Y146240D01*
X99708Y146120D01*
X99588Y145990D01*
X99578Y145980D01*
X99553Y145955D01*
X99508Y145910D01*
X99453Y145860D01*
X99388Y145800D01*
X99318Y145735D01*
X99163Y145600D01*
X99153Y145595D01*
X99128Y145575D01*
X99093Y145545D01*
X99048Y145510D01*
X98948Y145430D01*
X98903Y145395D01*
X98863Y145365D01*
X100403D01*
Y144685D01*
X97743D01*
Y145270D01*
X97748Y145275D01*
X97758Y145280D01*
X97778Y145295D01*
X97798Y145315D01*
X97828Y145340D01*
X97863Y145370D01*
X97943Y145435D01*
X98038Y145510D01*
X98138Y145595D01*
X98243Y145685D01*
X98348Y145775D01*
X98353Y145780D01*
X98358Y145785D01*
X98373Y145800D01*
X98393Y145815D01*
X98443Y145860D01*
X98508Y145920D01*
X98583Y145990D01*
X98663Y146070D01*
X98743Y146150D01*
X98823Y146230D01*
X98828Y146235D01*
X98833Y146245D01*
X98848Y146255D01*
X98868Y146275D01*
X98913Y146330D01*
X98973Y146395D01*
X99033Y146475D01*
X99098Y146555D01*
X99158Y146640D01*
X99208Y146720D01*
X99213Y146730D01*
X99228Y146755D01*
X99248Y146800D01*
X99268Y146855D01*
X99288Y146920D01*
X99308Y146990D01*
X99323Y147070D01*
X99328Y147155D01*
Y147160D01*
Y147165D01*
Y147195D01*
X99318Y147245D01*
X99308Y147300D01*
X99288Y147360D01*
X99263Y147425D01*
X99223Y147490D01*
X99173Y147545D01*
X99168Y147550D01*
X99148Y147565D01*
X99113Y147590D01*
X99063Y147615D01*
X99003Y147635D01*
X98933Y147660D01*
X98848Y147675D01*
X98753Y147680D01*
X98703D01*
X98668Y147675D01*
X98628Y147670D01*
X98588Y147665D01*
X98493Y147645D01*
X98488D01*
X98473Y147640D01*
X98448Y147630D01*
X98413Y147620D01*
X98378Y147610D01*
X98333Y147590D01*
X98243Y147555D01*
X98238D01*
X98223Y147545D01*
X98198Y147535D01*
X98168Y147520D01*
X98098Y147485D01*
X98028Y147440D01*
X98023D01*
X98013Y147430D01*
X97983Y147410D01*
X97938Y147385D01*
X97903Y147360D01*
X97833D01*
Y148145D01*
X97838Y148150D01*
X97863Y148160D01*
X97898Y148175D01*
X97948Y148190D01*
X98013Y148215D01*
X98098Y148240D01*
X98193Y148265D01*
X98308Y148295D01*
X98313D01*
X98323Y148300D01*
X98338Y148305D01*
X98363Y148310D01*
X98393Y148315D01*
X98428Y148320D01*
X98508Y148335D01*
X98603Y148350D01*
X98708Y148365D01*
X98818Y148370D01*
X98933Y148375D01*
X98993D01*
X99038Y148370D01*
D02*
G37*
G36*
X95998Y148295D02*
X96073D01*
X96158Y148285D01*
X96248Y148275D01*
X96338Y148260D01*
X96428Y148240D01*
X96438D01*
X96468Y148230D01*
X96508Y148215D01*
X96563Y148195D01*
X96628Y148170D01*
X96698Y148140D01*
X96768Y148105D01*
X96838Y148060D01*
X96848Y148055D01*
X96873Y148035D01*
X96908Y148005D01*
X96953Y147965D01*
X97003Y147910D01*
X97058Y147850D01*
X97108Y147775D01*
X97153Y147695D01*
X97158Y147685D01*
X97173Y147655D01*
X97188Y147605D01*
X97213Y147545D01*
X97233Y147465D01*
X97248Y147370D01*
X97263Y147270D01*
X97268Y147155D01*
Y147150D01*
Y147145D01*
Y147130D01*
Y147115D01*
X97263Y147065D01*
X97258Y147000D01*
X97248Y146930D01*
X97233Y146845D01*
X97213Y146760D01*
X97188Y146675D01*
X97183Y146665D01*
X97173Y146635D01*
X97153Y146595D01*
X97128Y146540D01*
X97098Y146480D01*
X97053Y146420D01*
X97008Y146355D01*
X96953Y146295D01*
X96948Y146290D01*
X96938Y146280D01*
X96918Y146260D01*
X96893Y146240D01*
X96863Y146210D01*
X96833Y146180D01*
X96753Y146120D01*
X96748Y146115D01*
X96733Y146105D01*
X96713Y146090D01*
X96683Y146075D01*
X96643Y146050D01*
X96603Y146025D01*
X96508Y145980D01*
X96503D01*
X96483Y145970D01*
X96458Y145960D01*
X96423Y145950D01*
X96378Y145935D01*
X96333Y145920D01*
X96278Y145905D01*
X96218Y145895D01*
X96213D01*
X96193Y145890D01*
X96158Y145885D01*
X96118Y145880D01*
X96063Y145875D01*
X96003Y145870D01*
X95938Y145865D01*
X95398D01*
Y144685D01*
X94488D01*
Y148300D01*
X95968D01*
X95998Y148295D01*
D02*
G37*
G36*
X11005Y145007D02*
X11750D01*
Y144377D01*
X9365D01*
Y145007D01*
X10125D01*
Y146917D01*
X9365D01*
Y147507D01*
X9425D01*
X9470Y147512D01*
X9520D01*
X9575Y147518D01*
X9695Y147527D01*
X9700D01*
X9725Y147532D01*
X9755Y147537D01*
X9790Y147543D01*
X9875Y147567D01*
X9920Y147582D01*
X9960Y147598D01*
X9965Y147602D01*
X9980Y147607D01*
X10000Y147623D01*
X10025Y147637D01*
X10085Y147687D01*
X10140Y147752D01*
X10145Y147757D01*
X10150Y147773D01*
X10160Y147792D01*
X10175Y147822D01*
X10185Y147857D01*
X10195Y147902D01*
X10205Y147948D01*
X10210Y148002D01*
X11005D01*
Y145007D01*
D02*
G37*
G36*
X7510Y147987D02*
X7585D01*
X7670Y147977D01*
X7760Y147968D01*
X7850Y147952D01*
X7940Y147932D01*
X7950D01*
X7980Y147923D01*
X8020Y147907D01*
X8075Y147887D01*
X8140Y147862D01*
X8210Y147832D01*
X8280Y147798D01*
X8350Y147752D01*
X8360Y147748D01*
X8385Y147727D01*
X8420Y147697D01*
X8465Y147657D01*
X8515Y147602D01*
X8570Y147543D01*
X8620Y147468D01*
X8665Y147387D01*
X8670Y147377D01*
X8685Y147347D01*
X8700Y147298D01*
X8725Y147237D01*
X8745Y147157D01*
X8760Y147062D01*
X8775Y146962D01*
X8780Y146847D01*
Y146843D01*
Y146837D01*
Y146823D01*
Y146807D01*
X8775Y146757D01*
X8770Y146693D01*
X8760Y146623D01*
X8745Y146537D01*
X8725Y146452D01*
X8700Y146368D01*
X8695Y146357D01*
X8685Y146327D01*
X8665Y146287D01*
X8640Y146232D01*
X8610Y146172D01*
X8565Y146112D01*
X8520Y146047D01*
X8465Y145987D01*
X8460Y145982D01*
X8450Y145973D01*
X8430Y145952D01*
X8405Y145932D01*
X8375Y145902D01*
X8345Y145872D01*
X8265Y145812D01*
X8260Y145807D01*
X8245Y145798D01*
X8225Y145782D01*
X8195Y145767D01*
X8155Y145742D01*
X8115Y145718D01*
X8020Y145673D01*
X8015D01*
X7995Y145662D01*
X7970Y145652D01*
X7935Y145642D01*
X7890Y145627D01*
X7845Y145612D01*
X7790Y145598D01*
X7730Y145587D01*
X7725D01*
X7705Y145582D01*
X7670Y145577D01*
X7630Y145572D01*
X7575Y145568D01*
X7515Y145562D01*
X7450Y145557D01*
X6910D01*
Y144377D01*
X6000D01*
Y147993D01*
X7480D01*
X7510Y147987D01*
D02*
G37*
G36*
X17564Y65718D02*
Y64713D01*
X14629Y66318D01*
Y64603D01*
X13949D01*
Y67258D01*
X14669D01*
X17564Y65718D01*
D02*
G37*
G36*
Y63313D02*
X16239Y62308D01*
Y61988D01*
X17564D01*
Y61083D01*
X13949D01*
Y62638D01*
X13954Y62713D01*
X13959Y62793D01*
X13964Y62878D01*
X13974Y62968D01*
X13989Y63053D01*
Y63063D01*
X13999Y63093D01*
X14009Y63133D01*
X14024Y63188D01*
X14044Y63253D01*
X14069Y63323D01*
X14104Y63398D01*
X14144Y63468D01*
X14149Y63478D01*
X14164Y63498D01*
X14194Y63538D01*
X14229Y63578D01*
X14274Y63628D01*
X14329Y63683D01*
X14389Y63733D01*
X14459Y63778D01*
X14469Y63783D01*
X14494Y63798D01*
X14534Y63813D01*
X14589Y63838D01*
X14659Y63858D01*
X14744Y63873D01*
X14839Y63888D01*
X14944Y63893D01*
X14949D01*
X14964D01*
X14984D01*
X15014Y63888D01*
X15049D01*
X15089Y63883D01*
X15184Y63868D01*
X15289Y63848D01*
X15404Y63813D01*
X15514Y63768D01*
X15619Y63703D01*
X15624D01*
X15629Y63693D01*
X15644Y63683D01*
X15664Y63668D01*
X15709Y63628D01*
X15769Y63573D01*
X15834Y63498D01*
X15899Y63413D01*
X15969Y63313D01*
X16029Y63203D01*
X17564Y64423D01*
Y63313D01*
D02*
G37*
G36*
X55073Y21173D02*
X54499D01*
X53587Y22827D01*
Y21173D01*
X53043D01*
Y23545D01*
X53771D01*
X54529Y22184D01*
Y23545D01*
X55073D01*
Y21173D01*
D02*
G37*
G36*
X49678D02*
X49025D01*
X48644Y22639D01*
X48277Y21173D01*
X47621D01*
X47024Y23545D01*
X47641D01*
X47969Y21957D01*
X48362Y23545D01*
X48953D01*
X49330Y21954D01*
X49674Y23545D01*
X50278D01*
X49678Y21173D01*
D02*
G37*
G36*
X51426Y23541D02*
X51459D01*
X51531Y23538D01*
X51609Y23532D01*
X51691Y23522D01*
X51774Y23512D01*
X51783D01*
X51796Y23509D01*
X51810Y23505D01*
X51829Y23502D01*
X51852Y23496D01*
X51908Y23479D01*
X51970Y23460D01*
X52039Y23433D01*
X52111Y23401D01*
X52184Y23358D01*
X52187Y23355D01*
X52193Y23351D01*
X52206Y23341D01*
X52223Y23332D01*
X52242Y23315D01*
X52265Y23295D01*
X52318Y23250D01*
X52377Y23194D01*
X52436Y23122D01*
X52495Y23043D01*
X52551Y22951D01*
X52554Y22948D01*
X52557Y22941D01*
X52564Y22925D01*
X52574Y22905D01*
X52584Y22882D01*
X52593Y22853D01*
X52607Y22820D01*
X52620Y22781D01*
X52633Y22741D01*
X52646Y22695D01*
X52656Y22646D01*
X52666Y22594D01*
X52682Y22479D01*
X52689Y22354D01*
Y22351D01*
Y22341D01*
Y22321D01*
X52685Y22298D01*
Y22269D01*
X52682Y22236D01*
X52675Y22197D01*
X52669Y22157D01*
X52653Y22062D01*
X52626Y21964D01*
X52590Y21862D01*
X52567Y21810D01*
X52541Y21760D01*
Y21757D01*
X52534Y21751D01*
X52528Y21734D01*
X52515Y21718D01*
X52502Y21695D01*
X52485Y21672D01*
X52443Y21613D01*
X52390Y21551D01*
X52328Y21482D01*
X52256Y21419D01*
X52177Y21360D01*
X52174D01*
X52167Y21354D01*
X52157Y21350D01*
X52144Y21341D01*
X52128Y21331D01*
X52108Y21321D01*
X52059Y21295D01*
X51996Y21269D01*
X51931Y21246D01*
X51855Y21223D01*
X51774Y21206D01*
X51764D01*
X51750Y21203D01*
X51737Y21200D01*
X51714D01*
X51691Y21196D01*
X51665Y21193D01*
X51636Y21190D01*
X51567Y21183D01*
X51488Y21180D01*
X51403Y21173D01*
X50573D01*
Y23545D01*
X51399D01*
X51426Y23541D01*
D02*
G37*
G36*
X46069D02*
X46119D01*
X46174Y23535D01*
X46233Y23528D01*
X46293Y23519D01*
X46352Y23505D01*
X46358D01*
X46378Y23499D01*
X46404Y23489D01*
X46440Y23476D01*
X46483Y23460D01*
X46529Y23440D01*
X46575Y23417D01*
X46621Y23387D01*
X46627Y23384D01*
X46643Y23371D01*
X46666Y23351D01*
X46696Y23325D01*
X46729Y23289D01*
X46765Y23250D01*
X46798Y23200D01*
X46827Y23148D01*
X46830Y23141D01*
X46840Y23122D01*
X46850Y23089D01*
X46867Y23050D01*
X46880Y22997D01*
X46889Y22935D01*
X46899Y22869D01*
X46903Y22794D01*
Y22790D01*
Y22787D01*
Y22777D01*
Y22767D01*
X46899Y22735D01*
X46896Y22692D01*
X46889Y22646D01*
X46880Y22590D01*
X46867Y22535D01*
X46850Y22479D01*
X46847Y22472D01*
X46840Y22453D01*
X46827Y22426D01*
X46811Y22390D01*
X46791Y22351D01*
X46762Y22311D01*
X46732Y22269D01*
X46696Y22230D01*
X46693Y22226D01*
X46686Y22220D01*
X46673Y22207D01*
X46657Y22193D01*
X46637Y22174D01*
X46617Y22154D01*
X46565Y22115D01*
X46562Y22111D01*
X46552Y22105D01*
X46539Y22095D01*
X46519Y22085D01*
X46493Y22069D01*
X46466Y22052D01*
X46404Y22023D01*
X46401D01*
X46388Y22016D01*
X46371Y22010D01*
X46348Y22003D01*
X46319Y21993D01*
X46289Y21983D01*
X46253Y21974D01*
X46214Y21967D01*
X46211D01*
X46197Y21964D01*
X46174Y21961D01*
X46148Y21957D01*
X46112Y21954D01*
X46073Y21951D01*
X46030Y21947D01*
X45676D01*
Y21173D01*
X45079D01*
Y23545D01*
X46050D01*
X46069Y23541D01*
D02*
G37*
G36*
X82555Y16043D02*
X81605D01*
X80365Y19658D01*
X81305D01*
X82095Y17198D01*
X82885Y19658D01*
X83800D01*
X82555Y16043D01*
D02*
G37*
G36*
X76890D02*
X76030D01*
Y16998D01*
X76890D01*
Y16043D01*
D02*
G37*
G36*
X74180Y19728D02*
X74235Y19723D01*
X74295Y19718D01*
X74365Y19708D01*
X74440Y19698D01*
X74595Y19663D01*
X74680Y19638D01*
X74760Y19613D01*
X74840Y19578D01*
X74915Y19538D01*
X74985Y19493D01*
X75050Y19443D01*
X75055Y19438D01*
X75065Y19428D01*
X75080Y19413D01*
X75105Y19393D01*
X75130Y19363D01*
X75155Y19328D01*
X75185Y19283D01*
X75220Y19238D01*
X75250Y19183D01*
X75280Y19123D01*
X75305Y19053D01*
X75335Y18983D01*
X75355Y18908D01*
X75370Y18823D01*
X75380Y18733D01*
X75385Y18638D01*
Y18633D01*
Y18623D01*
Y18608D01*
Y18583D01*
X75380Y18553D01*
X75375Y18518D01*
X75365Y18438D01*
X75345Y18338D01*
X75320Y18233D01*
X75280Y18118D01*
X75230Y18003D01*
Y17998D01*
X75225Y17988D01*
X75215Y17973D01*
X75200Y17948D01*
X75185Y17923D01*
X75165Y17888D01*
X75110Y17808D01*
X75040Y17708D01*
X74955Y17598D01*
X74850Y17478D01*
X74730Y17348D01*
X74720Y17338D01*
X74695Y17313D01*
X74650Y17268D01*
X74595Y17218D01*
X74530Y17158D01*
X74460Y17093D01*
X74305Y16958D01*
X74295Y16953D01*
X74270Y16933D01*
X74235Y16903D01*
X74190Y16868D01*
X74090Y16788D01*
X74045Y16753D01*
X74005Y16723D01*
X75545D01*
Y16043D01*
X72885D01*
Y16628D01*
X72890Y16633D01*
X72900Y16638D01*
X72920Y16653D01*
X72940Y16673D01*
X72970Y16698D01*
X73005Y16728D01*
X73085Y16793D01*
X73180Y16868D01*
X73280Y16953D01*
X73385Y17043D01*
X73490Y17133D01*
X73495Y17138D01*
X73500Y17143D01*
X73515Y17158D01*
X73535Y17173D01*
X73585Y17218D01*
X73650Y17278D01*
X73725Y17348D01*
X73805Y17428D01*
X73885Y17508D01*
X73965Y17588D01*
X73970Y17593D01*
X73975Y17603D01*
X73990Y17613D01*
X74010Y17633D01*
X74055Y17688D01*
X74115Y17753D01*
X74175Y17833D01*
X74240Y17913D01*
X74300Y17998D01*
X74350Y18078D01*
X74355Y18088D01*
X74370Y18113D01*
X74390Y18158D01*
X74410Y18213D01*
X74430Y18278D01*
X74450Y18348D01*
X74465Y18428D01*
X74470Y18513D01*
Y18518D01*
Y18523D01*
Y18553D01*
X74460Y18603D01*
X74450Y18658D01*
X74430Y18718D01*
X74405Y18783D01*
X74365Y18848D01*
X74315Y18903D01*
X74310Y18908D01*
X74290Y18923D01*
X74255Y18948D01*
X74205Y18973D01*
X74145Y18993D01*
X74075Y19018D01*
X73990Y19033D01*
X73895Y19038D01*
X73845D01*
X73810Y19033D01*
X73770Y19028D01*
X73730Y19023D01*
X73635Y19003D01*
X73630D01*
X73615Y18998D01*
X73590Y18988D01*
X73555Y18978D01*
X73520Y18968D01*
X73475Y18948D01*
X73385Y18913D01*
X73380D01*
X73365Y18903D01*
X73340Y18893D01*
X73310Y18878D01*
X73240Y18843D01*
X73170Y18798D01*
X73165D01*
X73155Y18788D01*
X73125Y18768D01*
X73080Y18743D01*
X73045Y18718D01*
X72975D01*
Y19503D01*
X72980Y19508D01*
X73005Y19518D01*
X73040Y19533D01*
X73090Y19548D01*
X73155Y19573D01*
X73240Y19598D01*
X73335Y19623D01*
X73450Y19653D01*
X73455D01*
X73465Y19658D01*
X73480Y19663D01*
X73505Y19668D01*
X73535Y19673D01*
X73570Y19678D01*
X73650Y19693D01*
X73745Y19708D01*
X73850Y19723D01*
X73960Y19728D01*
X74075Y19733D01*
X74135D01*
X74180Y19728D01*
D02*
G37*
G36*
X78945D02*
X79025Y19723D01*
X79115Y19713D01*
X79215Y19703D01*
X79315Y19683D01*
X79410Y19658D01*
X79415D01*
X79420Y19653D01*
X79450Y19643D01*
X79500Y19628D01*
X79555Y19608D01*
X79620Y19583D01*
X79690Y19553D01*
X79755Y19513D01*
X79820Y19473D01*
X79825Y19468D01*
X79845Y19453D01*
X79875Y19428D01*
X79915Y19393D01*
X79955Y19348D01*
X79995Y19298D01*
X80035Y19243D01*
X80070Y19183D01*
X80075Y19173D01*
X80085Y19153D01*
X80100Y19118D01*
X80115Y19073D01*
X80130Y19018D01*
X80145Y18958D01*
X80155Y18888D01*
X80160Y18818D01*
Y18813D01*
Y18808D01*
Y18793D01*
Y18773D01*
X80150Y18728D01*
X80140Y18663D01*
X80125Y18593D01*
X80095Y18513D01*
X80060Y18433D01*
X80010Y18353D01*
X80005Y18343D01*
X79980Y18318D01*
X79945Y18283D01*
X79895Y18233D01*
X79830Y18178D01*
X79755Y18123D01*
X79660Y18063D01*
X79550Y18008D01*
Y17993D01*
X79555D01*
X79565Y17988D01*
X79585Y17978D01*
X79610Y17968D01*
X79640Y17953D01*
X79675Y17933D01*
X79750Y17893D01*
X79840Y17833D01*
X79925Y17768D01*
X80010Y17693D01*
X80080Y17608D01*
Y17603D01*
X80085Y17598D01*
X80095Y17583D01*
X80105Y17568D01*
X80135Y17518D01*
X80165Y17448D01*
X80195Y17368D01*
X80225Y17273D01*
X80245Y17163D01*
X80250Y17043D01*
Y17033D01*
Y17003D01*
X80245Y16958D01*
X80240Y16903D01*
X80225Y16838D01*
X80210Y16763D01*
X80185Y16688D01*
X80150Y16613D01*
X80145Y16603D01*
X80130Y16578D01*
X80110Y16543D01*
X80080Y16493D01*
X80040Y16443D01*
X79990Y16383D01*
X79935Y16323D01*
X79870Y16268D01*
X79860Y16263D01*
X79840Y16243D01*
X79800Y16218D01*
X79745Y16183D01*
X79680Y16148D01*
X79605Y16108D01*
X79515Y16073D01*
X79420Y16038D01*
X79415D01*
X79410Y16033D01*
X79395D01*
X79375Y16028D01*
X79350Y16018D01*
X79320Y16013D01*
X79245Y15998D01*
X79155Y15983D01*
X79055Y15973D01*
X78940Y15963D01*
X78815Y15958D01*
X78755D01*
X78720Y15963D01*
X78685D01*
X78600Y15968D01*
X78500Y15978D01*
X78390Y15993D01*
X78280Y16013D01*
X78175Y16043D01*
X78170D01*
X78165Y16048D01*
X78150Y16053D01*
X78130Y16058D01*
X78080Y16078D01*
X78020Y16103D01*
X77950Y16133D01*
X77875Y16173D01*
X77800Y16218D01*
X77730Y16268D01*
X77720Y16273D01*
X77700Y16293D01*
X77670Y16323D01*
X77635Y16363D01*
X77590Y16413D01*
X77550Y16468D01*
X77510Y16533D01*
X77475Y16603D01*
X77470Y16613D01*
X77465Y16638D01*
X77450Y16678D01*
X77435Y16728D01*
X77420Y16788D01*
X77410Y16858D01*
X77400Y16933D01*
X77395Y17013D01*
Y17018D01*
Y17028D01*
Y17043D01*
X77400Y17063D01*
X77405Y17123D01*
X77415Y17193D01*
X77435Y17273D01*
X77465Y17363D01*
X77510Y17448D01*
X77565Y17528D01*
X77575Y17538D01*
X77595Y17563D01*
X77635Y17598D01*
X77690Y17648D01*
X77760Y17703D01*
X77845Y17758D01*
X77945Y17818D01*
X78060Y17873D01*
Y17888D01*
X78055D01*
X78045Y17893D01*
X78030Y17903D01*
X78010Y17918D01*
X77950Y17948D01*
X77885Y17993D01*
X77810Y18048D01*
X77735Y18113D01*
X77670Y18183D01*
X77615Y18263D01*
Y18268D01*
X77610Y18273D01*
X77595Y18303D01*
X77575Y18348D01*
X77555Y18408D01*
X77530Y18483D01*
X77510Y18563D01*
X77495Y18658D01*
X77490Y18758D01*
Y18768D01*
Y18793D01*
X77495Y18828D01*
X77500Y18878D01*
X77510Y18933D01*
X77525Y18998D01*
X77545Y19063D01*
X77575Y19128D01*
X77580Y19138D01*
X77590Y19158D01*
X77610Y19193D01*
X77640Y19233D01*
X77675Y19283D01*
X77720Y19333D01*
X77775Y19388D01*
X77835Y19443D01*
X77845Y19448D01*
X77865Y19463D01*
X77900Y19488D01*
X77950Y19518D01*
X78010Y19553D01*
X78080Y19588D01*
X78165Y19623D01*
X78255Y19653D01*
X78260D01*
X78265Y19658D01*
X78280Y19663D01*
X78300Y19668D01*
X78350Y19678D01*
X78420Y19693D01*
X78505Y19708D01*
X78605Y19723D01*
X78710Y19728D01*
X78825Y19733D01*
X78910D01*
X78945Y19728D01*
D02*
G37*
G36*
X26095Y15945D02*
X25145D01*
X23905Y19560D01*
X24845D01*
X25635Y17100D01*
X26425Y19560D01*
X27340D01*
X26095Y15945D01*
D02*
G37*
G36*
X22440Y19630D02*
X22495Y19625D01*
X22555Y19620D01*
X22625Y19610D01*
X22700Y19600D01*
X22855Y19565D01*
X22940Y19540D01*
X23020Y19515D01*
X23100Y19480D01*
X23175Y19440D01*
X23245Y19395D01*
X23310Y19345D01*
X23315Y19340D01*
X23325Y19330D01*
X23340Y19315D01*
X23365Y19295D01*
X23390Y19265D01*
X23415Y19230D01*
X23445Y19185D01*
X23480Y19140D01*
X23510Y19085D01*
X23540Y19025D01*
X23565Y18955D01*
X23595Y18885D01*
X23615Y18810D01*
X23630Y18725D01*
X23640Y18635D01*
X23645Y18540D01*
Y18535D01*
Y18525D01*
Y18510D01*
Y18485D01*
X23640Y18455D01*
X23635Y18420D01*
X23625Y18340D01*
X23605Y18240D01*
X23580Y18135D01*
X23540Y18020D01*
X23490Y17905D01*
Y17900D01*
X23485Y17890D01*
X23475Y17875D01*
X23460Y17850D01*
X23445Y17825D01*
X23425Y17790D01*
X23370Y17710D01*
X23300Y17610D01*
X23215Y17500D01*
X23110Y17380D01*
X22990Y17250D01*
X22980Y17240D01*
X22955Y17215D01*
X22910Y17170D01*
X22855Y17120D01*
X22790Y17060D01*
X22720Y16995D01*
X22565Y16860D01*
X22555Y16855D01*
X22530Y16835D01*
X22495Y16805D01*
X22450Y16770D01*
X22350Y16690D01*
X22305Y16655D01*
X22265Y16625D01*
X23805D01*
Y15945D01*
X21145D01*
Y16530D01*
X21150Y16535D01*
X21160Y16540D01*
X21180Y16555D01*
X21200Y16575D01*
X21230Y16600D01*
X21265Y16630D01*
X21345Y16695D01*
X21440Y16770D01*
X21540Y16855D01*
X21645Y16945D01*
X21750Y17035D01*
X21755Y17040D01*
X21760Y17045D01*
X21775Y17060D01*
X21795Y17075D01*
X21845Y17120D01*
X21910Y17180D01*
X21985Y17250D01*
X22065Y17330D01*
X22145Y17410D01*
X22225Y17490D01*
X22230Y17495D01*
X22235Y17505D01*
X22250Y17515D01*
X22270Y17535D01*
X22315Y17590D01*
X22375Y17655D01*
X22435Y17735D01*
X22500Y17815D01*
X22560Y17900D01*
X22610Y17980D01*
X22615Y17990D01*
X22630Y18015D01*
X22650Y18060D01*
X22670Y18115D01*
X22690Y18180D01*
X22710Y18250D01*
X22725Y18330D01*
X22730Y18415D01*
Y18420D01*
Y18425D01*
Y18455D01*
X22720Y18505D01*
X22710Y18560D01*
X22690Y18620D01*
X22665Y18685D01*
X22625Y18750D01*
X22575Y18805D01*
X22570Y18810D01*
X22550Y18825D01*
X22515Y18850D01*
X22465Y18875D01*
X22405Y18895D01*
X22335Y18920D01*
X22250Y18935D01*
X22155Y18940D01*
X22105D01*
X22070Y18935D01*
X22030Y18930D01*
X21990Y18925D01*
X21895Y18905D01*
X21890D01*
X21875Y18900D01*
X21850Y18890D01*
X21815Y18880D01*
X21780Y18870D01*
X21735Y18850D01*
X21645Y18815D01*
X21640D01*
X21625Y18805D01*
X21600Y18795D01*
X21570Y18780D01*
X21500Y18745D01*
X21430Y18700D01*
X21425D01*
X21415Y18690D01*
X21385Y18670D01*
X21340Y18645D01*
X21305Y18620D01*
X21235D01*
Y19405D01*
X21240Y19410D01*
X21265Y19420D01*
X21300Y19435D01*
X21350Y19450D01*
X21415Y19475D01*
X21500Y19500D01*
X21595Y19525D01*
X21710Y19555D01*
X21715D01*
X21725Y19560D01*
X21740Y19565D01*
X21765Y19570D01*
X21795Y19575D01*
X21830Y19580D01*
X21910Y19595D01*
X22005Y19610D01*
X22110Y19625D01*
X22220Y19630D01*
X22335Y19635D01*
X22395D01*
X22440Y19630D01*
D02*
G37*
G36*
X20430Y15945D02*
X19570D01*
Y16900D01*
X20430D01*
Y15945D01*
D02*
G37*
G36*
X18175Y16575D02*
X18920D01*
Y15945D01*
X16535D01*
Y16575D01*
X17295D01*
Y18485D01*
X16535D01*
Y19075D01*
X16595D01*
X16640Y19080D01*
X16690D01*
X16745Y19085D01*
X16865Y19095D01*
X16870D01*
X16895Y19100D01*
X16925Y19105D01*
X16960Y19110D01*
X17045Y19135D01*
X17090Y19150D01*
X17130Y19165D01*
X17135Y19170D01*
X17150Y19175D01*
X17170Y19190D01*
X17195Y19205D01*
X17255Y19255D01*
X17310Y19320D01*
X17315Y19325D01*
X17320Y19340D01*
X17330Y19360D01*
X17345Y19390D01*
X17355Y19425D01*
X17365Y19470D01*
X17375Y19515D01*
X17380Y19570D01*
X18175D01*
Y16575D01*
D02*
G37*
G36*
X104238Y78291D02*
X103824D01*
Y78632D01*
X102280D01*
Y78291D01*
X101866D01*
Y79570D01*
X102280D01*
Y79229D01*
X103824D01*
Y79570D01*
X104238D01*
Y78291D01*
D02*
G37*
G36*
X103106Y78035D02*
X103146D01*
X103191Y78028D01*
X103247Y78022D01*
X103310Y78012D01*
X103378Y77999D01*
X103447Y77982D01*
X103523Y77963D01*
X103595Y77940D01*
X103670Y77910D01*
X103746Y77874D01*
X103818Y77835D01*
X103887Y77786D01*
X103952Y77733D01*
X103956Y77730D01*
X103966Y77720D01*
X103982Y77700D01*
X104005Y77678D01*
X104031Y77645D01*
X104057Y77609D01*
X104090Y77563D01*
X104120Y77513D01*
X104153Y77458D01*
X104182Y77395D01*
X104208Y77327D01*
X104235Y77251D01*
X104258Y77169D01*
X104274Y77084D01*
X104284Y76992D01*
X104287Y76894D01*
Y76871D01*
X104284Y76841D01*
X104280Y76805D01*
X104277Y76759D01*
X104271Y76707D01*
X104261Y76651D01*
X104244Y76588D01*
X104228Y76523D01*
X104205Y76454D01*
X104179Y76385D01*
X104146Y76313D01*
X104110Y76244D01*
X104064Y76178D01*
X104015Y76113D01*
X103956Y76054D01*
X103952Y76051D01*
X103939Y76041D01*
X103923Y76024D01*
X103897Y76005D01*
X103861Y75982D01*
X103821Y75955D01*
X103772Y75929D01*
X103720Y75900D01*
X103657Y75870D01*
X103588Y75844D01*
X103516Y75818D01*
X103434Y75795D01*
X103346Y75775D01*
X103254Y75759D01*
X103155Y75749D01*
X103050Y75746D01*
X103044D01*
X103024D01*
X102995Y75749D01*
X102955D01*
X102906Y75755D01*
X102850Y75762D01*
X102788Y75772D01*
X102722Y75785D01*
X102650Y75801D01*
X102578Y75821D01*
X102503Y75847D01*
X102427Y75877D01*
X102352Y75910D01*
X102280Y75952D01*
X102211Y75998D01*
X102145Y76054D01*
X102142Y76057D01*
X102132Y76067D01*
X102116Y76087D01*
X102093Y76110D01*
X102070Y76142D01*
X102040Y76178D01*
X102011Y76221D01*
X101981Y76274D01*
X101952Y76329D01*
X101922Y76392D01*
X101893Y76461D01*
X101870Y76536D01*
X101847Y76618D01*
X101830Y76703D01*
X101820Y76795D01*
X101817Y76894D01*
Y76916D01*
X101820Y76946D01*
X101824Y76982D01*
X101827Y77028D01*
X101834Y77077D01*
X101843Y77136D01*
X101860Y77199D01*
X101876Y77264D01*
X101899Y77333D01*
X101925Y77402D01*
X101958Y77474D01*
X101994Y77543D01*
X102040Y77609D01*
X102089Y77674D01*
X102148Y77733D01*
X102152Y77737D01*
X102165Y77746D01*
X102184Y77763D01*
X102211Y77779D01*
X102244Y77805D01*
X102283Y77828D01*
X102332Y77858D01*
X102388Y77884D01*
X102447Y77914D01*
X102516Y77943D01*
X102591Y77966D01*
X102670Y77989D01*
X102755Y78009D01*
X102850Y78025D01*
X102945Y78035D01*
X103050Y78038D01*
X103054D01*
X103057D01*
X103077D01*
X103106Y78035D01*
D02*
G37*
G36*
X103920Y75286D02*
X103923Y75257D01*
Y75224D01*
X103926Y75188D01*
X103933Y75109D01*
Y75106D01*
X103936Y75090D01*
X103939Y75070D01*
X103943Y75047D01*
X103959Y74991D01*
X103969Y74962D01*
X103979Y74935D01*
X103982Y74932D01*
X103985Y74922D01*
X103995Y74909D01*
X104005Y74893D01*
X104038Y74853D01*
X104080Y74817D01*
X104084Y74814D01*
X104094Y74811D01*
X104107Y74804D01*
X104126Y74794D01*
X104149Y74788D01*
X104179Y74781D01*
X104208Y74775D01*
X104244Y74771D01*
Y74250D01*
X102280D01*
Y73761D01*
X101866D01*
Y75326D01*
X102280D01*
Y74827D01*
X103533D01*
Y75326D01*
X103920D01*
Y75286D01*
D02*
G37*
G36*
X104238Y88359D02*
X103824D01*
Y88700D01*
X102280D01*
Y88359D01*
X101866D01*
Y89638D01*
X102280D01*
Y89297D01*
X103824D01*
Y89638D01*
X104238D01*
Y88359D01*
D02*
G37*
G36*
X103106Y88103D02*
X103146D01*
X103191Y88097D01*
X103247Y88090D01*
X103310Y88080D01*
X103378Y88067D01*
X103447Y88051D01*
X103523Y88031D01*
X103595Y88008D01*
X103670Y87979D01*
X103746Y87942D01*
X103818Y87903D01*
X103887Y87854D01*
X103952Y87801D01*
X103956Y87798D01*
X103966Y87788D01*
X103982Y87769D01*
X104005Y87746D01*
X104031Y87713D01*
X104057Y87677D01*
X104090Y87631D01*
X104120Y87582D01*
X104153Y87526D01*
X104182Y87464D01*
X104208Y87395D01*
X104235Y87319D01*
X104258Y87237D01*
X104274Y87152D01*
X104284Y87060D01*
X104287Y86962D01*
Y86939D01*
X104284Y86909D01*
X104280Y86873D01*
X104277Y86827D01*
X104271Y86775D01*
X104261Y86719D01*
X104244Y86657D01*
X104228Y86591D01*
X104205Y86522D01*
X104179Y86453D01*
X104146Y86381D01*
X104110Y86312D01*
X104064Y86247D01*
X104015Y86181D01*
X103956Y86122D01*
X103952Y86119D01*
X103939Y86109D01*
X103923Y86093D01*
X103897Y86073D01*
X103861Y86050D01*
X103821Y86024D01*
X103772Y85997D01*
X103720Y85968D01*
X103657Y85938D01*
X103588Y85912D01*
X103516Y85886D01*
X103434Y85863D01*
X103346Y85843D01*
X103254Y85827D01*
X103155Y85817D01*
X103050Y85814D01*
X103044D01*
X103024D01*
X102995Y85817D01*
X102955D01*
X102906Y85824D01*
X102850Y85830D01*
X102788Y85840D01*
X102722Y85853D01*
X102650Y85869D01*
X102578Y85889D01*
X102503Y85915D01*
X102427Y85945D01*
X102352Y85978D01*
X102280Y86020D01*
X102211Y86066D01*
X102145Y86122D01*
X102142Y86125D01*
X102132Y86135D01*
X102116Y86155D01*
X102093Y86178D01*
X102070Y86211D01*
X102040Y86247D01*
X102011Y86289D01*
X101981Y86342D01*
X101952Y86398D01*
X101922Y86460D01*
X101893Y86529D01*
X101870Y86604D01*
X101847Y86686D01*
X101830Y86772D01*
X101820Y86863D01*
X101817Y86962D01*
Y86985D01*
X101820Y87014D01*
X101824Y87050D01*
X101827Y87096D01*
X101834Y87145D01*
X101843Y87204D01*
X101860Y87267D01*
X101876Y87332D01*
X101899Y87401D01*
X101925Y87470D01*
X101958Y87542D01*
X101994Y87611D01*
X102040Y87677D01*
X102089Y87742D01*
X102148Y87801D01*
X102152Y87805D01*
X102165Y87814D01*
X102184Y87831D01*
X102211Y87847D01*
X102244Y87874D01*
X102283Y87897D01*
X102332Y87926D01*
X102388Y87952D01*
X102447Y87982D01*
X102516Y88011D01*
X102591Y88034D01*
X102670Y88057D01*
X102755Y88077D01*
X102850Y88093D01*
X102945Y88103D01*
X103050Y88107D01*
X103054D01*
X103057D01*
X103077D01*
X103106Y88103D01*
D02*
G37*
G36*
X102480Y85486D02*
X102476Y85479D01*
X102467Y85463D01*
X102450Y85436D01*
X102430Y85397D01*
X102408Y85355D01*
X102381Y85302D01*
X102355Y85243D01*
X102332Y85181D01*
Y85177D01*
X102329Y85174D01*
X102325Y85164D01*
X102322Y85151D01*
X102312Y85118D01*
X102303Y85072D01*
X102293Y85023D01*
X102283Y84971D01*
X102276Y84915D01*
X102273Y84859D01*
Y84826D01*
X102276Y84803D01*
Y84774D01*
X102280Y84745D01*
X102286Y84672D01*
Y84669D01*
X102289Y84656D01*
X102293Y84636D01*
X102303Y84613D01*
X102322Y84557D01*
X102339Y84528D01*
X102355Y84502D01*
X102358Y84499D01*
X102362Y84492D01*
X102372Y84482D01*
X102381Y84469D01*
X102414Y84439D01*
X102453Y84413D01*
X102457D01*
X102463Y84407D01*
X102476Y84403D01*
X102496Y84397D01*
X102519Y84390D01*
X102549Y84387D01*
X102581Y84380D01*
X102621D01*
X102624D01*
X102637D01*
X102657Y84384D01*
X102680Y84387D01*
X102706Y84394D01*
X102732Y84400D01*
X102759Y84413D01*
X102781Y84430D01*
X102785Y84433D01*
X102791Y84439D01*
X102801Y84449D01*
X102814Y84462D01*
X102827Y84479D01*
X102844Y84499D01*
X102867Y84551D01*
Y84554D01*
X102870Y84564D01*
X102877Y84580D01*
X102883Y84603D01*
X102886Y84630D01*
X102893Y84659D01*
X102896Y84695D01*
X102900Y84735D01*
Y84774D01*
X102903Y84797D01*
Y85023D01*
X103316D01*
Y84866D01*
X103319Y84836D01*
Y84803D01*
X103323Y84735D01*
Y84731D01*
X103326Y84718D01*
Y84702D01*
X103332Y84682D01*
X103342Y84630D01*
X103362Y84580D01*
Y84577D01*
X103369Y84571D01*
X103375Y84557D01*
X103385Y84544D01*
X103408Y84508D01*
X103444Y84479D01*
X103447Y84475D01*
X103454Y84472D01*
X103467Y84466D01*
X103483Y84459D01*
X103506Y84452D01*
X103533Y84449D01*
X103562Y84443D01*
X103595D01*
X103598D01*
X103608D01*
X103618Y84446D01*
X103634D01*
X103674Y84459D01*
X103693Y84466D01*
X103710Y84479D01*
X103713D01*
X103716Y84485D01*
X103736Y84502D01*
X103759Y84528D01*
X103782Y84561D01*
Y84564D01*
X103785Y84571D01*
X103792Y84584D01*
X103798Y84597D01*
X103805Y84617D01*
X103811Y84640D01*
X103821Y84695D01*
Y84699D01*
X103824Y84708D01*
Y84721D01*
X103828Y84738D01*
X103831Y84781D01*
Y84856D01*
X103828Y84879D01*
X103824Y84905D01*
X103821Y84938D01*
X103808Y85004D01*
Y85007D01*
X103805Y85020D01*
X103802Y85036D01*
X103795Y85059D01*
X103785Y85086D01*
X103779Y85115D01*
X103756Y85177D01*
Y85181D01*
X103752Y85187D01*
X103746Y85204D01*
X103739Y85220D01*
X103729Y85240D01*
X103716Y85266D01*
X103690Y85318D01*
Y85322D01*
X103683Y85332D01*
X103677Y85341D01*
X103667Y85358D01*
X103647Y85394D01*
X103641Y85410D01*
X103631Y85423D01*
Y85473D01*
X104136D01*
X104139Y85466D01*
X104146Y85450D01*
X104156Y85423D01*
X104169Y85387D01*
X104185Y85338D01*
X104202Y85282D01*
X104218Y85217D01*
X104238Y85145D01*
Y85141D01*
X104241Y85135D01*
Y85125D01*
X104244Y85109D01*
X104251Y85089D01*
X104254Y85069D01*
X104264Y85013D01*
X104271Y84951D01*
X104280Y84879D01*
X104284Y84800D01*
X104287Y84721D01*
Y84666D01*
X104284Y84646D01*
Y84597D01*
X104277Y84538D01*
X104271Y84475D01*
X104261Y84413D01*
X104248Y84354D01*
Y84348D01*
X104241Y84328D01*
X104231Y84298D01*
X104221Y84262D01*
X104205Y84223D01*
X104189Y84177D01*
X104166Y84131D01*
X104143Y84088D01*
X104139Y84082D01*
X104130Y84069D01*
X104113Y84046D01*
X104090Y84020D01*
X104064Y83990D01*
X104031Y83961D01*
X103995Y83931D01*
X103952Y83908D01*
X103946Y83905D01*
X103933Y83898D01*
X103910Y83888D01*
X103877Y83875D01*
X103838Y83865D01*
X103795Y83856D01*
X103746Y83849D01*
X103693Y83846D01*
X103690D01*
X103683D01*
X103674D01*
X103661Y83849D01*
X103621Y83852D01*
X103572Y83859D01*
X103516Y83875D01*
X103457Y83895D01*
X103398Y83925D01*
X103339Y83964D01*
X103332Y83970D01*
X103316Y83983D01*
X103290Y84010D01*
X103257Y84046D01*
X103224Y84092D01*
X103191Y84144D01*
X103165Y84203D01*
X103142Y84272D01*
X103119D01*
Y84269D01*
X103116Y84259D01*
X103113Y84239D01*
X103110Y84220D01*
X103103Y84193D01*
X103096Y84167D01*
X103077Y84108D01*
Y84105D01*
X103070Y84095D01*
X103064Y84079D01*
X103054Y84059D01*
X103041Y84033D01*
X103024Y84007D01*
X103001Y83980D01*
X102978Y83951D01*
X102975Y83947D01*
X102968Y83938D01*
X102952Y83925D01*
X102936Y83908D01*
X102913Y83892D01*
X102883Y83869D01*
X102854Y83852D01*
X102818Y83833D01*
X102814Y83829D01*
X102801Y83826D01*
X102778Y83816D01*
X102752Y83806D01*
X102719Y83800D01*
X102676Y83790D01*
X102634Y83787D01*
X102585Y83783D01*
X102581D01*
X102578D01*
X102568D01*
X102555D01*
X102522Y83787D01*
X102480Y83790D01*
X102430Y83800D01*
X102378Y83810D01*
X102322Y83826D01*
X102267Y83849D01*
X102260Y83852D01*
X102244Y83862D01*
X102217Y83875D01*
X102181Y83898D01*
X102145Y83925D01*
X102102Y83957D01*
X102063Y83997D01*
X102024Y84039D01*
X102021Y84046D01*
X102007Y84062D01*
X101988Y84088D01*
X101968Y84121D01*
X101942Y84167D01*
X101916Y84216D01*
X101893Y84272D01*
X101870Y84334D01*
Y84338D01*
X101866Y84341D01*
Y84351D01*
X101863Y84364D01*
X101857Y84380D01*
X101853Y84400D01*
X101843Y84449D01*
X101834Y84508D01*
X101827Y84577D01*
X101820Y84656D01*
X101817Y84745D01*
Y84817D01*
X101820Y84843D01*
Y84876D01*
X101824Y84908D01*
X101827Y84984D01*
X101837Y85063D01*
X101847Y85145D01*
X101863Y85223D01*
Y85227D01*
X101866Y85233D01*
Y85243D01*
X101870Y85256D01*
X101880Y85292D01*
X101893Y85338D01*
X101909Y85387D01*
X101925Y85440D01*
X101945Y85492D01*
X101965Y85541D01*
X102480D01*
Y85486D01*
D02*
G37*
G36*
X103106Y69107D02*
X103146Y69103D01*
X103195Y69100D01*
X103247Y69094D01*
X103310Y69084D01*
X103375Y69067D01*
X103444Y69051D01*
X103516Y69028D01*
X103592Y69002D01*
X103667Y68969D01*
X103743Y68933D01*
X103815Y68887D01*
X103884Y68838D01*
X103949Y68779D01*
X103952Y68775D01*
X103962Y68762D01*
X103982Y68743D01*
X104002Y68716D01*
X104028Y68683D01*
X104057Y68644D01*
X104087Y68595D01*
X104120Y68539D01*
X104149Y68480D01*
X104179Y68411D01*
X104208Y68336D01*
X104235Y68254D01*
X104258Y68169D01*
X104274Y68073D01*
X104284Y67975D01*
X104287Y67870D01*
Y67821D01*
X104284Y67795D01*
Y67736D01*
X104280Y67699D01*
X104274Y67624D01*
X104261Y67542D01*
X104248Y67463D01*
X104228Y67388D01*
Y67385D01*
X104225Y67378D01*
X104221Y67368D01*
X104218Y67355D01*
X104212Y67339D01*
X104205Y67319D01*
X104189Y67270D01*
X104166Y67211D01*
X104139Y67145D01*
X104110Y67076D01*
X104077Y67001D01*
X103523D01*
Y67060D01*
X103529Y67063D01*
X103536Y67073D01*
X103546Y67089D01*
X103559Y67106D01*
X103575Y67125D01*
X103595Y67152D01*
X103615Y67181D01*
X103618Y67185D01*
X103624Y67194D01*
X103638Y67211D01*
X103651Y67230D01*
X103667Y67253D01*
X103687Y67280D01*
X103720Y67335D01*
X103723Y67339D01*
X103729Y67352D01*
X103736Y67371D01*
X103749Y67395D01*
X103762Y67427D01*
X103775Y67463D01*
X103792Y67503D01*
X103805Y67545D01*
X103808Y67552D01*
X103811Y67565D01*
X103818Y67588D01*
X103824Y67617D01*
X103831Y67657D01*
X103838Y67696D01*
X103844Y67742D01*
Y67818D01*
X103841Y67847D01*
X103838Y67883D01*
X103831Y67926D01*
X103824Y67972D01*
X103811Y68021D01*
X103795Y68070D01*
X103792Y68077D01*
X103785Y68090D01*
X103775Y68116D01*
X103759Y68146D01*
X103736Y68178D01*
X103713Y68218D01*
X103683Y68254D01*
X103647Y68293D01*
X103644Y68296D01*
X103631Y68310D01*
X103608Y68326D01*
X103582Y68349D01*
X103546Y68372D01*
X103506Y68398D01*
X103457Y68421D01*
X103405Y68444D01*
X103398Y68447D01*
X103378Y68451D01*
X103349Y68461D01*
X103306Y68470D01*
X103257Y68480D01*
X103198Y68487D01*
X103132Y68493D01*
X103064Y68497D01*
X103060D01*
X103044D01*
X103024D01*
X102995Y68493D01*
X102962Y68490D01*
X102919Y68487D01*
X102877Y68480D01*
X102831Y68470D01*
X102729Y68447D01*
X102676Y68428D01*
X102627Y68408D01*
X102578Y68385D01*
X102529Y68359D01*
X102486Y68326D01*
X102447Y68290D01*
X102444Y68287D01*
X102437Y68280D01*
X102427Y68267D01*
X102417Y68251D01*
X102401Y68231D01*
X102385Y68205D01*
X102368Y68175D01*
X102348Y68139D01*
X102329Y68100D01*
X102312Y68057D01*
X102296Y68011D01*
X102280Y67962D01*
X102270Y67906D01*
X102260Y67847D01*
X102253Y67785D01*
X102250Y67719D01*
Y67595D01*
X102253Y67568D01*
X102726D01*
Y68028D01*
X103172D01*
Y66991D01*
X102001D01*
Y66994D01*
X101998Y66998D01*
X101994Y67007D01*
X101991Y67021D01*
X101984Y67034D01*
X101978Y67053D01*
X101962Y67099D01*
X101942Y67158D01*
X101922Y67230D01*
X101899Y67309D01*
X101876Y67398D01*
Y67401D01*
X101873Y67408D01*
X101870Y67421D01*
X101866Y67440D01*
X101863Y67463D01*
X101857Y67490D01*
X101853Y67519D01*
X101847Y67552D01*
X101837Y67627D01*
X101827Y67709D01*
X101820Y67798D01*
X101817Y67890D01*
Y67913D01*
X101820Y67942D01*
X101824Y67982D01*
X101827Y68028D01*
X101834Y68083D01*
X101843Y68146D01*
X101857Y68211D01*
X101873Y68280D01*
X101896Y68352D01*
X101922Y68424D01*
X101952Y68500D01*
X101991Y68572D01*
X102034Y68644D01*
X102083Y68713D01*
X102139Y68779D01*
X102142Y68782D01*
X102155Y68792D01*
X102171Y68808D01*
X102198Y68831D01*
X102230Y68854D01*
X102273Y68884D01*
X102319Y68913D01*
X102375Y68943D01*
X102434Y68975D01*
X102503Y69005D01*
X102578Y69034D01*
X102660Y69057D01*
X102749Y69080D01*
X102844Y69097D01*
X102945Y69107D01*
X103054Y69110D01*
X103060D01*
X103080D01*
X103106Y69107D01*
D02*
G37*
G36*
X104238Y65813D02*
X102877Y65056D01*
X104238D01*
Y64511D01*
X101866D01*
Y65085D01*
X103519Y65997D01*
X101866D01*
Y66542D01*
X104238D01*
Y65813D01*
D02*
G37*
G36*
Y63203D02*
X104235Y63176D01*
Y63144D01*
X104231Y63071D01*
X104225Y62993D01*
X104215Y62911D01*
X104205Y62829D01*
Y62819D01*
X104202Y62806D01*
X104198Y62793D01*
X104195Y62773D01*
X104189Y62750D01*
X104172Y62694D01*
X104153Y62632D01*
X104126Y62563D01*
X104094Y62491D01*
X104051Y62419D01*
X104048Y62415D01*
X104044Y62409D01*
X104034Y62396D01*
X104025Y62379D01*
X104008Y62360D01*
X103989Y62337D01*
X103943Y62284D01*
X103887Y62225D01*
X103815Y62166D01*
X103736Y62107D01*
X103644Y62051D01*
X103641Y62048D01*
X103634Y62045D01*
X103618Y62038D01*
X103598Y62028D01*
X103575Y62019D01*
X103546Y62009D01*
X103513Y61996D01*
X103474Y61983D01*
X103434Y61969D01*
X103388Y61956D01*
X103339Y61946D01*
X103287Y61936D01*
X103172Y61920D01*
X103047Y61914D01*
X103044D01*
X103034D01*
X103014D01*
X102991Y61917D01*
X102962D01*
X102929Y61920D01*
X102890Y61927D01*
X102850Y61933D01*
X102755Y61950D01*
X102657Y61976D01*
X102555Y62012D01*
X102503Y62035D01*
X102453Y62061D01*
X102450D01*
X102444Y62068D01*
X102427Y62074D01*
X102411Y62087D01*
X102388Y62100D01*
X102365Y62117D01*
X102306Y62160D01*
X102244Y62212D01*
X102175Y62274D01*
X102112Y62347D01*
X102053Y62425D01*
Y62428D01*
X102047Y62435D01*
X102043Y62445D01*
X102034Y62458D01*
X102024Y62475D01*
X102014Y62494D01*
X101988Y62543D01*
X101962Y62606D01*
X101938Y62671D01*
X101916Y62747D01*
X101899Y62829D01*
Y62839D01*
X101896Y62852D01*
X101893Y62865D01*
Y62888D01*
X101889Y62911D01*
X101886Y62937D01*
X101883Y62967D01*
X101876Y63035D01*
X101873Y63114D01*
X101866Y63199D01*
Y64029D01*
X104238D01*
Y63203D01*
D02*
G37*
G36*
X104238Y99381D02*
X103824D01*
Y99722D01*
X102280D01*
Y99381D01*
X101866D01*
Y100660D01*
X102280D01*
Y100319D01*
X103824D01*
Y100660D01*
X104238D01*
Y99381D01*
D02*
G37*
G36*
X103106Y99125D02*
X103146D01*
X103191Y99119D01*
X103247Y99112D01*
X103310Y99102D01*
X103378Y99089D01*
X103447Y99073D01*
X103523Y99053D01*
X103595Y99030D01*
X103670Y99000D01*
X103746Y98964D01*
X103818Y98925D01*
X103887Y98876D01*
X103952Y98823D01*
X103956Y98820D01*
X103965Y98810D01*
X103982Y98791D01*
X104005Y98768D01*
X104031Y98735D01*
X104057Y98699D01*
X104090Y98653D01*
X104120Y98603D01*
X104153Y98548D01*
X104182Y98485D01*
X104208Y98417D01*
X104235Y98341D01*
X104258Y98259D01*
X104274Y98174D01*
X104284Y98082D01*
X104287Y97984D01*
Y97961D01*
X104284Y97931D01*
X104280Y97895D01*
X104277Y97849D01*
X104271Y97797D01*
X104261Y97741D01*
X104244Y97679D01*
X104228Y97613D01*
X104205Y97544D01*
X104179Y97475D01*
X104146Y97403D01*
X104110Y97334D01*
X104064Y97269D01*
X104015Y97203D01*
X103956Y97144D01*
X103952Y97141D01*
X103939Y97131D01*
X103923Y97114D01*
X103897Y97095D01*
X103861Y97072D01*
X103821Y97045D01*
X103772Y97019D01*
X103719Y96990D01*
X103657Y96960D01*
X103588Y96934D01*
X103516Y96908D01*
X103434Y96885D01*
X103346Y96865D01*
X103254Y96849D01*
X103155Y96839D01*
X103050Y96836D01*
X103044D01*
X103024D01*
X102995Y96839D01*
X102955D01*
X102906Y96845D01*
X102850Y96852D01*
X102788Y96862D01*
X102722Y96875D01*
X102650Y96891D01*
X102578Y96911D01*
X102503Y96937D01*
X102427Y96967D01*
X102352Y97000D01*
X102280Y97042D01*
X102211Y97088D01*
X102145Y97144D01*
X102142Y97147D01*
X102132Y97157D01*
X102116Y97177D01*
X102093Y97200D01*
X102070Y97233D01*
X102040Y97269D01*
X102011Y97311D01*
X101981Y97364D01*
X101952Y97419D01*
X101922Y97482D01*
X101893Y97551D01*
X101870Y97626D01*
X101847Y97708D01*
X101830Y97793D01*
X101820Y97885D01*
X101817Y97984D01*
Y98007D01*
X101820Y98036D01*
X101824Y98072D01*
X101827Y98118D01*
X101833Y98167D01*
X101843Y98226D01*
X101860Y98289D01*
X101876Y98354D01*
X101899Y98423D01*
X101925Y98492D01*
X101958Y98564D01*
X101994Y98633D01*
X102040Y98699D01*
X102089Y98764D01*
X102148Y98823D01*
X102152Y98826D01*
X102165Y98836D01*
X102184Y98853D01*
X102211Y98869D01*
X102243Y98895D01*
X102283Y98918D01*
X102332Y98948D01*
X102388Y98974D01*
X102447Y99004D01*
X102516Y99033D01*
X102591Y99056D01*
X102670Y99079D01*
X102755Y99099D01*
X102850Y99115D01*
X102945Y99125D01*
X103050Y99128D01*
X103054D01*
X103057D01*
X103077D01*
X103106Y99125D01*
D02*
G37*
G36*
X102480Y96508D02*
X102476Y96501D01*
X102467Y96485D01*
X102450Y96458D01*
X102430Y96419D01*
X102408Y96376D01*
X102381Y96324D01*
X102355Y96265D01*
X102332Y96202D01*
Y96199D01*
X102329Y96196D01*
X102325Y96186D01*
X102322Y96173D01*
X102312Y96140D01*
X102303Y96094D01*
X102293Y96045D01*
X102283Y95993D01*
X102276Y95937D01*
X102273Y95881D01*
Y95848D01*
X102276Y95825D01*
Y95796D01*
X102280Y95766D01*
X102286Y95694D01*
Y95691D01*
X102289Y95678D01*
X102293Y95658D01*
X102303Y95635D01*
X102322Y95579D01*
X102339Y95550D01*
X102355Y95524D01*
X102358Y95520D01*
X102362Y95514D01*
X102372Y95504D01*
X102381Y95491D01*
X102414Y95461D01*
X102453Y95435D01*
X102457D01*
X102463Y95429D01*
X102476Y95425D01*
X102496Y95419D01*
X102519Y95412D01*
X102549Y95409D01*
X102581Y95402D01*
X102621D01*
X102624D01*
X102637D01*
X102657Y95406D01*
X102680Y95409D01*
X102706Y95415D01*
X102732Y95422D01*
X102759Y95435D01*
X102781Y95451D01*
X102785Y95455D01*
X102791Y95461D01*
X102801Y95471D01*
X102814Y95484D01*
X102827Y95501D01*
X102844Y95520D01*
X102867Y95573D01*
Y95576D01*
X102870Y95586D01*
X102877Y95602D01*
X102883Y95625D01*
X102886Y95652D01*
X102893Y95681D01*
X102896Y95717D01*
X102900Y95757D01*
Y95796D01*
X102903Y95819D01*
Y96045D01*
X103316D01*
Y95888D01*
X103319Y95858D01*
Y95825D01*
X103323Y95757D01*
Y95753D01*
X103326Y95740D01*
Y95724D01*
X103332Y95704D01*
X103342Y95652D01*
X103362Y95602D01*
Y95599D01*
X103369Y95592D01*
X103375Y95579D01*
X103385Y95566D01*
X103408Y95530D01*
X103444Y95501D01*
X103447Y95497D01*
X103454Y95494D01*
X103467Y95487D01*
X103483Y95481D01*
X103506Y95474D01*
X103533Y95471D01*
X103562Y95464D01*
X103595D01*
X103598D01*
X103608D01*
X103618Y95468D01*
X103634D01*
X103674Y95481D01*
X103693Y95487D01*
X103710Y95501D01*
X103713D01*
X103716Y95507D01*
X103736Y95524D01*
X103759Y95550D01*
X103782Y95583D01*
Y95586D01*
X103785Y95592D01*
X103792Y95606D01*
X103798Y95619D01*
X103805Y95638D01*
X103811Y95661D01*
X103821Y95717D01*
Y95720D01*
X103824Y95730D01*
Y95743D01*
X103828Y95760D01*
X103831Y95802D01*
Y95878D01*
X103828Y95901D01*
X103824Y95927D01*
X103821Y95960D01*
X103808Y96025D01*
Y96029D01*
X103805Y96042D01*
X103802Y96058D01*
X103795Y96081D01*
X103785Y96107D01*
X103779Y96137D01*
X103756Y96199D01*
Y96202D01*
X103752Y96209D01*
X103746Y96226D01*
X103739Y96242D01*
X103729Y96262D01*
X103716Y96288D01*
X103690Y96340D01*
Y96344D01*
X103683Y96353D01*
X103677Y96363D01*
X103667Y96380D01*
X103647Y96416D01*
X103641Y96432D01*
X103631Y96445D01*
Y96495D01*
X104136D01*
X104139Y96488D01*
X104146Y96472D01*
X104156Y96445D01*
X104169Y96409D01*
X104185Y96360D01*
X104202Y96304D01*
X104218Y96239D01*
X104238Y96166D01*
Y96163D01*
X104241Y96157D01*
Y96147D01*
X104244Y96130D01*
X104251Y96111D01*
X104254Y96091D01*
X104264Y96035D01*
X104271Y95973D01*
X104280Y95901D01*
X104284Y95822D01*
X104287Y95743D01*
Y95688D01*
X104284Y95668D01*
Y95619D01*
X104277Y95560D01*
X104271Y95497D01*
X104261Y95435D01*
X104248Y95376D01*
Y95369D01*
X104241Y95350D01*
X104231Y95320D01*
X104221Y95284D01*
X104205Y95245D01*
X104189Y95199D01*
X104166Y95153D01*
X104143Y95110D01*
X104139Y95104D01*
X104130Y95091D01*
X104113Y95068D01*
X104090Y95041D01*
X104064Y95012D01*
X104031Y94982D01*
X103995Y94953D01*
X103952Y94930D01*
X103946Y94927D01*
X103933Y94920D01*
X103910Y94910D01*
X103877Y94897D01*
X103838Y94887D01*
X103795Y94877D01*
X103746Y94871D01*
X103693Y94868D01*
X103690D01*
X103683D01*
X103674D01*
X103661Y94871D01*
X103621Y94874D01*
X103572Y94881D01*
X103516Y94897D01*
X103457Y94917D01*
X103398Y94946D01*
X103339Y94986D01*
X103332Y94992D01*
X103316Y95005D01*
X103290Y95032D01*
X103257Y95068D01*
X103224Y95114D01*
X103191Y95166D01*
X103165Y95225D01*
X103142Y95294D01*
X103119D01*
Y95291D01*
X103116Y95281D01*
X103113Y95261D01*
X103110Y95241D01*
X103103Y95215D01*
X103096Y95189D01*
X103077Y95130D01*
Y95127D01*
X103070Y95117D01*
X103063Y95100D01*
X103054Y95081D01*
X103041Y95055D01*
X103024Y95028D01*
X103001Y95002D01*
X102978Y94973D01*
X102975Y94969D01*
X102968Y94959D01*
X102952Y94946D01*
X102936Y94930D01*
X102913Y94914D01*
X102883Y94890D01*
X102854Y94874D01*
X102817Y94854D01*
X102814Y94851D01*
X102801Y94848D01*
X102778Y94838D01*
X102752Y94828D01*
X102719Y94822D01*
X102676Y94812D01*
X102634Y94809D01*
X102585Y94805D01*
X102581D01*
X102578D01*
X102568D01*
X102555D01*
X102522Y94809D01*
X102480Y94812D01*
X102430Y94822D01*
X102378Y94832D01*
X102322Y94848D01*
X102267Y94871D01*
X102260Y94874D01*
X102243Y94884D01*
X102217Y94897D01*
X102181Y94920D01*
X102145Y94946D01*
X102102Y94979D01*
X102063Y95019D01*
X102024Y95061D01*
X102021Y95068D01*
X102007Y95084D01*
X101988Y95110D01*
X101968Y95143D01*
X101942Y95189D01*
X101916Y95238D01*
X101893Y95294D01*
X101870Y95356D01*
Y95360D01*
X101866Y95363D01*
Y95373D01*
X101863Y95386D01*
X101857Y95402D01*
X101853Y95422D01*
X101843Y95471D01*
X101833Y95530D01*
X101827Y95599D01*
X101820Y95678D01*
X101817Y95766D01*
Y95838D01*
X101820Y95865D01*
Y95898D01*
X101824Y95930D01*
X101827Y96006D01*
X101837Y96084D01*
X101847Y96166D01*
X101863Y96245D01*
Y96249D01*
X101866Y96255D01*
Y96265D01*
X101870Y96278D01*
X101880Y96314D01*
X101893Y96360D01*
X101909Y96409D01*
X101925Y96462D01*
X101945Y96514D01*
X101965Y96563D01*
X102480D01*
Y96508D01*
D02*
G37*
G36*
Y94431D02*
X102476Y94425D01*
X102467Y94408D01*
X102450Y94382D01*
X102430Y94343D01*
X102408Y94300D01*
X102381Y94248D01*
X102355Y94189D01*
X102332Y94126D01*
Y94123D01*
X102329Y94120D01*
X102325Y94110D01*
X102322Y94097D01*
X102312Y94064D01*
X102303Y94018D01*
X102293Y93969D01*
X102283Y93916D01*
X102276Y93861D01*
X102273Y93805D01*
Y93772D01*
X102276Y93749D01*
Y93720D01*
X102280Y93690D01*
X102286Y93618D01*
Y93615D01*
X102289Y93602D01*
X102293Y93582D01*
X102303Y93559D01*
X102322Y93503D01*
X102339Y93474D01*
X102355Y93447D01*
X102358Y93444D01*
X102362Y93437D01*
X102372Y93428D01*
X102381Y93414D01*
X102414Y93385D01*
X102453Y93359D01*
X102457D01*
X102463Y93352D01*
X102476Y93349D01*
X102496Y93342D01*
X102519Y93336D01*
X102549Y93333D01*
X102581Y93326D01*
X102621D01*
X102624D01*
X102637D01*
X102657Y93329D01*
X102680Y93333D01*
X102706Y93339D01*
X102732Y93346D01*
X102759Y93359D01*
X102781Y93375D01*
X102785Y93379D01*
X102791Y93385D01*
X102801Y93395D01*
X102814Y93408D01*
X102827Y93424D01*
X102844Y93444D01*
X102867Y93497D01*
Y93500D01*
X102870Y93510D01*
X102877Y93526D01*
X102883Y93549D01*
X102886Y93575D01*
X102893Y93605D01*
X102896Y93641D01*
X102900Y93680D01*
Y93720D01*
X102903Y93743D01*
Y93969D01*
X103316D01*
Y93811D01*
X103319Y93782D01*
Y93749D01*
X103323Y93680D01*
Y93677D01*
X103326Y93664D01*
Y93647D01*
X103332Y93628D01*
X103342Y93575D01*
X103362Y93526D01*
Y93523D01*
X103369Y93516D01*
X103375Y93503D01*
X103385Y93490D01*
X103408Y93454D01*
X103444Y93424D01*
X103447Y93421D01*
X103454Y93418D01*
X103467Y93411D01*
X103483Y93405D01*
X103506Y93398D01*
X103533Y93395D01*
X103562Y93388D01*
X103595D01*
X103598D01*
X103608D01*
X103618Y93392D01*
X103634D01*
X103674Y93405D01*
X103693Y93411D01*
X103710Y93424D01*
X103713D01*
X103716Y93431D01*
X103736Y93447D01*
X103759Y93474D01*
X103782Y93506D01*
Y93510D01*
X103785Y93516D01*
X103792Y93529D01*
X103798Y93542D01*
X103805Y93562D01*
X103811Y93585D01*
X103821Y93641D01*
Y93644D01*
X103824Y93654D01*
Y93667D01*
X103828Y93683D01*
X103831Y93726D01*
Y93802D01*
X103828Y93824D01*
X103824Y93851D01*
X103821Y93884D01*
X103808Y93949D01*
Y93953D01*
X103805Y93966D01*
X103802Y93982D01*
X103795Y94005D01*
X103785Y94031D01*
X103779Y94061D01*
X103756Y94123D01*
Y94126D01*
X103752Y94133D01*
X103746Y94149D01*
X103739Y94166D01*
X103729Y94185D01*
X103716Y94212D01*
X103690Y94264D01*
Y94267D01*
X103683Y94277D01*
X103677Y94287D01*
X103667Y94303D01*
X103647Y94340D01*
X103641Y94356D01*
X103631Y94369D01*
Y94418D01*
X104136D01*
X104139Y94412D01*
X104146Y94395D01*
X104156Y94369D01*
X104169Y94333D01*
X104185Y94284D01*
X104202Y94228D01*
X104218Y94162D01*
X104238Y94090D01*
Y94087D01*
X104241Y94080D01*
Y94071D01*
X104244Y94054D01*
X104251Y94034D01*
X104254Y94015D01*
X104264Y93959D01*
X104271Y93897D01*
X104280Y93824D01*
X104284Y93746D01*
X104287Y93667D01*
Y93611D01*
X104284Y93592D01*
Y93542D01*
X104277Y93483D01*
X104271Y93421D01*
X104261Y93359D01*
X104248Y93300D01*
Y93293D01*
X104241Y93274D01*
X104231Y93244D01*
X104221Y93208D01*
X104205Y93169D01*
X104189Y93123D01*
X104166Y93077D01*
X104143Y93034D01*
X104139Y93028D01*
X104130Y93014D01*
X104113Y92991D01*
X104090Y92965D01*
X104064Y92936D01*
X104031Y92906D01*
X103995Y92877D01*
X103952Y92854D01*
X103946Y92850D01*
X103933Y92844D01*
X103910Y92834D01*
X103877Y92821D01*
X103838Y92811D01*
X103795Y92801D01*
X103746Y92795D01*
X103693Y92791D01*
X103690D01*
X103683D01*
X103674D01*
X103661Y92795D01*
X103621Y92798D01*
X103572Y92804D01*
X103516Y92821D01*
X103457Y92840D01*
X103398Y92870D01*
X103339Y92909D01*
X103332Y92916D01*
X103316Y92929D01*
X103290Y92955D01*
X103257Y92991D01*
X103224Y93037D01*
X103191Y93090D01*
X103165Y93149D01*
X103142Y93218D01*
X103119D01*
Y93214D01*
X103116Y93205D01*
X103113Y93185D01*
X103110Y93165D01*
X103103Y93139D01*
X103096Y93113D01*
X103077Y93054D01*
Y93050D01*
X103070Y93041D01*
X103063Y93024D01*
X103054Y93005D01*
X103041Y92978D01*
X103024Y92952D01*
X103001Y92926D01*
X102978Y92896D01*
X102975Y92893D01*
X102968Y92883D01*
X102952Y92870D01*
X102936Y92854D01*
X102913Y92837D01*
X102883Y92814D01*
X102854Y92798D01*
X102817Y92778D01*
X102814Y92775D01*
X102801Y92772D01*
X102778Y92762D01*
X102752Y92752D01*
X102719Y92745D01*
X102676Y92736D01*
X102634Y92732D01*
X102585Y92729D01*
X102581D01*
X102578D01*
X102568D01*
X102555D01*
X102522Y92732D01*
X102480Y92736D01*
X102430Y92745D01*
X102378Y92755D01*
X102322Y92772D01*
X102267Y92795D01*
X102260Y92798D01*
X102243Y92808D01*
X102217Y92821D01*
X102181Y92844D01*
X102145Y92870D01*
X102102Y92903D01*
X102063Y92942D01*
X102024Y92985D01*
X102021Y92991D01*
X102007Y93008D01*
X101988Y93034D01*
X101968Y93067D01*
X101942Y93113D01*
X101916Y93162D01*
X101893Y93218D01*
X101870Y93280D01*
Y93283D01*
X101866Y93287D01*
Y93296D01*
X101863Y93310D01*
X101857Y93326D01*
X101853Y93346D01*
X101843Y93395D01*
X101833Y93454D01*
X101827Y93523D01*
X101820Y93602D01*
X101817Y93690D01*
Y93762D01*
X101820Y93788D01*
Y93821D01*
X101824Y93854D01*
X101827Y93929D01*
X101837Y94008D01*
X101847Y94090D01*
X101863Y94169D01*
Y94172D01*
X101866Y94179D01*
Y94189D01*
X101870Y94202D01*
X101880Y94238D01*
X101893Y94284D01*
X101909Y94333D01*
X101925Y94385D01*
X101945Y94438D01*
X101965Y94487D01*
X102480D01*
Y94431D01*
D02*
G37*
G36*
X103106Y110865D02*
X103146Y110861D01*
X103195Y110858D01*
X103247Y110852D01*
X103310Y110842D01*
X103375Y110825D01*
X103444Y110809D01*
X103516Y110786D01*
X103592Y110760D01*
X103667Y110727D01*
X103743Y110691D01*
X103815Y110645D01*
X103884Y110596D01*
X103949Y110537D01*
X103952Y110533D01*
X103962Y110520D01*
X103982Y110501D01*
X104002Y110474D01*
X104028Y110442D01*
X104057Y110402D01*
X104087Y110353D01*
X104120Y110297D01*
X104149Y110238D01*
X104179Y110169D01*
X104208Y110094D01*
X104235Y110012D01*
X104258Y109927D01*
X104274Y109832D01*
X104284Y109733D01*
X104287Y109628D01*
Y109579D01*
X104284Y109553D01*
Y109494D01*
X104280Y109458D01*
X104274Y109382D01*
X104261Y109300D01*
X104248Y109221D01*
X104228Y109146D01*
Y109143D01*
X104225Y109136D01*
X104221Y109126D01*
X104218Y109113D01*
X104212Y109097D01*
X104205Y109077D01*
X104189Y109028D01*
X104166Y108969D01*
X104139Y108903D01*
X104110Y108834D01*
X104077Y108759D01*
X103523D01*
Y108818D01*
X103529Y108821D01*
X103536Y108831D01*
X103546Y108847D01*
X103559Y108864D01*
X103575Y108884D01*
X103595Y108910D01*
X103615Y108939D01*
X103618Y108943D01*
X103624Y108952D01*
X103638Y108969D01*
X103651Y108989D01*
X103667Y109011D01*
X103687Y109038D01*
X103720Y109093D01*
X103723Y109097D01*
X103729Y109110D01*
X103736Y109130D01*
X103749Y109153D01*
X103762Y109185D01*
X103775Y109221D01*
X103792Y109261D01*
X103805Y109303D01*
X103808Y109310D01*
X103811Y109323D01*
X103818Y109346D01*
X103824Y109376D01*
X103831Y109415D01*
X103838Y109454D01*
X103844Y109500D01*
Y109576D01*
X103841Y109605D01*
X103838Y109641D01*
X103831Y109684D01*
X103824Y109730D01*
X103811Y109779D01*
X103795Y109828D01*
X103792Y109835D01*
X103785Y109848D01*
X103775Y109874D01*
X103759Y109904D01*
X103736Y109936D01*
X103713Y109976D01*
X103683Y110012D01*
X103647Y110051D01*
X103644Y110055D01*
X103631Y110068D01*
X103608Y110084D01*
X103582Y110107D01*
X103546Y110130D01*
X103506Y110156D01*
X103457Y110179D01*
X103405Y110202D01*
X103398Y110205D01*
X103378Y110209D01*
X103349Y110219D01*
X103306Y110228D01*
X103257Y110238D01*
X103198Y110245D01*
X103132Y110251D01*
X103064Y110255D01*
X103060D01*
X103044D01*
X103024D01*
X102995Y110251D01*
X102962Y110248D01*
X102919Y110245D01*
X102877Y110238D01*
X102831Y110228D01*
X102729Y110205D01*
X102676Y110186D01*
X102627Y110166D01*
X102578Y110143D01*
X102529Y110117D01*
X102486Y110084D01*
X102447Y110048D01*
X102444Y110045D01*
X102437Y110038D01*
X102427Y110025D01*
X102417Y110009D01*
X102401Y109989D01*
X102385Y109963D01*
X102368Y109933D01*
X102348Y109897D01*
X102329Y109858D01*
X102312Y109815D01*
X102296Y109769D01*
X102280Y109720D01*
X102270Y109664D01*
X102260Y109605D01*
X102253Y109543D01*
X102250Y109477D01*
Y109353D01*
X102253Y109326D01*
X102726D01*
Y109786D01*
X103172D01*
Y108749D01*
X102001D01*
Y108752D01*
X101998Y108756D01*
X101994Y108765D01*
X101991Y108779D01*
X101984Y108792D01*
X101978Y108811D01*
X101962Y108857D01*
X101942Y108916D01*
X101922Y108989D01*
X101899Y109067D01*
X101876Y109156D01*
Y109159D01*
X101873Y109166D01*
X101870Y109179D01*
X101866Y109198D01*
X101863Y109221D01*
X101857Y109248D01*
X101853Y109277D01*
X101847Y109310D01*
X101837Y109385D01*
X101827Y109467D01*
X101820Y109556D01*
X101817Y109648D01*
Y109671D01*
X101820Y109700D01*
X101824Y109740D01*
X101827Y109786D01*
X101834Y109841D01*
X101843Y109904D01*
X101857Y109969D01*
X101873Y110038D01*
X101896Y110110D01*
X101922Y110182D01*
X101952Y110258D01*
X101991Y110330D01*
X102034Y110402D01*
X102083Y110471D01*
X102139Y110537D01*
X102142Y110540D01*
X102155Y110550D01*
X102171Y110566D01*
X102198Y110589D01*
X102230Y110612D01*
X102273Y110642D01*
X102319Y110671D01*
X102375Y110701D01*
X102434Y110733D01*
X102503Y110763D01*
X102578Y110793D01*
X102660Y110816D01*
X102749Y110838D01*
X102844Y110855D01*
X102945Y110865D01*
X103054Y110868D01*
X103060D01*
X103080D01*
X103106Y110865D01*
D02*
G37*
G36*
X104238Y107572D02*
X102877Y106814D01*
X104238D01*
Y106270D01*
X101866D01*
Y106843D01*
X103519Y107755D01*
X101866D01*
Y108300D01*
X104238D01*
Y107572D01*
D02*
G37*
G36*
Y104961D02*
X104235Y104935D01*
Y104902D01*
X104231Y104830D01*
X104225Y104751D01*
X104215Y104669D01*
X104205Y104587D01*
Y104577D01*
X104202Y104564D01*
X104198Y104551D01*
X104195Y104531D01*
X104189Y104508D01*
X104172Y104452D01*
X104153Y104390D01*
X104126Y104321D01*
X104094Y104249D01*
X104051Y104177D01*
X104048Y104174D01*
X104044Y104167D01*
X104034Y104154D01*
X104025Y104137D01*
X104008Y104118D01*
X103989Y104095D01*
X103943Y104042D01*
X103887Y103983D01*
X103815Y103924D01*
X103736Y103865D01*
X103644Y103809D01*
X103641Y103806D01*
X103634Y103803D01*
X103618Y103796D01*
X103598Y103787D01*
X103575Y103777D01*
X103546Y103767D01*
X103513Y103754D01*
X103474Y103741D01*
X103434Y103727D01*
X103388Y103714D01*
X103339Y103705D01*
X103287Y103695D01*
X103172Y103678D01*
X103047Y103672D01*
X103044D01*
X103034D01*
X103014D01*
X102991Y103675D01*
X102962D01*
X102929Y103678D01*
X102890Y103685D01*
X102850Y103691D01*
X102755Y103708D01*
X102657Y103734D01*
X102555Y103770D01*
X102503Y103793D01*
X102453Y103819D01*
X102450D01*
X102444Y103826D01*
X102427Y103832D01*
X102411Y103846D01*
X102388Y103859D01*
X102365Y103875D01*
X102306Y103918D01*
X102244Y103970D01*
X102175Y104033D01*
X102112Y104105D01*
X102053Y104183D01*
Y104187D01*
X102047Y104193D01*
X102043Y104203D01*
X102034Y104216D01*
X102024Y104233D01*
X102014Y104252D01*
X101988Y104301D01*
X101962Y104364D01*
X101938Y104429D01*
X101916Y104505D01*
X101899Y104587D01*
Y104597D01*
X101896Y104610D01*
X101893Y104623D01*
Y104646D01*
X101889Y104669D01*
X101886Y104695D01*
X101883Y104725D01*
X101876Y104794D01*
X101873Y104872D01*
X101866Y104957D01*
Y105787D01*
X104238D01*
Y104961D01*
D02*
G37*
G36*
X104238Y118297D02*
X103824D01*
Y118638D01*
X102280D01*
Y118297D01*
X101866D01*
Y119576D01*
X102280D01*
Y119235D01*
X103824D01*
Y119576D01*
X104238D01*
Y118297D01*
D02*
G37*
G36*
X103106Y118041D02*
X103146D01*
X103191Y118034D01*
X103247Y118028D01*
X103310Y118018D01*
X103378Y118005D01*
X103447Y117989D01*
X103523Y117969D01*
X103595Y117946D01*
X103670Y117916D01*
X103746Y117880D01*
X103818Y117841D01*
X103887Y117792D01*
X103952Y117739D01*
X103956Y117736D01*
X103966Y117726D01*
X103982Y117706D01*
X104005Y117683D01*
X104031Y117651D01*
X104057Y117614D01*
X104090Y117569D01*
X104120Y117519D01*
X104153Y117464D01*
X104182Y117401D01*
X104208Y117332D01*
X104235Y117257D01*
X104258Y117175D01*
X104274Y117090D01*
X104284Y116998D01*
X104287Y116900D01*
Y116876D01*
X104284Y116847D01*
X104280Y116811D01*
X104277Y116765D01*
X104271Y116712D01*
X104261Y116657D01*
X104244Y116595D01*
X104228Y116529D01*
X104205Y116460D01*
X104179Y116391D01*
X104146Y116319D01*
X104110Y116250D01*
X104064Y116184D01*
X104015Y116119D01*
X103956Y116060D01*
X103952Y116057D01*
X103939Y116047D01*
X103923Y116030D01*
X103897Y116011D01*
X103861Y115988D01*
X103821Y115961D01*
X103772Y115935D01*
X103720Y115906D01*
X103657Y115876D01*
X103588Y115850D01*
X103516Y115824D01*
X103434Y115801D01*
X103346Y115781D01*
X103254Y115765D01*
X103155Y115755D01*
X103050Y115752D01*
X103044D01*
X103024D01*
X102995Y115755D01*
X102955D01*
X102906Y115761D01*
X102850Y115768D01*
X102788Y115778D01*
X102722Y115791D01*
X102650Y115807D01*
X102578Y115827D01*
X102503Y115853D01*
X102427Y115883D01*
X102352Y115916D01*
X102280Y115958D01*
X102211Y116004D01*
X102145Y116060D01*
X102142Y116063D01*
X102132Y116073D01*
X102116Y116093D01*
X102093Y116116D01*
X102070Y116148D01*
X102040Y116184D01*
X102011Y116227D01*
X101981Y116280D01*
X101952Y116335D01*
X101922Y116398D01*
X101893Y116466D01*
X101870Y116542D01*
X101847Y116624D01*
X101830Y116709D01*
X101820Y116801D01*
X101817Y116900D01*
Y116922D01*
X101820Y116952D01*
X101824Y116988D01*
X101827Y117034D01*
X101834Y117083D01*
X101843Y117142D01*
X101860Y117204D01*
X101876Y117270D01*
X101899Y117339D01*
X101925Y117408D01*
X101958Y117480D01*
X101994Y117549D01*
X102040Y117614D01*
X102089Y117680D01*
X102148Y117739D01*
X102152Y117743D01*
X102165Y117752D01*
X102184Y117769D01*
X102211Y117785D01*
X102244Y117811D01*
X102283Y117834D01*
X102332Y117864D01*
X102388Y117890D01*
X102447Y117920D01*
X102516Y117949D01*
X102591Y117972D01*
X102670Y117995D01*
X102755Y118015D01*
X102850Y118031D01*
X102945Y118041D01*
X103050Y118044D01*
X103054D01*
X103057D01*
X103077D01*
X103106Y118041D01*
D02*
G37*
G36*
X103162Y115515D02*
X103198D01*
X103237Y115512D01*
X103319Y115509D01*
X103411Y115499D01*
X103500Y115489D01*
X103588Y115473D01*
X103592D01*
X103598Y115469D01*
X103611Y115466D01*
X103624Y115463D01*
X103644Y115456D01*
X103667Y115450D01*
X103720Y115433D01*
X103779Y115410D01*
X103844Y115384D01*
X103910Y115348D01*
X103972Y115309D01*
X103975D01*
X103979Y115302D01*
X103998Y115289D01*
X104025Y115263D01*
X104061Y115230D01*
X104100Y115191D01*
X104139Y115141D01*
X104175Y115086D01*
X104208Y115023D01*
Y115020D01*
X104212Y115017D01*
X104215Y115007D01*
X104221Y114994D01*
X104228Y114974D01*
X104235Y114954D01*
X104248Y114905D01*
X104261Y114846D01*
X104274Y114774D01*
X104284Y114695D01*
X104287Y114607D01*
Y114564D01*
X104284Y114541D01*
Y114518D01*
X104277Y114456D01*
X104267Y114390D01*
X104251Y114318D01*
X104231Y114246D01*
X104205Y114180D01*
Y114177D01*
X104202Y114174D01*
X104195Y114164D01*
X104189Y114151D01*
X104172Y114121D01*
X104146Y114082D01*
X104110Y114036D01*
X104070Y113990D01*
X104021Y113941D01*
X103966Y113898D01*
X103962D01*
X103959Y113895D01*
X103949Y113889D01*
X103936Y113882D01*
X103903Y113862D01*
X103857Y113839D01*
X103802Y113813D01*
X103736Y113787D01*
X103661Y113760D01*
X103578Y113741D01*
X103575D01*
X103569Y113738D01*
X103556D01*
X103539Y113734D01*
X103516Y113728D01*
X103490Y113725D01*
X103460Y113721D01*
X103428Y113715D01*
X103388Y113711D01*
X103349Y113708D01*
X103260Y113698D01*
X103159Y113695D01*
X103050Y113692D01*
X103047D01*
X103037D01*
X103021D01*
X102998D01*
X102972D01*
X102942Y113695D01*
X102906D01*
X102870Y113698D01*
X102785Y113705D01*
X102696Y113715D01*
X102601Y113728D01*
X102513Y113744D01*
X102509D01*
X102503Y113747D01*
X102490Y113751D01*
X102473Y113754D01*
X102453Y113757D01*
X102430Y113764D01*
X102378Y113784D01*
X102319Y113803D01*
X102253Y113833D01*
X102191Y113862D01*
X102129Y113902D01*
X102126D01*
X102122Y113905D01*
X102102Y113921D01*
X102076Y113944D01*
X102043Y113977D01*
X102004Y114016D01*
X101965Y114066D01*
X101929Y114121D01*
X101896Y114184D01*
Y114187D01*
X101893Y114190D01*
X101889Y114200D01*
X101883Y114213D01*
X101876Y114230D01*
X101870Y114249D01*
X101857Y114302D01*
X101843Y114361D01*
X101830Y114433D01*
X101820Y114515D01*
X101817Y114607D01*
Y114649D01*
X101820Y114669D01*
Y114695D01*
X101827Y114754D01*
X101837Y114820D01*
X101850Y114889D01*
X101870Y114961D01*
X101896Y115030D01*
Y115033D01*
X101899Y115036D01*
X101906Y115046D01*
X101912Y115059D01*
X101929Y115089D01*
X101955Y115132D01*
X101988Y115174D01*
X102030Y115223D01*
X102076Y115269D01*
X102132Y115312D01*
X102135D01*
X102139Y115315D01*
X102148Y115322D01*
X102158Y115328D01*
X102194Y115348D01*
X102237Y115371D01*
X102293Y115397D01*
X102358Y115424D01*
X102434Y115450D01*
X102516Y115469D01*
X102519D01*
X102526Y115473D01*
X102539D01*
X102555Y115476D01*
X102578Y115479D01*
X102604Y115486D01*
X102634Y115489D01*
X102670Y115492D01*
X102706Y115499D01*
X102749Y115502D01*
X102837Y115512D01*
X102939Y115515D01*
X103050Y115519D01*
X103054D01*
X103064D01*
X103080D01*
X103103D01*
X103129D01*
X103162Y115515D01*
D02*
G37*
G36*
X104238Y129499D02*
X103824D01*
Y129840D01*
X102280D01*
Y129499D01*
X101866D01*
Y130778D01*
X102280D01*
Y130437D01*
X103824D01*
Y130778D01*
X104238D01*
Y129499D01*
D02*
G37*
G36*
X103106Y129243D02*
X103146D01*
X103191Y129237D01*
X103247Y129230D01*
X103310Y129220D01*
X103378Y129207D01*
X103447Y129191D01*
X103523Y129171D01*
X103595Y129148D01*
X103670Y129119D01*
X103746Y129083D01*
X103818Y129043D01*
X103887Y128994D01*
X103952Y128941D01*
X103956Y128938D01*
X103966Y128928D01*
X103982Y128909D01*
X104005Y128886D01*
X104031Y128853D01*
X104057Y128817D01*
X104090Y128771D01*
X104120Y128722D01*
X104153Y128666D01*
X104182Y128604D01*
X104208Y128535D01*
X104235Y128459D01*
X104258Y128377D01*
X104274Y128292D01*
X104284Y128200D01*
X104287Y128102D01*
Y128079D01*
X104284Y128049D01*
X104280Y128013D01*
X104277Y127967D01*
X104271Y127915D01*
X104261Y127859D01*
X104244Y127797D01*
X104228Y127731D01*
X104205Y127662D01*
X104179Y127593D01*
X104146Y127521D01*
X104110Y127452D01*
X104064Y127387D01*
X104015Y127321D01*
X103956Y127262D01*
X103952Y127259D01*
X103939Y127249D01*
X103923Y127233D01*
X103897Y127213D01*
X103861Y127190D01*
X103821Y127164D01*
X103772Y127137D01*
X103720Y127108D01*
X103657Y127078D01*
X103588Y127052D01*
X103516Y127026D01*
X103434Y127003D01*
X103346Y126983D01*
X103254Y126967D01*
X103155Y126957D01*
X103050Y126954D01*
X103044D01*
X103024D01*
X102995Y126957D01*
X102955D01*
X102906Y126964D01*
X102850Y126970D01*
X102788Y126980D01*
X102722Y126993D01*
X102650Y127009D01*
X102578Y127029D01*
X102503Y127055D01*
X102427Y127085D01*
X102352Y127118D01*
X102280Y127160D01*
X102211Y127206D01*
X102145Y127262D01*
X102142Y127265D01*
X102132Y127275D01*
X102116Y127295D01*
X102093Y127318D01*
X102070Y127351D01*
X102040Y127387D01*
X102011Y127429D01*
X101981Y127482D01*
X101952Y127538D01*
X101922Y127600D01*
X101893Y127669D01*
X101870Y127744D01*
X101847Y127826D01*
X101830Y127911D01*
X101820Y128003D01*
X101817Y128102D01*
Y128125D01*
X101820Y128154D01*
X101824Y128190D01*
X101827Y128236D01*
X101834Y128285D01*
X101843Y128345D01*
X101860Y128407D01*
X101876Y128472D01*
X101899Y128541D01*
X101925Y128610D01*
X101958Y128682D01*
X101994Y128751D01*
X102040Y128817D01*
X102089Y128882D01*
X102148Y128941D01*
X102152Y128945D01*
X102165Y128955D01*
X102184Y128971D01*
X102211Y128987D01*
X102244Y129014D01*
X102283Y129036D01*
X102332Y129066D01*
X102388Y129092D01*
X102447Y129122D01*
X102516Y129151D01*
X102591Y129174D01*
X102670Y129197D01*
X102755Y129217D01*
X102850Y129233D01*
X102945Y129243D01*
X103050Y129246D01*
X103054D01*
X103057D01*
X103077D01*
X103106Y129243D01*
D02*
G37*
G36*
X103920Y126495D02*
X103923Y126465D01*
Y126432D01*
X103926Y126396D01*
X103933Y126317D01*
Y126314D01*
X103936Y126298D01*
X103939Y126278D01*
X103943Y126255D01*
X103959Y126199D01*
X103969Y126170D01*
X103979Y126144D01*
X103982Y126140D01*
X103985Y126130D01*
X103995Y126117D01*
X104005Y126101D01*
X104038Y126062D01*
X104080Y126025D01*
X104084Y126022D01*
X104094Y126019D01*
X104107Y126012D01*
X104126Y126003D01*
X104149Y125996D01*
X104179Y125989D01*
X104208Y125983D01*
X104244Y125980D01*
Y125458D01*
X102280D01*
Y124969D01*
X101866D01*
Y126534D01*
X102280D01*
Y126035D01*
X103533D01*
Y126534D01*
X103920D01*
Y126495D01*
D02*
G37*
G36*
X103001Y124609D02*
X103034D01*
X103070Y124605D01*
X103110Y124602D01*
X103195Y124595D01*
X103287Y124586D01*
X103382Y124569D01*
X103474Y124546D01*
X103477D01*
X103483Y124543D01*
X103497Y124540D01*
X103513Y124533D01*
X103536Y124527D01*
X103559Y124517D01*
X103618Y124494D01*
X103687Y124464D01*
X103759Y124428D01*
X103831Y124382D01*
X103903Y124330D01*
X103907Y124327D01*
X103910Y124323D01*
X103920Y124313D01*
X103933Y124303D01*
X103966Y124271D01*
X104005Y124228D01*
X104048Y124172D01*
X104094Y124107D01*
X104139Y124031D01*
X104179Y123949D01*
Y123946D01*
X104182Y123939D01*
X104189Y123926D01*
X104195Y123907D01*
X104202Y123887D01*
X104212Y123857D01*
X104221Y123828D01*
X104231Y123792D01*
X104238Y123752D01*
X104248Y123713D01*
X104258Y123667D01*
X104264Y123618D01*
X104277Y123510D01*
X104280Y123395D01*
Y123352D01*
X104277Y123323D01*
Y123287D01*
X104274Y123251D01*
X104264Y123165D01*
Y123159D01*
X104261Y123146D01*
X104258Y123126D01*
X104254Y123100D01*
X104248Y123047D01*
X104241Y123021D01*
X104238Y123001D01*
X103775D01*
Y123050D01*
X103779Y123054D01*
X103782Y123064D01*
X103788Y123080D01*
X103795Y123097D01*
X103802Y123119D01*
X103811Y123149D01*
X103821Y123182D01*
Y123185D01*
X103824Y123198D01*
X103831Y123218D01*
X103834Y123244D01*
X103841Y123277D01*
X103844Y123313D01*
X103848Y123356D01*
Y123428D01*
X103844Y123447D01*
Y123470D01*
X103841Y123497D01*
X103828Y123559D01*
X103811Y123628D01*
X103785Y123700D01*
X103749Y123769D01*
X103726Y123802D01*
X103700Y123831D01*
X103693Y123838D01*
X103683Y123844D01*
X103674Y123854D01*
X103657Y123867D01*
X103638Y123880D01*
X103592Y123910D01*
X103533Y123943D01*
X103460Y123972D01*
X103375Y123998D01*
X103280Y124018D01*
X103283Y124012D01*
X103293Y123998D01*
X103306Y123976D01*
X103323Y123943D01*
X103339Y123910D01*
X103362Y123867D01*
X103398Y123782D01*
X103401Y123775D01*
X103405Y123759D01*
X103411Y123736D01*
X103421Y123703D01*
X103431Y123661D01*
X103437Y123615D01*
X103441Y123565D01*
X103444Y123510D01*
Y123487D01*
X103441Y123464D01*
Y123431D01*
X103434Y123395D01*
X103428Y123356D01*
X103421Y123313D01*
X103408Y123270D01*
Y123264D01*
X103401Y123251D01*
X103395Y123231D01*
X103385Y123205D01*
X103369Y123172D01*
X103352Y123139D01*
X103310Y123070D01*
X103306Y123064D01*
X103293Y123050D01*
X103270Y123028D01*
X103244Y123001D01*
X103208Y122968D01*
X103165Y122936D01*
X103116Y122906D01*
X103060Y122877D01*
X103057D01*
X103054Y122873D01*
X103044Y122870D01*
X103034Y122864D01*
X103001Y122854D01*
X102955Y122837D01*
X102900Y122824D01*
X102831Y122814D01*
X102755Y122804D01*
X102670Y122801D01*
X102667D01*
X102654D01*
X102634D01*
X102608Y122804D01*
X102575Y122808D01*
X102539Y122814D01*
X102499Y122821D01*
X102453Y122831D01*
X102404Y122844D01*
X102355Y122860D01*
X102306Y122880D01*
X102253Y122903D01*
X102201Y122929D01*
X102152Y122962D01*
X102102Y122998D01*
X102057Y123041D01*
X102053Y123044D01*
X102047Y123050D01*
X102034Y123064D01*
X102021Y123083D01*
X102001Y123110D01*
X101981Y123136D01*
X101958Y123172D01*
X101938Y123211D01*
X101916Y123254D01*
X101893Y123303D01*
X101873Y123356D01*
X101853Y123415D01*
X101840Y123477D01*
X101827Y123542D01*
X101820Y123615D01*
X101817Y123690D01*
Y123726D01*
X101820Y123743D01*
Y123766D01*
X101824Y123815D01*
X101830Y123871D01*
X101843Y123933D01*
X101857Y123998D01*
X101876Y124061D01*
Y124064D01*
X101880Y124067D01*
X101886Y124087D01*
X101902Y124117D01*
X101919Y124156D01*
X101945Y124198D01*
X101975Y124244D01*
X102011Y124290D01*
X102050Y124336D01*
X102057Y124343D01*
X102076Y124359D01*
X102106Y124382D01*
X102145Y124412D01*
X102198Y124444D01*
X102257Y124481D01*
X102325Y124513D01*
X102404Y124543D01*
X102408D01*
X102414Y124546D01*
X102427Y124549D01*
X102444Y124553D01*
X102463Y124559D01*
X102490Y124566D01*
X102519Y124573D01*
X102552Y124576D01*
X102588Y124582D01*
X102627Y124589D01*
X102716Y124602D01*
X102814Y124609D01*
X102922Y124612D01*
X102926D01*
X102936D01*
X102952D01*
X102975D01*
X103001Y124609D01*
D02*
G37*
G36*
X102480Y139735D02*
X102476Y139728D01*
X102467Y139712D01*
X102450Y139685D01*
X102430Y139646D01*
X102408Y139603D01*
X102381Y139551D01*
X102355Y139492D01*
X102332Y139430D01*
Y139426D01*
X102329Y139423D01*
X102326Y139413D01*
X102322Y139400D01*
X102312Y139367D01*
X102303Y139321D01*
X102293Y139272D01*
X102283Y139220D01*
X102276Y139164D01*
X102273Y139108D01*
Y139075D01*
X102276Y139052D01*
Y139023D01*
X102280Y138993D01*
X102286Y138921D01*
Y138918D01*
X102289Y138905D01*
X102293Y138885D01*
X102303Y138862D01*
X102322Y138806D01*
X102339Y138777D01*
X102355Y138751D01*
X102358Y138747D01*
X102362Y138741D01*
X102372Y138731D01*
X102381Y138718D01*
X102414Y138688D01*
X102453Y138662D01*
X102457D01*
X102463Y138655D01*
X102476Y138652D01*
X102496Y138646D01*
X102519Y138639D01*
X102549Y138636D01*
X102581Y138629D01*
X102621D01*
X102624D01*
X102637D01*
X102657Y138633D01*
X102680Y138636D01*
X102706Y138642D01*
X102732Y138649D01*
X102759Y138662D01*
X102781Y138678D01*
X102785Y138682D01*
X102791Y138688D01*
X102801Y138698D01*
X102814Y138711D01*
X102827Y138728D01*
X102844Y138747D01*
X102867Y138800D01*
Y138803D01*
X102870Y138813D01*
X102877Y138829D01*
X102883Y138852D01*
X102886Y138879D01*
X102893Y138908D01*
X102896Y138944D01*
X102900Y138984D01*
Y139023D01*
X102903Y139046D01*
Y139272D01*
X103316D01*
Y139115D01*
X103319Y139085D01*
Y139052D01*
X103323Y138984D01*
Y138980D01*
X103326Y138967D01*
Y138951D01*
X103332Y138931D01*
X103342Y138879D01*
X103362Y138829D01*
Y138826D01*
X103369Y138820D01*
X103375Y138806D01*
X103385Y138793D01*
X103408Y138757D01*
X103444Y138728D01*
X103447Y138724D01*
X103454Y138721D01*
X103467Y138715D01*
X103483Y138708D01*
X103506Y138701D01*
X103533Y138698D01*
X103562Y138692D01*
X103595D01*
X103598D01*
X103608D01*
X103618Y138695D01*
X103634D01*
X103674Y138708D01*
X103693Y138715D01*
X103710Y138728D01*
X103713D01*
X103716Y138734D01*
X103736Y138751D01*
X103759Y138777D01*
X103782Y138810D01*
Y138813D01*
X103785Y138820D01*
X103792Y138833D01*
X103798Y138846D01*
X103805Y138865D01*
X103811Y138888D01*
X103821Y138944D01*
Y138947D01*
X103824Y138957D01*
Y138970D01*
X103828Y138987D01*
X103831Y139029D01*
Y139105D01*
X103828Y139128D01*
X103824Y139154D01*
X103821Y139187D01*
X103808Y139252D01*
Y139256D01*
X103805Y139269D01*
X103802Y139285D01*
X103795Y139308D01*
X103785Y139334D01*
X103779Y139364D01*
X103756Y139426D01*
Y139430D01*
X103752Y139436D01*
X103746Y139453D01*
X103739Y139469D01*
X103729Y139489D01*
X103716Y139515D01*
X103690Y139567D01*
Y139571D01*
X103683Y139580D01*
X103677Y139590D01*
X103667Y139607D01*
X103647Y139643D01*
X103641Y139659D01*
X103631Y139672D01*
Y139722D01*
X104136D01*
X104139Y139715D01*
X104146Y139699D01*
X104156Y139672D01*
X104169Y139636D01*
X104185Y139587D01*
X104202Y139531D01*
X104218Y139466D01*
X104238Y139393D01*
Y139390D01*
X104241Y139384D01*
Y139374D01*
X104244Y139357D01*
X104251Y139338D01*
X104254Y139318D01*
X104264Y139262D01*
X104271Y139200D01*
X104280Y139128D01*
X104284Y139049D01*
X104287Y138970D01*
Y138915D01*
X104284Y138895D01*
Y138846D01*
X104277Y138787D01*
X104271Y138724D01*
X104261Y138662D01*
X104248Y138603D01*
Y138596D01*
X104241Y138577D01*
X104231Y138547D01*
X104221Y138511D01*
X104205Y138472D01*
X104189Y138426D01*
X104166Y138380D01*
X104143Y138337D01*
X104139Y138331D01*
X104130Y138318D01*
X104113Y138295D01*
X104090Y138268D01*
X104064Y138239D01*
X104031Y138209D01*
X103995Y138180D01*
X103952Y138157D01*
X103946Y138154D01*
X103933Y138147D01*
X103910Y138137D01*
X103877Y138124D01*
X103838Y138114D01*
X103795Y138104D01*
X103746Y138098D01*
X103693Y138095D01*
X103690D01*
X103683D01*
X103674D01*
X103661Y138098D01*
X103621Y138101D01*
X103572Y138108D01*
X103516Y138124D01*
X103457Y138144D01*
X103398Y138173D01*
X103339Y138213D01*
X103332Y138219D01*
X103316Y138232D01*
X103290Y138259D01*
X103257Y138295D01*
X103224Y138341D01*
X103191Y138393D01*
X103165Y138452D01*
X103142Y138521D01*
X103119D01*
Y138518D01*
X103116Y138508D01*
X103113Y138488D01*
X103110Y138469D01*
X103103Y138442D01*
X103096Y138416D01*
X103077Y138357D01*
Y138354D01*
X103070Y138344D01*
X103064Y138328D01*
X103054Y138308D01*
X103041Y138282D01*
X103024Y138255D01*
X103001Y138229D01*
X102978Y138200D01*
X102975Y138196D01*
X102968Y138186D01*
X102952Y138173D01*
X102936Y138157D01*
X102913Y138140D01*
X102883Y138118D01*
X102854Y138101D01*
X102818Y138082D01*
X102814Y138078D01*
X102801Y138075D01*
X102778Y138065D01*
X102752Y138055D01*
X102719Y138049D01*
X102676Y138039D01*
X102634Y138036D01*
X102585Y138032D01*
X102581D01*
X102578D01*
X102568D01*
X102555D01*
X102522Y138036D01*
X102480Y138039D01*
X102430Y138049D01*
X102378Y138058D01*
X102322Y138075D01*
X102267Y138098D01*
X102260Y138101D01*
X102244Y138111D01*
X102217Y138124D01*
X102181Y138147D01*
X102145Y138173D01*
X102102Y138206D01*
X102063Y138245D01*
X102024Y138288D01*
X102021Y138295D01*
X102007Y138311D01*
X101988Y138337D01*
X101968Y138370D01*
X101942Y138416D01*
X101916Y138465D01*
X101893Y138521D01*
X101870Y138583D01*
Y138587D01*
X101866Y138590D01*
Y138600D01*
X101863Y138613D01*
X101857Y138629D01*
X101853Y138649D01*
X101843Y138698D01*
X101834Y138757D01*
X101827Y138826D01*
X101820Y138905D01*
X101817Y138993D01*
Y139066D01*
X101820Y139092D01*
Y139125D01*
X101824Y139157D01*
X101827Y139233D01*
X101837Y139312D01*
X101847Y139393D01*
X101863Y139472D01*
Y139476D01*
X101866Y139482D01*
Y139492D01*
X101870Y139505D01*
X101880Y139541D01*
X101893Y139587D01*
X101909Y139636D01*
X101925Y139689D01*
X101945Y139741D01*
X101965Y139790D01*
X102480D01*
Y139735D01*
D02*
G37*
G36*
X104238Y137288D02*
X102624Y136769D01*
X104238Y136251D01*
Y135651D01*
X101866Y136468D01*
Y137091D01*
X104238Y137904D01*
Y137288D01*
D02*
G37*
G36*
X102480Y135458D02*
X102476Y135451D01*
X102467Y135434D01*
X102450Y135408D01*
X102430Y135369D01*
X102408Y135326D01*
X102381Y135274D01*
X102355Y135215D01*
X102332Y135152D01*
Y135149D01*
X102329Y135146D01*
X102326Y135136D01*
X102322Y135123D01*
X102312Y135090D01*
X102303Y135044D01*
X102293Y134995D01*
X102283Y134942D01*
X102276Y134887D01*
X102273Y134831D01*
Y134798D01*
X102276Y134775D01*
Y134746D01*
X102280Y134716D01*
X102286Y134644D01*
Y134641D01*
X102289Y134628D01*
X102293Y134608D01*
X102303Y134585D01*
X102322Y134529D01*
X102339Y134500D01*
X102355Y134474D01*
X102358Y134470D01*
X102362Y134464D01*
X102372Y134454D01*
X102381Y134441D01*
X102414Y134411D01*
X102453Y134385D01*
X102457D01*
X102463Y134378D01*
X102476Y134375D01*
X102496Y134369D01*
X102519Y134362D01*
X102549Y134359D01*
X102581Y134352D01*
X102621D01*
X102624D01*
X102637D01*
X102657Y134355D01*
X102680Y134359D01*
X102706Y134365D01*
X102732Y134372D01*
X102759Y134385D01*
X102781Y134401D01*
X102785Y134405D01*
X102791Y134411D01*
X102801Y134421D01*
X102814Y134434D01*
X102827Y134450D01*
X102844Y134470D01*
X102867Y134523D01*
Y134526D01*
X102870Y134536D01*
X102877Y134552D01*
X102883Y134575D01*
X102886Y134601D01*
X102893Y134631D01*
X102896Y134667D01*
X102900Y134706D01*
Y134746D01*
X102903Y134769D01*
Y134995D01*
X103316D01*
Y134838D01*
X103319Y134808D01*
Y134775D01*
X103323Y134706D01*
Y134703D01*
X103326Y134690D01*
Y134674D01*
X103332Y134654D01*
X103342Y134601D01*
X103362Y134552D01*
Y134549D01*
X103369Y134542D01*
X103375Y134529D01*
X103385Y134516D01*
X103408Y134480D01*
X103444Y134450D01*
X103447Y134447D01*
X103454Y134444D01*
X103467Y134437D01*
X103483Y134431D01*
X103506Y134424D01*
X103533Y134421D01*
X103562Y134414D01*
X103595D01*
X103598D01*
X103608D01*
X103618Y134418D01*
X103634D01*
X103674Y134431D01*
X103693Y134437D01*
X103710Y134450D01*
X103713D01*
X103716Y134457D01*
X103736Y134474D01*
X103759Y134500D01*
X103782Y134532D01*
Y134536D01*
X103785Y134542D01*
X103792Y134555D01*
X103798Y134569D01*
X103805Y134588D01*
X103811Y134611D01*
X103821Y134667D01*
Y134670D01*
X103824Y134680D01*
Y134693D01*
X103828Y134710D01*
X103831Y134752D01*
Y134828D01*
X103828Y134851D01*
X103824Y134877D01*
X103821Y134910D01*
X103808Y134975D01*
Y134979D01*
X103805Y134992D01*
X103802Y135008D01*
X103795Y135031D01*
X103785Y135057D01*
X103779Y135087D01*
X103756Y135149D01*
Y135152D01*
X103752Y135159D01*
X103746Y135175D01*
X103739Y135192D01*
X103729Y135212D01*
X103716Y135238D01*
X103690Y135290D01*
Y135293D01*
X103683Y135303D01*
X103677Y135313D01*
X103667Y135330D01*
X103647Y135366D01*
X103641Y135382D01*
X103631Y135395D01*
Y135444D01*
X104136D01*
X104139Y135438D01*
X104146Y135421D01*
X104156Y135395D01*
X104169Y135359D01*
X104185Y135310D01*
X104202Y135254D01*
X104218Y135188D01*
X104238Y135116D01*
Y135113D01*
X104241Y135107D01*
Y135097D01*
X104244Y135080D01*
X104251Y135061D01*
X104254Y135041D01*
X104264Y134985D01*
X104271Y134923D01*
X104280Y134851D01*
X104284Y134772D01*
X104287Y134693D01*
Y134637D01*
X104284Y134618D01*
Y134569D01*
X104277Y134510D01*
X104271Y134447D01*
X104261Y134385D01*
X104248Y134326D01*
Y134319D01*
X104241Y134300D01*
X104231Y134270D01*
X104221Y134234D01*
X104205Y134195D01*
X104189Y134149D01*
X104166Y134103D01*
X104143Y134060D01*
X104139Y134054D01*
X104130Y134040D01*
X104113Y134018D01*
X104090Y133991D01*
X104064Y133962D01*
X104031Y133932D01*
X103995Y133903D01*
X103952Y133880D01*
X103946Y133877D01*
X103933Y133870D01*
X103910Y133860D01*
X103877Y133847D01*
X103838Y133837D01*
X103795Y133827D01*
X103746Y133821D01*
X103693Y133818D01*
X103690D01*
X103683D01*
X103674D01*
X103661Y133821D01*
X103621Y133824D01*
X103572Y133831D01*
X103516Y133847D01*
X103457Y133867D01*
X103398Y133896D01*
X103339Y133936D01*
X103332Y133942D01*
X103316Y133955D01*
X103290Y133982D01*
X103257Y134018D01*
X103224Y134063D01*
X103191Y134116D01*
X103165Y134175D01*
X103142Y134244D01*
X103119D01*
Y134241D01*
X103116Y134231D01*
X103113Y134211D01*
X103110Y134191D01*
X103103Y134165D01*
X103096Y134139D01*
X103077Y134080D01*
Y134077D01*
X103070Y134067D01*
X103064Y134050D01*
X103054Y134031D01*
X103041Y134004D01*
X103024Y133978D01*
X103001Y133952D01*
X102978Y133922D01*
X102975Y133919D01*
X102968Y133909D01*
X102952Y133896D01*
X102936Y133880D01*
X102913Y133863D01*
X102883Y133840D01*
X102854Y133824D01*
X102818Y133804D01*
X102814Y133801D01*
X102801Y133798D01*
X102778Y133788D01*
X102752Y133778D01*
X102719Y133772D01*
X102676Y133762D01*
X102634Y133758D01*
X102585Y133755D01*
X102581D01*
X102578D01*
X102568D01*
X102555D01*
X102522Y133758D01*
X102480Y133762D01*
X102430Y133772D01*
X102378Y133781D01*
X102322Y133798D01*
X102267Y133821D01*
X102260Y133824D01*
X102244Y133834D01*
X102217Y133847D01*
X102181Y133870D01*
X102145Y133896D01*
X102102Y133929D01*
X102063Y133968D01*
X102024Y134011D01*
X102021Y134018D01*
X102007Y134034D01*
X101988Y134060D01*
X101968Y134093D01*
X101942Y134139D01*
X101916Y134188D01*
X101893Y134244D01*
X101870Y134306D01*
Y134309D01*
X101866Y134313D01*
Y134323D01*
X101863Y134336D01*
X101857Y134352D01*
X101853Y134372D01*
X101843Y134421D01*
X101834Y134480D01*
X101827Y134549D01*
X101820Y134628D01*
X101817Y134716D01*
Y134788D01*
X101820Y134815D01*
Y134847D01*
X101824Y134880D01*
X101827Y134956D01*
X101837Y135034D01*
X101847Y135116D01*
X101863Y135195D01*
Y135198D01*
X101866Y135205D01*
Y135215D01*
X101870Y135228D01*
X101880Y135264D01*
X101893Y135310D01*
X101909Y135359D01*
X101925Y135412D01*
X101945Y135464D01*
X101965Y135513D01*
X102480D01*
Y135458D01*
D02*
G37*
G36*
X3675Y68783D02*
X4233D01*
Y68206D01*
X3675D01*
Y67166D01*
X3236D01*
X1855Y68186D01*
Y68783D01*
X3249D01*
Y69105D01*
X3675D01*
Y68783D01*
D02*
G37*
G36*
X3098Y66983D02*
X3137D01*
X3186Y66976D01*
X3242Y66970D01*
X3305Y66960D01*
X3370Y66947D01*
X3442Y66930D01*
X3514Y66910D01*
X3590Y66884D01*
X3665Y66855D01*
X3741Y66822D01*
X3813Y66779D01*
X3882Y66733D01*
X3947Y66678D01*
X3951Y66674D01*
X3960Y66664D01*
X3977Y66645D01*
X4000Y66622D01*
X4023Y66589D01*
X4052Y66553D01*
X4082Y66510D01*
X4111Y66458D01*
X4141Y66402D01*
X4170Y66340D01*
X4200Y66271D01*
X4223Y66195D01*
X4246Y66114D01*
X4262Y66028D01*
X4272Y65936D01*
X4275Y65838D01*
Y65815D01*
X4272Y65785D01*
X4269Y65749D01*
X4266Y65703D01*
X4259Y65654D01*
X4249Y65595D01*
X4233Y65533D01*
X4216Y65467D01*
X4193Y65399D01*
X4167Y65330D01*
X4134Y65257D01*
X4098Y65188D01*
X4052Y65123D01*
X4003Y65057D01*
X3944Y64998D01*
X3941Y64995D01*
X3928Y64985D01*
X3908Y64969D01*
X3882Y64952D01*
X3849Y64926D01*
X3810Y64903D01*
X3760Y64874D01*
X3705Y64847D01*
X3646Y64818D01*
X3577Y64788D01*
X3501Y64765D01*
X3423Y64742D01*
X3337Y64723D01*
X3242Y64706D01*
X3147Y64697D01*
X3042Y64693D01*
X3039D01*
X3036D01*
X3016D01*
X2986Y64697D01*
X2947D01*
X2901Y64703D01*
X2845Y64710D01*
X2783Y64719D01*
X2714Y64733D01*
X2645Y64749D01*
X2570Y64769D01*
X2498Y64792D01*
X2422Y64821D01*
X2347Y64857D01*
X2275Y64897D01*
X2206Y64946D01*
X2140Y64998D01*
X2137Y65002D01*
X2127Y65011D01*
X2111Y65031D01*
X2088Y65054D01*
X2061Y65087D01*
X2035Y65123D01*
X2002Y65169D01*
X1973Y65218D01*
X1940Y65274D01*
X1911Y65336D01*
X1884Y65405D01*
X1858Y65480D01*
X1835Y65562D01*
X1819Y65648D01*
X1809Y65740D01*
X1805Y65838D01*
Y65861D01*
X1809Y65890D01*
X1812Y65926D01*
X1815Y65973D01*
X1822Y66025D01*
X1832Y66081D01*
X1848Y66143D01*
X1865Y66209D01*
X1887Y66277D01*
X1914Y66346D01*
X1947Y66418D01*
X1983Y66487D01*
X2029Y66553D01*
X2078Y66619D01*
X2137Y66678D01*
X2140Y66681D01*
X2153Y66691D01*
X2170Y66707D01*
X2196Y66727D01*
X2232Y66750D01*
X2271Y66776D01*
X2321Y66802D01*
X2373Y66832D01*
X2435Y66861D01*
X2504Y66888D01*
X2576Y66914D01*
X2658Y66937D01*
X2747Y66956D01*
X2839Y66973D01*
X2937Y66983D01*
X3042Y66986D01*
X3049D01*
X3068D01*
X3098Y66983D01*
D02*
G37*
G36*
X4226Y63161D02*
X3813D01*
Y63503D01*
X2268D01*
Y63161D01*
X1855D01*
Y64441D01*
X2268D01*
Y64100D01*
X3813D01*
Y64441D01*
X4226D01*
Y63161D01*
D02*
G37*
G36*
X4369Y78171D02*
X3985D01*
X3982Y78174D01*
X3979Y78181D01*
X3969Y78194D01*
X3956Y78207D01*
X3939Y78227D01*
X3920Y78250D01*
X3877Y78302D01*
X3828Y78364D01*
X3772Y78430D01*
X3713Y78499D01*
X3654Y78568D01*
X3651Y78571D01*
X3647Y78575D01*
X3638Y78584D01*
X3628Y78597D01*
X3598Y78630D01*
X3559Y78673D01*
X3513Y78722D01*
X3461Y78774D01*
X3408Y78827D01*
X3356Y78879D01*
X3352Y78883D01*
X3346Y78886D01*
X3339Y78896D01*
X3326Y78909D01*
X3290Y78939D01*
X3247Y78978D01*
X3195Y79017D01*
X3142Y79060D01*
X3087Y79099D01*
X3034Y79132D01*
X3028Y79135D01*
X3011Y79145D01*
X2982Y79158D01*
X2946Y79171D01*
X2903Y79185D01*
X2857Y79198D01*
X2805Y79207D01*
X2749Y79211D01*
X2746D01*
X2742D01*
X2723D01*
X2690Y79204D01*
X2654Y79198D01*
X2614Y79185D01*
X2572Y79168D01*
X2529Y79142D01*
X2493Y79109D01*
X2490Y79106D01*
X2480Y79093D01*
X2463Y79070D01*
X2447Y79037D01*
X2434Y78998D01*
X2417Y78952D01*
X2408Y78896D01*
X2404Y78834D01*
Y78801D01*
X2408Y78778D01*
X2411Y78752D01*
X2414Y78725D01*
X2427Y78663D01*
Y78660D01*
X2431Y78650D01*
X2437Y78633D01*
X2444Y78610D01*
X2450Y78588D01*
X2463Y78558D01*
X2486Y78499D01*
Y78496D01*
X2493Y78486D01*
X2499Y78470D01*
X2509Y78450D01*
X2532Y78404D01*
X2562Y78358D01*
Y78355D01*
X2568Y78348D01*
X2582Y78328D01*
X2598Y78299D01*
X2614Y78276D01*
Y78230D01*
X2099D01*
X2096Y78233D01*
X2090Y78250D01*
X2080Y78273D01*
X2070Y78306D01*
X2053Y78348D01*
X2037Y78404D01*
X2021Y78466D01*
X2001Y78542D01*
Y78545D01*
X1998Y78552D01*
X1994Y78561D01*
X1991Y78578D01*
X1988Y78597D01*
X1984Y78620D01*
X1975Y78673D01*
X1965Y78735D01*
X1955Y78804D01*
X1952Y78876D01*
X1948Y78952D01*
Y78991D01*
X1952Y79021D01*
X1955Y79057D01*
X1958Y79096D01*
X1965Y79142D01*
X1971Y79191D01*
X1994Y79293D01*
X2011Y79348D01*
X2027Y79401D01*
X2050Y79453D01*
X2076Y79503D01*
X2106Y79549D01*
X2139Y79591D01*
X2142Y79594D01*
X2149Y79601D01*
X2158Y79611D01*
X2172Y79627D01*
X2191Y79644D01*
X2214Y79660D01*
X2244Y79680D01*
X2273Y79703D01*
X2309Y79722D01*
X2349Y79742D01*
X2395Y79759D01*
X2440Y79778D01*
X2490Y79791D01*
X2545Y79801D01*
X2604Y79808D01*
X2667Y79811D01*
X2670D01*
X2677D01*
X2686D01*
X2703D01*
X2723Y79808D01*
X2746Y79804D01*
X2798Y79798D01*
X2864Y79785D01*
X2932Y79768D01*
X3008Y79742D01*
X3083Y79709D01*
X3087D01*
X3093Y79706D01*
X3103Y79699D01*
X3119Y79690D01*
X3136Y79680D01*
X3159Y79667D01*
X3211Y79631D01*
X3277Y79585D01*
X3349Y79529D01*
X3428Y79460D01*
X3513Y79381D01*
X3520Y79375D01*
X3536Y79358D01*
X3565Y79329D01*
X3598Y79293D01*
X3638Y79250D01*
X3680Y79204D01*
X3769Y79102D01*
X3772Y79096D01*
X3785Y79080D01*
X3805Y79057D01*
X3828Y79027D01*
X3880Y78961D01*
X3903Y78932D01*
X3923Y78906D01*
Y79916D01*
X4369D01*
Y78171D01*
D02*
G37*
G36*
X3241Y77820D02*
X3280D01*
X3329Y77814D01*
X3385Y77807D01*
X3447Y77797D01*
X3513Y77784D01*
X3585Y77768D01*
X3657Y77748D01*
X3733Y77722D01*
X3808Y77692D01*
X3884Y77659D01*
X3956Y77617D01*
X4025Y77571D01*
X4090Y77515D01*
X4093Y77512D01*
X4103Y77502D01*
X4120Y77482D01*
X4143Y77459D01*
X4166Y77426D01*
X4195Y77390D01*
X4225Y77348D01*
X4254Y77295D01*
X4284Y77240D01*
X4313Y77177D01*
X4343Y77108D01*
X4366Y77033D01*
X4389Y76951D01*
X4405Y76866D01*
X4415Y76774D01*
X4418Y76675D01*
Y76652D01*
X4415Y76623D01*
X4412Y76587D01*
X4408Y76541D01*
X4402Y76492D01*
X4392Y76433D01*
X4376Y76370D01*
X4359Y76305D01*
X4336Y76236D01*
X4310Y76167D01*
X4277Y76095D01*
X4241Y76026D01*
X4195Y75960D01*
X4146Y75895D01*
X4087Y75836D01*
X4084Y75832D01*
X4071Y75823D01*
X4051Y75806D01*
X4025Y75790D01*
X3992Y75763D01*
X3952Y75740D01*
X3903Y75711D01*
X3847Y75685D01*
X3788Y75655D01*
X3720Y75626D01*
X3644Y75603D01*
X3565Y75580D01*
X3480Y75560D01*
X3385Y75544D01*
X3290Y75534D01*
X3185Y75531D01*
X3182D01*
X3178D01*
X3159D01*
X3129Y75534D01*
X3090D01*
X3044Y75540D01*
X2988Y75547D01*
X2926Y75557D01*
X2857Y75570D01*
X2788Y75586D01*
X2713Y75606D01*
X2640Y75629D01*
X2565Y75659D01*
X2490Y75695D01*
X2417Y75734D01*
X2349Y75783D01*
X2283Y75836D01*
X2280Y75839D01*
X2270Y75849D01*
X2253Y75868D01*
X2231Y75891D01*
X2204Y75924D01*
X2178Y75960D01*
X2145Y76006D01*
X2116Y76055D01*
X2083Y76111D01*
X2053Y76174D01*
X2027Y76242D01*
X2001Y76318D01*
X1978Y76400D01*
X1962Y76485D01*
X1952Y76577D01*
X1948Y76675D01*
Y76698D01*
X1952Y76728D01*
X1955Y76764D01*
X1958Y76810D01*
X1965Y76862D01*
X1975Y76918D01*
X1991Y76980D01*
X2008Y77046D01*
X2030Y77115D01*
X2057Y77184D01*
X2090Y77256D01*
X2125Y77325D01*
X2172Y77390D01*
X2221Y77456D01*
X2280Y77515D01*
X2283Y77518D01*
X2296Y77528D01*
X2313Y77544D01*
X2339Y77564D01*
X2375Y77587D01*
X2414Y77613D01*
X2463Y77640D01*
X2516Y77669D01*
X2578Y77699D01*
X2647Y77725D01*
X2719Y77751D01*
X2801Y77774D01*
X2890Y77794D01*
X2982Y77810D01*
X3080Y77820D01*
X3185Y77823D01*
X3192D01*
X3211D01*
X3241Y77820D01*
D02*
G37*
G36*
X4369Y73999D02*
X3956D01*
Y74340D01*
X2411D01*
Y73999D01*
X1998D01*
Y75278D01*
X2411D01*
Y74937D01*
X3956D01*
Y75278D01*
X4369D01*
Y73999D01*
D02*
G37*
G36*
X3675Y90269D02*
X4233D01*
Y89691D01*
X3675D01*
Y88652D01*
X3236D01*
X1855Y89672D01*
Y90269D01*
X3249D01*
Y90590D01*
X3675D01*
Y90269D01*
D02*
G37*
G36*
X4226Y86815D02*
X3813D01*
Y87313D01*
X2560D01*
Y86815D01*
X2173D01*
Y86854D01*
X2170Y86884D01*
Y86917D01*
X2166Y86953D01*
X2160Y87031D01*
Y87035D01*
X2156Y87051D01*
X2153Y87071D01*
X2150Y87094D01*
X2134Y87149D01*
X2124Y87179D01*
X2114Y87205D01*
X2111Y87208D01*
X2107Y87218D01*
X2097Y87231D01*
X2088Y87248D01*
X2055Y87287D01*
X2012Y87323D01*
X2009Y87327D01*
X1999Y87330D01*
X1986Y87336D01*
X1966Y87346D01*
X1943Y87353D01*
X1914Y87359D01*
X1884Y87366D01*
X1848Y87369D01*
Y87891D01*
X3813D01*
Y88379D01*
X4226D01*
Y86815D01*
D02*
G37*
G36*
X3098Y86392D02*
X3137D01*
X3186Y86385D01*
X3242Y86379D01*
X3305Y86369D01*
X3370Y86356D01*
X3442Y86339D01*
X3514Y86320D01*
X3590Y86293D01*
X3665Y86264D01*
X3741Y86231D01*
X3813Y86188D01*
X3882Y86142D01*
X3947Y86087D01*
X3951Y86083D01*
X3960Y86074D01*
X3977Y86054D01*
X4000Y86031D01*
X4023Y85998D01*
X4052Y85962D01*
X4082Y85919D01*
X4111Y85867D01*
X4141Y85811D01*
X4170Y85749D01*
X4200Y85680D01*
X4223Y85605D01*
X4246Y85523D01*
X4262Y85437D01*
X4272Y85345D01*
X4275Y85247D01*
Y85224D01*
X4272Y85194D01*
X4269Y85158D01*
X4265Y85113D01*
X4259Y85063D01*
X4249Y85004D01*
X4233Y84942D01*
X4216Y84876D01*
X4193Y84807D01*
X4167Y84739D01*
X4134Y84666D01*
X4098Y84598D01*
X4052Y84532D01*
X4003Y84466D01*
X3944Y84407D01*
X3941Y84404D01*
X3928Y84394D01*
X3908Y84378D01*
X3882Y84361D01*
X3849Y84335D01*
X3810Y84312D01*
X3760Y84283D01*
X3705Y84256D01*
X3646Y84227D01*
X3577Y84197D01*
X3501Y84174D01*
X3423Y84152D01*
X3337Y84132D01*
X3242Y84115D01*
X3147Y84106D01*
X3042Y84102D01*
X3039D01*
X3036D01*
X3016D01*
X2986Y84106D01*
X2947D01*
X2901Y84112D01*
X2845Y84119D01*
X2783Y84128D01*
X2714Y84142D01*
X2645Y84158D01*
X2570Y84178D01*
X2498Y84201D01*
X2422Y84230D01*
X2347Y84266D01*
X2275Y84306D01*
X2206Y84355D01*
X2140Y84407D01*
X2137Y84411D01*
X2127Y84420D01*
X2111Y84440D01*
X2088Y84463D01*
X2061Y84496D01*
X2035Y84532D01*
X2002Y84578D01*
X1973Y84627D01*
X1940Y84683D01*
X1911Y84745D01*
X1884Y84814D01*
X1858Y84890D01*
X1835Y84971D01*
X1819Y85057D01*
X1809Y85149D01*
X1805Y85247D01*
Y85270D01*
X1809Y85299D01*
X1812Y85336D01*
X1815Y85382D01*
X1822Y85434D01*
X1832Y85490D01*
X1848Y85552D01*
X1865Y85618D01*
X1887Y85686D01*
X1914Y85755D01*
X1947Y85828D01*
X1983Y85896D01*
X2029Y85962D01*
X2078Y86028D01*
X2137Y86087D01*
X2140Y86090D01*
X2153Y86100D01*
X2170Y86116D01*
X2196Y86136D01*
X2232Y86159D01*
X2271Y86185D01*
X2321Y86211D01*
X2373Y86241D01*
X2435Y86270D01*
X2504Y86297D01*
X2576Y86323D01*
X2658Y86346D01*
X2747Y86365D01*
X2839Y86382D01*
X2937Y86392D01*
X3042Y86395D01*
X3049D01*
X3068D01*
X3098Y86392D01*
D02*
G37*
G36*
X4226Y82570D02*
X3813D01*
Y82912D01*
X2268D01*
Y82570D01*
X1855D01*
Y83850D01*
X2268D01*
Y83509D01*
X3813D01*
Y83850D01*
X4226D01*
Y82570D01*
D02*
G37*
G36*
X3492Y100621D02*
X3537Y100617D01*
X3590Y100608D01*
X3646Y100598D01*
X3708Y100581D01*
X3767Y100558D01*
X3770D01*
X3774Y100555D01*
X3793Y100545D01*
X3823Y100532D01*
X3859Y100513D01*
X3901Y100486D01*
X3947Y100453D01*
X3993Y100414D01*
X4039Y100371D01*
X4046Y100365D01*
X4059Y100348D01*
X4079Y100322D01*
X4105Y100286D01*
X4134Y100243D01*
X4164Y100194D01*
X4190Y100135D01*
X4216Y100073D01*
Y100070D01*
X4220Y100066D01*
X4223Y100057D01*
X4226Y100043D01*
X4230Y100027D01*
X4236Y100007D01*
X4246Y99958D01*
X4256Y99896D01*
X4265Y99824D01*
X4272Y99742D01*
X4275Y99653D01*
Y99611D01*
X4272Y99588D01*
Y99561D01*
X4269Y99499D01*
X4262Y99427D01*
X4256Y99351D01*
X4243Y99273D01*
X4230Y99197D01*
Y99194D01*
X4226Y99187D01*
Y99177D01*
X4223Y99164D01*
X4213Y99132D01*
X4200Y99086D01*
X4187Y99037D01*
X4170Y98984D01*
X4154Y98935D01*
X4134Y98886D01*
X3616D01*
Y98941D01*
X3619Y98945D01*
X3626Y98954D01*
X3633Y98968D01*
X3652Y99000D01*
X3675Y99040D01*
Y99043D01*
X3682Y99050D01*
X3688Y99063D01*
X3695Y99079D01*
X3705Y99099D01*
X3718Y99125D01*
X3731Y99151D01*
X3744Y99184D01*
Y99187D01*
X3751Y99200D01*
X3757Y99217D01*
X3764Y99237D01*
X3774Y99263D01*
X3780Y99292D01*
X3800Y99355D01*
Y99358D01*
X3803Y99371D01*
X3806Y99387D01*
X3810Y99414D01*
X3813Y99443D01*
X3816Y99476D01*
X3819Y99512D01*
Y99588D01*
X3816Y99611D01*
X3813Y99640D01*
X3810Y99673D01*
X3796Y99748D01*
Y99752D01*
X3793Y99768D01*
X3787Y99788D01*
X3777Y99811D01*
X3751Y99866D01*
X3734Y99896D01*
X3714Y99922D01*
X3711Y99925D01*
X3705Y99932D01*
X3695Y99938D01*
X3682Y99952D01*
X3649Y99975D01*
X3606Y99998D01*
X3603D01*
X3596Y100001D01*
X3583Y100007D01*
X3564Y100014D01*
X3541Y100017D01*
X3514Y100024D01*
X3485Y100027D01*
X3449D01*
X3446D01*
X3436D01*
X3419Y100024D01*
X3400D01*
X3350Y100011D01*
X3328Y100004D01*
X3305Y99991D01*
X3301D01*
X3295Y99984D01*
X3285Y99978D01*
X3268Y99968D01*
X3239Y99938D01*
X3206Y99902D01*
X3203Y99899D01*
X3196Y99889D01*
X3190Y99870D01*
X3177Y99847D01*
X3167Y99817D01*
X3154Y99784D01*
X3144Y99748D01*
X3137Y99706D01*
Y99699D01*
X3134Y99686D01*
X3131Y99666D01*
X3127Y99637D01*
Y99607D01*
X3124Y99574D01*
X3121Y99506D01*
Y99456D01*
X3124Y99423D01*
X3127Y99384D01*
X3131Y99341D01*
X3144Y99250D01*
Y99243D01*
X3147Y99230D01*
X3150Y99207D01*
X3157Y99177D01*
X3164Y99145D01*
X3170Y99109D01*
X3186Y99037D01*
Y98987D01*
X1855D01*
Y100558D01*
X2301D01*
Y99548D01*
X2698D01*
Y99568D01*
X2694Y99581D01*
Y99614D01*
X2691Y99660D01*
Y99683D01*
X2688Y99699D01*
Y99794D01*
X2691Y99827D01*
Y99870D01*
X2698Y99915D01*
X2704Y99968D01*
X2711Y100024D01*
X2724Y100080D01*
Y100086D01*
X2730Y100102D01*
X2737Y100132D01*
X2750Y100165D01*
X2763Y100204D01*
X2783Y100250D01*
X2803Y100293D01*
X2829Y100335D01*
X2832Y100342D01*
X2845Y100358D01*
X2865Y100385D01*
X2891Y100414D01*
X2924Y100447D01*
X2967Y100483D01*
X3013Y100519D01*
X3065Y100549D01*
X3072Y100552D01*
X3091Y100562D01*
X3124Y100572D01*
X3167Y100588D01*
X3219Y100601D01*
X3278Y100611D01*
X3350Y100621D01*
X3426Y100624D01*
X3429D01*
X3432D01*
X3442D01*
X3455D01*
X3492Y100621D01*
D02*
G37*
G36*
X4226Y96931D02*
X3813D01*
Y97429D01*
X2560D01*
Y96931D01*
X2173D01*
Y96970D01*
X2170Y97000D01*
Y97032D01*
X2166Y97069D01*
X2160Y97147D01*
Y97150D01*
X2156Y97167D01*
X2153Y97186D01*
X2150Y97210D01*
X2134Y97265D01*
X2124Y97295D01*
X2114Y97321D01*
X2111Y97324D01*
X2107Y97334D01*
X2097Y97347D01*
X2088Y97364D01*
X2055Y97403D01*
X2012Y97439D01*
X2009Y97442D01*
X1999Y97446D01*
X1986Y97452D01*
X1966Y97462D01*
X1943Y97469D01*
X1914Y97475D01*
X1884Y97482D01*
X1848Y97485D01*
Y98007D01*
X3813D01*
Y98495D01*
X4226D01*
Y96931D01*
D02*
G37*
G36*
X3098Y96508D02*
X3137D01*
X3186Y96501D01*
X3242Y96495D01*
X3305Y96485D01*
X3370Y96472D01*
X3442Y96455D01*
X3514Y96435D01*
X3590Y96409D01*
X3665Y96380D01*
X3741Y96347D01*
X3813Y96304D01*
X3882Y96258D01*
X3947Y96202D01*
X3951Y96199D01*
X3960Y96189D01*
X3977Y96170D01*
X4000Y96147D01*
X4023Y96114D01*
X4052Y96078D01*
X4082Y96035D01*
X4111Y95983D01*
X4141Y95927D01*
X4170Y95865D01*
X4200Y95796D01*
X4223Y95720D01*
X4246Y95638D01*
X4262Y95553D01*
X4272Y95461D01*
X4275Y95363D01*
Y95340D01*
X4272Y95310D01*
X4269Y95274D01*
X4265Y95228D01*
X4259Y95179D01*
X4249Y95120D01*
X4233Y95058D01*
X4216Y94992D01*
X4193Y94923D01*
X4167Y94854D01*
X4134Y94782D01*
X4098Y94713D01*
X4052Y94648D01*
X4003Y94582D01*
X3944Y94523D01*
X3941Y94520D01*
X3928Y94510D01*
X3908Y94494D01*
X3882Y94477D01*
X3849Y94451D01*
X3810Y94428D01*
X3760Y94399D01*
X3705Y94372D01*
X3646Y94343D01*
X3577Y94313D01*
X3501Y94290D01*
X3423Y94267D01*
X3337Y94248D01*
X3242Y94231D01*
X3147Y94221D01*
X3042Y94218D01*
X3039D01*
X3036D01*
X3016D01*
X2986Y94221D01*
X2947D01*
X2901Y94228D01*
X2845Y94235D01*
X2783Y94244D01*
X2714Y94257D01*
X2645Y94274D01*
X2570Y94294D01*
X2498Y94317D01*
X2422Y94346D01*
X2347Y94382D01*
X2275Y94421D01*
X2206Y94471D01*
X2140Y94523D01*
X2137Y94526D01*
X2127Y94536D01*
X2111Y94556D01*
X2088Y94579D01*
X2061Y94612D01*
X2035Y94648D01*
X2002Y94694D01*
X1973Y94743D01*
X1940Y94799D01*
X1911Y94861D01*
X1884Y94930D01*
X1858Y95005D01*
X1835Y95087D01*
X1819Y95173D01*
X1809Y95265D01*
X1805Y95363D01*
Y95386D01*
X1809Y95415D01*
X1812Y95451D01*
X1815Y95497D01*
X1822Y95550D01*
X1832Y95606D01*
X1848Y95668D01*
X1865Y95733D01*
X1887Y95802D01*
X1914Y95871D01*
X1947Y95943D01*
X1983Y96012D01*
X2029Y96078D01*
X2078Y96144D01*
X2137Y96202D01*
X2140Y96206D01*
X2153Y96216D01*
X2170Y96232D01*
X2196Y96252D01*
X2232Y96275D01*
X2271Y96301D01*
X2321Y96327D01*
X2373Y96357D01*
X2435Y96386D01*
X2504Y96412D01*
X2576Y96439D01*
X2658Y96462D01*
X2747Y96481D01*
X2839Y96498D01*
X2937Y96508D01*
X3042Y96511D01*
X3049D01*
X3068D01*
X3098Y96508D01*
D02*
G37*
G36*
X4226Y92686D02*
X3813D01*
Y93028D01*
X2268D01*
Y92686D01*
X1855D01*
Y93966D01*
X2268D01*
Y93625D01*
X3813D01*
Y93966D01*
X4226D01*
Y92686D01*
D02*
G37*
G36*
X3570Y110555D02*
X3613Y110552D01*
X3662Y110542D01*
X3714Y110532D01*
X3770Y110516D01*
X3826Y110493D01*
X3833Y110489D01*
X3849Y110480D01*
X3875Y110467D01*
X3911Y110444D01*
X3947Y110417D01*
X3990Y110385D01*
X4029Y110345D01*
X4069Y110302D01*
X4072Y110296D01*
X4085Y110280D01*
X4105Y110253D01*
X4124Y110221D01*
X4151Y110175D01*
X4177Y110125D01*
X4200Y110070D01*
X4223Y110007D01*
Y110004D01*
X4226Y110001D01*
Y109991D01*
X4230Y109978D01*
X4236Y109961D01*
X4239Y109942D01*
X4249Y109892D01*
X4259Y109834D01*
X4266Y109765D01*
X4272Y109686D01*
X4275Y109597D01*
Y109525D01*
X4272Y109499D01*
Y109466D01*
X4269Y109433D01*
X4266Y109358D01*
X4256Y109279D01*
X4246Y109197D01*
X4230Y109118D01*
Y109115D01*
X4226Y109109D01*
Y109099D01*
X4223Y109086D01*
X4213Y109050D01*
X4200Y109004D01*
X4184Y108954D01*
X4167Y108902D01*
X4148Y108850D01*
X4128Y108800D01*
X3613D01*
Y108856D01*
X3616Y108863D01*
X3626Y108879D01*
X3642Y108905D01*
X3662Y108945D01*
X3685Y108987D01*
X3711Y109040D01*
X3737Y109099D01*
X3760Y109161D01*
Y109164D01*
X3764Y109168D01*
X3767Y109177D01*
X3770Y109191D01*
X3780Y109223D01*
X3790Y109269D01*
X3800Y109318D01*
X3810Y109371D01*
X3816Y109427D01*
X3819Y109483D01*
Y109515D01*
X3816Y109538D01*
Y109568D01*
X3813Y109597D01*
X3806Y109669D01*
Y109673D01*
X3803Y109686D01*
X3800Y109706D01*
X3790Y109729D01*
X3770Y109784D01*
X3754Y109814D01*
X3737Y109840D01*
X3734Y109843D01*
X3731Y109850D01*
X3721Y109860D01*
X3711Y109873D01*
X3678Y109902D01*
X3639Y109929D01*
X3636D01*
X3629Y109935D01*
X3616Y109938D01*
X3596Y109945D01*
X3573Y109952D01*
X3544Y109955D01*
X3511Y109961D01*
X3472D01*
X3469D01*
X3455D01*
X3436Y109958D01*
X3413Y109955D01*
X3387Y109948D01*
X3360Y109942D01*
X3334Y109929D01*
X3311Y109912D01*
X3308Y109909D01*
X3301Y109902D01*
X3291Y109892D01*
X3278Y109879D01*
X3265Y109863D01*
X3249Y109843D01*
X3226Y109791D01*
Y109788D01*
X3223Y109778D01*
X3216Y109761D01*
X3209Y109738D01*
X3206Y109712D01*
X3199Y109683D01*
X3196Y109646D01*
X3193Y109607D01*
Y109568D01*
X3190Y109545D01*
Y109318D01*
X2776D01*
Y109476D01*
X2773Y109505D01*
Y109538D01*
X2770Y109607D01*
Y109610D01*
X2767Y109624D01*
Y109640D01*
X2760Y109660D01*
X2750Y109712D01*
X2730Y109761D01*
Y109765D01*
X2724Y109771D01*
X2717Y109784D01*
X2708Y109797D01*
X2685Y109834D01*
X2648Y109863D01*
X2645Y109866D01*
X2639Y109870D01*
X2626Y109876D01*
X2609Y109883D01*
X2586Y109889D01*
X2560Y109892D01*
X2530Y109899D01*
X2498D01*
X2494D01*
X2485D01*
X2475Y109896D01*
X2458D01*
X2419Y109883D01*
X2399Y109876D01*
X2383Y109863D01*
X2380D01*
X2376Y109856D01*
X2357Y109840D01*
X2334Y109814D01*
X2311Y109781D01*
Y109778D01*
X2307Y109771D01*
X2301Y109758D01*
X2294Y109745D01*
X2288Y109725D01*
X2281Y109702D01*
X2271Y109646D01*
Y109643D01*
X2268Y109633D01*
Y109620D01*
X2265Y109604D01*
X2262Y109561D01*
Y109486D01*
X2265Y109463D01*
X2268Y109437D01*
X2271Y109404D01*
X2284Y109338D01*
Y109335D01*
X2288Y109322D01*
X2291Y109305D01*
X2298Y109282D01*
X2307Y109256D01*
X2314Y109227D01*
X2337Y109164D01*
Y109161D01*
X2340Y109154D01*
X2347Y109138D01*
X2353Y109122D01*
X2363Y109102D01*
X2376Y109076D01*
X2403Y109023D01*
Y109020D01*
X2409Y109010D01*
X2416Y109000D01*
X2426Y108984D01*
X2445Y108948D01*
X2452Y108932D01*
X2462Y108918D01*
Y108869D01*
X1956D01*
X1953Y108876D01*
X1947Y108892D01*
X1937Y108918D01*
X1924Y108954D01*
X1907Y109004D01*
X1891Y109059D01*
X1874Y109125D01*
X1855Y109197D01*
Y109201D01*
X1852Y109207D01*
Y109217D01*
X1848Y109233D01*
X1842Y109253D01*
X1838Y109273D01*
X1829Y109328D01*
X1822Y109391D01*
X1812Y109463D01*
X1809Y109542D01*
X1805Y109620D01*
Y109676D01*
X1809Y109696D01*
Y109745D01*
X1815Y109804D01*
X1822Y109866D01*
X1832Y109929D01*
X1845Y109988D01*
Y109994D01*
X1852Y110014D01*
X1861Y110043D01*
X1871Y110080D01*
X1887Y110119D01*
X1904Y110165D01*
X1927Y110211D01*
X1950Y110253D01*
X1953Y110260D01*
X1963Y110273D01*
X1979Y110296D01*
X2002Y110322D01*
X2029Y110352D01*
X2061Y110381D01*
X2097Y110411D01*
X2140Y110434D01*
X2147Y110437D01*
X2160Y110444D01*
X2183Y110453D01*
X2215Y110467D01*
X2255Y110476D01*
X2298Y110486D01*
X2347Y110493D01*
X2399Y110496D01*
X2403D01*
X2409D01*
X2419D01*
X2432Y110493D01*
X2471Y110489D01*
X2521Y110483D01*
X2576Y110467D01*
X2635Y110447D01*
X2694Y110417D01*
X2754Y110378D01*
X2760Y110371D01*
X2776Y110358D01*
X2803Y110332D01*
X2836Y110296D01*
X2868Y110250D01*
X2901Y110198D01*
X2927Y110138D01*
X2950Y110070D01*
X2973D01*
Y110073D01*
X2977Y110083D01*
X2980Y110102D01*
X2983Y110122D01*
X2990Y110148D01*
X2996Y110175D01*
X3016Y110234D01*
Y110237D01*
X3022Y110247D01*
X3029Y110263D01*
X3039Y110283D01*
X3052Y110309D01*
X3068Y110335D01*
X3091Y110362D01*
X3114Y110391D01*
X3118Y110394D01*
X3124Y110404D01*
X3140Y110417D01*
X3157Y110434D01*
X3180Y110450D01*
X3209Y110473D01*
X3239Y110489D01*
X3275Y110509D01*
X3278Y110512D01*
X3291Y110516D01*
X3314Y110526D01*
X3341Y110535D01*
X3373Y110542D01*
X3416Y110552D01*
X3459Y110555D01*
X3508Y110558D01*
X3511D01*
X3514D01*
X3524D01*
X3537D01*
X3570Y110555D01*
D02*
G37*
G36*
X4226Y106872D02*
X3813D01*
Y107370D01*
X2560D01*
Y106872D01*
X2173D01*
Y106911D01*
X2170Y106940D01*
Y106973D01*
X2166Y107009D01*
X2160Y107088D01*
Y107091D01*
X2156Y107108D01*
X2153Y107127D01*
X2150Y107150D01*
X2134Y107206D01*
X2124Y107236D01*
X2114Y107262D01*
X2111Y107265D01*
X2107Y107275D01*
X2097Y107288D01*
X2088Y107305D01*
X2055Y107344D01*
X2012Y107380D01*
X2009Y107383D01*
X1999Y107387D01*
X1986Y107393D01*
X1966Y107403D01*
X1943Y107410D01*
X1914Y107416D01*
X1884Y107423D01*
X1848Y107426D01*
Y107948D01*
X3813D01*
Y108436D01*
X4226D01*
Y106872D01*
D02*
G37*
G36*
X3098Y106448D02*
X3137D01*
X3186Y106442D01*
X3242Y106435D01*
X3305Y106426D01*
X3370Y106412D01*
X3442Y106396D01*
X3514Y106376D01*
X3590Y106350D01*
X3665Y106321D01*
X3741Y106288D01*
X3813Y106245D01*
X3882Y106199D01*
X3947Y106143D01*
X3951Y106140D01*
X3960Y106130D01*
X3977Y106111D01*
X4000Y106088D01*
X4023Y106055D01*
X4052Y106019D01*
X4082Y105976D01*
X4111Y105924D01*
X4141Y105868D01*
X4170Y105806D01*
X4200Y105737D01*
X4223Y105661D01*
X4246Y105579D01*
X4262Y105494D01*
X4272Y105402D01*
X4275Y105304D01*
Y105281D01*
X4272Y105251D01*
X4269Y105215D01*
X4266Y105169D01*
X4259Y105120D01*
X4249Y105061D01*
X4233Y104999D01*
X4216Y104933D01*
X4193Y104864D01*
X4167Y104795D01*
X4134Y104723D01*
X4098Y104654D01*
X4052Y104589D01*
X4003Y104523D01*
X3944Y104464D01*
X3941Y104461D01*
X3928Y104451D01*
X3908Y104435D01*
X3882Y104418D01*
X3849Y104392D01*
X3810Y104369D01*
X3760Y104340D01*
X3705Y104313D01*
X3646Y104284D01*
X3577Y104254D01*
X3501Y104231D01*
X3423Y104208D01*
X3337Y104189D01*
X3242Y104172D01*
X3147Y104162D01*
X3042Y104159D01*
X3039D01*
X3036D01*
X3016D01*
X2986Y104162D01*
X2947D01*
X2901Y104169D01*
X2845Y104175D01*
X2783Y104185D01*
X2714Y104199D01*
X2645Y104215D01*
X2570Y104235D01*
X2498Y104258D01*
X2422Y104287D01*
X2347Y104323D01*
X2275Y104362D01*
X2206Y104412D01*
X2140Y104464D01*
X2137Y104467D01*
X2127Y104477D01*
X2111Y104497D01*
X2088Y104520D01*
X2061Y104553D01*
X2035Y104589D01*
X2002Y104635D01*
X1973Y104684D01*
X1940Y104740D01*
X1911Y104802D01*
X1884Y104871D01*
X1858Y104946D01*
X1835Y105028D01*
X1819Y105114D01*
X1809Y105205D01*
X1805Y105304D01*
Y105327D01*
X1809Y105356D01*
X1812Y105392D01*
X1815Y105438D01*
X1822Y105491D01*
X1832Y105546D01*
X1848Y105609D01*
X1865Y105675D01*
X1887Y105743D01*
X1914Y105812D01*
X1947Y105884D01*
X1983Y105953D01*
X2029Y106019D01*
X2078Y106084D01*
X2137Y106143D01*
X2140Y106147D01*
X2153Y106157D01*
X2170Y106173D01*
X2196Y106193D01*
X2232Y106216D01*
X2271Y106242D01*
X2321Y106268D01*
X2373Y106298D01*
X2435Y106327D01*
X2504Y106353D01*
X2576Y106380D01*
X2658Y106403D01*
X2747Y106422D01*
X2839Y106439D01*
X2937Y106448D01*
X3042Y106452D01*
X3049D01*
X3068D01*
X3098Y106448D01*
D02*
G37*
G36*
X4226Y102627D02*
X3813D01*
Y102969D01*
X2268D01*
Y102627D01*
X1855D01*
Y103907D01*
X2268D01*
Y103565D01*
X3813D01*
Y103907D01*
X4226D01*
Y102627D01*
D02*
G37*
G36*
X4226Y119651D02*
X3842D01*
X3839Y119655D01*
X3836Y119661D01*
X3826Y119674D01*
X3813Y119687D01*
X3796Y119707D01*
X3777Y119730D01*
X3734Y119783D01*
X3685Y119845D01*
X3629Y119911D01*
X3570Y119979D01*
X3511Y120048D01*
X3508Y120052D01*
X3505Y120055D01*
X3495Y120065D01*
X3485Y120078D01*
X3455Y120111D01*
X3416Y120153D01*
X3370Y120202D01*
X3318Y120255D01*
X3265Y120307D01*
X3213Y120360D01*
X3209Y120363D01*
X3203Y120366D01*
X3196Y120376D01*
X3183Y120389D01*
X3147Y120419D01*
X3104Y120458D01*
X3052Y120498D01*
X2999Y120540D01*
X2944Y120580D01*
X2891Y120612D01*
X2885Y120616D01*
X2868Y120625D01*
X2839Y120639D01*
X2803Y120652D01*
X2760Y120665D01*
X2714Y120678D01*
X2662Y120688D01*
X2606Y120691D01*
X2603D01*
X2599D01*
X2580D01*
X2547Y120685D01*
X2511Y120678D01*
X2471Y120665D01*
X2429Y120649D01*
X2386Y120622D01*
X2350Y120589D01*
X2347Y120586D01*
X2337Y120573D01*
X2321Y120550D01*
X2304Y120517D01*
X2291Y120478D01*
X2275Y120432D01*
X2265Y120376D01*
X2261Y120314D01*
Y120281D01*
X2265Y120258D01*
X2268Y120232D01*
X2271Y120206D01*
X2284Y120143D01*
Y120140D01*
X2288Y120130D01*
X2294Y120114D01*
X2301Y120091D01*
X2307Y120068D01*
X2321Y120038D01*
X2343Y119979D01*
Y119976D01*
X2350Y119966D01*
X2357Y119950D01*
X2366Y119930D01*
X2389Y119884D01*
X2419Y119838D01*
Y119835D01*
X2426Y119828D01*
X2439Y119809D01*
X2455Y119779D01*
X2471Y119756D01*
Y119710D01*
X1956D01*
X1953Y119714D01*
X1947Y119730D01*
X1937Y119753D01*
X1927Y119786D01*
X1911Y119828D01*
X1894Y119884D01*
X1878Y119947D01*
X1858Y120022D01*
Y120025D01*
X1855Y120032D01*
X1852Y120042D01*
X1848Y120058D01*
X1845Y120078D01*
X1842Y120101D01*
X1832Y120153D01*
X1822Y120215D01*
X1812Y120284D01*
X1809Y120357D01*
X1805Y120432D01*
Y120471D01*
X1809Y120501D01*
X1812Y120537D01*
X1815Y120576D01*
X1822Y120622D01*
X1829Y120671D01*
X1852Y120773D01*
X1868Y120829D01*
X1884Y120881D01*
X1907Y120934D01*
X1933Y120983D01*
X1963Y121029D01*
X1996Y121072D01*
X1999Y121075D01*
X2006Y121081D01*
X2015Y121091D01*
X2029Y121108D01*
X2048Y121124D01*
X2071Y121141D01*
X2101Y121160D01*
X2130Y121183D01*
X2166Y121203D01*
X2206Y121222D01*
X2252Y121239D01*
X2297Y121259D01*
X2347Y121272D01*
X2403Y121282D01*
X2461Y121288D01*
X2524Y121291D01*
X2527D01*
X2534D01*
X2544D01*
X2560D01*
X2580Y121288D01*
X2603Y121285D01*
X2655Y121278D01*
X2721Y121265D01*
X2789Y121249D01*
X2865Y121222D01*
X2940Y121190D01*
X2944D01*
X2950Y121186D01*
X2960Y121180D01*
X2977Y121170D01*
X2993Y121160D01*
X3016Y121147D01*
X3068Y121111D01*
X3134Y121065D01*
X3206Y121009D01*
X3285Y120940D01*
X3370Y120862D01*
X3377Y120855D01*
X3393Y120839D01*
X3423Y120809D01*
X3455Y120773D01*
X3495Y120730D01*
X3537Y120685D01*
X3626Y120583D01*
X3629Y120576D01*
X3642Y120560D01*
X3662Y120537D01*
X3685Y120507D01*
X3737Y120442D01*
X3760Y120412D01*
X3780Y120386D01*
Y121396D01*
X4226D01*
Y119651D01*
D02*
G37*
G36*
Y117647D02*
X3813D01*
Y118146D01*
X2560D01*
Y117647D01*
X2173D01*
Y117687D01*
X2170Y117716D01*
Y117749D01*
X2166Y117785D01*
X2160Y117864D01*
Y117867D01*
X2156Y117883D01*
X2153Y117903D01*
X2150Y117926D01*
X2134Y117982D01*
X2124Y118011D01*
X2114Y118038D01*
X2111Y118041D01*
X2107Y118051D01*
X2097Y118064D01*
X2088Y118080D01*
X2055Y118120D01*
X2012Y118156D01*
X2009Y118159D01*
X1999Y118162D01*
X1986Y118169D01*
X1966Y118179D01*
X1943Y118185D01*
X1914Y118192D01*
X1884Y118198D01*
X1848Y118202D01*
Y118723D01*
X3813D01*
Y119212D01*
X4226D01*
Y117647D01*
D02*
G37*
G36*
X3098Y117224D02*
X3137D01*
X3186Y117218D01*
X3242Y117211D01*
X3305Y117201D01*
X3370Y117188D01*
X3442Y117172D01*
X3514Y117152D01*
X3590Y117126D01*
X3665Y117096D01*
X3741Y117063D01*
X3813Y117021D01*
X3882Y116975D01*
X3947Y116919D01*
X3951Y116916D01*
X3960Y116906D01*
X3977Y116886D01*
X4000Y116863D01*
X4023Y116831D01*
X4052Y116795D01*
X4082Y116752D01*
X4111Y116699D01*
X4141Y116644D01*
X4170Y116581D01*
X4200Y116512D01*
X4223Y116437D01*
X4246Y116355D01*
X4262Y116270D01*
X4272Y116178D01*
X4275Y116079D01*
Y116057D01*
X4272Y116027D01*
X4269Y115991D01*
X4265Y115945D01*
X4259Y115896D01*
X4249Y115837D01*
X4233Y115774D01*
X4216Y115709D01*
X4193Y115640D01*
X4167Y115571D01*
X4134Y115499D01*
X4098Y115430D01*
X4052Y115364D01*
X4003Y115299D01*
X3944Y115240D01*
X3941Y115236D01*
X3928Y115227D01*
X3908Y115210D01*
X3882Y115194D01*
X3849Y115168D01*
X3810Y115145D01*
X3760Y115115D01*
X3705Y115089D01*
X3646Y115059D01*
X3577Y115030D01*
X3501Y115007D01*
X3423Y114984D01*
X3337Y114964D01*
X3242Y114948D01*
X3147Y114938D01*
X3042Y114935D01*
X3039D01*
X3036D01*
X3016D01*
X2986Y114938D01*
X2947D01*
X2901Y114945D01*
X2845Y114951D01*
X2783Y114961D01*
X2714Y114974D01*
X2645Y114990D01*
X2570Y115010D01*
X2498Y115033D01*
X2422Y115063D01*
X2347Y115099D01*
X2275Y115138D01*
X2206Y115187D01*
X2140Y115240D01*
X2137Y115243D01*
X2127Y115253D01*
X2111Y115273D01*
X2088Y115296D01*
X2061Y115328D01*
X2035Y115364D01*
X2002Y115410D01*
X1973Y115460D01*
X1940Y115515D01*
X1911Y115578D01*
X1884Y115647D01*
X1858Y115722D01*
X1835Y115804D01*
X1819Y115889D01*
X1809Y115981D01*
X1805Y116079D01*
Y116102D01*
X1809Y116132D01*
X1812Y116168D01*
X1815Y116214D01*
X1822Y116266D01*
X1832Y116322D01*
X1848Y116384D01*
X1865Y116450D01*
X1887Y116519D01*
X1914Y116588D01*
X1947Y116660D01*
X1983Y116729D01*
X2029Y116795D01*
X2078Y116860D01*
X2137Y116919D01*
X2140Y116922D01*
X2153Y116932D01*
X2170Y116949D01*
X2196Y116968D01*
X2232Y116991D01*
X2271Y117017D01*
X2321Y117044D01*
X2373Y117073D01*
X2435Y117103D01*
X2504Y117129D01*
X2576Y117155D01*
X2658Y117178D01*
X2747Y117198D01*
X2839Y117214D01*
X2937Y117224D01*
X3042Y117227D01*
X3049D01*
X3068D01*
X3098Y117224D01*
D02*
G37*
G36*
X4226Y113403D02*
X3813D01*
Y113744D01*
X2268D01*
Y113403D01*
X1855D01*
Y114682D01*
X2268D01*
Y114341D01*
X3813D01*
Y114682D01*
X4226D01*
Y113403D01*
D02*
G37*
G36*
X3570Y139703D02*
X3613Y139699D01*
X3662Y139690D01*
X3714Y139680D01*
X3770Y139663D01*
X3826Y139640D01*
X3833Y139637D01*
X3849Y139627D01*
X3875Y139614D01*
X3911Y139591D01*
X3947Y139565D01*
X3990Y139532D01*
X4029Y139493D01*
X4069Y139450D01*
X4072Y139444D01*
X4085Y139427D01*
X4105Y139401D01*
X4124Y139368D01*
X4151Y139322D01*
X4177Y139273D01*
X4200Y139217D01*
X4223Y139155D01*
Y139152D01*
X4226Y139148D01*
Y139139D01*
X4230Y139126D01*
X4236Y139109D01*
X4239Y139089D01*
X4249Y139040D01*
X4259Y138981D01*
X4266Y138912D01*
X4272Y138833D01*
X4275Y138745D01*
Y138673D01*
X4272Y138647D01*
Y138614D01*
X4269Y138581D01*
X4266Y138505D01*
X4256Y138427D01*
X4246Y138345D01*
X4230Y138266D01*
Y138263D01*
X4226Y138256D01*
Y138246D01*
X4223Y138233D01*
X4213Y138197D01*
X4200Y138151D01*
X4184Y138102D01*
X4167Y138050D01*
X4148Y137997D01*
X4128Y137948D01*
X3613D01*
Y138004D01*
X3616Y138010D01*
X3626Y138027D01*
X3642Y138053D01*
X3662Y138092D01*
X3685Y138135D01*
X3711Y138187D01*
X3737Y138246D01*
X3760Y138309D01*
Y138312D01*
X3764Y138315D01*
X3767Y138325D01*
X3770Y138338D01*
X3780Y138371D01*
X3790Y138417D01*
X3800Y138466D01*
X3810Y138519D01*
X3816Y138574D01*
X3819Y138630D01*
Y138663D01*
X3816Y138686D01*
Y138716D01*
X3813Y138745D01*
X3806Y138817D01*
Y138820D01*
X3803Y138833D01*
X3800Y138853D01*
X3790Y138876D01*
X3770Y138932D01*
X3754Y138961D01*
X3737Y138988D01*
X3734Y138991D01*
X3731Y138997D01*
X3721Y139007D01*
X3711Y139021D01*
X3678Y139050D01*
X3639Y139076D01*
X3636D01*
X3629Y139083D01*
X3616Y139086D01*
X3596Y139093D01*
X3573Y139099D01*
X3544Y139102D01*
X3511Y139109D01*
X3472D01*
X3469D01*
X3455D01*
X3436Y139106D01*
X3413Y139102D01*
X3387Y139096D01*
X3360Y139089D01*
X3334Y139076D01*
X3311Y139060D01*
X3308Y139057D01*
X3301Y139050D01*
X3291Y139040D01*
X3278Y139027D01*
X3265Y139011D01*
X3249Y138991D01*
X3226Y138938D01*
Y138935D01*
X3223Y138925D01*
X3216Y138909D01*
X3209Y138886D01*
X3206Y138860D01*
X3199Y138830D01*
X3196Y138794D01*
X3193Y138755D01*
Y138716D01*
X3190Y138692D01*
Y138466D01*
X2776D01*
Y138624D01*
X2773Y138653D01*
Y138686D01*
X2770Y138755D01*
Y138758D01*
X2767Y138771D01*
Y138788D01*
X2760Y138807D01*
X2750Y138860D01*
X2730Y138909D01*
Y138912D01*
X2724Y138919D01*
X2717Y138932D01*
X2708Y138945D01*
X2685Y138981D01*
X2648Y139011D01*
X2645Y139014D01*
X2639Y139017D01*
X2626Y139024D01*
X2609Y139030D01*
X2586Y139037D01*
X2560Y139040D01*
X2530Y139047D01*
X2498D01*
X2494D01*
X2485D01*
X2475Y139043D01*
X2458D01*
X2419Y139030D01*
X2399Y139024D01*
X2383Y139011D01*
X2380D01*
X2376Y139004D01*
X2357Y138988D01*
X2334Y138961D01*
X2311Y138929D01*
Y138925D01*
X2307Y138919D01*
X2301Y138906D01*
X2294Y138893D01*
X2288Y138873D01*
X2281Y138850D01*
X2271Y138794D01*
Y138791D01*
X2268Y138781D01*
Y138768D01*
X2265Y138751D01*
X2262Y138709D01*
Y138633D01*
X2265Y138610D01*
X2268Y138584D01*
X2271Y138551D01*
X2284Y138486D01*
Y138483D01*
X2288Y138470D01*
X2291Y138453D01*
X2298Y138430D01*
X2307Y138404D01*
X2314Y138374D01*
X2337Y138312D01*
Y138309D01*
X2340Y138302D01*
X2347Y138286D01*
X2353Y138269D01*
X2363Y138250D01*
X2376Y138224D01*
X2403Y138171D01*
Y138168D01*
X2409Y138158D01*
X2416Y138148D01*
X2426Y138132D01*
X2445Y138095D01*
X2452Y138079D01*
X2462Y138066D01*
Y138017D01*
X1956D01*
X1953Y138023D01*
X1947Y138040D01*
X1937Y138066D01*
X1924Y138102D01*
X1907Y138151D01*
X1891Y138207D01*
X1874Y138273D01*
X1855Y138345D01*
Y138348D01*
X1852Y138355D01*
Y138365D01*
X1848Y138381D01*
X1842Y138401D01*
X1838Y138420D01*
X1829Y138476D01*
X1822Y138538D01*
X1812Y138610D01*
X1809Y138689D01*
X1805Y138768D01*
Y138824D01*
X1809Y138843D01*
Y138893D01*
X1815Y138952D01*
X1822Y139014D01*
X1832Y139076D01*
X1845Y139135D01*
Y139142D01*
X1852Y139162D01*
X1861Y139191D01*
X1871Y139227D01*
X1887Y139267D01*
X1904Y139312D01*
X1927Y139358D01*
X1950Y139401D01*
X1953Y139408D01*
X1963Y139421D01*
X1979Y139444D01*
X2002Y139470D01*
X2029Y139499D01*
X2061Y139529D01*
X2097Y139558D01*
X2140Y139581D01*
X2147Y139585D01*
X2160Y139591D01*
X2183Y139601D01*
X2215Y139614D01*
X2255Y139624D01*
X2298Y139634D01*
X2347Y139640D01*
X2399Y139644D01*
X2403D01*
X2409D01*
X2419D01*
X2432Y139640D01*
X2471Y139637D01*
X2521Y139631D01*
X2576Y139614D01*
X2635Y139594D01*
X2694Y139565D01*
X2754Y139526D01*
X2760Y139519D01*
X2776Y139506D01*
X2803Y139480D01*
X2836Y139444D01*
X2868Y139398D01*
X2901Y139345D01*
X2927Y139286D01*
X2950Y139217D01*
X2973D01*
Y139221D01*
X2977Y139230D01*
X2980Y139250D01*
X2983Y139270D01*
X2990Y139296D01*
X2996Y139322D01*
X3016Y139381D01*
Y139385D01*
X3022Y139394D01*
X3029Y139411D01*
X3039Y139430D01*
X3052Y139457D01*
X3068Y139483D01*
X3091Y139509D01*
X3114Y139539D01*
X3118Y139542D01*
X3124Y139552D01*
X3140Y139565D01*
X3157Y139581D01*
X3180Y139598D01*
X3209Y139621D01*
X3239Y139637D01*
X3275Y139657D01*
X3278Y139660D01*
X3291Y139663D01*
X3314Y139673D01*
X3341Y139683D01*
X3373Y139690D01*
X3416Y139699D01*
X3459Y139703D01*
X3508Y139706D01*
X3511D01*
X3514D01*
X3524D01*
X3537D01*
X3570Y139703D01*
D02*
G37*
G36*
X4226Y136994D02*
Y136370D01*
X1855Y135557D01*
Y136173D01*
X3469Y136692D01*
X1855Y137210D01*
Y137810D01*
X4226Y136994D01*
D02*
G37*
G36*
X3570Y135426D02*
X3613Y135422D01*
X3662Y135413D01*
X3714Y135403D01*
X3770Y135386D01*
X3826Y135363D01*
X3833Y135360D01*
X3849Y135350D01*
X3875Y135337D01*
X3911Y135314D01*
X3947Y135288D01*
X3990Y135255D01*
X4029Y135216D01*
X4069Y135173D01*
X4072Y135167D01*
X4085Y135150D01*
X4105Y135124D01*
X4124Y135091D01*
X4151Y135045D01*
X4177Y134996D01*
X4200Y134940D01*
X4223Y134878D01*
Y134875D01*
X4226Y134871D01*
Y134861D01*
X4230Y134848D01*
X4236Y134832D01*
X4239Y134812D01*
X4249Y134763D01*
X4259Y134704D01*
X4266Y134635D01*
X4272Y134556D01*
X4275Y134468D01*
Y134396D01*
X4272Y134370D01*
Y134337D01*
X4269Y134304D01*
X4266Y134228D01*
X4256Y134150D01*
X4246Y134068D01*
X4230Y133989D01*
Y133986D01*
X4226Y133979D01*
Y133969D01*
X4223Y133956D01*
X4213Y133920D01*
X4200Y133874D01*
X4184Y133825D01*
X4167Y133773D01*
X4148Y133720D01*
X4128Y133671D01*
X3613D01*
Y133727D01*
X3616Y133733D01*
X3626Y133749D01*
X3642Y133776D01*
X3662Y133815D01*
X3685Y133858D01*
X3711Y133910D01*
X3737Y133969D01*
X3760Y134032D01*
Y134035D01*
X3764Y134038D01*
X3767Y134048D01*
X3770Y134061D01*
X3780Y134094D01*
X3790Y134140D01*
X3800Y134189D01*
X3810Y134241D01*
X3816Y134297D01*
X3819Y134353D01*
Y134386D01*
X3816Y134409D01*
Y134438D01*
X3813Y134468D01*
X3806Y134540D01*
Y134543D01*
X3803Y134556D01*
X3800Y134576D01*
X3790Y134599D01*
X3770Y134655D01*
X3754Y134684D01*
X3737Y134711D01*
X3734Y134714D01*
X3731Y134720D01*
X3721Y134730D01*
X3711Y134743D01*
X3678Y134773D01*
X3639Y134799D01*
X3636D01*
X3629Y134806D01*
X3616Y134809D01*
X3596Y134816D01*
X3573Y134822D01*
X3544Y134825D01*
X3511Y134832D01*
X3472D01*
X3469D01*
X3455D01*
X3436Y134829D01*
X3413Y134825D01*
X3387Y134819D01*
X3360Y134812D01*
X3334Y134799D01*
X3311Y134783D01*
X3308Y134779D01*
X3301Y134773D01*
X3291Y134763D01*
X3278Y134750D01*
X3265Y134733D01*
X3249Y134714D01*
X3226Y134661D01*
Y134658D01*
X3223Y134648D01*
X3216Y134632D01*
X3209Y134609D01*
X3206Y134583D01*
X3199Y134553D01*
X3196Y134517D01*
X3193Y134478D01*
Y134438D01*
X3190Y134415D01*
Y134189D01*
X2776D01*
Y134346D01*
X2773Y134376D01*
Y134409D01*
X2770Y134478D01*
Y134481D01*
X2767Y134494D01*
Y134511D01*
X2760Y134530D01*
X2750Y134583D01*
X2730Y134632D01*
Y134635D01*
X2724Y134642D01*
X2717Y134655D01*
X2708Y134668D01*
X2685Y134704D01*
X2648Y134733D01*
X2645Y134737D01*
X2639Y134740D01*
X2626Y134747D01*
X2609Y134753D01*
X2586Y134760D01*
X2560Y134763D01*
X2530Y134770D01*
X2498D01*
X2494D01*
X2485D01*
X2475Y134766D01*
X2458D01*
X2419Y134753D01*
X2399Y134747D01*
X2383Y134733D01*
X2380D01*
X2376Y134727D01*
X2357Y134711D01*
X2334Y134684D01*
X2311Y134652D01*
Y134648D01*
X2307Y134642D01*
X2301Y134629D01*
X2294Y134616D01*
X2288Y134596D01*
X2281Y134573D01*
X2271Y134517D01*
Y134514D01*
X2268Y134504D01*
Y134491D01*
X2265Y134474D01*
X2262Y134432D01*
Y134356D01*
X2265Y134333D01*
X2268Y134307D01*
X2271Y134274D01*
X2284Y134209D01*
Y134205D01*
X2288Y134192D01*
X2291Y134176D01*
X2298Y134153D01*
X2307Y134127D01*
X2314Y134097D01*
X2337Y134035D01*
Y134032D01*
X2340Y134025D01*
X2347Y134009D01*
X2353Y133992D01*
X2363Y133973D01*
X2376Y133946D01*
X2403Y133894D01*
Y133891D01*
X2409Y133881D01*
X2416Y133871D01*
X2426Y133854D01*
X2445Y133818D01*
X2452Y133802D01*
X2462Y133789D01*
Y133740D01*
X1956D01*
X1953Y133746D01*
X1947Y133763D01*
X1937Y133789D01*
X1924Y133825D01*
X1907Y133874D01*
X1891Y133930D01*
X1874Y133995D01*
X1855Y134068D01*
Y134071D01*
X1852Y134078D01*
Y134087D01*
X1848Y134104D01*
X1842Y134124D01*
X1838Y134143D01*
X1829Y134199D01*
X1822Y134261D01*
X1812Y134333D01*
X1809Y134412D01*
X1805Y134491D01*
Y134547D01*
X1809Y134566D01*
Y134616D01*
X1815Y134675D01*
X1822Y134737D01*
X1832Y134799D01*
X1845Y134858D01*
Y134865D01*
X1852Y134884D01*
X1861Y134914D01*
X1871Y134950D01*
X1887Y134989D01*
X1904Y135035D01*
X1927Y135081D01*
X1950Y135124D01*
X1953Y135130D01*
X1963Y135143D01*
X1979Y135167D01*
X2002Y135193D01*
X2029Y135222D01*
X2061Y135252D01*
X2097Y135281D01*
X2140Y135304D01*
X2147Y135308D01*
X2160Y135314D01*
X2183Y135324D01*
X2215Y135337D01*
X2255Y135347D01*
X2298Y135357D01*
X2347Y135363D01*
X2399Y135367D01*
X2403D01*
X2409D01*
X2419D01*
X2432Y135363D01*
X2471Y135360D01*
X2521Y135353D01*
X2576Y135337D01*
X2635Y135317D01*
X2694Y135288D01*
X2754Y135248D01*
X2760Y135242D01*
X2776Y135229D01*
X2803Y135203D01*
X2836Y135167D01*
X2868Y135121D01*
X2901Y135068D01*
X2927Y135009D01*
X2950Y134940D01*
X2973D01*
Y134943D01*
X2977Y134953D01*
X2980Y134973D01*
X2983Y134993D01*
X2990Y135019D01*
X2996Y135045D01*
X3016Y135104D01*
Y135107D01*
X3022Y135117D01*
X3029Y135134D01*
X3039Y135153D01*
X3052Y135180D01*
X3068Y135206D01*
X3091Y135232D01*
X3114Y135262D01*
X3118Y135265D01*
X3124Y135275D01*
X3140Y135288D01*
X3157Y135304D01*
X3180Y135321D01*
X3209Y135344D01*
X3239Y135360D01*
X3275Y135380D01*
X3278Y135383D01*
X3291Y135386D01*
X3314Y135396D01*
X3341Y135406D01*
X3373Y135413D01*
X3416Y135422D01*
X3459Y135426D01*
X3508Y135429D01*
X3511D01*
X3514D01*
X3524D01*
X3537D01*
X3570Y135426D01*
D02*
G37*
G36*
X3101Y130490D02*
X3131D01*
X3164Y130486D01*
X3203Y130480D01*
X3242Y130473D01*
X3337Y130457D01*
X3436Y130431D01*
X3537Y130395D01*
X3590Y130372D01*
X3639Y130345D01*
X3642D01*
X3649Y130339D01*
X3665Y130332D01*
X3682Y130319D01*
X3705Y130306D01*
X3728Y130290D01*
X3787Y130247D01*
X3849Y130194D01*
X3918Y130132D01*
X3980Y130060D01*
X4039Y129981D01*
Y129978D01*
X4046Y129971D01*
X4049Y129962D01*
X4059Y129948D01*
X4069Y129932D01*
X4079Y129912D01*
X4105Y129863D01*
X4131Y129801D01*
X4154Y129735D01*
X4177Y129660D01*
X4193Y129578D01*
Y129568D01*
X4197Y129555D01*
X4200Y129542D01*
Y129519D01*
X4203Y129496D01*
X4206Y129470D01*
X4210Y129440D01*
X4216Y129371D01*
X4220Y129293D01*
X4226Y129207D01*
Y128377D01*
X1855D01*
Y129204D01*
X1858Y129230D01*
Y129263D01*
X1861Y129335D01*
X1868Y129414D01*
X1878Y129496D01*
X1887Y129578D01*
Y129588D01*
X1891Y129601D01*
X1894Y129614D01*
X1897Y129634D01*
X1904Y129657D01*
X1920Y129712D01*
X1940Y129775D01*
X1966Y129843D01*
X1999Y129916D01*
X2042Y129988D01*
X2045Y129991D01*
X2048Y129998D01*
X2058Y130011D01*
X2068Y130027D01*
X2084Y130047D01*
X2104Y130070D01*
X2150Y130122D01*
X2206Y130181D01*
X2278Y130240D01*
X2357Y130299D01*
X2448Y130355D01*
X2452Y130359D01*
X2458Y130362D01*
X2475Y130368D01*
X2494Y130378D01*
X2517Y130388D01*
X2547Y130398D01*
X2580Y130411D01*
X2619Y130424D01*
X2658Y130437D01*
X2704Y130450D01*
X2754Y130460D01*
X2806Y130470D01*
X2921Y130486D01*
X3045Y130493D01*
X3049D01*
X3059D01*
X3078D01*
X3101Y130490D01*
D02*
G37*
G36*
X4226Y127321D02*
X2573Y126409D01*
X4226D01*
Y125865D01*
X1855D01*
Y126593D01*
X3216Y127351D01*
X1855D01*
Y127895D01*
X4226D01*
Y127321D01*
D02*
G37*
G36*
X4092Y125412D02*
X4095Y125409D01*
X4098Y125399D01*
X4101Y125386D01*
X4108Y125373D01*
X4115Y125353D01*
X4131Y125307D01*
X4151Y125248D01*
X4170Y125176D01*
X4193Y125097D01*
X4216Y125009D01*
Y125005D01*
X4220Y124999D01*
X4223Y124986D01*
X4226Y124966D01*
X4230Y124943D01*
X4236Y124917D01*
X4239Y124887D01*
X4246Y124855D01*
X4256Y124779D01*
X4265Y124697D01*
X4272Y124609D01*
X4275Y124517D01*
Y124494D01*
X4272Y124464D01*
X4269Y124425D01*
X4265Y124379D01*
X4259Y124323D01*
X4249Y124261D01*
X4236Y124195D01*
X4220Y124127D01*
X4197Y124054D01*
X4170Y123982D01*
X4141Y123907D01*
X4101Y123835D01*
X4059Y123762D01*
X4010Y123694D01*
X3954Y123628D01*
X3951Y123625D01*
X3937Y123615D01*
X3921Y123598D01*
X3895Y123575D01*
X3862Y123553D01*
X3819Y123523D01*
X3774Y123493D01*
X3718Y123464D01*
X3659Y123431D01*
X3590Y123402D01*
X3514Y123372D01*
X3432Y123349D01*
X3344Y123326D01*
X3249Y123310D01*
X3147Y123300D01*
X3039Y123297D01*
X3032D01*
X3013D01*
X2986Y123300D01*
X2947Y123303D01*
X2898Y123307D01*
X2845Y123313D01*
X2783Y123323D01*
X2717Y123339D01*
X2648Y123356D01*
X2576Y123379D01*
X2501Y123405D01*
X2426Y123438D01*
X2350Y123474D01*
X2278Y123520D01*
X2209Y123569D01*
X2143Y123628D01*
X2140Y123631D01*
X2130Y123644D01*
X2111Y123664D01*
X2091Y123690D01*
X2065Y123723D01*
X2035Y123762D01*
X2006Y123812D01*
X1973Y123867D01*
X1943Y123926D01*
X1914Y123995D01*
X1884Y124071D01*
X1858Y124153D01*
X1835Y124238D01*
X1819Y124333D01*
X1809Y124432D01*
X1805Y124537D01*
Y124586D01*
X1809Y124612D01*
Y124671D01*
X1812Y124707D01*
X1819Y124783D01*
X1832Y124864D01*
X1845Y124943D01*
X1865Y125019D01*
Y125022D01*
X1868Y125029D01*
X1871Y125038D01*
X1874Y125051D01*
X1881Y125068D01*
X1887Y125087D01*
X1904Y125137D01*
X1927Y125196D01*
X1953Y125261D01*
X1983Y125330D01*
X2015Y125406D01*
X2570D01*
Y125347D01*
X2563Y125343D01*
X2557Y125333D01*
X2547Y125317D01*
X2534Y125301D01*
X2517Y125281D01*
X2498Y125255D01*
X2478Y125225D01*
X2475Y125222D01*
X2468Y125212D01*
X2455Y125196D01*
X2442Y125176D01*
X2426Y125153D01*
X2406Y125127D01*
X2373Y125071D01*
X2370Y125068D01*
X2363Y125055D01*
X2357Y125035D01*
X2344Y125012D01*
X2330Y124979D01*
X2317Y124943D01*
X2301Y124904D01*
X2288Y124861D01*
X2284Y124855D01*
X2281Y124841D01*
X2275Y124819D01*
X2268Y124789D01*
X2262Y124750D01*
X2255Y124710D01*
X2248Y124664D01*
Y124589D01*
X2252Y124559D01*
X2255Y124523D01*
X2262Y124481D01*
X2268Y124435D01*
X2281Y124386D01*
X2297Y124336D01*
X2301Y124330D01*
X2307Y124317D01*
X2317Y124291D01*
X2334Y124261D01*
X2357Y124228D01*
X2379Y124189D01*
X2409Y124153D01*
X2445Y124113D01*
X2448Y124110D01*
X2461Y124097D01*
X2485Y124081D01*
X2511Y124058D01*
X2547Y124035D01*
X2586Y124008D01*
X2635Y123985D01*
X2688Y123962D01*
X2694Y123959D01*
X2714Y123956D01*
X2744Y123946D01*
X2786Y123936D01*
X2836Y123926D01*
X2895Y123920D01*
X2960Y123913D01*
X3029Y123910D01*
X3032D01*
X3049D01*
X3068D01*
X3098Y123913D01*
X3131Y123917D01*
X3173Y123920D01*
X3216Y123926D01*
X3262Y123936D01*
X3364Y123959D01*
X3416Y123979D01*
X3465Y123999D01*
X3514Y124021D01*
X3564Y124048D01*
X3606Y124081D01*
X3646Y124117D01*
X3649Y124120D01*
X3655Y124127D01*
X3665Y124140D01*
X3675Y124156D01*
X3692Y124176D01*
X3708Y124202D01*
X3724Y124231D01*
X3744Y124267D01*
X3764Y124307D01*
X3780Y124349D01*
X3796Y124395D01*
X3813Y124445D01*
X3823Y124500D01*
X3833Y124559D01*
X3839Y124622D01*
X3842Y124687D01*
Y124812D01*
X3839Y124838D01*
X3367D01*
Y124379D01*
X2921D01*
Y125416D01*
X4092D01*
Y125412D01*
D02*
G37*
G36*
X33805Y9319D02*
X33965Y9308D01*
X34155Y9298D01*
X34375Y9268D01*
X34605Y9239D01*
X34845Y9189D01*
X34855D01*
X34875Y9178D01*
X34905D01*
X34955Y9168D01*
X35005Y9149D01*
X35075Y9138D01*
X35225Y9099D01*
X35405Y9048D01*
X35605Y8988D01*
X35795Y8918D01*
X35995Y8839D01*
Y7188D01*
X35825D01*
X35805Y7209D01*
X35755Y7248D01*
X35665Y7309D01*
X35555Y7389D01*
X35415Y7479D01*
X35245Y7579D01*
X35055Y7678D01*
X34845Y7768D01*
X34835D01*
X34815Y7779D01*
X34785Y7789D01*
X34745Y7808D01*
X34695Y7829D01*
X34625Y7848D01*
X34475Y7888D01*
X34295Y7929D01*
X34095Y7969D01*
X33885Y7999D01*
X33655Y8009D01*
X33515D01*
X33375Y7988D01*
X33225Y7969D01*
X33215D01*
X33195Y7959D01*
X33155D01*
X33105Y7938D01*
X32975Y7898D01*
X32825Y7839D01*
X32815D01*
X32795Y7829D01*
X32765Y7808D01*
X32725Y7779D01*
X32635Y7709D01*
X32535Y7609D01*
Y7598D01*
X32515Y7579D01*
X32495Y7548D01*
X32475Y7508D01*
X32435Y7399D01*
X32425Y7339D01*
X32415Y7269D01*
Y7259D01*
Y7228D01*
X32425Y7179D01*
X32435Y7108D01*
X32465Y7039D01*
X32495Y6968D01*
X32545Y6899D01*
X32605Y6829D01*
X32615Y6819D01*
X32645Y6798D01*
X32695Y6769D01*
X32775Y6729D01*
X32875Y6689D01*
X33015Y6639D01*
X33175Y6588D01*
X33365Y6538D01*
X33385D01*
X33425Y6528D01*
X33495Y6509D01*
X33595Y6488D01*
X33695Y6469D01*
X33815Y6438D01*
X34065Y6379D01*
X34085D01*
X34125Y6368D01*
X34195Y6348D01*
X34285Y6318D01*
X34395Y6289D01*
X34515Y6259D01*
X34655Y6219D01*
X34795Y6168D01*
X34805D01*
X34825Y6159D01*
X34865Y6138D01*
X34915Y6118D01*
X34985Y6089D01*
X35055Y6058D01*
X35215Y5968D01*
X35395Y5869D01*
X35585Y5739D01*
X35765Y5588D01*
X35915Y5429D01*
X35935Y5409D01*
X35945Y5378D01*
X35975Y5348D01*
X36035Y5249D01*
X36105Y5108D01*
X36165Y4939D01*
X36225Y4729D01*
X36265Y4488D01*
X36285Y4219D01*
Y4208D01*
Y4169D01*
X36275Y4118D01*
Y4039D01*
X36255Y3949D01*
X36245Y3849D01*
X36215Y3729D01*
X36175Y3599D01*
X36135Y3469D01*
X36075Y3328D01*
X36005Y3179D01*
X35925Y3039D01*
X35825Y2898D01*
X35715Y2748D01*
X35585Y2619D01*
X35435Y2489D01*
X35425Y2479D01*
X35395Y2458D01*
X35345Y2428D01*
X35285Y2389D01*
X35195Y2338D01*
X35095Y2279D01*
X34965Y2228D01*
X34835Y2169D01*
X34675Y2098D01*
X34505Y2049D01*
X34315Y1988D01*
X34115Y1939D01*
X33895Y1898D01*
X33655Y1869D01*
X33405Y1849D01*
X33145Y1839D01*
X33005D01*
X32935Y1849D01*
X32755D01*
X32655Y1859D01*
X32425Y1878D01*
X32175Y1908D01*
X31925Y1949D01*
X31685Y1998D01*
X31675D01*
X31655Y2008D01*
X31625Y2018D01*
X31575Y2028D01*
X31525Y2039D01*
X31455Y2059D01*
X31305Y2108D01*
X31125Y2169D01*
X30935Y2228D01*
X30525Y2389D01*
Y4118D01*
X30685D01*
X30695Y4109D01*
X30705Y4098D01*
X30735Y4078D01*
X30785Y4039D01*
X30835Y3999D01*
X30895Y3959D01*
X31035Y3849D01*
X31215Y3739D01*
X31415Y3619D01*
X31645Y3498D01*
X31885Y3399D01*
X31895D01*
X31915Y3388D01*
X31955Y3379D01*
X31995Y3359D01*
X32055Y3339D01*
X32125Y3319D01*
X32295Y3278D01*
X32485Y3238D01*
X32695Y3198D01*
X32925Y3168D01*
X33155Y3159D01*
X33265D01*
X33325Y3168D01*
X33395D01*
X33475Y3179D01*
X33565Y3189D01*
X33575D01*
X33605Y3198D01*
X33655D01*
X33715Y3218D01*
X33845Y3249D01*
X33915Y3269D01*
X33975Y3299D01*
X33985D01*
X34005Y3319D01*
X34045Y3328D01*
X34085Y3359D01*
X34195Y3429D01*
X34295Y3519D01*
X34305Y3528D01*
X34315Y3548D01*
X34335Y3579D01*
X34365Y3629D01*
X34395Y3678D01*
X34415Y3748D01*
X34425Y3828D01*
X34435Y3918D01*
Y3929D01*
Y3968D01*
X34425Y4008D01*
X34405Y4078D01*
X34385Y4149D01*
X34345Y4219D01*
X34285Y4289D01*
X34215Y4358D01*
X34205Y4369D01*
X34175Y4389D01*
X34135Y4419D01*
X34075Y4459D01*
X33995Y4499D01*
X33915Y4538D01*
X33815Y4578D01*
X33705Y4609D01*
X33685D01*
X33645Y4628D01*
X33565Y4639D01*
X33465Y4668D01*
X33345Y4688D01*
X33215Y4719D01*
X33065Y4758D01*
X32915Y4789D01*
X32895D01*
X32845Y4809D01*
X32765Y4829D01*
X32665Y4848D01*
X32545Y4879D01*
X32405Y4919D01*
X32135Y4998D01*
X32125D01*
X32095Y5009D01*
X32055Y5029D01*
X31995Y5059D01*
X31925Y5088D01*
X31845Y5119D01*
X31665Y5209D01*
X31465Y5328D01*
X31265Y5458D01*
X31085Y5618D01*
X30995Y5708D01*
X30925Y5799D01*
Y5808D01*
X30905Y5818D01*
X30895Y5849D01*
X30865Y5889D01*
X30845Y5939D01*
X30815Y5999D01*
X30745Y6138D01*
X30675Y6329D01*
X30625Y6538D01*
X30585Y6779D01*
X30565Y7049D01*
Y7058D01*
Y7098D01*
X30575Y7148D01*
Y7219D01*
X30595Y7309D01*
X30615Y7408D01*
X30635Y7519D01*
X30675Y7638D01*
X30715Y7768D01*
X30775Y7898D01*
X30845Y8038D01*
X30925Y8179D01*
X31025Y8309D01*
X31135Y8449D01*
X31265Y8579D01*
X31415Y8698D01*
X31425Y8709D01*
X31455Y8728D01*
X31505Y8759D01*
X31565Y8799D01*
X31655Y8849D01*
X31755Y8899D01*
X31875Y8958D01*
X32005Y9019D01*
X32155Y9069D01*
X32315Y9128D01*
X32495Y9178D01*
X32685Y9228D01*
X32885Y9268D01*
X33105Y9298D01*
X33325Y9319D01*
X33565Y9329D01*
X33735D01*
X33805Y9319D01*
D02*
G37*
G36*
X64065Y9339D02*
X64185D01*
X64315Y9329D01*
X64575Y9298D01*
X64595D01*
X64635Y9289D01*
X64705Y9279D01*
X64795Y9258D01*
X64895Y9239D01*
X65005Y9218D01*
X65245Y9159D01*
X65255D01*
X65285Y9149D01*
X65335Y9128D01*
X65405Y9109D01*
X65485Y9078D01*
X65575Y9048D01*
X65775Y8958D01*
X65785Y8948D01*
X65825Y8939D01*
X65875Y8918D01*
X65945Y8889D01*
X66105Y8818D01*
X66185Y8778D01*
X66255Y8738D01*
Y7028D01*
X66065D01*
X66055Y7039D01*
X66045Y7049D01*
X66015Y7068D01*
X65975Y7108D01*
X65875Y7188D01*
X65735Y7299D01*
X65725Y7309D01*
X65705Y7328D01*
X65655Y7359D01*
X65605Y7399D01*
X65535Y7448D01*
X65465Y7498D01*
X65285Y7619D01*
X65275Y7628D01*
X65245Y7649D01*
X65185Y7668D01*
X65125Y7709D01*
X65035Y7749D01*
X64945Y7789D01*
X64835Y7839D01*
X64725Y7879D01*
X64715Y7888D01*
X64675Y7898D01*
X64615Y7919D01*
X64535Y7938D01*
X64435Y7959D01*
X64335Y7969D01*
X64215Y7988D01*
X64025D01*
X63955Y7978D01*
X63855Y7969D01*
X63745Y7959D01*
X63625Y7938D01*
X63505Y7898D01*
X63375Y7858D01*
X63365Y7848D01*
X63325Y7839D01*
X63255Y7808D01*
X63175Y7758D01*
X63085Y7699D01*
X62975Y7628D01*
X62865Y7538D01*
X62755Y7429D01*
X62745Y7418D01*
X62715Y7378D01*
X62665Y7318D01*
X62595Y7238D01*
X62525Y7129D01*
X62455Y6999D01*
X62385Y6848D01*
X62315Y6679D01*
Y6668D01*
X62305Y6658D01*
X62295Y6628D01*
X62285Y6599D01*
X62265Y6498D01*
X62235Y6368D01*
X62195Y6199D01*
X62175Y6008D01*
X62155Y5799D01*
X62145Y5568D01*
Y5559D01*
Y5539D01*
Y5508D01*
Y5458D01*
X62155Y5398D01*
Y5328D01*
X62165Y5178D01*
X62185Y4998D01*
X62215Y4809D01*
X62255Y4619D01*
X62315Y4439D01*
X62325Y4419D01*
X62345Y4358D01*
X62385Y4279D01*
X62445Y4179D01*
X62505Y4059D01*
X62585Y3929D01*
X62685Y3808D01*
X62785Y3698D01*
X62795Y3689D01*
X62835Y3658D01*
X62895Y3608D01*
X62975Y3548D01*
X63065Y3489D01*
X63175Y3418D01*
X63295Y3359D01*
X63415Y3308D01*
X63435D01*
X63475Y3289D01*
X63545Y3269D01*
X63635Y3249D01*
X63735Y3229D01*
X63855Y3209D01*
X63975Y3198D01*
X64105Y3189D01*
X64165D01*
X64235Y3198D01*
X64325D01*
X64425Y3218D01*
X64545Y3238D01*
X64665Y3258D01*
X64785Y3299D01*
X64795Y3308D01*
X64845Y3319D01*
X64905Y3348D01*
X64975Y3379D01*
X65065Y3418D01*
X65155Y3458D01*
X65245Y3519D01*
X65335Y3568D01*
X65345Y3579D01*
X65375Y3599D01*
X65425Y3629D01*
X65485Y3658D01*
X65625Y3759D01*
X65765Y3869D01*
X65775Y3878D01*
X65795Y3898D01*
X65825Y3918D01*
X65875Y3959D01*
X65975Y4048D01*
X66085Y4149D01*
X66255D01*
Y2448D01*
X66245D01*
X66215Y2428D01*
X66175Y2409D01*
X66125Y2389D01*
X66055Y2348D01*
X65975Y2318D01*
X65785Y2228D01*
X65775D01*
X65745Y2208D01*
X65685Y2189D01*
X65625Y2159D01*
X65545Y2128D01*
X65455Y2098D01*
X65255Y2028D01*
X65245D01*
X65195Y2018D01*
X65135Y1998D01*
X65045Y1979D01*
X64945Y1959D01*
X64845Y1929D01*
X64615Y1888D01*
X64605D01*
X64565Y1878D01*
X64495Y1869D01*
X64405Y1859D01*
X64295Y1849D01*
X64155Y1839D01*
X63985Y1829D01*
X63735D01*
X63645Y1839D01*
X63535Y1849D01*
X63395Y1859D01*
X63235Y1878D01*
X63065Y1908D01*
X62875Y1949D01*
X62665Y1998D01*
X62455Y2069D01*
X62245Y2149D01*
X62025Y2238D01*
X61815Y2358D01*
X61605Y2489D01*
X61415Y2638D01*
X61225Y2809D01*
X61215Y2819D01*
X61185Y2858D01*
X61135Y2908D01*
X61075Y2988D01*
X61005Y3088D01*
X60925Y3209D01*
X60835Y3359D01*
X60755Y3519D01*
X60665Y3709D01*
X60575Y3918D01*
X60495Y4138D01*
X60425Y4389D01*
X60365Y4659D01*
X60315Y4949D01*
X60285Y5249D01*
X60275Y5579D01*
Y5588D01*
Y5598D01*
Y5658D01*
X60285Y5748D01*
X60295Y5869D01*
X60305Y6008D01*
X60325Y6179D01*
X60355Y6368D01*
X60395Y6568D01*
X60445Y6779D01*
X60505Y7008D01*
X60585Y7228D01*
X60675Y7458D01*
X60785Y7688D01*
X60915Y7908D01*
X61055Y8118D01*
X61225Y8319D01*
X61235Y8328D01*
X61265Y8359D01*
X61325Y8418D01*
X61405Y8478D01*
X61495Y8558D01*
X61615Y8648D01*
X61755Y8738D01*
X61905Y8839D01*
X62085Y8929D01*
X62275Y9019D01*
X62485Y9109D01*
X62715Y9189D01*
X62965Y9258D01*
X63225Y9308D01*
X63505Y9339D01*
X63805Y9348D01*
X63955D01*
X64065Y9339D01*
D02*
G37*
G36*
X81505Y1969D02*
X79695D01*
Y6758D01*
X78375Y3669D01*
X77145D01*
X75835Y6758D01*
Y1969D01*
X74125D01*
Y9199D01*
X76215D01*
X77815Y5629D01*
X79405Y9199D01*
X81505D01*
Y1969D01*
D02*
G37*
G36*
X59405Y4488D02*
X56185D01*
Y5829D01*
X59405D01*
Y4488D01*
D02*
G37*
G36*
X46225Y9339D02*
X46375D01*
X46555Y9319D01*
X46745Y9298D01*
X46935Y9268D01*
X47115Y9228D01*
X47135D01*
X47195Y9208D01*
X47285Y9178D01*
X47395Y9149D01*
X47515Y9099D01*
X47655Y9048D01*
X47795Y8979D01*
X47925Y8908D01*
X47945Y8899D01*
X47985Y8868D01*
X48055Y8818D01*
X48135Y8749D01*
X48225Y8669D01*
X48315Y8568D01*
X48405Y8459D01*
X48475Y8328D01*
X48485Y8309D01*
X48505Y8269D01*
X48535Y8198D01*
X48575Y8099D01*
X48605Y7978D01*
X48635Y7848D01*
X48655Y7699D01*
X48665Y7538D01*
Y7529D01*
Y7508D01*
Y7479D01*
X48655Y7439D01*
X48645Y7318D01*
X48625Y7169D01*
X48575Y6999D01*
X48515Y6819D01*
X48425Y6639D01*
X48305Y6459D01*
X48285Y6438D01*
X48245Y6389D01*
X48165Y6308D01*
X48055Y6208D01*
X47915Y6109D01*
X47755Y6008D01*
X47575Y5928D01*
X47365Y5858D01*
Y5788D01*
X47375D01*
X47405Y5779D01*
X47465Y5768D01*
X47525Y5759D01*
X47605Y5739D01*
X47685Y5719D01*
X47865Y5658D01*
X47875D01*
X47905Y5638D01*
X47955Y5618D01*
X48015Y5588D01*
X48095Y5548D01*
X48175Y5499D01*
X48255Y5429D01*
X48345Y5359D01*
X48355Y5348D01*
X48385Y5328D01*
X48425Y5279D01*
X48475Y5229D01*
X48525Y5159D01*
X48595Y5068D01*
X48645Y4978D01*
X48705Y4868D01*
X48715Y4859D01*
X48725Y4818D01*
X48755Y4749D01*
X48785Y4668D01*
X48805Y4569D01*
X48835Y4439D01*
X48845Y4309D01*
X48855Y4158D01*
Y4149D01*
Y4138D01*
Y4109D01*
Y4069D01*
X48845Y3968D01*
X48835Y3839D01*
X48805Y3689D01*
X48775Y3528D01*
X48725Y3359D01*
X48655Y3189D01*
X48645Y3168D01*
X48615Y3118D01*
X48575Y3039D01*
X48505Y2929D01*
X48425Y2819D01*
X48325Y2688D01*
X48205Y2568D01*
X48075Y2448D01*
X48055Y2438D01*
X48005Y2399D01*
X47925Y2338D01*
X47825Y2279D01*
X47685Y2198D01*
X47535Y2118D01*
X47365Y2049D01*
X47175Y1979D01*
X47165D01*
X47155Y1969D01*
X47125D01*
X47085Y1959D01*
X47035Y1939D01*
X46975Y1929D01*
X46825Y1898D01*
X46645Y1869D01*
X46435Y1849D01*
X46195Y1829D01*
X45925Y1819D01*
X45705D01*
X45625Y1829D01*
X45525D01*
X45425Y1839D01*
X45195Y1849D01*
X44955Y1878D01*
X44705Y1908D01*
X44465Y1959D01*
X44455D01*
X44435Y1969D01*
X44405D01*
X44365Y1979D01*
X44255Y2008D01*
X44115Y2049D01*
X43965Y2098D01*
X43805Y2149D01*
X43645Y2208D01*
X43495Y2269D01*
Y3839D01*
X43665D01*
X43685Y3828D01*
X43735Y3799D01*
X43815Y3748D01*
X43935Y3689D01*
X44065Y3619D01*
X44225Y3539D01*
X44405Y3458D01*
X44595Y3388D01*
X44605D01*
X44615Y3379D01*
X44645Y3368D01*
X44685Y3359D01*
X44785Y3328D01*
X44925Y3299D01*
X45075Y3269D01*
X45235Y3238D01*
X45405Y3218D01*
X45575Y3209D01*
X45675D01*
X45745Y3218D01*
X45835D01*
X45925Y3229D01*
X46145Y3249D01*
X46155D01*
X46195Y3258D01*
X46255Y3269D01*
X46325Y3299D01*
X46495Y3359D01*
X46585Y3409D01*
X46665Y3458D01*
X46675Y3469D01*
X46695Y3478D01*
X46725Y3509D01*
X46765Y3539D01*
X46855Y3638D01*
X46935Y3759D01*
Y3768D01*
X46955Y3788D01*
X46965Y3828D01*
X46985Y3889D01*
X47005Y3959D01*
X47015Y4048D01*
X47035Y4149D01*
Y4268D01*
Y4279D01*
Y4318D01*
X47025Y4378D01*
X47015Y4448D01*
X46995Y4529D01*
X46975Y4609D01*
X46935Y4688D01*
X46885Y4758D01*
X46875Y4769D01*
X46855Y4789D01*
X46825Y4818D01*
X46785Y4859D01*
X46735Y4899D01*
X46675Y4949D01*
X46515Y5018D01*
X46505D01*
X46475Y5029D01*
X46425Y5049D01*
X46355Y5068D01*
X46275Y5079D01*
X46185Y5099D01*
X46075Y5108D01*
X45955Y5119D01*
X45835D01*
X45765Y5128D01*
X45075D01*
Y6389D01*
X45555D01*
X45645Y6398D01*
X45745D01*
X45955Y6408D01*
X45965D01*
X46005Y6419D01*
X46055D01*
X46115Y6438D01*
X46275Y6469D01*
X46425Y6528D01*
X46435D01*
X46455Y6549D01*
X46495Y6568D01*
X46535Y6599D01*
X46645Y6668D01*
X46735Y6779D01*
X46745Y6788D01*
X46755Y6808D01*
X46775Y6848D01*
X46795Y6899D01*
X46815Y6968D01*
X46825Y7049D01*
X46845Y7139D01*
Y7238D01*
Y7248D01*
Y7278D01*
X46835Y7309D01*
Y7359D01*
X46795Y7479D01*
X46775Y7538D01*
X46735Y7588D01*
Y7598D01*
X46715Y7609D01*
X46665Y7668D01*
X46585Y7739D01*
X46485Y7808D01*
X46475D01*
X46455Y7818D01*
X46415Y7839D01*
X46375Y7858D01*
X46315Y7879D01*
X46245Y7898D01*
X46075Y7929D01*
X46065D01*
X46035Y7938D01*
X45995D01*
X45945Y7948D01*
X45815Y7959D01*
X45585D01*
X45515Y7948D01*
X45435Y7938D01*
X45335Y7929D01*
X45135Y7888D01*
X45125D01*
X45085Y7879D01*
X45035Y7869D01*
X44965Y7848D01*
X44885Y7818D01*
X44795Y7799D01*
X44605Y7728D01*
X44595D01*
X44575Y7718D01*
X44525Y7699D01*
X44475Y7678D01*
X44415Y7649D01*
X44335Y7609D01*
X44175Y7529D01*
X44165D01*
X44135Y7508D01*
X44105Y7489D01*
X44055Y7458D01*
X43945Y7399D01*
X43895Y7378D01*
X43855Y7349D01*
X43705D01*
Y8889D01*
X43725Y8899D01*
X43775Y8918D01*
X43855Y8948D01*
X43965Y8988D01*
X44115Y9038D01*
X44285Y9088D01*
X44485Y9138D01*
X44705Y9199D01*
X44715D01*
X44735Y9208D01*
X44765D01*
X44815Y9218D01*
X44875Y9239D01*
X44935Y9249D01*
X45105Y9279D01*
X45295Y9298D01*
X45515Y9329D01*
X45755Y9339D01*
X45995Y9348D01*
X46165D01*
X46225Y9339D01*
D02*
G37*
G36*
X73405Y1969D02*
X71535D01*
X71085Y3438D01*
X68805D01*
X68355Y1969D01*
X66545D01*
X68985Y9199D01*
X70955D01*
X73405Y1969D01*
D02*
G37*
G36*
X52645Y9339D02*
X52755Y9329D01*
X52875Y9319D01*
X53015Y9298D01*
X53165Y9279D01*
X53475Y9208D01*
X53645Y9159D01*
X53805Y9109D01*
X53965Y9038D01*
X54115Y8958D01*
X54255Y8868D01*
X54385Y8768D01*
X54395Y8759D01*
X54415Y8738D01*
X54445Y8709D01*
X54495Y8669D01*
X54545Y8608D01*
X54595Y8539D01*
X54655Y8449D01*
X54725Y8359D01*
X54785Y8248D01*
X54845Y8128D01*
X54895Y7988D01*
X54955Y7848D01*
X54995Y7699D01*
X55025Y7529D01*
X55045Y7349D01*
X55055Y7158D01*
Y7148D01*
Y7129D01*
Y7098D01*
Y7049D01*
X55045Y6989D01*
X55035Y6919D01*
X55015Y6758D01*
X54975Y6559D01*
X54925Y6348D01*
X54845Y6118D01*
X54745Y5889D01*
Y5878D01*
X54735Y5858D01*
X54715Y5829D01*
X54685Y5779D01*
X54655Y5728D01*
X54615Y5658D01*
X54505Y5499D01*
X54365Y5299D01*
X54195Y5079D01*
X53985Y4839D01*
X53745Y4578D01*
X53725Y4558D01*
X53675Y4509D01*
X53585Y4419D01*
X53475Y4318D01*
X53345Y4199D01*
X53205Y4069D01*
X52895Y3799D01*
X52875Y3788D01*
X52825Y3748D01*
X52755Y3689D01*
X52665Y3619D01*
X52465Y3458D01*
X52375Y3388D01*
X52295Y3328D01*
X55375D01*
Y1969D01*
X50055D01*
Y3139D01*
X50065Y3148D01*
X50085Y3159D01*
X50125Y3189D01*
X50165Y3229D01*
X50225Y3278D01*
X50295Y3339D01*
X50455Y3469D01*
X50645Y3619D01*
X50845Y3788D01*
X51055Y3968D01*
X51265Y4149D01*
X51275Y4158D01*
X51285Y4169D01*
X51315Y4199D01*
X51355Y4228D01*
X51455Y4318D01*
X51585Y4439D01*
X51735Y4578D01*
X51895Y4738D01*
X52055Y4899D01*
X52215Y5059D01*
X52225Y5068D01*
X52235Y5088D01*
X52265Y5108D01*
X52305Y5148D01*
X52395Y5258D01*
X52515Y5389D01*
X52635Y5548D01*
X52765Y5708D01*
X52885Y5878D01*
X52985Y6038D01*
X52995Y6058D01*
X53025Y6109D01*
X53065Y6199D01*
X53105Y6308D01*
X53145Y6438D01*
X53185Y6578D01*
X53215Y6739D01*
X53225Y6909D01*
Y6919D01*
Y6928D01*
Y6989D01*
X53205Y7089D01*
X53185Y7198D01*
X53145Y7318D01*
X53095Y7448D01*
X53015Y7579D01*
X52915Y7688D01*
X52905Y7699D01*
X52865Y7728D01*
X52795Y7779D01*
X52695Y7829D01*
X52575Y7869D01*
X52435Y7919D01*
X52265Y7948D01*
X52075Y7959D01*
X51975D01*
X51905Y7948D01*
X51825Y7938D01*
X51745Y7929D01*
X51555Y7888D01*
X51545D01*
X51515Y7879D01*
X51465Y7858D01*
X51395Y7839D01*
X51325Y7818D01*
X51235Y7779D01*
X51055Y7709D01*
X51045D01*
X51015Y7688D01*
X50965Y7668D01*
X50905Y7638D01*
X50765Y7569D01*
X50625Y7479D01*
X50615D01*
X50595Y7458D01*
X50535Y7418D01*
X50445Y7368D01*
X50375Y7318D01*
X50235D01*
Y8889D01*
X50245Y8899D01*
X50295Y8918D01*
X50365Y8948D01*
X50465Y8979D01*
X50595Y9029D01*
X50765Y9078D01*
X50955Y9128D01*
X51185Y9189D01*
X51195D01*
X51215Y9199D01*
X51245Y9208D01*
X51295Y9218D01*
X51355Y9228D01*
X51425Y9239D01*
X51585Y9268D01*
X51775Y9298D01*
X51985Y9329D01*
X52205Y9339D01*
X52435Y9348D01*
X52555D01*
X52645Y9339D01*
D02*
G37*
G36*
X40235Y9189D02*
X40385D01*
X40555Y9168D01*
X40735Y9149D01*
X40915Y9119D01*
X41095Y9078D01*
X41115D01*
X41175Y9059D01*
X41255Y9029D01*
X41365Y8988D01*
X41495Y8939D01*
X41635Y8879D01*
X41775Y8809D01*
X41915Y8719D01*
X41935Y8709D01*
X41985Y8669D01*
X42055Y8608D01*
X42145Y8529D01*
X42245Y8418D01*
X42355Y8298D01*
X42455Y8149D01*
X42545Y7988D01*
X42555Y7969D01*
X42585Y7908D01*
X42615Y7808D01*
X42665Y7688D01*
X42705Y7529D01*
X42735Y7339D01*
X42765Y7139D01*
X42775Y6909D01*
Y6899D01*
Y6888D01*
Y6859D01*
Y6829D01*
X42765Y6729D01*
X42755Y6599D01*
X42735Y6459D01*
X42705Y6289D01*
X42665Y6118D01*
X42615Y5948D01*
X42605Y5928D01*
X42585Y5869D01*
X42545Y5788D01*
X42495Y5678D01*
X42435Y5559D01*
X42345Y5438D01*
X42255Y5308D01*
X42145Y5189D01*
X42135Y5178D01*
X42115Y5159D01*
X42075Y5119D01*
X42025Y5079D01*
X41965Y5018D01*
X41905Y4958D01*
X41745Y4839D01*
X41735Y4829D01*
X41705Y4809D01*
X41665Y4778D01*
X41605Y4749D01*
X41525Y4699D01*
X41445Y4648D01*
X41255Y4558D01*
X41245D01*
X41205Y4538D01*
X41155Y4518D01*
X41085Y4499D01*
X40995Y4468D01*
X40905Y4439D01*
X40795Y4408D01*
X40675Y4389D01*
X40665D01*
X40625Y4378D01*
X40555Y4369D01*
X40475Y4358D01*
X40365Y4349D01*
X40245Y4338D01*
X40115Y4329D01*
X39035D01*
Y1969D01*
X37215D01*
Y9199D01*
X40175D01*
X40235Y9189D01*
D02*
G37*
G36*
X29685Y7818D02*
X26605D01*
Y6549D01*
X29445D01*
Y5169D01*
X26605D01*
Y3348D01*
X29685D01*
Y1969D01*
X24795D01*
Y9199D01*
X29685D01*
Y7818D01*
D02*
G37*
%LPC*%
G36*
X95658Y147625D02*
X95398D01*
Y146540D01*
X95768D01*
X95833Y146545D01*
X95898Y146555D01*
X95903D01*
X95908Y146560D01*
X95923D01*
X95943Y146565D01*
X95993Y146585D01*
X96048Y146605D01*
X96053D01*
X96063Y146610D01*
X96098Y146630D01*
X96138Y146655D01*
X96173Y146685D01*
X96178Y146690D01*
X96188Y146700D01*
X96203Y146720D01*
X96223Y146740D01*
X96263Y146800D01*
X96283Y146835D01*
X96298Y146870D01*
Y146875D01*
X96303Y146890D01*
X96308Y146910D01*
X96318Y146940D01*
X96323Y146980D01*
X96328Y147025D01*
X96333Y147075D01*
Y147135D01*
Y147140D01*
Y147160D01*
X96328Y147190D01*
X96323Y147225D01*
X96313Y147265D01*
X96303Y147310D01*
X96283Y147350D01*
X96258Y147395D01*
X96253Y147400D01*
X96248Y147415D01*
X96228Y147435D01*
X96208Y147460D01*
X96153Y147510D01*
X96123Y147530D01*
X96083Y147550D01*
X96078Y147555D01*
X96063Y147560D01*
X96038Y147570D01*
X96008Y147580D01*
X95968Y147590D01*
X95928Y147600D01*
X95838Y147615D01*
X95818D01*
X95793Y147620D01*
X95713D01*
X95658Y147625D01*
D02*
G37*
G36*
X7170Y147318D02*
X6910D01*
Y146232D01*
X7280D01*
X7345Y146237D01*
X7410Y146247D01*
X7415D01*
X7420Y146252D01*
X7435D01*
X7455Y146257D01*
X7505Y146277D01*
X7560Y146298D01*
X7565D01*
X7575Y146302D01*
X7610Y146323D01*
X7650Y146347D01*
X7685Y146377D01*
X7690Y146382D01*
X7700Y146393D01*
X7715Y146412D01*
X7735Y146432D01*
X7775Y146493D01*
X7795Y146527D01*
X7810Y146562D01*
Y146567D01*
X7815Y146582D01*
X7820Y146602D01*
X7830Y146632D01*
X7835Y146672D01*
X7840Y146718D01*
X7845Y146767D01*
Y146827D01*
Y146832D01*
Y146852D01*
X7840Y146882D01*
X7835Y146917D01*
X7825Y146957D01*
X7815Y147002D01*
X7795Y147043D01*
X7770Y147087D01*
X7765Y147092D01*
X7760Y147107D01*
X7740Y147127D01*
X7720Y147152D01*
X7665Y147202D01*
X7635Y147222D01*
X7595Y147242D01*
X7590Y147248D01*
X7575Y147252D01*
X7550Y147262D01*
X7520Y147273D01*
X7480Y147282D01*
X7440Y147292D01*
X7350Y147307D01*
X7330D01*
X7305Y147312D01*
X7225D01*
X7170Y147318D01*
D02*
G37*
G36*
X15109Y62958D02*
X15054D01*
X15049D01*
X15029D01*
X15004Y62953D01*
X14974D01*
X14899Y62933D01*
X14859Y62923D01*
X14819Y62903D01*
X14814D01*
X14804Y62893D01*
X14784Y62883D01*
X14764Y62863D01*
X14739Y62838D01*
X14714Y62808D01*
X14689Y62773D01*
X14669Y62733D01*
Y62728D01*
X14664Y62718D01*
X14654Y62703D01*
X14649Y62678D01*
X14629Y62618D01*
X14619Y62543D01*
Y62523D01*
X14614Y62503D01*
Y62433D01*
X14609Y62393D01*
Y61988D01*
X15589D01*
Y62308D01*
X15584Y62353D01*
Y62403D01*
X15579Y62458D01*
X15574Y62513D01*
X15569Y62563D01*
Y62568D01*
X15564Y62583D01*
X15559Y62608D01*
X15549Y62638D01*
X15514Y62713D01*
X15469Y62783D01*
X15464Y62788D01*
X15454Y62798D01*
X15444Y62813D01*
X15424Y62833D01*
X15369Y62878D01*
X15304Y62913D01*
X15299D01*
X15289Y62918D01*
X15264Y62928D01*
X15239Y62938D01*
X15199Y62943D01*
X15159Y62953D01*
X15109Y62958D01*
D02*
G37*
G36*
X51308Y23102D02*
X51170D01*
Y21619D01*
X51298D01*
X51350Y21623D01*
X51462D01*
X51514Y21626D01*
X51521D01*
X51537Y21629D01*
X51564Y21633D01*
X51600Y21639D01*
X51639Y21649D01*
X51685Y21665D01*
X51731Y21685D01*
X51777Y21711D01*
X51780D01*
X51783Y21715D01*
X51800Y21728D01*
X51826Y21747D01*
X51859Y21777D01*
X51895Y21813D01*
X51931Y21856D01*
X51967Y21908D01*
X51996Y21964D01*
Y21967D01*
X52000Y21970D01*
X52003Y21980D01*
X52010Y21993D01*
X52016Y22010D01*
X52023Y22029D01*
X52036Y22075D01*
X52049Y22134D01*
X52062Y22200D01*
X52072Y22275D01*
X52075Y22361D01*
Y22364D01*
Y22371D01*
Y22384D01*
Y22400D01*
X52072Y22420D01*
Y22443D01*
X52065Y22499D01*
X52056Y22561D01*
X52039Y22626D01*
X52019Y22695D01*
X51993Y22761D01*
Y22764D01*
X51990Y22767D01*
X51977Y22787D01*
X51960Y22820D01*
X51934Y22856D01*
X51898Y22899D01*
X51855Y22941D01*
X51806Y22984D01*
X51747Y23020D01*
X51741Y23023D01*
X51727Y23030D01*
X51701Y23043D01*
X51672Y23056D01*
X51632Y23069D01*
X51590Y23082D01*
X51544Y23089D01*
X51495Y23095D01*
X51472D01*
X51442Y23099D01*
X51360D01*
X51308Y23102D01*
D02*
G37*
G36*
X45847D02*
X45676D01*
Y22390D01*
X45919D01*
X45961Y22393D01*
X46004Y22400D01*
X46007D01*
X46011Y22403D01*
X46020D01*
X46033Y22407D01*
X46066Y22420D01*
X46102Y22433D01*
X46106D01*
X46112Y22436D01*
X46135Y22449D01*
X46161Y22466D01*
X46184Y22485D01*
X46188Y22489D01*
X46194Y22495D01*
X46204Y22508D01*
X46217Y22521D01*
X46243Y22561D01*
X46257Y22584D01*
X46266Y22607D01*
Y22610D01*
X46270Y22620D01*
X46273Y22633D01*
X46279Y22653D01*
X46283Y22679D01*
X46286Y22708D01*
X46289Y22741D01*
Y22781D01*
Y22784D01*
Y22797D01*
X46286Y22817D01*
X46283Y22840D01*
X46276Y22866D01*
X46270Y22895D01*
X46257Y22922D01*
X46240Y22951D01*
X46237Y22954D01*
X46233Y22964D01*
X46220Y22977D01*
X46207Y22994D01*
X46171Y23027D01*
X46152Y23040D01*
X46125Y23053D01*
X46122Y23056D01*
X46112Y23059D01*
X46096Y23066D01*
X46076Y23073D01*
X46050Y23079D01*
X46024Y23086D01*
X45965Y23095D01*
X45951D01*
X45935Y23099D01*
X45883D01*
X45847Y23102D01*
D02*
G37*
G36*
X78825Y19118D02*
X78795D01*
X78755Y19113D01*
X78710Y19108D01*
X78660Y19093D01*
X78610Y19078D01*
X78555Y19053D01*
X78505Y19018D01*
X78500Y19013D01*
X78485Y18998D01*
X78465Y18978D01*
X78445Y18948D01*
X78425Y18913D01*
X78405Y18873D01*
X78390Y18823D01*
X78385Y18773D01*
Y18768D01*
Y18748D01*
X78390Y18723D01*
X78395Y18688D01*
X78415Y18613D01*
X78430Y18573D01*
X78455Y18538D01*
X78460Y18533D01*
X78470Y18523D01*
X78485Y18508D01*
X78510Y18483D01*
X78545Y18458D01*
X78585Y18433D01*
X78630Y18403D01*
X78685Y18373D01*
X78690D01*
X78700Y18368D01*
X78710Y18363D01*
X78730Y18353D01*
X78780Y18333D01*
X78845Y18303D01*
X78850D01*
X78860Y18298D01*
X78885Y18288D01*
X78910Y18278D01*
X78950Y18263D01*
X78990Y18248D01*
X79040Y18228D01*
X79095Y18208D01*
X79100Y18213D01*
X79110Y18228D01*
X79130Y18253D01*
X79150Y18283D01*
X79170Y18323D01*
X79195Y18363D01*
X79235Y18448D01*
Y18453D01*
X79240Y18468D01*
X79250Y18493D01*
X79260Y18523D01*
X79265Y18563D01*
X79275Y18608D01*
X79280Y18658D01*
Y18713D01*
Y18723D01*
Y18743D01*
X79275Y18778D01*
X79265Y18818D01*
X79250Y18863D01*
X79225Y18913D01*
X79195Y18958D01*
X79155Y19003D01*
X79150Y19008D01*
X79135Y19023D01*
X79105Y19038D01*
X79070Y19063D01*
X79020Y19083D01*
X78965Y19098D01*
X78900Y19113D01*
X78825Y19118D01*
D02*
G37*
G36*
X78515Y17668D02*
X78510Y17663D01*
X78500Y17653D01*
X78480Y17633D01*
X78460Y17603D01*
X78430Y17568D01*
X78405Y17528D01*
X78375Y17483D01*
X78345Y17433D01*
X78340Y17428D01*
X78335Y17408D01*
X78325Y17383D01*
X78310Y17343D01*
X78295Y17298D01*
X78285Y17248D01*
X78280Y17188D01*
X78275Y17128D01*
Y17123D01*
Y17118D01*
X78280Y17088D01*
X78285Y17043D01*
X78295Y16983D01*
X78315Y16923D01*
X78345Y16853D01*
X78380Y16788D01*
X78435Y16728D01*
X78445Y16723D01*
X78465Y16703D01*
X78500Y16683D01*
X78550Y16653D01*
X78610Y16628D01*
X78680Y16603D01*
X78760Y16583D01*
X78855Y16578D01*
X78880D01*
X78900Y16583D01*
X78950Y16588D01*
X79015Y16598D01*
X79020D01*
X79030Y16603D01*
X79050Y16608D01*
X79070Y16618D01*
X79125Y16638D01*
X79180Y16668D01*
X79185Y16673D01*
X79195Y16678D01*
X79225Y16708D01*
X79265Y16748D01*
X79305Y16803D01*
Y16808D01*
X79315Y16818D01*
X79320Y16833D01*
X79330Y16858D01*
X79340Y16883D01*
X79345Y16918D01*
X79355Y16958D01*
Y17003D01*
Y17013D01*
Y17033D01*
X79350Y17063D01*
X79345Y17103D01*
X79335Y17148D01*
X79320Y17193D01*
X79300Y17238D01*
X79275Y17278D01*
X79270Y17283D01*
X79260Y17293D01*
X79240Y17313D01*
X79205Y17338D01*
X79165Y17373D01*
X79110Y17408D01*
X79040Y17448D01*
X78955Y17488D01*
X78950D01*
X78940Y17493D01*
X78925Y17503D01*
X78905Y17513D01*
X78875Y17523D01*
X78840Y17538D01*
X78800Y17553D01*
X78750Y17573D01*
X78745Y17578D01*
X78730Y17583D01*
X78705Y17593D01*
X78670Y17608D01*
X78595Y17638D01*
X78515Y17668D01*
D02*
G37*
G36*
X103050Y77425D02*
X103047D01*
X103041D01*
X103031D01*
X103014D01*
X102995D01*
X102975Y77422D01*
X102922Y77418D01*
X102864Y77415D01*
X102804Y77405D01*
X102742Y77395D01*
X102686Y77382D01*
X102680Y77379D01*
X102663Y77376D01*
X102637Y77366D01*
X102601Y77353D01*
X102565Y77336D01*
X102522Y77317D01*
X102483Y77294D01*
X102444Y77267D01*
X102440Y77264D01*
X102427Y77254D01*
X102411Y77238D01*
X102388Y77215D01*
X102365Y77189D01*
X102342Y77159D01*
X102322Y77130D01*
X102303Y77094D01*
Y77090D01*
X102296Y77077D01*
X102289Y77058D01*
X102283Y77031D01*
X102276Y77002D01*
X102270Y76969D01*
X102267Y76930D01*
X102263Y76894D01*
Y76874D01*
X102267Y76854D01*
X102270Y76828D01*
X102273Y76798D01*
X102283Y76762D01*
X102293Y76726D01*
X102306Y76690D01*
X102309Y76687D01*
X102316Y76674D01*
X102325Y76654D01*
X102342Y76631D01*
X102362Y76605D01*
X102385Y76575D01*
X102414Y76549D01*
X102447Y76520D01*
X102450Y76516D01*
X102467Y76507D01*
X102486Y76493D01*
X102516Y76477D01*
X102552Y76457D01*
X102594Y76438D01*
X102640Y76418D01*
X102690Y76402D01*
X102696Y76398D01*
X102716Y76395D01*
X102745Y76388D01*
X102788Y76379D01*
X102837Y76372D01*
X102900Y76366D01*
X102972Y76362D01*
X103050Y76359D01*
X103054D01*
X103060D01*
X103070D01*
X103086D01*
X103103D01*
X103126Y76362D01*
X103175Y76366D01*
X103231Y76369D01*
X103293Y76379D01*
X103352Y76388D01*
X103411Y76405D01*
X103414D01*
X103418Y76408D01*
X103437Y76411D01*
X103464Y76421D01*
X103500Y76434D01*
X103539Y76451D01*
X103578Y76470D01*
X103618Y76493D01*
X103657Y76520D01*
X103661Y76523D01*
X103674Y76533D01*
X103690Y76549D01*
X103713Y76572D01*
X103736Y76595D01*
X103759Y76625D01*
X103779Y76657D01*
X103798Y76693D01*
X103802Y76697D01*
X103805Y76710D01*
X103811Y76730D01*
X103821Y76753D01*
X103828Y76785D01*
X103834Y76818D01*
X103838Y76854D01*
X103841Y76894D01*
Y76913D01*
X103838Y76933D01*
Y76959D01*
X103831Y76989D01*
X103824Y77021D01*
X103815Y77058D01*
X103802Y77090D01*
X103798Y77094D01*
X103795Y77107D01*
X103785Y77123D01*
X103769Y77146D01*
X103749Y77172D01*
X103726Y77202D01*
X103697Y77231D01*
X103661Y77264D01*
X103657Y77267D01*
X103644Y77277D01*
X103624Y77290D01*
X103595Y77307D01*
X103559Y77323D01*
X103519Y77343D01*
X103470Y77363D01*
X103414Y77382D01*
X103411D01*
X103408Y77386D01*
X103398D01*
X103388Y77389D01*
X103356Y77395D01*
X103313Y77402D01*
X103257Y77412D01*
X103195Y77418D01*
X103126Y77422D01*
X103050Y77425D01*
D02*
G37*
G36*
Y87493D02*
X103047D01*
X103041D01*
X103031D01*
X103014D01*
X102995D01*
X102975Y87490D01*
X102922Y87486D01*
X102864Y87483D01*
X102804Y87473D01*
X102742Y87464D01*
X102686Y87450D01*
X102680Y87447D01*
X102663Y87444D01*
X102637Y87434D01*
X102601Y87421D01*
X102565Y87405D01*
X102522Y87385D01*
X102483Y87362D01*
X102444Y87336D01*
X102440Y87332D01*
X102427Y87323D01*
X102411Y87306D01*
X102388Y87283D01*
X102365Y87257D01*
X102342Y87227D01*
X102322Y87198D01*
X102303Y87162D01*
Y87159D01*
X102296Y87145D01*
X102289Y87126D01*
X102283Y87099D01*
X102276Y87070D01*
X102270Y87037D01*
X102267Y86998D01*
X102263Y86962D01*
Y86942D01*
X102267Y86922D01*
X102270Y86896D01*
X102273Y86867D01*
X102283Y86831D01*
X102293Y86795D01*
X102306Y86758D01*
X102309Y86755D01*
X102316Y86742D01*
X102325Y86722D01*
X102342Y86699D01*
X102362Y86673D01*
X102385Y86644D01*
X102414Y86617D01*
X102447Y86588D01*
X102450Y86585D01*
X102467Y86575D01*
X102486Y86562D01*
X102516Y86545D01*
X102552Y86525D01*
X102594Y86506D01*
X102640Y86486D01*
X102690Y86470D01*
X102696Y86466D01*
X102716Y86463D01*
X102745Y86457D01*
X102788Y86447D01*
X102837Y86440D01*
X102900Y86434D01*
X102972Y86430D01*
X103050Y86427D01*
X103054D01*
X103060D01*
X103070D01*
X103086D01*
X103103D01*
X103126Y86430D01*
X103175Y86434D01*
X103231Y86437D01*
X103293Y86447D01*
X103352Y86457D01*
X103411Y86473D01*
X103414D01*
X103418Y86476D01*
X103437Y86480D01*
X103464Y86489D01*
X103500Y86502D01*
X103539Y86519D01*
X103578Y86539D01*
X103618Y86562D01*
X103657Y86588D01*
X103661Y86591D01*
X103674Y86601D01*
X103690Y86617D01*
X103713Y86640D01*
X103736Y86663D01*
X103759Y86693D01*
X103779Y86726D01*
X103798Y86762D01*
X103802Y86765D01*
X103805Y86778D01*
X103811Y86798D01*
X103821Y86821D01*
X103828Y86853D01*
X103834Y86886D01*
X103838Y86922D01*
X103841Y86962D01*
Y86981D01*
X103838Y87001D01*
Y87027D01*
X103831Y87057D01*
X103824Y87090D01*
X103815Y87126D01*
X103802Y87159D01*
X103798Y87162D01*
X103795Y87175D01*
X103785Y87191D01*
X103769Y87214D01*
X103749Y87240D01*
X103726Y87270D01*
X103697Y87300D01*
X103661Y87332D01*
X103657Y87336D01*
X103644Y87345D01*
X103624Y87359D01*
X103595Y87375D01*
X103559Y87391D01*
X103519Y87411D01*
X103470Y87431D01*
X103414Y87450D01*
X103411D01*
X103408Y87454D01*
X103398D01*
X103388Y87457D01*
X103356Y87464D01*
X103313Y87470D01*
X103257Y87480D01*
X103195Y87486D01*
X103126Y87490D01*
X103050Y87493D01*
D02*
G37*
G36*
X103795Y63432D02*
X102312D01*
Y63304D01*
X102316Y63252D01*
Y63140D01*
X102319Y63088D01*
Y63081D01*
X102322Y63065D01*
X102325Y63039D01*
X102332Y63003D01*
X102342Y62963D01*
X102358Y62917D01*
X102378Y62871D01*
X102404Y62825D01*
Y62822D01*
X102408Y62819D01*
X102421Y62802D01*
X102440Y62776D01*
X102470Y62743D01*
X102506Y62707D01*
X102549Y62671D01*
X102601Y62635D01*
X102657Y62606D01*
X102660D01*
X102663Y62602D01*
X102673Y62599D01*
X102686Y62593D01*
X102703Y62586D01*
X102722Y62579D01*
X102768Y62566D01*
X102827Y62553D01*
X102893Y62540D01*
X102968Y62530D01*
X103054Y62527D01*
X103057D01*
X103064D01*
X103077D01*
X103093D01*
X103113Y62530D01*
X103136D01*
X103191Y62537D01*
X103254Y62547D01*
X103319Y62563D01*
X103388Y62583D01*
X103454Y62609D01*
X103457D01*
X103460Y62612D01*
X103480Y62625D01*
X103513Y62642D01*
X103549Y62668D01*
X103592Y62704D01*
X103634Y62747D01*
X103677Y62796D01*
X103713Y62855D01*
X103716Y62862D01*
X103723Y62875D01*
X103736Y62901D01*
X103749Y62930D01*
X103762Y62970D01*
X103775Y63012D01*
X103782Y63058D01*
X103788Y63108D01*
Y63130D01*
X103792Y63160D01*
Y63242D01*
X103795Y63295D01*
Y63432D01*
D02*
G37*
G36*
X103050Y98515D02*
X103047D01*
X103041D01*
X103031D01*
X103014D01*
X102995D01*
X102975Y98512D01*
X102922Y98508D01*
X102864Y98505D01*
X102804Y98495D01*
X102742Y98485D01*
X102686Y98472D01*
X102680Y98469D01*
X102663Y98466D01*
X102637Y98456D01*
X102601Y98443D01*
X102565Y98426D01*
X102522Y98407D01*
X102483Y98384D01*
X102444Y98357D01*
X102440Y98354D01*
X102427Y98344D01*
X102411Y98328D01*
X102388Y98305D01*
X102365Y98279D01*
X102342Y98249D01*
X102322Y98220D01*
X102303Y98184D01*
Y98180D01*
X102296Y98167D01*
X102289Y98148D01*
X102283Y98121D01*
X102276Y98092D01*
X102270Y98059D01*
X102267Y98020D01*
X102263Y97984D01*
Y97964D01*
X102267Y97944D01*
X102270Y97918D01*
X102273Y97888D01*
X102283Y97852D01*
X102293Y97816D01*
X102306Y97780D01*
X102309Y97777D01*
X102316Y97764D01*
X102325Y97744D01*
X102342Y97721D01*
X102362Y97695D01*
X102385Y97665D01*
X102414Y97639D01*
X102447Y97610D01*
X102450Y97606D01*
X102467Y97597D01*
X102486Y97583D01*
X102516Y97567D01*
X102552Y97547D01*
X102594Y97528D01*
X102640Y97508D01*
X102690Y97492D01*
X102696Y97488D01*
X102716Y97485D01*
X102745Y97478D01*
X102788Y97469D01*
X102837Y97462D01*
X102900Y97456D01*
X102972Y97452D01*
X103050Y97449D01*
X103054D01*
X103060D01*
X103070D01*
X103086D01*
X103103D01*
X103126Y97452D01*
X103175Y97456D01*
X103231Y97459D01*
X103293Y97469D01*
X103352Y97478D01*
X103411Y97495D01*
X103414D01*
X103418Y97498D01*
X103437Y97501D01*
X103464Y97511D01*
X103500Y97524D01*
X103539Y97541D01*
X103578Y97561D01*
X103618Y97583D01*
X103657Y97610D01*
X103661Y97613D01*
X103674Y97623D01*
X103690Y97639D01*
X103713Y97662D01*
X103736Y97685D01*
X103759Y97715D01*
X103779Y97747D01*
X103798Y97783D01*
X103802Y97787D01*
X103805Y97800D01*
X103811Y97820D01*
X103821Y97843D01*
X103828Y97875D01*
X103834Y97908D01*
X103838Y97944D01*
X103841Y97984D01*
Y98003D01*
X103838Y98023D01*
Y98049D01*
X103831Y98079D01*
X103824Y98111D01*
X103815Y98148D01*
X103802Y98180D01*
X103798Y98184D01*
X103795Y98197D01*
X103785Y98213D01*
X103769Y98236D01*
X103749Y98262D01*
X103726Y98292D01*
X103697Y98321D01*
X103661Y98354D01*
X103657Y98357D01*
X103644Y98367D01*
X103624Y98381D01*
X103595Y98397D01*
X103559Y98413D01*
X103519Y98433D01*
X103470Y98453D01*
X103414Y98472D01*
X103411D01*
X103408Y98476D01*
X103398D01*
X103388Y98479D01*
X103356Y98485D01*
X103313Y98492D01*
X103257Y98502D01*
X103195Y98508D01*
X103126Y98512D01*
X103050Y98515D01*
D02*
G37*
G36*
X103795Y105190D02*
X102312D01*
Y105062D01*
X102316Y105010D01*
Y104898D01*
X102319Y104846D01*
Y104839D01*
X102322Y104823D01*
X102325Y104797D01*
X102332Y104761D01*
X102342Y104721D01*
X102358Y104675D01*
X102378Y104629D01*
X102404Y104584D01*
Y104580D01*
X102408Y104577D01*
X102421Y104561D01*
X102440Y104534D01*
X102470Y104501D01*
X102506Y104465D01*
X102549Y104429D01*
X102601Y104393D01*
X102657Y104364D01*
X102660D01*
X102663Y104360D01*
X102673Y104357D01*
X102686Y104351D01*
X102703Y104344D01*
X102722Y104338D01*
X102768Y104324D01*
X102827Y104311D01*
X102893Y104298D01*
X102968Y104288D01*
X103054Y104285D01*
X103057D01*
X103064D01*
X103077D01*
X103093D01*
X103113Y104288D01*
X103136D01*
X103191Y104295D01*
X103254Y104305D01*
X103319Y104321D01*
X103388Y104341D01*
X103454Y104367D01*
X103457D01*
X103460Y104370D01*
X103480Y104383D01*
X103513Y104400D01*
X103549Y104426D01*
X103592Y104462D01*
X103634Y104505D01*
X103677Y104554D01*
X103713Y104613D01*
X103716Y104620D01*
X103723Y104633D01*
X103736Y104659D01*
X103749Y104689D01*
X103762Y104728D01*
X103775Y104771D01*
X103782Y104816D01*
X103788Y104866D01*
Y104889D01*
X103792Y104918D01*
Y105000D01*
X103795Y105053D01*
Y105190D01*
D02*
G37*
G36*
X103050Y117431D02*
X103047D01*
X103041D01*
X103031D01*
X103014D01*
X102995D01*
X102975Y117428D01*
X102922Y117424D01*
X102864Y117421D01*
X102804Y117411D01*
X102742Y117401D01*
X102686Y117388D01*
X102680Y117385D01*
X102663Y117382D01*
X102637Y117372D01*
X102601Y117359D01*
X102565Y117342D01*
X102522Y117323D01*
X102483Y117300D01*
X102444Y117273D01*
X102440Y117270D01*
X102427Y117260D01*
X102411Y117244D01*
X102388Y117221D01*
X102365Y117195D01*
X102342Y117165D01*
X102322Y117136D01*
X102303Y117100D01*
Y117096D01*
X102296Y117083D01*
X102289Y117063D01*
X102283Y117037D01*
X102276Y117008D01*
X102270Y116975D01*
X102267Y116936D01*
X102263Y116900D01*
Y116880D01*
X102267Y116860D01*
X102270Y116834D01*
X102273Y116804D01*
X102283Y116768D01*
X102293Y116732D01*
X102306Y116696D01*
X102309Y116693D01*
X102316Y116680D01*
X102326Y116660D01*
X102342Y116637D01*
X102362Y116611D01*
X102385Y116581D01*
X102414Y116555D01*
X102447Y116526D01*
X102450Y116522D01*
X102467Y116513D01*
X102486Y116499D01*
X102516Y116483D01*
X102552Y116463D01*
X102594Y116444D01*
X102640Y116424D01*
X102690Y116408D01*
X102696Y116404D01*
X102716Y116401D01*
X102745Y116394D01*
X102788Y116384D01*
X102837Y116378D01*
X102900Y116371D01*
X102972Y116368D01*
X103050Y116365D01*
X103054D01*
X103060D01*
X103070D01*
X103086D01*
X103103D01*
X103126Y116368D01*
X103175Y116371D01*
X103231Y116375D01*
X103293Y116384D01*
X103352Y116394D01*
X103411Y116411D01*
X103414D01*
X103418Y116414D01*
X103437Y116417D01*
X103464Y116427D01*
X103500Y116440D01*
X103539Y116457D01*
X103578Y116476D01*
X103618Y116499D01*
X103657Y116526D01*
X103661Y116529D01*
X103674Y116539D01*
X103690Y116555D01*
X103713Y116578D01*
X103736Y116601D01*
X103759Y116630D01*
X103779Y116663D01*
X103798Y116699D01*
X103802Y116703D01*
X103805Y116716D01*
X103811Y116735D01*
X103821Y116759D01*
X103828Y116791D01*
X103834Y116824D01*
X103838Y116860D01*
X103841Y116900D01*
Y116919D01*
X103838Y116939D01*
Y116965D01*
X103831Y116995D01*
X103824Y117027D01*
X103815Y117063D01*
X103802Y117096D01*
X103798Y117100D01*
X103795Y117113D01*
X103785Y117129D01*
X103769Y117152D01*
X103749Y117178D01*
X103726Y117208D01*
X103697Y117237D01*
X103661Y117270D01*
X103657Y117273D01*
X103644Y117283D01*
X103624Y117296D01*
X103595Y117313D01*
X103559Y117329D01*
X103519Y117349D01*
X103470Y117368D01*
X103414Y117388D01*
X103411D01*
X103408Y117392D01*
X103398D01*
X103388Y117395D01*
X103356Y117401D01*
X103313Y117408D01*
X103257Y117418D01*
X103195Y117424D01*
X103126Y117428D01*
X103050Y117431D01*
D02*
G37*
G36*
X103129Y114922D02*
X103050D01*
X103047D01*
X103031D01*
X103008D01*
X102978D01*
X102945Y114918D01*
X102903D01*
X102857Y114915D01*
X102811Y114912D01*
X102709Y114905D01*
X102608Y114892D01*
X102558Y114882D01*
X102513Y114873D01*
X102470Y114863D01*
X102434Y114849D01*
X102430D01*
X102427Y114846D01*
X102404Y114836D01*
X102378Y114817D01*
X102345Y114790D01*
X102309Y114758D01*
X102283Y114715D01*
X102260Y114666D01*
X102257Y114636D01*
X102253Y114607D01*
Y114600D01*
X102257Y114577D01*
X102263Y114548D01*
X102276Y114512D01*
X102296Y114472D01*
X102329Y114433D01*
X102352Y114413D01*
X102375Y114394D01*
X102401Y114377D01*
X102434Y114364D01*
X102437D01*
X102444Y114361D01*
X102453Y114357D01*
X102470Y114351D01*
X102490Y114348D01*
X102513Y114341D01*
X102545Y114334D01*
X102578Y114325D01*
X102618Y114318D01*
X102663Y114312D01*
X102713Y114305D01*
X102772Y114302D01*
X102831Y114295D01*
X102900Y114292D01*
X102972Y114289D01*
X103050D01*
X103057D01*
X103070D01*
X103093D01*
X103123D01*
X103159Y114292D01*
X103201D01*
X103244Y114295D01*
X103293Y114298D01*
X103398Y114308D01*
X103500Y114321D01*
X103549Y114328D01*
X103592Y114338D01*
X103634Y114351D01*
X103670Y114364D01*
X103674D01*
X103677Y114367D01*
X103700Y114377D01*
X103726Y114397D01*
X103762Y114420D01*
X103795Y114456D01*
X103821Y114495D01*
X103844Y114548D01*
X103848Y114577D01*
X103851Y114607D01*
Y114613D01*
X103848Y114633D01*
X103841Y114666D01*
X103828Y114702D01*
X103808Y114741D01*
X103775Y114781D01*
X103756Y114800D01*
X103729Y114817D01*
X103703Y114836D01*
X103670Y114849D01*
X103667D01*
X103661Y114853D01*
X103651Y114856D01*
X103634Y114859D01*
X103615Y114866D01*
X103592Y114873D01*
X103562Y114879D01*
X103526Y114886D01*
X103487Y114892D01*
X103441Y114899D01*
X103392Y114905D01*
X103336Y114912D01*
X103273Y114915D01*
X103205Y114918D01*
X103129Y114922D01*
D02*
G37*
G36*
X103050Y128633D02*
X103047D01*
X103041D01*
X103031D01*
X103014D01*
X102995D01*
X102975Y128630D01*
X102922Y128627D01*
X102864Y128623D01*
X102804Y128613D01*
X102742Y128604D01*
X102686Y128591D01*
X102680Y128587D01*
X102663Y128584D01*
X102637Y128574D01*
X102601Y128561D01*
X102565Y128544D01*
X102522Y128525D01*
X102483Y128502D01*
X102444Y128476D01*
X102440Y128472D01*
X102427Y128463D01*
X102411Y128446D01*
X102388Y128423D01*
X102365Y128397D01*
X102342Y128367D01*
X102322Y128338D01*
X102303Y128302D01*
Y128298D01*
X102296Y128285D01*
X102289Y128266D01*
X102283Y128240D01*
X102276Y128210D01*
X102270Y128177D01*
X102267Y128138D01*
X102263Y128102D01*
Y128082D01*
X102267Y128062D01*
X102270Y128036D01*
X102273Y128007D01*
X102283Y127971D01*
X102293Y127935D01*
X102306Y127898D01*
X102309Y127895D01*
X102316Y127882D01*
X102325Y127862D01*
X102342Y127839D01*
X102362Y127813D01*
X102385Y127784D01*
X102414Y127757D01*
X102447Y127728D01*
X102450Y127725D01*
X102467Y127715D01*
X102486Y127702D01*
X102516Y127685D01*
X102552Y127665D01*
X102594Y127646D01*
X102640Y127626D01*
X102690Y127610D01*
X102696Y127606D01*
X102716Y127603D01*
X102745Y127597D01*
X102788Y127587D01*
X102837Y127580D01*
X102900Y127574D01*
X102972Y127570D01*
X103050Y127567D01*
X103054D01*
X103060D01*
X103070D01*
X103086D01*
X103103D01*
X103126Y127570D01*
X103175Y127574D01*
X103231Y127577D01*
X103293Y127587D01*
X103352Y127597D01*
X103411Y127613D01*
X103414D01*
X103418Y127616D01*
X103437Y127620D01*
X103464Y127629D01*
X103500Y127643D01*
X103539Y127659D01*
X103578Y127679D01*
X103618Y127702D01*
X103657Y127728D01*
X103661Y127731D01*
X103674Y127741D01*
X103690Y127757D01*
X103713Y127780D01*
X103736Y127803D01*
X103759Y127833D01*
X103779Y127866D01*
X103798Y127902D01*
X103802Y127905D01*
X103805Y127918D01*
X103811Y127938D01*
X103821Y127961D01*
X103828Y127994D01*
X103834Y128026D01*
X103838Y128062D01*
X103841Y128102D01*
Y128121D01*
X103838Y128141D01*
Y128167D01*
X103831Y128197D01*
X103824Y128230D01*
X103815Y128266D01*
X103802Y128298D01*
X103798Y128302D01*
X103795Y128315D01*
X103785Y128331D01*
X103769Y128354D01*
X103749Y128381D01*
X103726Y128410D01*
X103697Y128440D01*
X103661Y128472D01*
X103657Y128476D01*
X103644Y128486D01*
X103624Y128499D01*
X103595Y128515D01*
X103559Y128531D01*
X103519Y128551D01*
X103470Y128571D01*
X103414Y128591D01*
X103411D01*
X103408Y128594D01*
X103398D01*
X103388Y128597D01*
X103356Y128604D01*
X103313Y128610D01*
X103257Y128620D01*
X103195Y128627D01*
X103126Y128630D01*
X103050Y128633D01*
D02*
G37*
G36*
X102975Y124021D02*
X102972D01*
X102962D01*
X102945D01*
X102919D01*
X102913D01*
X102893D01*
X102867D01*
X102827D01*
X102824D01*
X102818D01*
X102808D01*
X102795D01*
X102755Y124018D01*
X102709D01*
X102657Y124015D01*
X102604Y124008D01*
X102549Y123998D01*
X102499Y123989D01*
X102493Y123985D01*
X102480Y123982D01*
X102457Y123976D01*
X102430Y123962D01*
X102372Y123936D01*
X102342Y123916D01*
X102316Y123897D01*
X102312Y123893D01*
X102306Y123890D01*
X102286Y123871D01*
X102263Y123841D01*
X102240Y123805D01*
Y123802D01*
X102237Y123795D01*
X102234Y123785D01*
X102230Y123769D01*
X102224Y123733D01*
X102221Y123690D01*
Y123674D01*
X102224Y123661D01*
X102230Y123628D01*
X102244Y123589D01*
Y123585D01*
X102247Y123579D01*
X102253Y123569D01*
X102260Y123556D01*
X102283Y123526D01*
X102316Y123493D01*
X102319Y123490D01*
X102325Y123487D01*
X102335Y123477D01*
X102352Y123467D01*
X102391Y123444D01*
X102437Y123424D01*
X102440D01*
X102450Y123421D01*
X102467Y123415D01*
X102490Y123411D01*
X102519Y123405D01*
X102552Y123401D01*
X102594Y123398D01*
X102644D01*
X102650D01*
X102663D01*
X102683D01*
X102709Y123401D01*
X102739Y123405D01*
X102772Y123411D01*
X102801Y123418D01*
X102831Y123428D01*
X102834D01*
X102844Y123434D01*
X102857Y123441D01*
X102873Y123447D01*
X102913Y123474D01*
X102952Y123510D01*
X102955Y123513D01*
X102959Y123520D01*
X102965Y123529D01*
X102975Y123542D01*
X102995Y123582D01*
X103011Y123628D01*
Y123631D01*
X103014Y123638D01*
X103018Y123654D01*
X103021Y123670D01*
X103024Y123690D01*
X103027Y123716D01*
X103031Y123769D01*
Y123792D01*
X103027Y123808D01*
X103024Y123848D01*
X103014Y123897D01*
Y123900D01*
X103011Y123907D01*
X103008Y123920D01*
X103005Y123936D01*
X102991Y123976D01*
X102975Y124021D01*
D02*
G37*
G36*
X3249Y68206D02*
X2442D01*
X3249Y67606D01*
Y68206D01*
D02*
G37*
G36*
X3042Y66373D02*
X3039D01*
X3032D01*
X3022D01*
X3006D01*
X2990D01*
X2967Y66369D01*
X2918Y66366D01*
X2862Y66363D01*
X2799Y66353D01*
X2740Y66343D01*
X2681Y66327D01*
X2678D01*
X2675Y66323D01*
X2655Y66320D01*
X2629Y66310D01*
X2593Y66297D01*
X2553Y66281D01*
X2514Y66261D01*
X2475Y66238D01*
X2435Y66212D01*
X2432Y66209D01*
X2419Y66199D01*
X2403Y66182D01*
X2380Y66159D01*
X2357Y66136D01*
X2334Y66107D01*
X2314Y66074D01*
X2294Y66038D01*
X2291Y66035D01*
X2288Y66022D01*
X2281Y66002D01*
X2271Y65979D01*
X2265Y65946D01*
X2258Y65913D01*
X2255Y65877D01*
X2252Y65838D01*
Y65818D01*
X2255Y65799D01*
Y65772D01*
X2262Y65743D01*
X2268Y65710D01*
X2278Y65674D01*
X2291Y65641D01*
X2294Y65638D01*
X2298Y65625D01*
X2307Y65608D01*
X2324Y65585D01*
X2344Y65559D01*
X2366Y65530D01*
X2396Y65500D01*
X2432Y65467D01*
X2435Y65464D01*
X2448Y65454D01*
X2468Y65441D01*
X2498Y65425D01*
X2534Y65408D01*
X2573Y65389D01*
X2622Y65369D01*
X2678Y65349D01*
X2681D01*
X2685Y65346D01*
X2694D01*
X2704Y65343D01*
X2737Y65336D01*
X2780Y65330D01*
X2836Y65320D01*
X2898Y65313D01*
X2967Y65310D01*
X3042Y65307D01*
X3045D01*
X3052D01*
X3062D01*
X3078D01*
X3098D01*
X3118Y65310D01*
X3170Y65313D01*
X3229Y65316D01*
X3288Y65326D01*
X3350Y65336D01*
X3406Y65349D01*
X3413Y65352D01*
X3429Y65356D01*
X3455Y65366D01*
X3492Y65379D01*
X3528Y65395D01*
X3570Y65415D01*
X3610Y65438D01*
X3649Y65464D01*
X3652Y65467D01*
X3665Y65477D01*
X3682Y65494D01*
X3705Y65517D01*
X3728Y65543D01*
X3751Y65572D01*
X3770Y65602D01*
X3790Y65638D01*
Y65641D01*
X3796Y65654D01*
X3803Y65674D01*
X3810Y65700D01*
X3816Y65730D01*
X3823Y65763D01*
X3826Y65802D01*
X3829Y65838D01*
Y65858D01*
X3826Y65877D01*
X3823Y65904D01*
X3819Y65933D01*
X3810Y65969D01*
X3800Y66005D01*
X3787Y66041D01*
X3783Y66045D01*
X3777Y66058D01*
X3767Y66077D01*
X3751Y66100D01*
X3731Y66127D01*
X3708Y66156D01*
X3678Y66182D01*
X3646Y66212D01*
X3642Y66215D01*
X3626Y66225D01*
X3606Y66238D01*
X3577Y66255D01*
X3541Y66274D01*
X3498Y66294D01*
X3452Y66314D01*
X3403Y66330D01*
X3396Y66333D01*
X3377Y66337D01*
X3347Y66343D01*
X3305Y66353D01*
X3255Y66360D01*
X3193Y66366D01*
X3121Y66369D01*
X3042Y66373D01*
D02*
G37*
G36*
X3185Y77210D02*
X3182D01*
X3175D01*
X3165D01*
X3149D01*
X3133D01*
X3109Y77207D01*
X3060Y77203D01*
X3005Y77200D01*
X2942Y77190D01*
X2883Y77180D01*
X2824Y77164D01*
X2821D01*
X2818Y77161D01*
X2798Y77157D01*
X2772Y77148D01*
X2736Y77135D01*
X2696Y77118D01*
X2657Y77099D01*
X2617Y77075D01*
X2578Y77049D01*
X2575Y77046D01*
X2562Y77036D01*
X2545Y77020D01*
X2522Y76997D01*
X2499Y76974D01*
X2476Y76944D01*
X2457Y76911D01*
X2437Y76875D01*
X2434Y76872D01*
X2431Y76859D01*
X2424Y76839D01*
X2414Y76816D01*
X2408Y76784D01*
X2401Y76751D01*
X2398Y76715D01*
X2395Y76675D01*
Y76656D01*
X2398Y76636D01*
Y76610D01*
X2404Y76580D01*
X2411Y76547D01*
X2421Y76511D01*
X2434Y76478D01*
X2437Y76475D01*
X2440Y76462D01*
X2450Y76446D01*
X2467Y76423D01*
X2486Y76397D01*
X2509Y76367D01*
X2539Y76337D01*
X2575Y76305D01*
X2578Y76301D01*
X2591Y76292D01*
X2611Y76278D01*
X2640Y76262D01*
X2677Y76246D01*
X2716Y76226D01*
X2765Y76206D01*
X2821Y76187D01*
X2824D01*
X2827Y76183D01*
X2837D01*
X2847Y76180D01*
X2880Y76174D01*
X2923Y76167D01*
X2978Y76157D01*
X3041Y76151D01*
X3109Y76147D01*
X3185Y76144D01*
X3188D01*
X3195D01*
X3205D01*
X3221D01*
X3241D01*
X3260Y76147D01*
X3313Y76151D01*
X3372Y76154D01*
X3431Y76164D01*
X3493Y76174D01*
X3549Y76187D01*
X3556Y76190D01*
X3572Y76193D01*
X3598Y76203D01*
X3634Y76216D01*
X3670Y76232D01*
X3713Y76252D01*
X3752Y76275D01*
X3792Y76301D01*
X3795Y76305D01*
X3808Y76315D01*
X3825Y76331D01*
X3847Y76354D01*
X3870Y76380D01*
X3893Y76410D01*
X3913Y76439D01*
X3933Y76475D01*
Y76478D01*
X3939Y76492D01*
X3946Y76511D01*
X3952Y76538D01*
X3959Y76567D01*
X3966Y76600D01*
X3969Y76639D01*
X3972Y76675D01*
Y76695D01*
X3969Y76715D01*
X3966Y76741D01*
X3962Y76771D01*
X3952Y76806D01*
X3943Y76843D01*
X3929Y76879D01*
X3926Y76882D01*
X3920Y76895D01*
X3910Y76915D01*
X3893Y76938D01*
X3874Y76964D01*
X3851Y76994D01*
X3821Y77020D01*
X3788Y77049D01*
X3785Y77052D01*
X3769Y77062D01*
X3749Y77075D01*
X3720Y77092D01*
X3683Y77112D01*
X3641Y77131D01*
X3595Y77151D01*
X3546Y77167D01*
X3539Y77171D01*
X3520Y77174D01*
X3490Y77180D01*
X3447Y77190D01*
X3398Y77197D01*
X3336Y77203D01*
X3264Y77207D01*
X3185Y77210D01*
D02*
G37*
G36*
X3249Y89691D02*
X2442D01*
X3249Y89091D01*
Y89691D01*
D02*
G37*
G36*
X3042Y85782D02*
X3039D01*
X3032D01*
X3022D01*
X3006D01*
X2990D01*
X2967Y85778D01*
X2918Y85775D01*
X2862Y85772D01*
X2799Y85762D01*
X2740Y85752D01*
X2681Y85736D01*
X2678D01*
X2675Y85732D01*
X2655Y85729D01*
X2629Y85719D01*
X2593Y85706D01*
X2553Y85690D01*
X2514Y85670D01*
X2475Y85647D01*
X2435Y85621D01*
X2432Y85618D01*
X2419Y85608D01*
X2403Y85591D01*
X2379Y85568D01*
X2357Y85545D01*
X2334Y85516D01*
X2314Y85483D01*
X2294Y85447D01*
X2291Y85444D01*
X2288Y85431D01*
X2281Y85411D01*
X2271Y85388D01*
X2265Y85355D01*
X2258Y85322D01*
X2255Y85286D01*
X2252Y85247D01*
Y85227D01*
X2255Y85208D01*
Y85181D01*
X2262Y85152D01*
X2268Y85119D01*
X2278Y85083D01*
X2291Y85050D01*
X2294Y85047D01*
X2297Y85034D01*
X2307Y85017D01*
X2324Y84994D01*
X2344Y84968D01*
X2366Y84939D01*
X2396Y84909D01*
X2432Y84876D01*
X2435Y84873D01*
X2448Y84863D01*
X2468Y84850D01*
X2498Y84834D01*
X2534Y84817D01*
X2573Y84798D01*
X2622Y84778D01*
X2678Y84758D01*
X2681D01*
X2685Y84755D01*
X2694D01*
X2704Y84752D01*
X2737Y84745D01*
X2780Y84739D01*
X2836Y84729D01*
X2898Y84722D01*
X2967Y84719D01*
X3042Y84716D01*
X3045D01*
X3052D01*
X3062D01*
X3078D01*
X3098D01*
X3118Y84719D01*
X3170Y84722D01*
X3229Y84725D01*
X3288Y84735D01*
X3350Y84745D01*
X3406Y84758D01*
X3413Y84762D01*
X3429Y84765D01*
X3455Y84775D01*
X3492Y84788D01*
X3528Y84804D01*
X3570Y84824D01*
X3610Y84847D01*
X3649Y84873D01*
X3652Y84876D01*
X3665Y84886D01*
X3682Y84903D01*
X3705Y84926D01*
X3728Y84952D01*
X3751Y84981D01*
X3770Y85011D01*
X3790Y85047D01*
Y85050D01*
X3796Y85063D01*
X3803Y85083D01*
X3810Y85109D01*
X3816Y85139D01*
X3823Y85172D01*
X3826Y85211D01*
X3829Y85247D01*
Y85267D01*
X3826Y85286D01*
X3823Y85313D01*
X3819Y85342D01*
X3810Y85378D01*
X3800Y85414D01*
X3787Y85450D01*
X3783Y85454D01*
X3777Y85467D01*
X3767Y85486D01*
X3751Y85509D01*
X3731Y85536D01*
X3708Y85565D01*
X3678Y85591D01*
X3646Y85621D01*
X3642Y85624D01*
X3626Y85634D01*
X3606Y85647D01*
X3577Y85664D01*
X3541Y85683D01*
X3498Y85703D01*
X3452Y85723D01*
X3403Y85739D01*
X3396Y85742D01*
X3377Y85746D01*
X3347Y85752D01*
X3305Y85762D01*
X3255Y85769D01*
X3193Y85775D01*
X3121Y85778D01*
X3042Y85782D01*
D02*
G37*
G36*
Y95898D02*
X3039D01*
X3032D01*
X3022D01*
X3006D01*
X2990D01*
X2967Y95894D01*
X2918Y95891D01*
X2862Y95888D01*
X2799Y95878D01*
X2740Y95868D01*
X2681Y95852D01*
X2678D01*
X2675Y95848D01*
X2655Y95845D01*
X2629Y95835D01*
X2593Y95822D01*
X2553Y95806D01*
X2514Y95786D01*
X2475Y95763D01*
X2435Y95737D01*
X2432Y95733D01*
X2419Y95724D01*
X2403Y95707D01*
X2379Y95684D01*
X2357Y95661D01*
X2334Y95632D01*
X2314Y95599D01*
X2294Y95563D01*
X2291Y95560D01*
X2288Y95547D01*
X2281Y95527D01*
X2271Y95504D01*
X2265Y95471D01*
X2258Y95438D01*
X2255Y95402D01*
X2252Y95363D01*
Y95343D01*
X2255Y95323D01*
Y95297D01*
X2262Y95268D01*
X2268Y95235D01*
X2278Y95199D01*
X2291Y95166D01*
X2294Y95163D01*
X2297Y95150D01*
X2307Y95133D01*
X2324Y95110D01*
X2344Y95084D01*
X2366Y95055D01*
X2396Y95025D01*
X2432Y94992D01*
X2435Y94989D01*
X2448Y94979D01*
X2468Y94966D01*
X2498Y94950D01*
X2534Y94933D01*
X2573Y94914D01*
X2622Y94894D01*
X2678Y94874D01*
X2681D01*
X2685Y94871D01*
X2694D01*
X2704Y94868D01*
X2737Y94861D01*
X2780Y94854D01*
X2836Y94845D01*
X2898Y94838D01*
X2967Y94835D01*
X3042Y94832D01*
X3045D01*
X3052D01*
X3062D01*
X3078D01*
X3098D01*
X3118Y94835D01*
X3170Y94838D01*
X3229Y94841D01*
X3288Y94851D01*
X3350Y94861D01*
X3406Y94874D01*
X3413Y94877D01*
X3429Y94881D01*
X3455Y94890D01*
X3492Y94904D01*
X3528Y94920D01*
X3570Y94940D01*
X3610Y94963D01*
X3649Y94989D01*
X3652Y94992D01*
X3665Y95002D01*
X3682Y95019D01*
X3705Y95041D01*
X3728Y95068D01*
X3751Y95097D01*
X3770Y95127D01*
X3790Y95163D01*
Y95166D01*
X3796Y95179D01*
X3803Y95199D01*
X3810Y95225D01*
X3816Y95255D01*
X3823Y95287D01*
X3826Y95327D01*
X3829Y95363D01*
Y95383D01*
X3826Y95402D01*
X3823Y95429D01*
X3819Y95458D01*
X3810Y95494D01*
X3800Y95530D01*
X3787Y95566D01*
X3783Y95569D01*
X3777Y95583D01*
X3767Y95602D01*
X3751Y95625D01*
X3731Y95652D01*
X3708Y95681D01*
X3678Y95707D01*
X3646Y95737D01*
X3642Y95740D01*
X3626Y95750D01*
X3606Y95763D01*
X3577Y95779D01*
X3541Y95799D01*
X3498Y95819D01*
X3452Y95838D01*
X3403Y95855D01*
X3396Y95858D01*
X3377Y95861D01*
X3347Y95868D01*
X3305Y95878D01*
X3255Y95884D01*
X3193Y95891D01*
X3121Y95894D01*
X3042Y95898D01*
D02*
G37*
G36*
X3042Y105838D02*
X3039D01*
X3032D01*
X3022D01*
X3006D01*
X2990D01*
X2967Y105835D01*
X2918Y105832D01*
X2862Y105829D01*
X2799Y105819D01*
X2740Y105809D01*
X2681Y105792D01*
X2678D01*
X2675Y105789D01*
X2655Y105786D01*
X2629Y105776D01*
X2593Y105763D01*
X2553Y105747D01*
X2514Y105727D01*
X2475Y105704D01*
X2435Y105678D01*
X2432Y105675D01*
X2419Y105665D01*
X2403Y105648D01*
X2380Y105625D01*
X2357Y105602D01*
X2334Y105573D01*
X2314Y105540D01*
X2294Y105504D01*
X2291Y105501D01*
X2288Y105488D01*
X2281Y105468D01*
X2271Y105445D01*
X2265Y105412D01*
X2258Y105379D01*
X2255Y105343D01*
X2252Y105304D01*
Y105284D01*
X2255Y105264D01*
Y105238D01*
X2262Y105209D01*
X2268Y105176D01*
X2278Y105140D01*
X2291Y105107D01*
X2294Y105104D01*
X2298Y105091D01*
X2307Y105074D01*
X2324Y105051D01*
X2344Y105025D01*
X2366Y104996D01*
X2396Y104966D01*
X2432Y104933D01*
X2435Y104930D01*
X2448Y104920D01*
X2468Y104907D01*
X2498Y104891D01*
X2534Y104874D01*
X2573Y104854D01*
X2622Y104835D01*
X2678Y104815D01*
X2681D01*
X2685Y104812D01*
X2694D01*
X2704Y104808D01*
X2737Y104802D01*
X2780Y104795D01*
X2836Y104786D01*
X2898Y104779D01*
X2967Y104776D01*
X3042Y104772D01*
X3045D01*
X3052D01*
X3062D01*
X3078D01*
X3098D01*
X3118Y104776D01*
X3170Y104779D01*
X3229Y104782D01*
X3288Y104792D01*
X3350Y104802D01*
X3406Y104815D01*
X3413Y104818D01*
X3429Y104822D01*
X3455Y104832D01*
X3492Y104845D01*
X3528Y104861D01*
X3570Y104881D01*
X3610Y104904D01*
X3649Y104930D01*
X3652Y104933D01*
X3665Y104943D01*
X3682Y104959D01*
X3705Y104982D01*
X3728Y105009D01*
X3751Y105038D01*
X3770Y105068D01*
X3790Y105104D01*
Y105107D01*
X3796Y105120D01*
X3803Y105140D01*
X3810Y105166D01*
X3816Y105196D01*
X3823Y105228D01*
X3826Y105268D01*
X3829Y105304D01*
Y105324D01*
X3826Y105343D01*
X3823Y105369D01*
X3819Y105399D01*
X3810Y105435D01*
X3800Y105471D01*
X3787Y105507D01*
X3783Y105510D01*
X3777Y105524D01*
X3767Y105543D01*
X3751Y105566D01*
X3731Y105593D01*
X3708Y105622D01*
X3678Y105648D01*
X3646Y105678D01*
X3642Y105681D01*
X3626Y105691D01*
X3606Y105704D01*
X3577Y105720D01*
X3541Y105740D01*
X3498Y105760D01*
X3452Y105779D01*
X3403Y105796D01*
X3396Y105799D01*
X3377Y105802D01*
X3347Y105809D01*
X3305Y105819D01*
X3255Y105825D01*
X3193Y105832D01*
X3121Y105835D01*
X3042Y105838D01*
D02*
G37*
G36*
X3042Y116614D02*
X3039D01*
X3032D01*
X3022D01*
X3006D01*
X2990D01*
X2967Y116611D01*
X2917Y116607D01*
X2862Y116604D01*
X2799Y116594D01*
X2740Y116585D01*
X2681Y116568D01*
X2678D01*
X2675Y116565D01*
X2655Y116562D01*
X2629Y116552D01*
X2593Y116539D01*
X2553Y116522D01*
X2514Y116503D01*
X2475Y116480D01*
X2435Y116453D01*
X2432Y116450D01*
X2419Y116440D01*
X2403Y116424D01*
X2379Y116401D01*
X2357Y116378D01*
X2334Y116348D01*
X2314Y116316D01*
X2294Y116279D01*
X2291Y116276D01*
X2288Y116263D01*
X2281Y116243D01*
X2271Y116220D01*
X2265Y116188D01*
X2258Y116155D01*
X2255Y116119D01*
X2252Y116079D01*
Y116060D01*
X2255Y116040D01*
Y116014D01*
X2261Y115984D01*
X2268Y115952D01*
X2278Y115915D01*
X2291Y115883D01*
X2294Y115879D01*
X2297Y115866D01*
X2307Y115850D01*
X2324Y115827D01*
X2343Y115801D01*
X2366Y115771D01*
X2396Y115742D01*
X2432Y115709D01*
X2435Y115706D01*
X2448Y115696D01*
X2468Y115683D01*
X2498Y115666D01*
X2534Y115650D01*
X2573Y115630D01*
X2622Y115610D01*
X2678Y115591D01*
X2681D01*
X2685Y115587D01*
X2694D01*
X2704Y115584D01*
X2737Y115578D01*
X2780Y115571D01*
X2836Y115561D01*
X2898Y115555D01*
X2967Y115551D01*
X3042Y115548D01*
X3045D01*
X3052D01*
X3062D01*
X3078D01*
X3098D01*
X3118Y115551D01*
X3170Y115555D01*
X3229Y115558D01*
X3288Y115568D01*
X3350Y115578D01*
X3406Y115591D01*
X3413Y115594D01*
X3429Y115597D01*
X3455Y115607D01*
X3491Y115620D01*
X3528Y115637D01*
X3570Y115656D01*
X3610Y115679D01*
X3649Y115706D01*
X3652Y115709D01*
X3665Y115719D01*
X3682Y115735D01*
X3705Y115758D01*
X3728Y115784D01*
X3751Y115814D01*
X3770Y115843D01*
X3790Y115879D01*
Y115883D01*
X3796Y115896D01*
X3803Y115915D01*
X3810Y115942D01*
X3816Y115971D01*
X3823Y116004D01*
X3826Y116043D01*
X3829Y116079D01*
Y116099D01*
X3826Y116119D01*
X3823Y116145D01*
X3819Y116175D01*
X3810Y116211D01*
X3800Y116247D01*
X3787Y116283D01*
X3783Y116286D01*
X3777Y116299D01*
X3767Y116319D01*
X3751Y116342D01*
X3731Y116368D01*
X3708Y116398D01*
X3678Y116424D01*
X3646Y116453D01*
X3642Y116457D01*
X3626Y116466D01*
X3606Y116480D01*
X3577Y116496D01*
X3541Y116516D01*
X3498Y116535D01*
X3452Y116555D01*
X3403Y116571D01*
X3396Y116575D01*
X3377Y116578D01*
X3347Y116585D01*
X3305Y116594D01*
X3255Y116601D01*
X3193Y116607D01*
X3121Y116611D01*
X3042Y116614D01*
D02*
G37*
G36*
X3039Y129880D02*
X3036D01*
X3029D01*
X3016D01*
X2999D01*
X2980Y129876D01*
X2957D01*
X2901Y129870D01*
X2839Y129860D01*
X2773Y129843D01*
X2704Y129824D01*
X2639Y129798D01*
X2635D01*
X2632Y129794D01*
X2612Y129781D01*
X2580Y129765D01*
X2544Y129739D01*
X2501Y129702D01*
X2458Y129660D01*
X2416Y129611D01*
X2379Y129552D01*
X2376Y129545D01*
X2370Y129532D01*
X2357Y129506D01*
X2344Y129476D01*
X2330Y129437D01*
X2317Y129394D01*
X2311Y129348D01*
X2304Y129299D01*
Y129276D01*
X2301Y129247D01*
Y129165D01*
X2297Y129112D01*
Y128974D01*
X3780D01*
Y129102D01*
X3777Y129155D01*
Y129266D01*
X3774Y129319D01*
Y129325D01*
X3770Y129342D01*
X3767Y129368D01*
X3760Y129404D01*
X3751Y129443D01*
X3734Y129489D01*
X3714Y129535D01*
X3688Y129581D01*
Y129584D01*
X3685Y129588D01*
X3672Y129604D01*
X3652Y129630D01*
X3623Y129663D01*
X3587Y129699D01*
X3544Y129735D01*
X3492Y129771D01*
X3436Y129801D01*
X3432D01*
X3429Y129804D01*
X3419Y129807D01*
X3406Y129814D01*
X3390Y129821D01*
X3370Y129827D01*
X3324Y129840D01*
X3265Y129853D01*
X3199Y129867D01*
X3124Y129876D01*
X3039Y129880D01*
D02*
G37*
G36*
X69945Y7139D02*
X69205Y4758D01*
X70685D01*
X69945Y7139D01*
D02*
G37*
G36*
X39555Y7848D02*
X39035D01*
Y5678D01*
X39775D01*
X39905Y5689D01*
X40035Y5708D01*
X40045D01*
X40055Y5719D01*
X40085D01*
X40125Y5728D01*
X40225Y5768D01*
X40335Y5808D01*
X40345D01*
X40365Y5818D01*
X40435Y5858D01*
X40515Y5909D01*
X40585Y5968D01*
X40595Y5979D01*
X40615Y5999D01*
X40645Y6038D01*
X40685Y6078D01*
X40765Y6199D01*
X40805Y6268D01*
X40835Y6339D01*
Y6348D01*
X40845Y6379D01*
X40855Y6419D01*
X40875Y6479D01*
X40885Y6559D01*
X40895Y6649D01*
X40905Y6748D01*
Y6869D01*
Y6878D01*
Y6919D01*
X40895Y6978D01*
X40885Y7049D01*
X40865Y7129D01*
X40845Y7219D01*
X40805Y7299D01*
X40755Y7389D01*
X40745Y7399D01*
X40735Y7429D01*
X40695Y7468D01*
X40655Y7519D01*
X40545Y7619D01*
X40485Y7659D01*
X40405Y7699D01*
X40395Y7709D01*
X40365Y7718D01*
X40315Y7739D01*
X40255Y7758D01*
X40175Y7779D01*
X40095Y7799D01*
X39915Y7829D01*
X39875D01*
X39825Y7839D01*
X39665D01*
X39555Y7848D01*
D02*
G37*
%LPD*%
D10*
X41319Y25394D02*
X40581Y25820D01*
Y24968D01*
X41319Y25394D01*
X92028Y47638D02*
X91289Y48064D01*
Y47212D01*
X92028Y47638D01*
X75039Y25394D02*
X74301Y25820D01*
Y24968D01*
X75039Y25394D01*
D11*
X75315Y140748D02*
X75129Y141744D01*
X74596Y142605D01*
X73787Y143215D01*
X72813Y143492D01*
X71805Y143399D01*
X70898Y142947D01*
X70216Y142199D01*
X69850Y141254D01*
Y140242D01*
X70216Y139297D01*
X70898Y138549D01*
X71805Y138097D01*
X72813Y138004D01*
X73787Y138281D01*
X74596Y138891D01*
X75129Y139752D01*
X75315Y140748D01*
X43898D02*
X43712Y141744D01*
X43178Y142605D01*
X42370Y143215D01*
X41396Y143492D01*
X40387Y143399D01*
X39481Y142947D01*
X38799Y142199D01*
X38433Y141254D01*
Y140242D01*
X38799Y139297D01*
X39481Y138549D01*
X40387Y138097D01*
X41396Y138004D01*
X42370Y138281D01*
X43178Y138891D01*
X43712Y139752D01*
X43898Y140748D01*
X36753Y155786D02*
X35967Y156312D01*
X35039Y156496D01*
X36753Y155786D02*
X37587Y155074D01*
X38521Y154501D01*
X39534Y154082D01*
X40600Y153826D01*
X41693Y153740D01*
X33406Y26575D02*
X37343D01*
X33406D02*
Y29724D01*
Y38386D02*
X37343D01*
X33406Y35236D02*
Y38386D01*
X24114Y156496D02*
X35039D01*
X30315Y99409D02*
Y105315D01*
Y99409D02*
X42126D01*
X82185Y105622D02*
Y133661D01*
Y144685D02*
Y153740D01*
X41693D02*
X82185D01*
X24114Y144291D02*
Y156496D01*
Y105315D02*
Y134055D01*
Y105315D02*
X30315D01*
X97638Y51968D02*
X100000D01*
X93110Y53740D02*
Y57480D01*
X96063D01*
X101575D02*
X104528D01*
Y53740D02*
Y57480D01*
X94685Y34843D02*
X104921D01*
X94685D02*
Y35630D01*
X93898D02*
X94685D01*
X93898Y34843D02*
Y35630D01*
Y34843D02*
X94291D01*
X94685D01*
X104921D02*
Y35630D01*
X94685Y47835D02*
X104921D01*
X94685Y47047D02*
Y47835D01*
X93898Y47047D02*
X94685D01*
X93898D02*
Y47835D01*
X94291D01*
X94685D01*
X104921Y47047D02*
Y47835D01*
X85039Y62992D02*
Y68504D01*
Y47638D02*
Y51575D01*
X77953Y47638D02*
X85039D01*
X21260D02*
X28346D01*
X21260D02*
Y51575D01*
Y68504D02*
X85039D01*
X21260Y62992D02*
Y68504D01*
X67126Y26575D02*
X71063D01*
X67126D02*
Y29724D01*
Y38386D02*
X71063D01*
X67126Y35236D02*
Y38386D01*
D12*
X40826Y97362D02*
X40118Y97771D01*
Y96953D01*
X40826Y97362D01*
D13*
X28419Y41761D02*
X27632D01*
X28419D01*
D14*
X53622Y17716D02*
X53462Y18675D01*
X53000Y19530D01*
X52284Y20188D01*
X51394Y20579D01*
X50425Y20659D01*
X49483Y20420D01*
X48669Y19889D01*
X48072Y19122D01*
X47757Y18202D01*
Y17230D01*
X48072Y16311D01*
X48669Y15544D01*
X49483Y15012D01*
X50425Y14774D01*
X51394Y14854D01*
X52284Y15244D01*
X53000Y15903D01*
X53462Y16758D01*
X53622Y17716D01*
X68169Y17716D02*
X68009Y18675D01*
X67546Y19530D01*
X66831Y20188D01*
X65941Y20579D01*
X64973Y20659D01*
X64030Y20420D01*
X63217Y19889D01*
X62620Y19122D01*
X62304Y18202D01*
Y17230D01*
X62620Y16311D01*
X63217Y15544D01*
X64030Y15012D01*
X64973Y14774D01*
X65941Y14854D01*
X66831Y15244D01*
X67546Y15903D01*
X68009Y16758D01*
X68169Y17716D01*
X34449Y17717D02*
X34289Y18675D01*
X33826Y19530D01*
X33111Y20188D01*
X32221Y20579D01*
X31252Y20659D01*
X30310Y20421D01*
X29496Y19889D01*
X28899Y19122D01*
X28583Y18203D01*
Y17230D01*
X28899Y16311D01*
X29496Y15544D01*
X30310Y15012D01*
X31252Y14774D01*
X32221Y14854D01*
X33111Y15245D01*
X33826Y15903D01*
X34289Y16758D01*
X34449Y17717D01*
D15*
X12598Y32480D02*
X19685D01*
X12598Y39173D02*
X14173D01*
X12598Y25787D02*
Y39173D01*
Y25787D02*
X14173D01*
X18110D02*
X19685D01*
Y39173D01*
X18110D02*
X19685D01*
X78740Y32480D02*
X85827D01*
X84252Y25787D02*
X85827D01*
Y39173D01*
X84252D02*
X85827D01*
X78740D02*
X80315D01*
X78740Y25787D02*
Y39173D01*
Y25787D02*
X80315D01*
X4134Y32480D02*
X11220D01*
X9646Y25787D02*
X11220D01*
Y39173D01*
X9646D02*
X11220D01*
X4134D02*
X5709D01*
X4134Y25787D02*
Y39173D01*
Y25787D02*
X5709D01*
X93366Y25788D02*
Y32874D01*
X100059Y31299D02*
Y32874D01*
X86673D02*
X100059D01*
X86673Y31299D02*
Y32874D01*
Y25788D02*
Y27362D01*
Y25788D02*
X100059D01*
Y27362D01*
X54429Y32068D02*
X61516D01*
X54429Y38761D02*
X56004D01*
X54429Y25375D02*
Y38761D01*
Y25375D02*
X56004D01*
X59941D02*
X61516D01*
Y38761D01*
X59941D02*
X61516D01*
X46004Y32068D02*
X53091D01*
X46004Y38761D02*
X47579D01*
X46004Y25375D02*
Y38761D01*
Y25375D02*
X47579D01*
X51516D02*
X53091D01*
Y38761D01*
X51516D02*
X53091D01*
X21063Y32480D02*
X28150D01*
X21063Y39173D02*
X22638D01*
X21063Y25787D02*
Y39173D01*
Y25787D02*
X22638D01*
X26575D02*
X28150D01*
Y39173D01*
X26575D02*
X28150D01*
X14302Y85040D02*
X19814D01*
X14302Y80040D02*
X15058D01*
X14302D02*
Y90040D01*
X15058D01*
X19058D02*
X19814D01*
Y80040D02*
Y90040D01*
X19058Y80040D02*
X19814D01*
X28740Y85039D02*
X34252D01*
X28740Y80039D02*
X29496D01*
X28740D02*
Y90039D01*
X29496D01*
X33496D02*
X34252D01*
Y80039D02*
Y90039D01*
X33496Y80039D02*
X34252D01*
X21850Y85039D02*
X27362D01*
X21850Y80039D02*
X22606D01*
X21850D02*
Y90039D01*
X22606D01*
X26606D02*
X27362D01*
Y80039D02*
Y90039D01*
X26606Y80039D02*
X27362D01*
X87484Y82251D02*
X92995D01*
X92239Y87251D02*
X92995D01*
Y77251D02*
Y87251D01*
X92239Y77251D02*
X92995D01*
X87484D02*
X88240D01*
X87484D02*
Y87251D01*
X88240D01*
X85827Y40551D02*
Y46063D01*
X80827Y45307D02*
Y46063D01*
X90827D01*
Y45307D02*
Y46063D01*
Y40551D02*
Y41307D01*
X80827Y40551D02*
X90827D01*
X80827D02*
Y41307D01*
X11166Y54587D02*
X16678D01*
X15922Y59587D02*
X16678D01*
Y49587D02*
Y59587D01*
X15922Y49587D02*
X16678D01*
X11166D02*
X11922D01*
X11166D02*
Y59587D01*
X11922D01*
X53937Y85039D02*
X59449D01*
X53937Y80039D02*
X54693D01*
X53937D02*
Y90039D01*
X54693D01*
X58693D02*
X59449D01*
Y80039D02*
Y90039D01*
X58693Y80039D02*
X59449D01*
X62500Y85039D02*
X68012D01*
X62500Y80039D02*
X63256D01*
X62500D02*
Y90039D01*
X63256D01*
X67256D02*
X68012D01*
Y80039D02*
Y90039D01*
X67256Y80039D02*
X68012D01*
X69295Y85039D02*
X74807D01*
X69295Y80039D02*
X70051D01*
X69295D02*
Y90039D01*
X70051D01*
X74051D02*
X74807D01*
Y80039D02*
Y90039D01*
X74051Y80039D02*
X74807D01*
X40551Y85039D02*
X46063D01*
X40551Y80039D02*
X41307D01*
X40551D02*
Y90039D01*
X41307D01*
X45307D02*
X46063D01*
Y80039D02*
Y90039D01*
X45307Y80039D02*
X46063D01*
X47146Y85039D02*
X52658D01*
X47146Y80039D02*
X47902D01*
X47146D02*
Y90039D01*
X47902D01*
X51902D02*
X52658D01*
Y80039D02*
Y90039D01*
X51902Y80039D02*
X52658D01*
M02*
