G04*
G04 #@! TF.GenerationSoftware,Altium Limited,Altium Designer,19.1.8 (144)*
G04*
G04 Layer_Color=0*
%FSLAX25Y25*%
%MOIN*%
G70*
G01*
G75*
%ADD14C,0.00394*%
%ADD70C,0.00600*%
%ADD75C,0.00197*%
G36*
X14179Y153993D02*
X10629D01*
Y143566D01*
X14179D01*
Y140779D01*
X29979D01*
Y143566D01*
X33529D01*
Y153993D01*
X29979D01*
Y156780D01*
X14179D01*
Y153993D01*
D02*
G37*
D14*
X34449Y115748D02*
Y119488D01*
X32579Y117618D02*
X36319D01*
X17126Y102402D02*
X87138D01*
Y2008D02*
Y102402D01*
X17126Y2008D02*
X87138D01*
X17126D02*
Y102402D01*
X65079Y144528D02*
Y148465D01*
X63110Y146496D02*
X67047D01*
X20669Y125394D02*
Y129331D01*
X18701Y127362D02*
X22638D01*
X56417Y121299D02*
X60354D01*
X58386Y119331D02*
Y123268D01*
X8858Y31693D02*
Y35630D01*
X6890Y33661D02*
X10827D01*
X39567Y149606D02*
X43504D01*
X41535Y147638D02*
Y151575D01*
X85630Y125394D02*
Y129331D01*
X83661Y127362D02*
X87598D01*
X84646Y148425D02*
X88583D01*
X86614Y146457D02*
Y150394D01*
X21260Y111024D02*
X25197D01*
X23228Y109055D02*
Y112992D01*
X34449Y129134D02*
Y133071D01*
X32480Y131102D02*
X36417D01*
X83822Y112987D02*
X87562D01*
X85692Y111117D02*
Y114857D01*
X6457Y147185D02*
Y150925D01*
X4587Y149055D02*
X8327D01*
X51476Y135827D02*
X55217D01*
X53346Y133957D02*
Y137697D01*
X62894Y135827D02*
X66634D01*
X64764Y133957D02*
Y137697D01*
D70*
X14179Y156780D02*
X29979D01*
Y153993D02*
Y156780D01*
Y140780D02*
Y143566D01*
X14179Y140780D02*
X29979D01*
X14179D02*
Y143566D01*
Y153993D02*
Y156780D01*
X10629Y153993D02*
X14179D01*
X29979D02*
X33529D01*
Y143566D02*
Y153993D01*
X29979Y143566D02*
X33529D01*
X10629D02*
X14179D01*
X10629D02*
Y153993D01*
D75*
X31496Y112303D02*
X37402D01*
X31496Y122933D02*
X37402D01*
Y112303D02*
Y122933D01*
X31496Y112303D02*
Y122933D01*
X58386Y153189D02*
X71772D01*
X58386Y139803D02*
X71772D01*
X58386D02*
Y153189D01*
X71772Y139803D02*
Y153189D01*
X13976Y137638D02*
X27362D01*
X13976Y117087D02*
X27362D01*
X13976D02*
Y137638D01*
X27362Y117087D02*
Y137638D01*
X74921Y110669D02*
Y131929D01*
X41850Y110669D02*
Y131929D01*
X74921D01*
X41850Y110669D02*
X74921D01*
X5118Y40354D02*
X12598D01*
X5118Y26968D02*
X12598D01*
X5118D02*
Y40354D01*
X12598Y26968D02*
Y40354D01*
X48228Y145866D02*
Y153346D01*
X34843Y145866D02*
Y153346D01*
X48228D01*
X34843Y145866D02*
X48228D01*
X78937Y137638D02*
X92323D01*
X78937Y117087D02*
X92323D01*
X78937D02*
Y137638D01*
X92323Y117087D02*
Y137638D01*
X93307Y144685D02*
Y152165D01*
X79921Y144685D02*
Y152165D01*
X93307D01*
X79921Y144685D02*
X93307D01*
X16535Y107283D02*
Y114764D01*
X29921Y107283D02*
Y114764D01*
X16535Y107283D02*
X29921D01*
X16535Y114764D02*
X29921D01*
X30709Y137795D02*
X38189D01*
X30709Y124409D02*
X38189D01*
X30709D02*
Y137795D01*
X38189Y124409D02*
Y137795D01*
X80377Y110034D02*
Y115939D01*
X91007Y110034D02*
Y115939D01*
X80377Y110034D02*
X91007D01*
X80377Y115939D02*
X91007D01*
X3504Y154370D02*
X9409D01*
X3504Y143740D02*
X9409D01*
X3504D02*
Y154370D01*
X9409Y143740D02*
Y154370D01*
X48032Y132874D02*
Y138780D01*
X58661Y132874D02*
Y138780D01*
X48032Y132874D02*
X58661D01*
X48032Y138780D02*
X58661D01*
X70079Y132874D02*
Y138780D01*
X59449Y132874D02*
Y138780D01*
X70079D01*
X59449Y132874D02*
X70079D01*
M02*
