G04*
G04 #@! TF.GenerationSoftware,Altium Limited,Altium Designer,19.1.8 (144)*
G04*
G04 Layer_Color=65535*
%FSLAX25Y25*%
%MOIN*%
G70*
G01*
G75*
%ADD11C,0.00787*%
%ADD14C,0.00394*%
%ADD15C,0.00591*%
%ADD70C,0.00600*%
G36*
X19171Y139153D02*
X14841D01*
Y137972D01*
X19171D01*
Y139153D01*
D02*
G37*
G36*
X22244Y139173D02*
X26575D01*
Y137992D01*
X22244D01*
Y139173D01*
D02*
G37*
G36*
X63886Y130799D02*
X60386D01*
Y130455D01*
X60520Y129778D01*
X60784Y129141D01*
X61167Y128568D01*
X61655Y128081D01*
X62228Y127698D01*
X62865Y127434D01*
X63541Y127299D01*
X63886D01*
D01*
Y130799D01*
D02*
G37*
G36*
X84132Y139153D02*
X79801D01*
Y137972D01*
X84132D01*
Y139153D01*
D02*
G37*
G36*
X87205Y139173D02*
X91535D01*
Y137992D01*
X87205D01*
Y139173D01*
D02*
G37*
G36*
X10465Y12795D02*
X9515D01*
X8270Y16410D01*
X9185D01*
X9975Y13950D01*
X10765Y16410D01*
X11705D01*
X10465Y12795D01*
D02*
G37*
G36*
X6530Y16480D02*
X6670Y16465D01*
X6800Y16440D01*
X6925Y16405D01*
X7040Y16365D01*
X7145Y16320D01*
X7240Y16275D01*
X7330Y16230D01*
X7405Y16180D01*
X7475Y16135D01*
X7535Y16090D01*
X7580Y16050D01*
X7620Y16020D01*
X7650Y15990D01*
X7665Y15975D01*
X7670Y15970D01*
X7755Y15870D01*
X7825Y15765D01*
X7890Y15655D01*
X7945Y15540D01*
X7990Y15425D01*
X8030Y15315D01*
X8060Y15200D01*
X8085Y15095D01*
X8105Y14995D01*
X8120Y14900D01*
X8130Y14815D01*
X8135Y14745D01*
X8140Y14685D01*
X8145Y14640D01*
Y14610D01*
Y14605D01*
Y14600D01*
X8140Y14435D01*
X8125Y14285D01*
X8100Y14140D01*
X8070Y14005D01*
X8035Y13880D01*
X7995Y13770D01*
X7950Y13665D01*
X7905Y13570D01*
X7865Y13490D01*
X7820Y13415D01*
X7780Y13355D01*
X7745Y13305D01*
X7715Y13265D01*
X7690Y13240D01*
X7675Y13220D01*
X7670Y13215D01*
X7575Y13130D01*
X7480Y13055D01*
X7375Y12990D01*
X7270Y12930D01*
X7160Y12885D01*
X7055Y12845D01*
X6950Y12810D01*
X6845Y12785D01*
X6750Y12765D01*
X6665Y12750D01*
X6585Y12740D01*
X6515Y12735D01*
X6460Y12730D01*
X6415Y12725D01*
X6290D01*
X6205Y12730D01*
X6135Y12735D01*
X6080Y12740D01*
X6035Y12745D01*
X6000Y12750D01*
X5980Y12755D01*
X5975D01*
X5860Y12775D01*
X5810Y12790D01*
X5760Y12800D01*
X5715Y12810D01*
X5685Y12820D01*
X5660Y12825D01*
X5655D01*
X5555Y12860D01*
X5510Y12875D01*
X5470Y12890D01*
X5440Y12905D01*
X5410Y12915D01*
X5395Y12925D01*
X5390D01*
X5295Y12970D01*
X5255Y12985D01*
X5220Y13005D01*
X5195Y13015D01*
X5175Y13025D01*
X5160Y13035D01*
X5155D01*
Y13885D01*
X5240D01*
X5295Y13835D01*
X5345Y13790D01*
X5370Y13770D01*
X5385Y13760D01*
X5395Y13750D01*
X5400Y13745D01*
X5470Y13690D01*
X5540Y13640D01*
X5570Y13625D01*
X5595Y13610D01*
X5610Y13600D01*
X5615Y13595D01*
X5660Y13570D01*
X5705Y13540D01*
X5750Y13520D01*
X5795Y13500D01*
X5830Y13485D01*
X5860Y13470D01*
X5885Y13465D01*
X5890Y13460D01*
X5950Y13440D01*
X6010Y13430D01*
X6070Y13420D01*
X6120Y13410D01*
X6165D01*
X6200Y13405D01*
X6230D01*
X6295Y13410D01*
X6355Y13415D01*
X6415Y13425D01*
X6465Y13435D01*
X6510Y13445D01*
X6545Y13455D01*
X6565Y13465D01*
X6575D01*
X6635Y13490D01*
X6695Y13520D01*
X6750Y13555D01*
X6795Y13585D01*
X6835Y13615D01*
X6865Y13640D01*
X6885Y13655D01*
X6890Y13660D01*
X6940Y13715D01*
X6990Y13775D01*
X7030Y13840D01*
X7060Y13900D01*
X7090Y13950D01*
X7110Y13990D01*
X7120Y14020D01*
X7125Y14030D01*
X7155Y14120D01*
X7175Y14215D01*
X7190Y14310D01*
X7200Y14400D01*
X7205Y14475D01*
Y14510D01*
X7210Y14540D01*
Y14565D01*
Y14580D01*
Y14590D01*
Y14595D01*
X7205Y14710D01*
X7195Y14815D01*
X7185Y14910D01*
X7165Y14995D01*
X7150Y15060D01*
X7140Y15110D01*
X7135Y15125D01*
X7130Y15140D01*
X7125Y15145D01*
Y15150D01*
X7090Y15235D01*
X7055Y15310D01*
X7020Y15375D01*
X6985Y15430D01*
X6950Y15470D01*
X6925Y15500D01*
X6910Y15520D01*
X6905Y15525D01*
X6850Y15580D01*
X6795Y15625D01*
X6740Y15660D01*
X6695Y15690D01*
X6655Y15715D01*
X6620Y15730D01*
X6600Y15735D01*
X6595Y15740D01*
X6530Y15760D01*
X6470Y15780D01*
X6410Y15790D01*
X6355Y15795D01*
X6305Y15800D01*
X6270Y15805D01*
X6175D01*
X6115Y15795D01*
X6065Y15790D01*
X6015Y15780D01*
X5975Y15770D01*
X5945Y15760D01*
X5925Y15755D01*
X5920Y15750D01*
X5865Y15730D01*
X5810Y15705D01*
X5765Y15685D01*
X5720Y15665D01*
X5690Y15645D01*
X5660Y15635D01*
X5645Y15625D01*
X5640Y15620D01*
X5550Y15560D01*
X5515Y15535D01*
X5480Y15510D01*
X5455Y15490D01*
X5430Y15475D01*
X5420Y15465D01*
X5415Y15460D01*
X5345Y15405D01*
X5295Y15365D01*
X5275Y15345D01*
X5260Y15335D01*
X5255Y15330D01*
X5250Y15325D01*
X5155D01*
Y16180D01*
X5190Y16200D01*
X5230Y16220D01*
X5310Y16255D01*
X5345Y16270D01*
X5370Y16280D01*
X5390Y16285D01*
X5395Y16290D01*
X5495Y16335D01*
X5540Y16350D01*
X5580Y16365D01*
X5615Y16375D01*
X5640Y16385D01*
X5655Y16390D01*
X5660D01*
X5780Y16420D01*
X5835Y16430D01*
X5885Y16440D01*
X5930Y16450D01*
X5965Y16455D01*
X5985Y16460D01*
X5995D01*
X6125Y16475D01*
X6190Y16480D01*
X6250D01*
X6305Y16485D01*
X6380D01*
X6530Y16480D01*
D02*
G37*
G36*
X3215D02*
X3355Y16465D01*
X3485Y16440D01*
X3610Y16405D01*
X3725Y16365D01*
X3830Y16320D01*
X3925Y16275D01*
X4015Y16230D01*
X4090Y16180D01*
X4160Y16135D01*
X4220Y16090D01*
X4265Y16050D01*
X4305Y16020D01*
X4335Y15990D01*
X4350Y15975D01*
X4355Y15970D01*
X4440Y15870D01*
X4510Y15765D01*
X4575Y15655D01*
X4630Y15540D01*
X4675Y15425D01*
X4715Y15315D01*
X4745Y15200D01*
X4770Y15095D01*
X4790Y14995D01*
X4805Y14900D01*
X4815Y14815D01*
X4820Y14745D01*
X4825Y14685D01*
X4830Y14640D01*
Y14610D01*
Y14605D01*
Y14600D01*
X4825Y14435D01*
X4810Y14285D01*
X4785Y14140D01*
X4755Y14005D01*
X4720Y13880D01*
X4680Y13770D01*
X4635Y13665D01*
X4590Y13570D01*
X4550Y13490D01*
X4505Y13415D01*
X4465Y13355D01*
X4430Y13305D01*
X4400Y13265D01*
X4375Y13240D01*
X4360Y13220D01*
X4355Y13215D01*
X4260Y13130D01*
X4165Y13055D01*
X4060Y12990D01*
X3955Y12930D01*
X3845Y12885D01*
X3740Y12845D01*
X3635Y12810D01*
X3530Y12785D01*
X3435Y12765D01*
X3350Y12750D01*
X3270Y12740D01*
X3200Y12735D01*
X3145Y12730D01*
X3100Y12725D01*
X2975D01*
X2890Y12730D01*
X2820Y12735D01*
X2765Y12740D01*
X2720Y12745D01*
X2685Y12750D01*
X2665Y12755D01*
X2660D01*
X2545Y12775D01*
X2495Y12790D01*
X2445Y12800D01*
X2400Y12810D01*
X2370Y12820D01*
X2345Y12825D01*
X2340D01*
X2240Y12860D01*
X2195Y12875D01*
X2155Y12890D01*
X2125Y12905D01*
X2095Y12915D01*
X2080Y12925D01*
X2075D01*
X1980Y12970D01*
X1940Y12985D01*
X1905Y13005D01*
X1880Y13015D01*
X1860Y13025D01*
X1845Y13035D01*
X1840D01*
Y13885D01*
X1925D01*
X1980Y13835D01*
X2030Y13790D01*
X2055Y13770D01*
X2070Y13760D01*
X2080Y13750D01*
X2085Y13745D01*
X2155Y13690D01*
X2225Y13640D01*
X2255Y13625D01*
X2280Y13610D01*
X2295Y13600D01*
X2300Y13595D01*
X2345Y13570D01*
X2390Y13540D01*
X2435Y13520D01*
X2480Y13500D01*
X2515Y13485D01*
X2545Y13470D01*
X2570Y13465D01*
X2575Y13460D01*
X2635Y13440D01*
X2695Y13430D01*
X2755Y13420D01*
X2805Y13410D01*
X2850D01*
X2885Y13405D01*
X2915D01*
X2980Y13410D01*
X3040Y13415D01*
X3100Y13425D01*
X3150Y13435D01*
X3195Y13445D01*
X3230Y13455D01*
X3250Y13465D01*
X3260D01*
X3320Y13490D01*
X3380Y13520D01*
X3435Y13555D01*
X3480Y13585D01*
X3520Y13615D01*
X3550Y13640D01*
X3570Y13655D01*
X3575Y13660D01*
X3625Y13715D01*
X3675Y13775D01*
X3715Y13840D01*
X3745Y13900D01*
X3775Y13950D01*
X3795Y13990D01*
X3805Y14020D01*
X3810Y14030D01*
X3840Y14120D01*
X3860Y14215D01*
X3875Y14310D01*
X3885Y14400D01*
X3890Y14475D01*
Y14510D01*
X3895Y14540D01*
Y14565D01*
Y14580D01*
Y14590D01*
Y14595D01*
X3890Y14710D01*
X3880Y14815D01*
X3870Y14910D01*
X3850Y14995D01*
X3835Y15060D01*
X3825Y15110D01*
X3820Y15125D01*
X3815Y15140D01*
X3810Y15145D01*
Y15150D01*
X3775Y15235D01*
X3740Y15310D01*
X3705Y15375D01*
X3670Y15430D01*
X3635Y15470D01*
X3610Y15500D01*
X3595Y15520D01*
X3590Y15525D01*
X3535Y15580D01*
X3480Y15625D01*
X3425Y15660D01*
X3380Y15690D01*
X3340Y15715D01*
X3305Y15730D01*
X3285Y15735D01*
X3280Y15740D01*
X3215Y15760D01*
X3155Y15780D01*
X3095Y15790D01*
X3040Y15795D01*
X2990Y15800D01*
X2955Y15805D01*
X2860D01*
X2800Y15795D01*
X2750Y15790D01*
X2700Y15780D01*
X2660Y15770D01*
X2630Y15760D01*
X2610Y15755D01*
X2605Y15750D01*
X2550Y15730D01*
X2495Y15705D01*
X2450Y15685D01*
X2405Y15665D01*
X2375Y15645D01*
X2345Y15635D01*
X2330Y15625D01*
X2325Y15620D01*
X2235Y15560D01*
X2200Y15535D01*
X2165Y15510D01*
X2140Y15490D01*
X2115Y15475D01*
X2105Y15465D01*
X2100Y15460D01*
X2030Y15405D01*
X1980Y15365D01*
X1960Y15345D01*
X1945Y15335D01*
X1940Y15330D01*
X1935Y15325D01*
X1840D01*
Y16180D01*
X1875Y16200D01*
X1915Y16220D01*
X1995Y16255D01*
X2030Y16270D01*
X2055Y16280D01*
X2075Y16285D01*
X2080Y16290D01*
X2180Y16335D01*
X2225Y16350D01*
X2265Y16365D01*
X2300Y16375D01*
X2325Y16385D01*
X2340Y16390D01*
X2345D01*
X2465Y16420D01*
X2520Y16430D01*
X2570Y16440D01*
X2615Y16450D01*
X2650Y16455D01*
X2670Y16460D01*
X2680D01*
X2810Y16475D01*
X2875Y16480D01*
X2935D01*
X2990Y16485D01*
X3065D01*
X3215Y16480D01*
D02*
G37*
D11*
X60386Y130799D02*
X60557Y129718D01*
X61054Y128742D01*
X61829Y127968D01*
X62804Y127471D01*
X63886Y127299D01*
X16201Y968D02*
Y27795D01*
Y968D02*
X88248D01*
Y27795D01*
X78543Y103331D02*
X88248D01*
Y100236D02*
Y103331D01*
X16201Y100236D02*
Y103331D01*
X26575D01*
X22559Y31705D02*
X24559Y29705D01*
Y33705D01*
X22559Y31705D02*
X24559Y33705D01*
X59370Y143740D02*
Y147283D01*
Y143740D02*
X62224D01*
X70787D02*
Y147283D01*
X67933Y143740D02*
X70787D01*
X63898Y149252D02*
X66260D01*
X14841Y137972D02*
Y139153D01*
X19171D01*
Y137972D02*
Y139153D01*
X14841Y137972D02*
X19171D01*
X14841Y116712D02*
Y137972D01*
Y116712D02*
X17990D01*
X26575Y137992D02*
Y139173D01*
X22244D02*
X26575D01*
X22244Y137992D02*
Y139173D01*
Y137992D02*
X26575D01*
Y116732D02*
Y137992D01*
X23425Y116732D02*
X26575D01*
X52886Y111457D02*
Y131142D01*
Y111457D02*
X63886D01*
Y131142D01*
X52886D02*
X63886D01*
X79801Y137972D02*
Y139153D01*
X84132D01*
Y137972D02*
Y139153D01*
X79801Y137972D02*
X84132D01*
X79801Y116712D02*
Y137972D01*
Y116712D02*
X82951D01*
X91535Y137992D02*
Y139173D01*
X87205D02*
X91535D01*
X87205Y137992D02*
Y139173D01*
Y137992D02*
X91535D01*
Y116732D02*
Y137992D01*
X88386Y116732D02*
X91535D01*
D14*
X56890Y144095D02*
X56730Y145053D01*
X56267Y145908D01*
X55552Y146566D01*
X54662Y146957D01*
X53693Y147037D01*
X52751Y146799D01*
X51937Y146267D01*
X51340Y145500D01*
X51025Y144580D01*
Y143608D01*
X51340Y142689D01*
X51937Y141922D01*
X52751Y141390D01*
X53693Y141152D01*
X54662Y141232D01*
X55552Y141622D01*
X56267Y142281D01*
X56730Y143136D01*
X56890Y144095D01*
X11811Y21260D02*
X11651Y22219D01*
X11188Y23074D01*
X10473Y23732D01*
X9583Y24122D01*
X8614Y24203D01*
X7672Y23964D01*
X6858Y23432D01*
X6261Y22665D01*
X5946Y21746D01*
Y20774D01*
X6261Y19854D01*
X6858Y19087D01*
X7672Y18556D01*
X8614Y18317D01*
X9583Y18397D01*
X10473Y18788D01*
X11188Y19446D01*
X11651Y20301D01*
X11811Y21260D01*
D15*
X31693Y117618D02*
X37205D01*
X36449Y112618D02*
X37205D01*
Y122618D01*
X36449D02*
X37205D01*
X31693D02*
X32449D01*
X31693Y112618D02*
Y122618D01*
Y112618D02*
X32449D01*
X5315Y33661D02*
X12402D01*
X5315Y26968D02*
X6890D01*
X5315D02*
Y40354D01*
X6890D01*
X10827D02*
X12402D01*
Y26968D02*
Y40354D01*
X10827Y26968D02*
X12402D01*
X41535Y146063D02*
Y153150D01*
X34843Y151575D02*
Y153150D01*
X48228D01*
Y151575D02*
Y153150D01*
Y146063D02*
Y147638D01*
X34843Y146063D02*
X48228D01*
X34843D02*
Y147638D01*
X86614Y144882D02*
Y151969D01*
X79921Y150394D02*
Y151969D01*
X93307D01*
Y150394D02*
Y151969D01*
Y144882D02*
Y146457D01*
X79921Y144882D02*
X93307D01*
X79921D02*
Y146457D01*
X23228Y107480D02*
Y114567D01*
X29921Y107480D02*
Y109055D01*
X16535Y107480D02*
X29921D01*
X16535D02*
Y109055D01*
Y112992D02*
Y114567D01*
X29921D01*
Y112992D02*
Y114567D01*
X30906Y131102D02*
X37992D01*
X30906Y124409D02*
X32480D01*
X30906D02*
Y137795D01*
X32480D01*
X36417D02*
X37992D01*
Y124409D02*
Y137795D01*
X36417Y124409D02*
X37992D01*
X85692Y110231D02*
Y115743D01*
X80692Y110231D02*
Y110987D01*
Y110231D02*
X90692D01*
Y110987D01*
Y114987D02*
Y115743D01*
X80692D02*
X90692D01*
X80692Y114987D02*
Y115743D01*
X3701Y149055D02*
X9213D01*
X3701Y154055D02*
X4457D01*
X3701Y144055D02*
Y154055D01*
Y144055D02*
X4457D01*
X8457D02*
X9213D01*
Y154055D01*
X8457D02*
X9213D01*
X53346Y133071D02*
Y138583D01*
X48346Y133071D02*
Y133827D01*
Y133071D02*
X58346D01*
Y133827D01*
Y137827D02*
Y138583D01*
X48346D02*
X58346D01*
X48346Y137827D02*
Y138583D01*
X64764Y133071D02*
Y138583D01*
X69764Y137827D02*
Y138583D01*
X59764D02*
X69764D01*
X59764Y137827D02*
Y138583D01*
Y133071D02*
Y133827D01*
Y133071D02*
X69764D01*
Y133827D01*
D70*
X16967Y154882D02*
X16367Y155228D01*
Y154535D01*
X16967Y154882D01*
X29479Y148476D02*
Y149083D01*
X14679Y154303D02*
Y156280D01*
Y148476D02*
Y149083D01*
Y141280D02*
Y143256D01*
Y141280D02*
X29479D01*
Y154303D02*
Y156280D01*
X14679D02*
X29479D01*
Y141280D02*
Y143256D01*
M02*
