G04*
G04 #@! TF.GenerationSoftware,Altium Limited,Altium Designer,19.1.8 (144)*
G04*
G04 Layer_Color=8388736*
%FSLAX25Y25*%
%MOIN*%
G70*
G01*
G75*
%ADD16R,0.04528X0.02756*%
%ADD17R,0.05906X0.09055*%
%ADD18R,0.03150X0.07874*%
%ADD19R,0.06693X0.05906*%
%ADD20R,0.05906X0.06693*%
%ADD21R,0.03543X0.03937*%
%ADD22R,0.06693X0.09843*%
%ADD23R,0.02756X0.09843*%
%ADD24R,0.01575X0.05512*%
%ADD25R,0.07480X0.09055*%
%ADD26R,0.05906X0.05512*%
%ADD27R,0.05512X0.05906*%
%ADD28R,0.04134X0.03740*%
%ADD29R,0.03740X0.04134*%
%ADD30C,0.05118*%
%ADD31R,0.01772X0.02362*%
%ADD32C,0.04331*%
%ADD33R,0.06299X0.06299*%
%ADD34C,0.06299*%
%ADD35C,0.03150*%
D16*
X40827Y28740D02*
D03*
Y36220D02*
D03*
X31496Y32480D02*
D03*
X74547Y28740D02*
D03*
Y36220D02*
D03*
X65216Y32480D02*
D03*
D17*
X84252Y139173D02*
D03*
X22047D02*
D03*
D18*
X44291Y98622D02*
D03*
X48622D02*
D03*
X53150D02*
D03*
X57284D02*
D03*
X61614D02*
D03*
X65945D02*
D03*
X70276D02*
D03*
X74606D02*
D03*
X78937D02*
D03*
D19*
X25984Y101378D02*
D03*
D20*
X84252Y101772D02*
D03*
D21*
X98819Y58661D02*
D03*
X102559Y50787D02*
D03*
X95079D02*
D03*
D22*
X96595Y41339D02*
D03*
D23*
X103091D02*
D03*
D24*
X75787Y45965D02*
D03*
X73819D02*
D03*
X71850D02*
D03*
X67913D02*
D03*
X63976D02*
D03*
X52165D02*
D03*
X56102D02*
D03*
X60039D02*
D03*
X40354D02*
D03*
X44291D02*
D03*
X48228D02*
D03*
X32480D02*
D03*
X36417D02*
D03*
X34449D02*
D03*
X30512D02*
D03*
X46260D02*
D03*
X42323D02*
D03*
X38386D02*
D03*
X58071D02*
D03*
X54134D02*
D03*
X50197D02*
D03*
X62008D02*
D03*
X65945D02*
D03*
X69882D02*
D03*
D25*
X82284Y57284D02*
D03*
X23917Y57382D02*
D03*
D26*
X16142Y29331D02*
D03*
Y35630D02*
D03*
X82284Y35630D02*
D03*
Y29331D02*
D03*
X7677Y35630D02*
D03*
Y29331D02*
D03*
X57972Y28918D02*
D03*
Y35217D02*
D03*
X49547Y28918D02*
D03*
Y35217D02*
D03*
X24606Y29331D02*
D03*
Y35630D02*
D03*
D27*
X90217Y29331D02*
D03*
X96516D02*
D03*
D28*
X17058Y82480D02*
D03*
Y87599D02*
D03*
X31496Y82480D02*
D03*
Y87598D02*
D03*
X24606Y82480D02*
D03*
Y87598D02*
D03*
X90240Y84810D02*
D03*
Y79692D02*
D03*
X13922Y57146D02*
D03*
Y52028D02*
D03*
X56693Y82480D02*
D03*
Y87598D02*
D03*
X65256Y82480D02*
D03*
Y87598D02*
D03*
X72051Y82480D02*
D03*
Y87598D02*
D03*
X43307Y82480D02*
D03*
Y87598D02*
D03*
X49902Y82480D02*
D03*
Y87598D02*
D03*
D29*
X83268Y43307D02*
D03*
X88386D02*
D03*
D30*
X50669Y17716D02*
D03*
X65216Y17716D02*
D03*
X31496Y17716D02*
D03*
D31*
X104764Y41339D02*
D03*
D32*
X41142Y140748D02*
D03*
X72559D02*
D03*
D33*
X97441Y136614D02*
D03*
X8858D02*
D03*
D34*
X97441Y126614D02*
D03*
Y116614D02*
D03*
Y106614D02*
D03*
Y96614D02*
D03*
Y86614D02*
D03*
Y76614D02*
D03*
Y66614D02*
D03*
X8858Y126614D02*
D03*
Y116614D02*
D03*
Y106614D02*
D03*
Y96614D02*
D03*
Y86614D02*
D03*
Y76614D02*
D03*
Y66614D02*
D03*
D35*
X38922Y20620D02*
D03*
X30667Y28312D02*
D03*
X103114Y29238D02*
D03*
X95079Y61164D02*
D03*
X102958Y71362D02*
D03*
X31391Y78452D02*
D03*
X80614Y75299D02*
D03*
X65216Y78740D02*
D03*
X71755Y78676D02*
D03*
X2559Y141706D02*
D03*
X100260Y151168D02*
D03*
X18676Y105582D02*
D03*
X38386Y108824D02*
D03*
X20669Y22752D02*
D03*
X59332Y140666D02*
D03*
X12386Y130854D02*
D03*
X13923Y22752D02*
D03*
X57651Y17717D02*
D03*
X77093Y87518D02*
D03*
X25325Y45317D02*
D03*
X30690Y38878D02*
D03*
X57827Y40940D02*
D03*
X24606Y41761D02*
D03*
X48228Y41613D02*
D03*
X62205Y40940D02*
D03*
X65945Y41026D02*
D03*
X72876Y71449D02*
D03*
X63850Y54026D02*
D03*
X76378Y129016D02*
D03*
X76776Y112252D02*
D03*
X82283Y94323D02*
D03*
X77858Y122447D02*
D03*
X25689Y95787D02*
D03*
X42869Y33000D02*
D03*
X23655Y50867D02*
D03*
X8858Y55308D02*
D03*
X71755Y64275D02*
D03*
X74905Y53940D02*
D03*
X50787Y151416D02*
D03*
X89701Y142126D02*
D03*
X96114Y142598D02*
D03*
X57104Y149867D02*
D03*
X45079Y133688D02*
D03*
X40086Y124394D02*
D03*
X56693Y122095D02*
D03*
X76274Y32404D02*
D03*
X37816Y61645D02*
D03*
X37519Y57839D02*
D03*
X41038Y53822D02*
D03*
X41242Y60042D02*
D03*
X39321Y65373D02*
D03*
X28458Y50359D02*
D03*
X94051Y121614D02*
D03*
X91540Y106371D02*
D03*
X12186Y121774D02*
D03*
X6693Y10433D02*
D03*
X85630Y11811D02*
D03*
X77332D02*
D03*
X41217D02*
D03*
X61894D02*
D03*
X97192Y16416D02*
D03*
X21706Y148228D02*
D03*
X7928Y61164D02*
D03*
X22417Y11811D02*
D03*
X26378Y22752D02*
D03*
X72885Y40940D02*
D03*
X12243Y6496D02*
D03*
X94140Y8760D02*
D03*
X70045Y11811D02*
D03*
X50567D02*
D03*
X31363D02*
D03*
X13543Y17717D02*
D03*
X82405Y63535D02*
D03*
X76566Y71496D02*
D03*
X45079Y17717D02*
D03*
X6398Y43408D02*
D03*
X8858Y46143D02*
D03*
X44291Y92510D02*
D03*
X48759Y92345D02*
D03*
X53150Y92262D02*
D03*
X62847Y92510D02*
D03*
X67836Y92578D02*
D03*
X63993Y65373D02*
D03*
X25532Y64275D02*
D03*
X43077Y78740D02*
D03*
X36568Y81149D02*
D03*
X71392Y60417D02*
D03*
X30021Y64275D02*
D03*
X80293Y50359D02*
D03*
X30809Y71496D02*
D03*
X24482Y78100D02*
D03*
X32480Y54199D02*
D03*
X56508Y78855D02*
D03*
X91540Y100643D02*
D03*
X76776Y40940D02*
D03*
X70276Y17717D02*
D03*
Y32068D02*
D03*
X31875Y91550D02*
D03*
X32631Y108904D02*
D03*
X60079Y118799D02*
D03*
X45079Y108268D02*
D03*
X61339Y123799D02*
D03*
X58424Y108824D02*
D03*
X72047Y135827D02*
D03*
X35039Y97638D02*
D03*
X69882Y107480D02*
D03*
X79527Y142126D02*
D03*
M02*
