G04*
G04 #@! TF.GenerationSoftware,Altium Limited,Altium Designer,19.1.8 (144)*
G04*
G04 Layer_Color=1930808*
%FSLAX25Y25*%
%MOIN*%
G70*
G01*
G75*
%ADD14C,0.00394*%
%ADD72C,0.00000*%
%ADD73C,0.00100*%
%ADD74R,0.11417X0.02559*%
D14*
X64685Y127598D02*
X64421Y128583D01*
X63701Y129303D01*
X62717Y129567D01*
X61732Y129303D01*
X61012Y128583D01*
X60748Y127598D01*
X61012Y126614D01*
X61732Y125894D01*
X62717Y125630D01*
X63701Y125894D01*
X64421Y126614D01*
X64685Y127598D01*
X32579Y114173D02*
X36319D01*
X32579Y121063D02*
X36319D01*
Y114173D02*
Y121063D01*
X32579Y114173D02*
Y121063D01*
X59567Y149252D02*
X70591D01*
X59567Y143740D02*
X70591D01*
X59567D02*
Y149252D01*
X70591Y143740D02*
Y149252D01*
X14961Y134744D02*
X26378D01*
Y119980D02*
Y134744D01*
X14961Y119980D02*
X26378D01*
X14961D02*
Y134744D01*
X66260Y111457D02*
Y131142D01*
X50512Y111457D02*
Y131142D01*
X66260D01*
X50512Y111457D02*
X66260D01*
X6102Y37992D02*
X11614D01*
X6102Y29331D02*
X11614D01*
X6102D02*
Y37992D01*
X11614Y29331D02*
Y37992D01*
X45866Y146850D02*
Y152362D01*
X37205Y146850D02*
Y152362D01*
X45866D01*
X37205Y146850D02*
X45866D01*
X79921Y134744D02*
X91339D01*
Y119980D02*
Y134744D01*
X79921Y119980D02*
X91339D01*
X79921D02*
Y134744D01*
X90945Y145669D02*
Y151181D01*
X82283Y145669D02*
Y151181D01*
X90945D01*
X82283Y145669D02*
X90945D01*
X18898Y108268D02*
Y113780D01*
X27559Y108268D02*
Y113780D01*
X18898Y108268D02*
X27559D01*
X18898Y113780D02*
X27559D01*
X31693Y135433D02*
X37205D01*
X31693Y126772D02*
X37205D01*
X31693D02*
Y135433D01*
X37205Y126772D02*
Y135433D01*
X82247Y111117D02*
Y114857D01*
X89137Y111117D02*
Y114857D01*
X82247Y111117D02*
X89137D01*
X82247Y114857D02*
X89137D01*
X4587Y152500D02*
X8327D01*
X4587Y145610D02*
X8327D01*
X4587D02*
Y152500D01*
X8327Y145610D02*
Y152500D01*
X49902Y133957D02*
Y137697D01*
X56791Y133957D02*
Y137697D01*
X49902Y133957D02*
X56791D01*
X49902Y137697D02*
X56791D01*
X68209Y133957D02*
Y137697D01*
X61319Y133957D02*
Y137697D01*
X68209D01*
X61319Y133957D02*
X68209D01*
D72*
X20780Y155768D02*
X21132Y154919D01*
X21980Y154568D01*
X22829Y154919D01*
X23180Y155768D01*
D73*
X15179Y141780D02*
Y155780D01*
Y141780D02*
X28979D01*
Y155780D01*
X15179D02*
X28979D01*
D74*
X20669Y133464D02*
D03*
X85630Y133464D02*
D03*
M02*
