G04*
G04 #@! TF.GenerationSoftware,Altium Limited,Altium Designer,19.1.8 (144)*
G04*
G04 Layer_Color=16711935*
%FSLAX25Y25*%
%MOIN*%
G70*
G01*
G75*
%ADD11C,0.00787*%
%ADD14C,0.00394*%
%ADD71C,0.00492*%
G36*
X97441Y35433D02*
X93504Y39370D01*
X93504Y35433D01*
X97441D01*
D02*
G37*
D11*
X35236Y145120D02*
X35236Y145120D01*
Y145120D02*
X35388Y144354D01*
X35822Y143705D01*
X35236Y131931D02*
X35388Y131165D01*
X35822Y130517D01*
X36236Y137008D02*
X35529Y136715D01*
X35236Y136008D01*
X36992Y137008D02*
X37699Y137301D01*
X37992Y138008D01*
Y140707D02*
X37840Y141472D01*
X37406Y142121D01*
X40354Y124314D02*
X40217Y125358D01*
X39814Y126330D01*
X39173Y127165D01*
X40354Y107102D02*
X40647Y106395D01*
X41354Y106102D01*
X77543D02*
X78250Y106395D01*
X78543Y107102D01*
X36236Y165157D02*
X35529Y164865D01*
X35236Y164157D01*
X35286Y162612D02*
X36426Y161993D01*
X77354D02*
X78493Y162612D01*
X78543Y164157D02*
X78250Y164865D01*
X77543Y165157D01*
X36426Y161993D02*
X37411Y161789D01*
X38397Y161595D01*
X39386Y161411D01*
X40376Y161238D01*
X41368Y161074D01*
X42362Y160921D01*
X43358Y160777D01*
X44354Y160644D01*
X45352Y160521D01*
X46351Y160408D01*
X47352Y160306D01*
X48353Y160213D01*
X49355Y160131D01*
X50358Y160059D01*
X51362Y159998D01*
X52366Y159947D01*
X53371Y159905D01*
X54376Y159875D01*
X55381Y159854D01*
X56387Y159844D01*
X57392Y159844D01*
X58398Y159854D01*
X59403Y159875D01*
X60408Y159905D01*
X61413Y159947D01*
X62417Y159998D01*
X63421Y160059D01*
X64424Y160131D01*
X65426Y160213D01*
X66427Y160306D01*
X67427Y160408D01*
X68427Y160521D01*
X69425Y160644D01*
X70421Y160777D01*
X71417Y160921D01*
X72411Y161074D01*
X73403Y161238D01*
X74393Y161411D01*
X75382Y161595D01*
X76368Y161789D01*
X77353Y161993D01*
X35236Y131931D02*
Y136008D01*
Y145120D02*
Y156496D01*
X35822Y143706D02*
X37406Y142121D01*
X36236Y137008D02*
X36992D01*
X35822Y130517D02*
X39173Y127165D01*
X37992Y138008D02*
Y140835D01*
X40354Y107102D02*
Y124314D01*
X41354Y106102D02*
X77543D01*
X78543Y107102D02*
Y164157D01*
X35236Y156496D02*
Y164157D01*
X36236Y165157D02*
X77543D01*
D14*
X38917Y26496D02*
Y38465D01*
X33406Y26496D02*
Y38465D01*
Y26496D02*
X38917D01*
X33406Y38465D02*
X38917D01*
X104528Y51969D02*
Y57480D01*
X93110Y51969D02*
Y57480D01*
X104528D01*
X93110Y51969D02*
X104528D01*
X105315Y35433D02*
Y47244D01*
X93504D02*
X105315D01*
X93504Y35433D02*
X105315D01*
X93504D02*
Y47244D01*
X21358Y47638D02*
X85039D01*
X21358D02*
Y68307D01*
Y68405D02*
X85039D01*
Y47638D02*
Y68405D01*
X13386Y28150D02*
X18898D01*
X13386Y36811D02*
X18898D01*
X13386Y28150D02*
Y36811D01*
X18898Y28150D02*
Y36811D01*
X79527Y36811D02*
X85039D01*
X79527Y28150D02*
X85039D01*
Y36811D01*
X79527Y28150D02*
Y36811D01*
X4921Y36811D02*
X10433D01*
X4921Y28150D02*
X10433D01*
Y36811D01*
X4921Y28150D02*
Y36811D01*
X89035Y26575D02*
Y32087D01*
X97697Y26575D02*
Y32087D01*
X89035D02*
X97697D01*
X89035Y26575D02*
X97697D01*
X55217Y27737D02*
X60728D01*
X55217Y36399D02*
X60728D01*
X55217Y27737D02*
Y36399D01*
X60728Y27737D02*
Y36399D01*
X46791Y27737D02*
X52303D01*
X46791Y36399D02*
X52303D01*
X46791Y27737D02*
Y36399D01*
X52303Y27737D02*
Y36399D01*
X21850Y28150D02*
X27362D01*
X21850Y36811D02*
X27362D01*
X21850Y28150D02*
Y36811D01*
X27362Y28150D02*
Y36811D01*
X72638Y26496D02*
Y38465D01*
X67126Y26496D02*
Y38465D01*
Y26496D02*
X72638D01*
X67126Y38465D02*
X72638D01*
X15188Y81595D02*
X18928D01*
X15188Y88484D02*
X18928D01*
X15188Y81595D02*
Y88484D01*
X18928Y81595D02*
Y88484D01*
X29626Y81594D02*
X33366D01*
X29626Y88484D02*
X33366D01*
X29626Y81594D02*
Y88484D01*
X33366Y81594D02*
Y88484D01*
X22736Y81594D02*
X26476D01*
X22736Y88484D02*
X26476D01*
X22736Y81594D02*
Y88484D01*
X26476Y81594D02*
Y88484D01*
X88370Y85696D02*
X92110D01*
X88370Y78806D02*
X92110D01*
Y85696D01*
X88370Y78806D02*
Y85696D01*
X82382Y41437D02*
Y45177D01*
X89272Y41437D02*
Y45177D01*
X82382D02*
X89272D01*
X82382Y41437D02*
X89272D01*
X12052Y58032D02*
X15792D01*
X12052Y51143D02*
X15792D01*
Y58032D01*
X12052Y51143D02*
Y58032D01*
X54823Y81594D02*
X58563D01*
X54823Y88484D02*
X58563D01*
X54823Y81594D02*
Y88484D01*
X58563Y81594D02*
Y88484D01*
X63386Y81594D02*
X67126D01*
X63386Y88484D02*
X67126D01*
X63386Y81594D02*
Y88484D01*
X67126Y81594D02*
Y88484D01*
X70181Y81594D02*
X73921D01*
X70181Y88484D02*
X73921D01*
X70181Y81594D02*
Y88484D01*
X73921Y81594D02*
Y88484D01*
X41437Y81594D02*
X45177D01*
X41437Y88484D02*
X45177D01*
X41437Y81594D02*
Y88484D01*
X45177Y81594D02*
Y88484D01*
X48031Y81594D02*
X51772D01*
X48031Y88484D02*
X51772D01*
X48031Y81594D02*
Y88484D01*
X51772Y81594D02*
Y88484D01*
D71*
X36236Y178150D02*
X35529Y177857D01*
X35236Y177150D01*
X78543D02*
X78250Y177857D01*
X77543Y178150D01*
X35236Y166248D02*
Y168295D01*
Y176406D02*
Y177150D01*
Y169634D02*
Y171681D01*
Y173020D02*
Y175067D01*
X36236Y178150D02*
X37598D01*
X38937D02*
X40984D01*
X42323D02*
X44370D01*
X45709D02*
X47756D01*
X49095D02*
X51142D01*
X52480D02*
X54528D01*
X55866D02*
X57913D01*
X59252D02*
X61299D01*
X62638D02*
X64685D01*
X66024D02*
X68071D01*
X69409D02*
X71457D01*
X72795D02*
X74843D01*
X76181D02*
X77543D01*
X78543Y166248D02*
Y168295D01*
Y169634D02*
Y171681D01*
Y173020D02*
Y175067D01*
Y176406D02*
Y177150D01*
M02*
