G04*
G04 #@! TF.GenerationSoftware,Altium Limited,Altium Designer,19.1.8 (144)*
G04*
G04 Layer_Color=2752767*
%FSLAX25Y25*%
%MOIN*%
G70*
G01*
G75*
%ADD13C,0.01000*%
%ADD76C,0.00200*%
%ADD77C,0.00267*%
D13*
X74528Y140748D02*
X74264Y141732D01*
X73543Y142453D01*
X72559Y142717D01*
X71575Y142453D01*
X70854Y141732D01*
X70591Y140748D01*
X70854Y139764D01*
X71575Y139043D01*
X72559Y138779D01*
X73543Y139043D01*
X74264Y139764D01*
X74528Y140748D01*
X43110D02*
X42847Y141732D01*
X42126Y142453D01*
X41142Y142717D01*
X40157Y142453D01*
X39437Y141732D01*
X39173Y140748D01*
X39437Y139764D01*
X40157Y139043D01*
X41142Y138779D01*
X42126Y139043D01*
X42847Y139764D01*
X43110Y140748D01*
D76*
X40342Y139948D02*
Y141548D01*
X41942D01*
Y139948D01*
X40342D01*
X71759D02*
Y141548D01*
X73359D01*
Y139948D01*
X71759D01*
X38922Y19820D02*
X38122Y21420D01*
X39722D01*
X38922Y19820D01*
X30667Y27512D02*
X29867Y29112D01*
X31467D01*
X30667Y27512D01*
X103114Y28438D02*
X102314Y30038D01*
X103914D01*
X103114Y28438D01*
X95079Y60364D02*
X94279Y61964D01*
X95879D01*
X95079Y60364D01*
X102958Y70562D02*
X102158Y72162D01*
X103758D01*
X102958Y70562D01*
X31391Y77652D02*
X30591Y79252D01*
X32191D01*
X31391Y77652D01*
X80614Y74499D02*
X79814Y76099D01*
X81414D01*
X80614Y74499D01*
X65216Y77940D02*
X64416Y79540D01*
X66016D01*
X65216Y77940D01*
X71755Y77876D02*
X70955Y79476D01*
X72556D01*
X71755Y77876D01*
X2559Y140906D02*
X1759Y142506D01*
X3359D01*
X2559Y140906D01*
X100260Y150367D02*
X99460Y151968D01*
X101060D01*
X100260Y150367D01*
X18676Y104782D02*
X17876Y106382D01*
X19476D01*
X18676Y104782D01*
X38386Y108024D02*
X37586Y109624D01*
X39186D01*
X38386Y108024D01*
X20669Y21952D02*
X19869Y23552D01*
X21469D01*
X20669Y21952D01*
X59332Y139866D02*
X58532Y141466D01*
X60132D01*
X59332Y139866D01*
X12386Y130054D02*
X11586Y131654D01*
X13186D01*
X12386Y130054D01*
X13923Y21952D02*
X13123Y23552D01*
X14723D01*
X13923Y21952D01*
X57651Y16917D02*
X56851Y18517D01*
X58451D01*
X57651Y16917D01*
X77093Y86718D02*
X76293Y88318D01*
X77893D01*
X77093Y86718D01*
X25325Y44517D02*
X24525Y46117D01*
X26125D01*
X25325Y44517D01*
X30690Y38078D02*
X29890Y39678D01*
X31490D01*
X30690Y38078D01*
X57827Y40140D02*
X57027Y41740D01*
X58627D01*
X57827Y40140D01*
X24606Y40961D02*
X23806Y42561D01*
X25406D01*
X24606Y40961D01*
X48228Y40813D02*
X47428Y42413D01*
X49028D01*
X48228Y40813D01*
X62205Y40140D02*
X61405Y41740D01*
X63005D01*
X62205Y40140D01*
X65945Y40226D02*
X65145Y41826D01*
X66745D01*
X65945Y40226D01*
X72876Y70649D02*
X72076Y72249D01*
X73676D01*
X72876Y70649D01*
X63850Y53226D02*
X63050Y54826D01*
X64650D01*
X63850Y53226D01*
X76378Y128216D02*
X75578Y129816D01*
X77178D01*
X76378Y128216D01*
X76776Y111452D02*
X75977Y113052D01*
X77577D01*
X76776Y111452D01*
X82283Y93523D02*
X81483Y95123D01*
X83083D01*
X82283Y93523D01*
X77858Y121647D02*
X77058Y123247D01*
X78658D01*
X77858Y121647D01*
X25689Y94987D02*
X24889Y96587D01*
X26489D01*
X25689Y94987D01*
X42869Y32200D02*
X42069Y33800D01*
X43669D01*
X42869Y32200D01*
X23655Y50067D02*
X22855Y51667D01*
X24455D01*
X23655Y50067D01*
X8858Y54508D02*
X8058Y56108D01*
X9658D01*
X8858Y54508D01*
X71755Y63475D02*
X70955Y65075D01*
X72556D01*
X71755Y63475D01*
X74905Y53140D02*
X74105Y54740D01*
X75705D01*
X74905Y53140D01*
X50787Y150616D02*
X49987Y152216D01*
X51587D01*
X50787Y150616D01*
X89701Y141326D02*
X88901Y142926D01*
X90501D01*
X89701Y141326D01*
X96114Y141798D02*
X95314Y143398D01*
X96914D01*
X96114Y141798D01*
X57104Y149067D02*
X56305Y150667D01*
X57904D01*
X57104Y149067D01*
X45079Y132888D02*
X44279Y134488D01*
X45879D01*
X45079Y132888D01*
X40086Y123594D02*
X39286Y125194D01*
X40886D01*
X40086Y123594D01*
X56693Y121295D02*
X55893Y122895D01*
X57493D01*
X56693Y121295D01*
X76274Y31604D02*
X75473Y33204D01*
X77074D01*
X76274Y31604D01*
X37816Y60845D02*
X37016Y62445D01*
X38616D01*
X37816Y60845D01*
X37519Y57039D02*
X36719Y58639D01*
X38319D01*
X37519Y57039D01*
X41038Y53022D02*
X40238Y54622D01*
X41838D01*
X41038Y53022D01*
X41242Y59242D02*
X40442Y60842D01*
X42042D01*
X41242Y59242D01*
X39321Y64573D02*
X38521Y66173D01*
X40121D01*
X39321Y64573D01*
X28458Y49559D02*
X27658Y51159D01*
X29258D01*
X28458Y49559D01*
X94051Y120814D02*
X93251Y122414D01*
X94851D01*
X94051Y120814D01*
X91540Y105571D02*
X90740Y107171D01*
X92340D01*
X91540Y105571D01*
X12186Y120974D02*
X11386Y122574D01*
X12986D01*
X12186Y120974D01*
X6693Y9633D02*
X5893Y11233D01*
X7493D01*
X6693Y9633D01*
X85630Y11011D02*
X84830Y12611D01*
X86430D01*
X85630Y11011D01*
X77332D02*
X76532Y12611D01*
X78132D01*
X77332Y11011D01*
X41217D02*
X40417Y12611D01*
X42017D01*
X41217Y11011D01*
X61894D02*
X61094Y12611D01*
X62694D01*
X61894Y11011D01*
X97192Y15616D02*
X96392Y17216D01*
X97992D01*
X97192Y15616D01*
X21706Y147428D02*
X20906Y149028D01*
X22506D01*
X21706Y147428D01*
X7928Y60364D02*
X7128Y61964D01*
X8728D01*
X7928Y60364D01*
X22417Y11011D02*
X21617Y12611D01*
X23217D01*
X22417Y11011D01*
X26378Y21952D02*
X25578Y23552D01*
X27178D01*
X26378Y21952D01*
X72885Y40140D02*
X72085Y41740D01*
X73685D01*
X72885Y40140D01*
X12243Y5696D02*
X11443Y7296D01*
X13043D01*
X12243Y5696D01*
X94140Y7960D02*
X93340Y9560D01*
X94940D01*
X94140Y7960D01*
X70045Y11011D02*
X69245Y12611D01*
X70845D01*
X70045Y11011D01*
X50567D02*
X49767Y12611D01*
X51367D01*
X50567Y11011D01*
X31363D02*
X30563Y12611D01*
X32163D01*
X31363Y11011D01*
X13543Y16917D02*
X12743Y18517D01*
X14343D01*
X13543Y16917D01*
X82405Y62735D02*
X81605Y64336D01*
X83205D01*
X82405Y62735D01*
X76566Y70696D02*
X75766Y72296D01*
X77366D01*
X76566Y70696D01*
X45079Y16917D02*
X44279Y18517D01*
X45879D01*
X45079Y16917D01*
X6398Y42608D02*
X5598Y44208D01*
X7198D01*
X6398Y42608D01*
X8858Y45342D02*
X8058Y46942D01*
X9658D01*
X8858Y45342D01*
X44291Y91710D02*
X43491Y93310D01*
X45091D01*
X44291Y91710D01*
X48759Y91545D02*
X47959Y93145D01*
X49559D01*
X48759Y91545D01*
X53150Y91462D02*
X52350Y93062D01*
X53950D01*
X53150Y91462D01*
X62847Y91710D02*
X62047Y93310D01*
X63647D01*
X62847Y91710D01*
X67836Y91778D02*
X67036Y93378D01*
X68636D01*
X67836Y91778D01*
X63993Y64573D02*
X63193Y66173D01*
X64793D01*
X63993Y64573D01*
X25532Y63475D02*
X24732Y65075D01*
X26332D01*
X25532Y63475D01*
X43077Y77940D02*
X42277Y79540D01*
X43877D01*
X43077Y77940D01*
X36568Y80349D02*
X35768Y81949D01*
X37368D01*
X36568Y80349D01*
X71392Y59617D02*
X70592Y61217D01*
X72192D01*
X71392Y59617D01*
X30021Y63475D02*
X29221Y65075D01*
X30821D01*
X30021Y63475D01*
X80293Y49559D02*
X79493Y51159D01*
X81093D01*
X80293Y49559D01*
X30809Y70696D02*
X30009Y72296D01*
X31609D01*
X30809Y70696D01*
X24482Y77300D02*
X23682Y78900D01*
X25282D01*
X24482Y77300D01*
X32480Y53399D02*
X31680Y54999D01*
X33280D01*
X32480Y53399D01*
X56508Y78055D02*
X55708Y79655D01*
X57308D01*
X56508Y78055D01*
X91540Y99843D02*
X90740Y101443D01*
X92340D01*
X91540Y99843D01*
X76776Y40140D02*
X75977Y41740D01*
X77577D01*
X76776Y40140D01*
X70276Y16917D02*
X69476Y18517D01*
X71076D01*
X70276Y16917D01*
Y31268D02*
X69476Y32868D01*
X71076D01*
X70276Y31268D01*
X31875Y90750D02*
X31075Y92350D01*
X32675D01*
X31875Y90750D01*
X32631Y108104D02*
X31831Y109704D01*
X33431D01*
X32631Y108104D01*
X60079Y117999D02*
X59279Y119599D01*
X60879D01*
X60079Y117999D01*
X45079Y107468D02*
X44279Y109068D01*
X45879D01*
X45079Y107468D01*
X61339Y122999D02*
X60539Y124599D01*
X62139D01*
X61339Y122999D01*
X58424Y108024D02*
X57624Y109624D01*
X59224D01*
X58424Y108024D01*
X72047Y135027D02*
X71247Y136627D01*
X72847D01*
X72047Y135027D01*
X35039Y96838D02*
X34239Y98438D01*
X35839D01*
X35039Y96838D01*
X69882Y106680D02*
X69082Y108280D01*
X70682D01*
X69882Y106680D01*
X79527Y141326D02*
X78727Y142926D01*
X80327D01*
X79527Y141326D01*
D77*
X98241Y136614D02*
X97688Y137375D01*
X96794Y137084D01*
Y136144D01*
X97688Y135853D01*
X98241Y136614D01*
Y126614D02*
X97688Y127375D01*
X96794Y127084D01*
Y126144D01*
X97688Y125853D01*
X98241Y126614D01*
Y116614D02*
X97688Y117375D01*
X96794Y117084D01*
Y116144D01*
X97688Y115853D01*
X98241Y116614D01*
Y106614D02*
X97688Y107375D01*
X96794Y107084D01*
Y106144D01*
X97688Y105853D01*
X98241Y106614D01*
Y96614D02*
X97688Y97375D01*
X96794Y97084D01*
Y96144D01*
X97688Y95853D01*
X98241Y96614D01*
Y86614D02*
X97688Y87375D01*
X96794Y87084D01*
Y86144D01*
X97688Y85853D01*
X98241Y86614D01*
Y76614D02*
X97688Y77375D01*
X96794Y77084D01*
Y76144D01*
X97688Y75853D01*
X98241Y76614D01*
Y66614D02*
X97688Y67375D01*
X96794Y67084D01*
Y66144D01*
X97688Y65853D01*
X98241Y66614D01*
X9658Y136614D02*
X9105Y137375D01*
X8211Y137084D01*
Y136144D01*
X9105Y135853D01*
X9658Y136614D01*
Y126614D02*
X9105Y127375D01*
X8211Y127084D01*
Y126144D01*
X9105Y125853D01*
X9658Y126614D01*
Y116614D02*
X9105Y117375D01*
X8211Y117084D01*
Y116144D01*
X9105Y115853D01*
X9658Y116614D01*
Y106614D02*
X9105Y107375D01*
X8211Y107084D01*
Y106144D01*
X9105Y105853D01*
X9658Y106614D01*
Y96614D02*
X9105Y97375D01*
X8211Y97084D01*
Y96144D01*
X9105Y95853D01*
X9658Y96614D01*
Y86614D02*
X9105Y87375D01*
X8211Y87084D01*
Y86144D01*
X9105Y85853D01*
X9658Y86614D01*
Y76614D02*
X9105Y77375D01*
X8211Y77084D01*
Y76144D01*
X9105Y75853D01*
X9658Y76614D01*
Y66614D02*
X9105Y67375D01*
X8211Y67084D01*
Y66144D01*
X9105Y65853D01*
X9658Y66614D01*
M02*
