G04*
G04 #@! TF.GenerationSoftware,Altium Limited,Altium Designer,19.1.8 (144)*
G04*
G04 Layer_Color=16711935*
%FSLAX25Y25*%
%MOIN*%
G70*
G01*
G75*
%ADD11C,0.00787*%
%ADD13C,0.01000*%
G36*
X55020Y-15682D02*
X53480Y-18577D01*
X52475D01*
X54080Y-15642D01*
X52365D01*
Y-14962D01*
X55020D01*
Y-15682D01*
D02*
G37*
G36*
X50575Y-14892D02*
X50630Y-14897D01*
X50690Y-14902D01*
X50760Y-14912D01*
X50835Y-14922D01*
X50990Y-14957D01*
X51075Y-14982D01*
X51155Y-15007D01*
X51235Y-15042D01*
X51310Y-15082D01*
X51380Y-15127D01*
X51445Y-15177D01*
X51450Y-15182D01*
X51460Y-15192D01*
X51475Y-15207D01*
X51500Y-15227D01*
X51525Y-15257D01*
X51550Y-15292D01*
X51580Y-15337D01*
X51615Y-15382D01*
X51645Y-15437D01*
X51675Y-15497D01*
X51700Y-15567D01*
X51730Y-15637D01*
X51750Y-15712D01*
X51765Y-15797D01*
X51775Y-15887D01*
X51780Y-15982D01*
Y-15987D01*
Y-15997D01*
Y-16012D01*
Y-16037D01*
X51775Y-16067D01*
X51770Y-16102D01*
X51760Y-16182D01*
X51740Y-16282D01*
X51715Y-16387D01*
X51675Y-16502D01*
X51625Y-16617D01*
Y-16622D01*
X51620Y-16632D01*
X51610Y-16647D01*
X51595Y-16672D01*
X51580Y-16697D01*
X51560Y-16732D01*
X51505Y-16812D01*
X51435Y-16912D01*
X51350Y-17022D01*
X51245Y-17142D01*
X51125Y-17272D01*
X51115Y-17282D01*
X51090Y-17307D01*
X51045Y-17352D01*
X50990Y-17402D01*
X50925Y-17462D01*
X50855Y-17527D01*
X50700Y-17662D01*
X50690Y-17667D01*
X50665Y-17687D01*
X50630Y-17717D01*
X50585Y-17752D01*
X50485Y-17832D01*
X50440Y-17867D01*
X50400Y-17897D01*
X51940D01*
Y-18577D01*
X49280D01*
Y-17992D01*
X49285Y-17987D01*
X49295Y-17982D01*
X49315Y-17967D01*
X49335Y-17947D01*
X49365Y-17922D01*
X49400Y-17892D01*
X49480Y-17827D01*
X49575Y-17752D01*
X49675Y-17667D01*
X49780Y-17577D01*
X49885Y-17487D01*
X49890Y-17482D01*
X49895Y-17477D01*
X49910Y-17462D01*
X49930Y-17447D01*
X49980Y-17402D01*
X50045Y-17342D01*
X50120Y-17272D01*
X50200Y-17192D01*
X50280Y-17112D01*
X50360Y-17032D01*
X50365Y-17027D01*
X50370Y-17017D01*
X50385Y-17007D01*
X50405Y-16987D01*
X50450Y-16932D01*
X50510Y-16867D01*
X50570Y-16787D01*
X50635Y-16707D01*
X50695Y-16622D01*
X50745Y-16542D01*
X50750Y-16532D01*
X50765Y-16507D01*
X50785Y-16462D01*
X50805Y-16407D01*
X50825Y-16342D01*
X50845Y-16272D01*
X50860Y-16192D01*
X50865Y-16107D01*
Y-16102D01*
Y-16097D01*
Y-16067D01*
X50855Y-16017D01*
X50845Y-15962D01*
X50825Y-15902D01*
X50800Y-15837D01*
X50760Y-15772D01*
X50710Y-15717D01*
X50705Y-15712D01*
X50685Y-15697D01*
X50650Y-15672D01*
X50600Y-15647D01*
X50540Y-15627D01*
X50470Y-15602D01*
X50385Y-15587D01*
X50290Y-15582D01*
X50240D01*
X50205Y-15587D01*
X50165Y-15592D01*
X50125Y-15597D01*
X50030Y-15617D01*
X50025D01*
X50010Y-15622D01*
X49985Y-15632D01*
X49950Y-15642D01*
X49915Y-15652D01*
X49870Y-15672D01*
X49780Y-15707D01*
X49775D01*
X49760Y-15717D01*
X49735Y-15727D01*
X49705Y-15742D01*
X49635Y-15777D01*
X49565Y-15822D01*
X49560D01*
X49550Y-15832D01*
X49520Y-15852D01*
X49475Y-15877D01*
X49440Y-15902D01*
X49370D01*
Y-15117D01*
X49375Y-15112D01*
X49400Y-15102D01*
X49435Y-15087D01*
X49485Y-15072D01*
X49550Y-15047D01*
X49635Y-15022D01*
X49730Y-14997D01*
X49845Y-14967D01*
X49850D01*
X49860Y-14962D01*
X49875Y-14957D01*
X49900Y-14952D01*
X49930Y-14947D01*
X49965Y-14942D01*
X50045Y-14927D01*
X50140Y-14912D01*
X50245Y-14897D01*
X50355Y-14892D01*
X50470Y-14887D01*
X50530D01*
X50575Y-14892D01*
D02*
G37*
G36*
X119337Y80750D02*
X119392D01*
X119447Y80745D01*
X119577Y80735D01*
X119712Y80720D01*
X119857Y80700D01*
X119992Y80675D01*
X119997D01*
X120007Y80670D01*
X120027Y80665D01*
X120052Y80660D01*
X120082Y80655D01*
X120117Y80645D01*
X120197Y80615D01*
X120287Y80585D01*
X120387Y80540D01*
X120482Y80495D01*
X120577Y80435D01*
X120582D01*
X120587Y80430D01*
X120617Y80405D01*
X120657Y80370D01*
X120707Y80320D01*
X120767Y80260D01*
X120827Y80185D01*
X120882Y80100D01*
X120932Y80005D01*
Y80000D01*
X120937Y79995D01*
X120942Y79980D01*
X120952Y79960D01*
X120962Y79935D01*
X120972Y79905D01*
X120992Y79825D01*
X121012Y79735D01*
X121032Y79625D01*
X121047Y79500D01*
X121052Y79360D01*
Y79295D01*
X121047Y79265D01*
Y79225D01*
X121037Y79135D01*
X121022Y79035D01*
X121002Y78930D01*
X120972Y78820D01*
X120932Y78715D01*
Y78710D01*
X120927Y78705D01*
X120917Y78690D01*
X120907Y78670D01*
X120882Y78625D01*
X120842Y78560D01*
X120792Y78495D01*
X120727Y78420D01*
X120657Y78350D01*
X120572Y78285D01*
X120567D01*
X120562Y78280D01*
X120547Y78270D01*
X120532Y78260D01*
X120477Y78230D01*
X120412Y78195D01*
X120327Y78155D01*
X120227Y78115D01*
X120112Y78075D01*
X119987Y78045D01*
X119982D01*
X119972Y78040D01*
X119952D01*
X119927Y78035D01*
X119892Y78030D01*
X119852Y78020D01*
X119807Y78015D01*
X119752Y78010D01*
X119697Y78000D01*
X119632Y77995D01*
X119497Y77980D01*
X119342Y77975D01*
X119172Y77970D01*
X119167D01*
X119152D01*
X119127D01*
X119092D01*
X119052D01*
X119002Y77975D01*
X118947D01*
X118887Y77980D01*
X118762Y77985D01*
X118622Y78000D01*
X118487Y78015D01*
X118352Y78040D01*
X118347D01*
X118337Y78045D01*
X118317Y78050D01*
X118297Y78055D01*
X118267Y78065D01*
X118232Y78075D01*
X118152Y78100D01*
X118062Y78135D01*
X117962Y78175D01*
X117862Y78230D01*
X117767Y78290D01*
X117762D01*
X117757Y78300D01*
X117727Y78320D01*
X117687Y78360D01*
X117632Y78410D01*
X117572Y78470D01*
X117512Y78545D01*
X117457Y78630D01*
X117407Y78725D01*
Y78730D01*
X117402Y78735D01*
X117397Y78750D01*
X117387Y78770D01*
X117377Y78800D01*
X117367Y78830D01*
X117347Y78905D01*
X117327Y78995D01*
X117307Y79105D01*
X117292Y79225D01*
X117287Y79360D01*
Y79425D01*
X117292Y79460D01*
Y79495D01*
X117302Y79590D01*
X117317Y79690D01*
X117342Y79800D01*
X117372Y79910D01*
X117412Y80010D01*
Y80015D01*
X117417Y80020D01*
X117427Y80035D01*
X117437Y80055D01*
X117462Y80100D01*
X117502Y80160D01*
X117557Y80230D01*
X117617Y80300D01*
X117692Y80375D01*
X117777Y80440D01*
X117782D01*
X117787Y80445D01*
X117802Y80455D01*
X117822Y80465D01*
X117872Y80495D01*
X117942Y80530D01*
X118027Y80570D01*
X118127Y80610D01*
X118242Y80650D01*
X118367Y80680D01*
X118372D01*
X118382Y80685D01*
X118402D01*
X118427Y80690D01*
X118462Y80700D01*
X118502Y80705D01*
X118547Y80710D01*
X118597Y80720D01*
X118657Y80725D01*
X118717Y80730D01*
X118852Y80745D01*
X119007Y80750D01*
X119172Y80755D01*
X119177D01*
X119192D01*
X119217D01*
X119252D01*
X119292D01*
X119337Y80750D01*
D02*
G37*
G36*
X120137Y77190D02*
X120987D01*
Y76310D01*
X120137D01*
Y74725D01*
X119467D01*
X117362Y76280D01*
Y77190D01*
X119487D01*
Y77680D01*
X120137D01*
Y77190D01*
D02*
G37*
%LPC*%
G36*
X119292Y79845D02*
X119172D01*
X119162D01*
X119142D01*
X119107D01*
X119062D01*
X119007Y79840D01*
X118942D01*
X118877Y79835D01*
X118802Y79830D01*
X118642Y79815D01*
X118487Y79795D01*
X118412Y79785D01*
X118347Y79770D01*
X118282Y79750D01*
X118227Y79730D01*
X118222D01*
X118217Y79725D01*
X118182Y79710D01*
X118142Y79680D01*
X118087Y79645D01*
X118037Y79590D01*
X117997Y79530D01*
X117962Y79450D01*
X117957Y79405D01*
X117952Y79360D01*
Y79350D01*
X117957Y79320D01*
X117967Y79270D01*
X117987Y79215D01*
X118017Y79155D01*
X118067Y79095D01*
X118097Y79065D01*
X118137Y79040D01*
X118177Y79010D01*
X118227Y78990D01*
X118232D01*
X118242Y78985D01*
X118257Y78980D01*
X118282Y78975D01*
X118312Y78965D01*
X118347Y78955D01*
X118392Y78945D01*
X118447Y78935D01*
X118507Y78925D01*
X118577Y78915D01*
X118652Y78905D01*
X118737Y78895D01*
X118832Y78890D01*
X118937Y78885D01*
X119052Y78880D01*
X119172D01*
X119177D01*
X119202D01*
X119237D01*
X119282D01*
X119332Y78885D01*
X119397D01*
X119467Y78890D01*
X119537Y78895D01*
X119692Y78905D01*
X119847Y78925D01*
X119922Y78940D01*
X119992Y78955D01*
X120057Y78970D01*
X120112Y78990D01*
X120117D01*
X120122Y78995D01*
X120157Y79010D01*
X120197Y79040D01*
X120247Y79080D01*
X120302Y79130D01*
X120342Y79195D01*
X120377Y79270D01*
X120382Y79315D01*
X120387Y79360D01*
Y79370D01*
X120382Y79405D01*
X120372Y79450D01*
X120352Y79505D01*
X120322Y79565D01*
X120272Y79625D01*
X120237Y79655D01*
X120202Y79685D01*
X120162Y79710D01*
X120112Y79730D01*
X120107D01*
X120097Y79735D01*
X120082Y79740D01*
X120057Y79750D01*
X120027Y79755D01*
X119992Y79765D01*
X119942Y79775D01*
X119892Y79790D01*
X119832Y79800D01*
X119762Y79810D01*
X119687Y79820D01*
X119597Y79825D01*
X119507Y79835D01*
X119402Y79840D01*
X119292Y79845D01*
D02*
G37*
G36*
X119487Y76310D02*
X118257D01*
X119487Y75395D01*
Y76310D01*
D02*
G37*
%LPD*%
D11*
X106299Y0D02*
Y157480D01*
X-0D02*
X106299D01*
X-0Y0D02*
X106299D01*
X-0D02*
Y157480D01*
D13*
X100299Y-18732D02*
X106299Y-16732D01*
X100299Y-14732D02*
X106299Y-16732D01*
X-0D02*
X6000Y-14732D01*
X-0Y-16732D02*
X6000Y-18732D01*
X56020Y-16732D02*
X106299D01*
X-0D02*
X48280D01*
X106299Y-17732D02*
Y-1394D01*
X-0Y-17732D02*
Y-1394D01*
X119095Y157480D02*
X121095Y151480D01*
X117095D02*
X119095Y157480D01*
X117095Y6000D02*
X119095Y0D01*
X121095Y6000D01*
X119095Y81755D02*
Y157480D01*
Y0D02*
Y73725D01*
X107693Y157480D02*
X120095D01*
X107693Y0D02*
X120095D01*
M02*
